<svg width="14" height="15" viewBox="0 0 14 15" fill="none" xmlns="http://www.w3.org/2000/svg">
<path d="M6.11036 3.31652C6.47699 2.57263 7.53768 2.57263 7.90431 3.31652L8.76267 5.05812C8.90834 5.35368 9.19026 5.55851 9.51637 5.60572L11.4167 5.88083C12.236 5.99943 12.5646 7.00527 11.9734 7.58471L10.5858 8.94461C10.3516 9.17409 10.2448 9.50377 10.3 9.82696L10.6269 11.7434C10.7665 12.5615 9.90631 13.1838 9.17298 12.7952L7.4755 11.8959C7.18267 11.7408 6.832 11.7408 6.53917 11.8959L4.84169 12.7952C4.10837 13.1838 3.24822 12.5615 3.38777 11.7434L3.71445 9.82841C3.76971 9.50442 3.66225 9.17395 3.42698 8.94444L2.03478 7.58633C1.44128 7.00736 1.76964 5.99916 2.59027 5.88076L4.49796 5.60552C4.82426 5.55844 5.10639 5.35356 5.25214 5.05785L6.11036 3.31652Z" stroke="#214856" stroke-miterlimit="10"/>
</svg>
