<svg width="14" height="15" viewBox="0 0 14 15" fill="none" xmlns="http://www.w3.org/2000/svg">
<path d="M6.99999 4.62554L7.693 3.93012C8.84541 2.77372 10.6321 2.73854 11.8237 3.84881V3.84881C13.1648 5.09829 13.2344 7.29775 11.9754 8.64089L10.5699 10.1403L8.26782 12.2739C7.54039 12.9481 6.45877 12.9483 5.73116 12.2743L5.31471 11.8886" stroke="#214856" stroke-linecap="round"/>
<path d="M6.99963 4.62539L6.30686 3.93015C5.1545 2.77365 3.36775 2.73842 2.17611 3.8487V3.8487C0.83512 5.09815 0.765517 7.29755 2.02447 8.64065L3.42997 10.1401L5.73169 12.2737C6.45902 12.9479 7.54057 12.9483 8.26824 12.2745L8.68515 11.8884" stroke="#214856" stroke-linecap="round"/>
</svg>
