<svg width="14" height="15" viewBox="0 0 14 15" fill="none" xmlns="http://www.w3.org/2000/svg">
<path d="M12.8335 3.82959C12.8335 2.86309 12.05 2.07959 11.0835 2.07959C10.117 2.07959 9.3335 2.86309 9.3335 3.82959C9.3335 4.79609 10.117 5.57959 11.0835 5.57959C12.05 5.57959 12.8335 4.79609 12.8335 3.82959Z" stroke="#214856"/>
<path d="M4.66675 7.91309C4.66675 6.94659 3.88325 6.16309 2.91675 6.16309C1.95025 6.16309 1.16675 6.94659 1.16675 7.91309C1.16675 8.87958 1.95025 9.66309 2.91675 9.66309C3.88325 9.66309 4.66675 8.87958 4.66675 7.91309Z" stroke="#214856"/>
<path d="M12.8335 11.9961C12.8335 11.0296 12.05 10.2461 11.0835 10.2461C10.117 10.2461 9.3335 11.0296 9.3335 11.9961C9.3335 12.9626 10.117 13.7461 11.0835 13.7461C12.05 13.7461 12.8335 12.9626 12.8335 11.9961Z" stroke="#214856"/>
<path d="M9.33333 4.12109L4.375 6.74609" stroke="#214856" stroke-linecap="round"/>
<path d="M9.33333 11.7046L4.375 9.07959" stroke="#214856" stroke-linecap="round"/>
</svg>
