<svg width="14" height="15" viewBox="0 0 14 15" fill="none" xmlns="http://www.w3.org/2000/svg">
<path d="M12.8335 8.93359C12.8335 6.27572 10.6789 4.12109 8.021 4.12109C5.36313 4.12109 3.2085 6.27572 3.2085 8.93359V12.937C3.2085 13.3087 3.59969 13.5504 3.93215 13.3842L5.13303 12.7836C5.93743 13.388 6.93739 13.7461 8.021 13.7461C10.6789 13.7461 12.8335 11.5915 12.8335 8.93359Z" stroke="#214856"/>
<path d="M10.6959 9.46886C10.9912 9.46886 11.2306 9.22946 11.2306 8.93414C11.2306 8.63882 10.9912 8.39941 10.6959 8.39941C10.4005 8.39941 10.1611 8.63882 10.1611 8.93414C10.1611 9.22946 10.4005 9.46886 10.6959 9.46886Z" fill="#214856"/>
<path d="M8.02227 9.46886C8.31759 9.46886 8.55699 9.22946 8.55699 8.93414C8.55699 8.63882 8.31759 8.39941 8.02227 8.39941C7.72695 8.39941 7.48755 8.63882 7.48755 8.93414C7.48755 9.22946 7.72695 9.46886 8.02227 9.46886Z" fill="#214856"/>
<path d="M5.34893 9.46886C5.64425 9.46886 5.88365 9.22946 5.88365 8.93414C5.88365 8.63882 5.64425 8.39941 5.34893 8.39941C5.05361 8.39941 4.81421 8.63882 4.81421 8.93414C4.81421 9.22946 5.05361 9.46886 5.34893 9.46886Z" fill="#214856"/>
<path d="M3.09128 10.7421L1.8904 11.3427C1.55795 11.5089 1.16675 11.2672 1.16675 10.8955V6.89209C1.16675 4.23422 3.32138 2.07959 5.97925 2.07959C7.84942 2.07959 9.47044 3.14636 10.267 4.70459" stroke="#214856"/>
</svg>
