<svg width="16" height="17" viewBox="0 0 16 17" fill="none" xmlns="http://www.w3.org/2000/svg">
<path d="M9.2412 8.42039L5.5842 4.76339C5.51111 4.69683 5.45212 4.61629 5.41072 4.52652C5.36931 4.43676 5.34634 4.3396 5.34316 4.2408C5.33997 4.142 5.35664 4.04357 5.39218 3.95132C5.42772 3.85908 5.4814 3.77491 5.55005 3.70378C5.6187 3.63265 5.70092 3.57602 5.79185 3.53724C5.88277 3.49846 5.98056 3.47832 6.07941 3.478C6.17826 3.47768 6.27617 3.4972 6.36734 3.5354C6.45851 3.5736 6.5411 3.6297 6.6102 3.70039L6.6282 3.71839L10.8082 7.89739C10.9468 8.03597 11.0246 8.22392 11.0246 8.41989C11.0246 8.61586 10.9468 8.8038 10.8082 8.94239L6.6292 13.1214C6.56177 13.1912 6.48125 13.247 6.39224 13.2857C6.30322 13.3244 6.20747 13.3451 6.11043 13.3468C6.01339 13.3485 5.91698 13.331 5.82669 13.2954C5.73639 13.2598 5.654 13.2068 5.5842 13.1394C5.5144 13.072 5.45857 12.9914 5.41989 12.9024C5.38121 12.8134 5.36045 12.7177 5.35877 12.6206C5.3571 12.5236 5.37456 12.4272 5.41015 12.3369C5.44574 12.2466 5.49877 12.1642 5.5662 12.0944L5.5842 12.0764L9.2412 8.42039Z" fill="#4FB6B0" stroke="#4FB6B0" stroke-width="0.5"/>
</svg>
