<svg width="25" height="25" viewBox="0 0 25 25" fill="none" xmlns="http://www.w3.org/2000/svg">
<path d="M5.66694 20.02C5.05694 20.02 4.48694 19.81 4.07694 19.42C3.55694 18.93 3.30694 18.19 3.39694 17.39L3.76694 14.15C3.83694 13.54 4.20694 12.73 4.63694 12.29L12.8469 3.59999C14.8969 1.42999 17.0369 1.36999 19.2069 3.41999C21.3769 5.46999 21.4369 7.60999 19.3869 9.77999L11.1769 18.47C10.7569 18.92 9.97694 19.34 9.36694 19.44L6.14694 19.99C5.97694 20 5.82694 20.02 5.66694 20.02ZM16.0569 3.40999C15.2869 3.40999 14.6169 3.88999 13.9369 4.60999L5.72694 13.31C5.52694 13.52 5.29694 14.02 5.25694 14.31L4.88694 17.55C4.84694 17.88 4.92694 18.15 5.10694 18.32C5.28694 18.49 5.55694 18.55 5.88694 18.5L9.10694 17.95C9.39694 17.9 9.87694 17.64 10.0769 17.43L18.2869 8.73999C19.5269 7.41999 19.9769 6.19999 18.1669 4.49999C17.3669 3.72999 16.6769 3.40999 16.0569 3.40999Z" fill="white"/>
<path d="M17.4654 11.45C17.4454 11.45 17.4154 11.45 17.3954 11.45C14.2754 11.14 11.7654 8.76997 11.2854 5.66997C11.2254 5.25997 11.5054 4.87997 11.9154 4.80997C12.3254 4.74997 12.7054 5.02997 12.7754 5.43997C13.1554 7.85997 15.1154 9.71997 17.5554 9.95997C17.9654 9.99997 18.2654 10.37 18.2254 10.78C18.1754 11.16 17.8454 11.45 17.4654 11.45Z" fill="white"/>
<path d="M21.125 23.25H3.125C2.715 23.25 2.375 22.91 2.375 22.5C2.375 22.09 2.715 21.75 3.125 21.75H21.125C21.535 21.75 21.875 22.09 21.875 22.5C21.875 22.91 21.535 23.25 21.125 23.25Z" fill="white"/>
</svg>
