<svg width="24" height="25" viewBox="0 0 24 25" fill="none" xmlns="http://www.w3.org/2000/svg">
<path d="M4.5 4.5L4.5 22.25C4.5 22.3881 4.61193 22.5 4.75 22.5L19.25 22.5C19.3881 22.5 19.5 22.3881 19.5 22.25V4.5C19.5 3.39543 18.6046 2.5 17.5 2.5H6.5C5.39543 2.5 4.5 3.39543 4.5 4.5Z" stroke="#214856" stroke-width="1.5"/>
<path d="M10 22.5V19C10 18.7239 10.2239 18.5 10.5 18.5H13.5C13.7761 18.5 14 18.7239 14 19V22.5" stroke="#214856" stroke-width="1.5"/>
<path d="M7.75 5.7V7.3C7.75 7.41046 7.83954 7.5 7.95 7.5H10.05C10.1605 7.5 10.25 7.41046 10.25 7.3V5.7C10.25 5.58954 10.1605 5.5 10.05 5.5H7.95C7.83954 5.5 7.75 5.58954 7.75 5.7Z" fill="#214856"/>
<path d="M7.75 9.7V11.3C7.75 11.4105 7.83954 11.5 7.95 11.5H10.05C10.1605 11.5 10.25 11.4105 10.25 11.3V9.7C10.25 9.58954 10.1605 9.5 10.05 9.5H7.95C7.83954 9.5 7.75 9.58954 7.75 9.7Z" fill="#214856"/>
<path d="M7.75 13.7V15.3C7.75 15.4105 7.83954 15.5 7.95 15.5H10.05C10.1605 15.5 10.25 15.4105 10.25 15.3V13.7C10.25 13.5895 10.1605 13.5 10.05 13.5H7.95C7.83954 13.5 7.75 13.5895 7.75 13.7Z" fill="#214856"/>
<path d="M13.75 5.7V7.3C13.75 7.41046 13.8395 7.5 13.95 7.5H16.05C16.1605 7.5 16.25 7.41046 16.25 7.3V5.7C16.25 5.58954 16.1605 5.5 16.05 5.5H13.95C13.8395 5.5 13.75 5.58954 13.75 5.7Z" fill="#214856"/>
<path d="M13.75 9.7V11.3C13.75 11.4105 13.8395 11.5 13.95 11.5H16.05C16.1605 11.5 16.25 11.4105 16.25 11.3V9.7C16.25 9.58954 16.1605 9.5 16.05 9.5H13.95C13.8395 9.5 13.75 9.58954 13.75 9.7Z" fill="#214856"/>
<path d="M13.75 13.7V15.3C13.75 15.4105 13.8395 15.5 13.95 15.5H16.05C16.1605 15.5 16.25 15.4105 16.25 15.3V13.7C16.25 13.5895 16.1605 13.5 16.05 13.5H13.95C13.8395 13.5 13.75 13.5895 13.75 13.7Z" fill="#214856"/>
</svg>
