<svg width="25" height="25" viewBox="0 0 25 25" fill="none" xmlns="http://www.w3.org/2000/svg">
<path d="M9.93838 6.93768C9.97877 6.78449 10.0002 6.62483 10.0002 6.46101C10.0002 5.34561 9.00847 4.49976 7.78144 4.49976C6.69081 4.49976 5.78058 5.168 5.59168 6.09981C5.40279 7.03162 4.73654 5.49988 4.00016 5.49988C3.26378 5.49988 3 6.63706 3 7.29978C3 7.96251 3.26378 8.49976 4.00016 8.49976H8.66683C9.40321 8.49976 10.0002 7.96251 10.0002 7.29978C10.0002 7.17358 9.97851 7.05193 9.93838 6.93768Z" stroke="#214856" stroke-width="0.875"/>
<path d="M17.9994 2.5C17.9994 3.8178 15.8044 5 14.5 5" stroke="#214856" stroke-width="0.875" stroke-linecap="round"/>
<path d="M18 6C18 7.3178 16.3044 8 15 8" stroke="#214856" stroke-width="0.875" stroke-linecap="round"/>
<path d="M17.9999 2.5C17.9999 3.8178 20.1958 5 21.5002 5" stroke="#214856" stroke-width="0.875" stroke-linecap="round"/>
<path d="M18.0002 6C18.0002 7.3178 19.6958 8 21.0002 8" stroke="#214856" stroke-width="0.875" stroke-linecap="round"/>
<path d="M18 11.5V2.5" stroke="#214856" stroke-width="0.875" stroke-linecap="round"/>
<path d="M2.6645 22.0979L6.92586 11.6812C6.9707 11.5716 7.07738 11.5 7.19581 11.5H17.8042C17.9226 11.5 18.0293 11.5716 18.0741 11.6812L22.3355 22.0979C22.414 22.2898 22.2729 22.5 22.0656 22.5H10H6H2.93445C2.72713 22.5 2.586 22.2898 2.6645 22.0979Z" stroke="#214856" stroke-width="0.875"/>
<path d="M2.6645 22.0979L6.71404 12.199C6.81502 11.9522 7.16696 11.9591 7.2581 12.2098L10.8577 22.1087C10.9269 22.2989 10.786 22.5 10.5836 22.5H6H2.93445C2.72713 22.5 2.586 22.2898 2.6645 22.0979Z" stroke="#214856" stroke-width="0.875"/>
<path d="M7 22V13.5" stroke="#214856" stroke-width="0.875" stroke-linecap="round"/>
</svg>
