<svg width="25" height="25" viewBox="0 0 25 25" fill="none" xmlns="http://www.w3.org/2000/svg">
<path d="M11.6157 3.31994C11.9824 2.57605 13.0431 2.57605 13.4097 3.31994L15.6881 7.94276C15.8338 8.23833 16.1157 8.44316 16.4418 8.49037L21.5001 9.22264C22.3194 9.34125 22.6481 10.3471 22.0568 10.9265L18.3802 14.5297C18.146 14.7592 18.0392 15.0889 18.0944 15.4121L18.9618 20.4969C19.1013 21.3149 18.2412 21.9372 17.5078 21.5487L12.9809 19.1502C12.6881 18.9951 12.3374 18.9951 12.0446 19.1502L7.5176 21.5487C6.78427 21.9372 5.92412 21.3149 6.06367 20.4969L6.93081 15.4135C6.98608 15.0896 6.87861 14.7591 6.64334 14.5296L2.95153 10.9281C2.35803 10.3492 2.68639 9.34098 3.50701 9.22258L8.5833 8.49016C8.9096 8.44308 9.19173 8.2382 9.33748 7.94249L11.6157 3.31994Z" stroke="white" stroke-width="1.5" stroke-miterlimit="10"/>
</svg>
