<svg width="24" height="25" viewBox="0 0 24 25" fill="none" xmlns="http://www.w3.org/2000/svg">
<path d="M5.5 21.7393V8C5.5 6.89543 6.39543 6 7.5 6H20C21.1046 6 22 6.89543 22 8V18.6667C22 19.7712 21.1046 20.6667 20 20.6667H10.1565C9.88362 20.6667 9.61364 20.7225 9.36317 20.8307L6.19833 22.1983C5.86823 22.3409 5.5 22.0989 5.5 21.7393Z" stroke="#214856" stroke-width="1.5"/>
<path d="M9.16614 15.1667H14.2078" stroke="#214856" stroke-width="1.5" stroke-linecap="round"/>
<path d="M9.16614 11.5H16.9578" stroke="#214856" stroke-width="1.5" stroke-linecap="round"/>
<path d="M18.5 5.5V4.5C18.5 3.39543 17.6046 2.5 16.5 2.5H4C2.89543 2.5 2 3.39543 2 4.5V18.2393C2 18.5989 2.36823 18.8409 2.69833 18.6983L5 17.7037" stroke="#214856" stroke-width="1.5"/>
</svg>
