<svg width="25" height="25" viewBox="0 0 25 25" fill="none" xmlns="http://www.w3.org/2000/svg">
<path d="M22.25 20.7499L15.5 9.27491C15.4909 9.23393 15.4783 9.19379 15.4625 9.15491L13.355 5.44991L14.6525 3.11741C14.7519 2.94336 14.7782 2.73693 14.7254 2.54354C14.6727 2.35014 14.5453 2.18562 14.3712 2.08616C14.1972 1.9867 13.9908 1.96046 13.7974 2.01321C13.604 2.06595 13.4394 2.19336 13.34 2.36741L12.5 3.90491L11.6525 2.40491C11.553 2.23086 11.3885 2.10345 11.1951 2.05071C11.0017 1.99796 10.7953 2.0242 10.6212 2.12366C10.4472 2.22312 10.3198 2.38764 10.267 2.58104C10.2143 2.77443 10.2405 2.98086 10.34 3.15491L11.645 5.44991L9.59749 9.13241C9.58144 9.17121 9.56889 9.21137 9.55999 9.25241L2.74999 20.7499C2.61871 20.9773 2.54941 21.2351 2.54901 21.4977C2.54861 21.7602 2.61713 22.0182 2.74772 22.246C2.8783 22.4738 3.06638 22.6633 3.29315 22.7956C3.51993 22.9279 3.77745 22.9983 4.03999 22.9999H20.9375C21.2019 23.0023 21.4623 22.9347 21.6922 22.804C21.9221 22.6733 22.1134 22.4842 22.2467 22.2558C22.3799 22.0273 22.4504 21.7677 22.451 21.5033C22.4516 21.2388 22.3822 20.9789 22.25 20.7499ZM10.025 21.4999L12.5 17.0449L14.975 21.4999H10.025ZM16.6925 21.4999L13.16 15.1324C13.0951 15.0152 13.0001 14.9175 12.8846 14.8494C12.7692 14.7814 12.6377 14.7455 12.5037 14.7455C12.3698 14.7455 12.2382 14.7814 12.1228 14.8494C12.0074 14.9175 11.9123 15.0152 11.8475 15.1324L8.30749 21.4999H4.06249L12.5 7.24991L20.9375 21.4999H16.6925Z" fill="#214856" stroke="#214856" stroke-width="0.6"/>
</svg>
