<svg width="24" height="25" viewBox="0 0 24 25" fill="none" xmlns="http://www.w3.org/2000/svg">
<path d="M2.5 20V13.1943C2.5 12.7446 2.65157 12.308 2.93023 11.955L9.09916 4.14107C9.66808 3.42043 10.5357 3 11.4538 3H12.5462C13.4643 3 14.3319 3.42043 14.9008 4.14107L21.0698 11.955C21.3484 12.308 21.5 12.7446 21.5 13.1943V20C21.5 21.1046 20.6046 22 19.5 22H4.5C3.39543 22 2.5 21.1046 2.5 20Z" stroke="#214856" stroke-width="1.5"/>
<path d="M16.5 6.5C16.188 6.5 15.8699 6.62487 15.5636 6.82314C14.6525 7.41302 13.3475 7.41302 12.4364 6.82314C12.1301 6.62487 11.812 6.5 11.5 6.5C11.1629 6.5 10.8188 6.64572 10.4901 6.87227C9.63069 7.46471 8.36098 7.47198 7.5 6.88181V6.88181" stroke="#214856" stroke-width="1.5"/>
<path d="M16.5 6.5C16.188 6.5 15.8699 6.62487 15.5636 6.82314C14.6525 7.41302 13.3475 7.41302 12.4364 6.82314C12.1301 6.62487 11.812 6.5 11.5 6.5C11.1629 6.5 10.8188 6.64572 10.4901 6.87227C9.63069 7.46471 8.36098 7.47198 7.5 6.88181V6.88181" stroke="#214856" stroke-width="1.5"/>
<path d="M3 12.5C5.5 12 8.47365 11.5 12 11.5C15.5264 11.5 18.5 12 21 12.5" stroke="#214856" stroke-width="1.5" stroke-linecap="round"/>
<path d="M8.5 22.5V18.5C8.5 16.8431 9.84315 15.5 11.5 15.5H12.5C14.1569 15.5 15.5 16.8431 15.5 18.5V22.5" stroke="#214856" stroke-width="1.5"/>
</svg>
