<svg width="25" height="25" viewBox="0 0 25 25" fill="none" xmlns="http://www.w3.org/2000/svg">
<path d="M12.125 23.25C6.195 23.25 1.375 18.43 1.375 12.5C1.375 6.57 6.195 1.75 12.125 1.75C18.055 1.75 22.875 6.57 22.875 12.5C22.875 18.43 18.055 23.25 12.125 23.25ZM12.125 3.25C7.025 3.25 2.875 7.4 2.875 12.5C2.875 17.6 7.025 21.75 12.125 21.75C17.225 21.75 21.375 17.6 21.375 12.5C21.375 7.4 17.225 3.25 12.125 3.25Z" fill="white"/>
<path d="M9.29437 16.08C9.10437 16.08 8.91438 16.01 8.76438 15.86C8.47438 15.57 8.47438 15.09 8.76438 14.8L14.4244 9.13999C14.7144 8.84999 15.1944 8.84999 15.4844 9.13999C15.7744 9.42999 15.7744 9.90998 15.4844 10.2L9.82437 15.86C9.68437 16.01 9.48437 16.08 9.29437 16.08Z" fill="white"/>
<path d="M14.9544 16.08C14.7644 16.08 14.5744 16.01 14.4244 15.86L8.76438 10.2C8.47438 9.90998 8.47438 9.42999 8.76438 9.13999C9.05437 8.84999 9.53437 8.84999 9.82437 9.13999L15.4844 14.8C15.7744 15.09 15.7744 15.57 15.4844 15.86C15.3344 16.01 15.1444 16.08 14.9544 16.08Z" fill="white"/>
</svg>
