<svg width="15" height="14" viewBox="0 0 15 14" fill="none" xmlns="http://www.w3.org/2000/svg">
<path d="M6.19813 0.0196609C6.1457 0.0376835 6.04739 0.104856 6.01299 0.147455C5.9835 0.181861 5.90485 0.335869 5.85734 0.450556C5.83604 0.504622 5.71972 0.770041 5.60011 1.04037C5.48051 1.31071 5.3478 1.61217 5.30521 1.71211C5.26261 1.81042 5.10368 2.1725 4.95295 2.51492C4.80222 2.85734 4.64657 3.21124 4.60725 3.30135C4.56793 3.39146 4.47454 3.60445 4.39918 3.77648L4.26319 4.08777L2.42001 4.09596L0.578465 4.10415L0.489992 4.15331C0.244234 4.28929 0.186891 4.60386 0.367113 4.81521C0.455586 4.91843 0.535867 4.95284 0.709535 4.96431C0.855352 4.9725 0.855352 4.9725 0.868459 5.02165C0.875012 5.04786 0.922526 5.30673 0.971677 5.59509C1.0749 6.19637 1.11749 6.37496 1.20105 6.56829C1.29772 6.79438 1.38783 6.91562 1.63686 7.14664C1.65488 7.16302 1.66799 7.19579 1.66799 7.22036C1.66799 7.24658 1.68765 7.34652 1.71059 7.44646C1.82364 7.93634 1.822 7.92978 2.28402 10.4611C2.33317 10.7314 2.41018 11.1476 2.45442 11.3868C2.49865 11.626 2.56091 11.9684 2.59368 12.147C2.6887 12.6778 2.74769 12.9531 2.79356 13.0792C2.97051 13.5724 3.24576 13.8509 3.66682 13.9623L3.80608 14H7.65629H11.5065L11.6376 13.9558C11.8096 13.8968 11.9079 13.8378 12.0422 13.7133C12.1831 13.5839 12.324 13.3741 12.4125 13.1595C12.4994 12.9531 12.5256 12.8482 12.619 12.337C12.7353 11.7079 12.8401 11.1246 12.8926 10.8215C12.9204 10.6675 12.9679 10.4103 12.9974 10.2497C13.0286 10.0875 13.0515 9.95155 13.0482 9.94827C13.0433 9.945 12.9089 10.0417 12.7484 10.1613C12.5878 10.2825 12.365 10.4431 12.252 10.5184C12.1389 10.5922 12.0439 10.6561 12.0422 10.6593C12.039 10.661 12.0046 10.8428 11.9652 11.0624C11.672 12.6926 11.649 12.7909 11.5294 12.9776C11.4311 13.13 11.4688 13.1235 10.7938 13.1235H10.2007L10.2105 13.0792C10.2154 13.053 10.2531 12.8007 10.2941 12.5173C10.3334 12.2338 10.4039 11.7472 10.4497 11.4376C10.494 11.1279 10.5317 10.8707 10.5317 10.869C10.5317 10.8674 10.453 10.8166 10.3563 10.7593C10.258 10.7003 10.0745 10.5823 9.94675 10.4971L9.71246 10.3431L9.70427 10.3939C9.68133 10.5283 9.46343 12.0274 9.37659 12.6483C9.34546 12.8695 9.31597 13.0661 9.31106 13.0858L9.30287 13.1235H8.70485H8.10684V10.8543V8.58678L8.04295 8.4426C7.82832 7.95272 7.78408 7.47104 7.90205 6.8976C7.92334 6.79438 7.95611 6.66004 7.97413 6.59941L8.0069 6.488L5.12007 6.48473C1.90228 6.47981 2.189 6.48964 2.0825 6.36676C1.97109 6.24225 1.93832 6.1079 1.75483 5.01674L1.74499 4.96431H7.66284C10.9167 4.96431 13.5791 4.96595 13.5791 4.96922C13.5791 4.9725 13.5496 5.11012 13.5135 5.2756C13.4775 5.43944 13.4496 5.57706 13.4513 5.5787C13.4545 5.58198 13.5053 5.60655 13.5659 5.63277C13.6987 5.69339 13.8051 5.78841 14.0181 6.04236C14.1033 6.14394 14.1754 6.22586 14.1787 6.22259C14.1836 6.21603 14.3114 5.65243 14.3819 5.32475C14.4097 5.19368 14.4392 5.05933 14.449 5.02493L14.4654 4.96431H14.567C14.8996 4.96431 15.1044 4.61697 14.9455 4.3237C14.8914 4.2254 14.8128 4.15822 14.7046 4.12218C14.6342 4.09924 14.4425 4.09596 12.8287 4.09596H11.0314L10.3023 2.14956C9.50275 0.0147457 9.54698 0.117964 9.37659 0.0393209L9.29467 0L7.77097 0.00163841C6.75354 0.00163841 6.23089 0.00819206 6.19813 0.0196609ZM8.91457 0.928965C8.92767 0.96337 9.18654 1.65313 9.48964 2.46085C9.79274 3.27022 10.0549 3.96817 10.0729 4.01404L10.1057 4.09596H7.65629H5.20526L5.22492 4.06156C5.23476 4.04353 5.28063 3.93704 5.32814 3.82891C5.44119 3.5684 5.67057 3.04412 5.82457 2.69514C5.89175 2.54113 5.97367 2.35764 6.0048 2.28555C6.03592 2.21346 6.09818 2.07256 6.14078 1.97425C6.23908 1.75471 6.46191 1.24517 6.55529 1.02891L6.62411 0.869983L7.75623 0.868344H8.88999L8.91457 0.928965ZM4.35494 7.3629C4.35494 7.37765 4.42212 7.95436 4.4942 8.55237C4.53516 8.88988 4.59415 9.38467 4.62528 9.65009C4.72849 10.5365 4.78092 10.9805 4.86284 11.6653C4.99719 12.7941 5.02668 13.0448 5.02668 13.0841V13.1235H4.45816C3.92077 13.1235 3.88636 13.1218 3.82083 13.0907C3.6832 13.0235 3.60128 12.8286 3.51937 12.378C3.38502 11.6391 3.16711 10.4414 3.05079 9.81393C3.00983 9.59274 2.95576 9.29456 2.92955 9.15038C2.7952 8.39181 2.66413 7.70532 2.62808 7.55296C2.60515 7.45793 2.58549 7.37601 2.58549 7.36782C2.58549 7.36126 2.98361 7.35635 3.47021 7.35635C3.95681 7.35635 4.35494 7.35963 4.35494 7.3629ZM7.22212 10.2399V13.1235H6.57495C6.0605 13.1235 5.92779 13.1185 5.92779 13.1022C5.92779 13.0907 5.9196 13.0186 5.91141 12.9432C5.90158 12.8662 5.89175 12.7712 5.88683 12.7303C5.88192 12.6893 5.84915 12.4124 5.8131 12.1159C5.77706 11.8177 5.73282 11.4425 5.7148 11.2803C5.69678 11.1181 5.64435 10.6757 5.59848 10.2972C5.37238 8.39672 5.25605 7.40878 5.25605 7.37601C5.25605 7.36126 5.46413 7.35635 6.23908 7.35635H7.22212V10.2399Z" fill="white"/>
<path d="M9.68864 5.65408C9.19549 5.75075 8.82685 6.05549 8.57946 6.56339C8.41889 6.89434 8.35827 7.20236 8.37466 7.60212C8.40251 8.25584 8.67448 8.82272 9.23153 9.37977C9.62475 9.77298 10.2178 10.176 10.8994 10.5119C11.2254 10.6741 11.232 10.6741 11.558 10.5119C12.2298 10.1809 12.7721 9.81558 13.1768 9.42073C13.5126 9.09305 13.7223 8.80961 13.8731 8.47702C14.0074 8.17556 14.068 7.92488 14.0828 7.60212C14.1057 7.07456 13.9616 6.59943 13.6584 6.20622C13.4618 5.95391 13.1915 5.77041 12.8835 5.68194C12.7016 5.63115 12.3395 5.62951 12.1495 5.68194C11.848 5.76385 11.6105 5.90476 11.368 6.1456L11.2254 6.2865L11.0632 6.12921C10.8126 5.8851 10.6012 5.76058 10.3047 5.68357C10.1605 5.64425 9.81644 5.62787 9.68864 5.65408ZM10.0753 6.4061C10.1245 6.41429 10.2244 6.45198 10.2965 6.48802C10.4079 6.54209 10.4538 6.57813 10.575 6.70593C10.6553 6.78948 10.7618 6.92383 10.8109 7.00411C10.9649 7.25479 11.06 7.3236 11.2467 7.3236C11.3418 7.3236 11.4499 7.27445 11.5072 7.204C11.5318 7.1745 11.5957 7.08112 11.6514 6.99592C11.7071 6.91072 11.8136 6.77474 11.8906 6.6961C12.061 6.51915 12.2216 6.43068 12.4231 6.40119C12.8638 6.33729 13.2276 6.69446 13.3193 7.27936C13.3586 7.52348 13.3078 7.89048 13.2046 8.13132C13.0326 8.52945 12.6394 8.95871 12.1053 9.3257C11.8284 9.5174 11.2844 9.83033 11.2287 9.83033C11.1779 9.83033 10.6586 9.53378 10.3718 9.34045C9.84265 8.98492 9.4265 8.53436 9.25283 8.13132C9.14961 7.89048 9.09882 7.52348 9.13815 7.27936C9.19385 6.92547 9.36588 6.62401 9.59034 6.48966C9.74435 6.39627 9.88853 6.3717 10.0753 6.4061Z" fill="white"/>
</svg>
