<svg width="16" height="16" viewBox="0 0 16 16" fill="none" xmlns="http://www.w3.org/2000/svg">
<g id="vuesax/outline/add">
<g id="add">
<g id="Group 126625">
<path id="Vector" d="M12.6946 5.01008L8.10594 11.5633C7.94916 11.7872 7.63348 11.8429 7.40958 11.6861C7.18567 11.5293 7.13001 11.2136 7.28679 10.9897L11.8754 4.4365C12.0322 4.2126 12.3479 4.15693 12.5718 4.31371C12.7957 4.47049 12.8513 4.78617 12.6946 5.01008Z" fill="#214856"/>
<path id="Vector_2" d="M8.21928 11.5634C8.0625 11.7873 7.80871 11.8863 7.65944 11.7818L3.29063 8.72269C3.14136 8.61817 3.14759 8.34582 3.30437 8.12192C3.46114 7.89802 3.71494 7.79902 3.86421 7.90353L8.23302 10.9626C8.38228 11.0671 8.37606 11.3395 8.21928 11.5634Z" fill="#214856"/>
</g>
</g>
</g>
</svg>
