<svg width="25" height="25" viewBox="0 0 25 25" fill="none" xmlns="http://www.w3.org/2000/svg">
<path d="M22.5 18.75H15.5C15.09 18.75 14.75 18.41 14.75 18C14.75 17.59 15.09 17.25 15.5 17.25H22.5C22.91 17.25 23.25 17.59 23.25 18C23.25 18.41 22.91 18.75 22.5 18.75Z" fill="white"/>
<path d="M5.5 18.75H2.5C2.09 18.75 1.75 18.41 1.75 18C1.75 17.59 2.09 17.25 2.5 17.25H5.5C5.91 17.25 6.25 17.59 6.25 18C6.25 18.41 5.91 18.75 5.5 18.75Z" fill="white"/>
<path d="M22.5 7.75H19.5C19.09 7.75 18.75 7.41 18.75 7C18.75 6.59 19.09 6.25 19.5 6.25H22.5C22.91 6.25 23.25 6.59 23.25 7C23.25 7.41 22.91 7.75 22.5 7.75Z" fill="white"/>
<path d="M9.5 7.75H2.5C2.09 7.75 1.75 7.41 1.75 7C1.75 6.59 2.09 6.25 2.5 6.25H9.5C9.91 6.25 10.25 6.59 10.25 7C10.25 7.41 9.91 7.75 9.5 7.75Z" fill="white"/>
<path d="M13.5 21.75H7.5C5.78 21.75 4.75 20.72 4.75 19V17C4.75 15.28 5.78 14.25 7.5 14.25H13.5C15.22 14.25 16.25 15.28 16.25 17V19C16.25 20.72 15.22 21.75 13.5 21.75ZM7.5 15.75C6.61 15.75 6.25 16.11 6.25 17V19C6.25 19.89 6.61 20.25 7.5 20.25H13.5C14.39 20.25 14.75 19.89 14.75 19V17C14.75 16.11 14.39 15.75 13.5 15.75H7.5Z" fill="white"/>
<path d="M17.5 10.75H11.5C9.78 10.75 8.75 9.72 8.75 8V6C8.75 4.28 9.78 3.25 11.5 3.25H17.5C19.22 3.25 20.25 4.28 20.25 6V8C20.25 9.72 19.22 10.75 17.5 10.75ZM11.5 4.75C10.61 4.75 10.25 5.11 10.25 6V8C10.25 8.89 10.61 9.25 11.5 9.25H17.5C18.39 9.25 18.75 8.89 18.75 8V6C18.75 5.11 18.39 4.75 17.5 4.75H11.5Z" fill="white"/>
</svg>
