<svg width="28" height="29" viewBox="0 0 28 29" fill="none" xmlns="http://www.w3.org/2000/svg">
<path d="M25.375 24.125L17.5 10.7375C17.4894 10.6897 17.4747 10.6429 17.4563 10.5975L14.9975 6.275L16.5113 3.55375C16.6273 3.35069 16.6579 3.10986 16.5964 2.88423C16.5348 2.6586 16.3862 2.46665 16.1831 2.35062C15.9801 2.23459 15.7392 2.20397 15.5136 2.26551C15.288 2.32705 15.096 2.47569 14.98 2.67875L14 4.4725L13.0113 2.7225C12.8952 2.51944 12.7033 2.3708 12.4777 2.30926C12.252 2.24772 12.0112 2.27834 11.8081 2.39437C11.6051 2.5104 11.4564 2.70235 11.3949 2.92798C11.3334 3.15361 11.364 3.39444 11.48 3.5975L13.0025 6.275L10.6138 10.5712C10.595 10.6165 10.5804 10.6634 10.57 10.7112L2.62501 24.125C2.47185 24.3903 2.391 24.6911 2.39054 24.9974C2.39007 25.3037 2.47001 25.6047 2.62236 25.8705C2.7747 26.1362 2.99413 26.3573 3.2587 26.5116C3.52327 26.666 3.82371 26.7482 4.13001 26.75H23.8438C24.1523 26.7528 24.456 26.6739 24.7243 26.5215C24.9925 26.369 25.2157 26.1483 25.3711 25.8818C25.5266 25.6153 25.6088 25.3125 25.6095 25.0039C25.6102 24.6954 25.5293 24.3922 25.375 24.125ZM11.1125 25L14 19.8025L16.8875 25H11.1125ZM18.8913 25L14.77 17.5712C14.6943 17.4345 14.5834 17.3205 14.4488 17.2411C14.3141 17.1617 14.1607 17.1199 14.0044 17.1199C13.8481 17.1199 13.6946 17.1617 13.56 17.2411C13.4253 17.3205 13.3144 17.4345 13.2388 17.5712L9.10876 25H4.15626L14 8.375L23.8438 25H18.8913Z" fill="#214856" stroke="#214856" stroke-width="0.6"/>
</svg>
