<svg width="20" height="21" viewBox="0 0 20 21" fill="none" xmlns="http://www.w3.org/2000/svg">
<g clip-path="url(#clip0_77_8132)">
<path d="M14.1665 2.91325H17.4998C17.7209 2.91325 17.9328 3.00105 18.0891 3.15733C18.2454 3.31361 18.3332 3.52557 18.3332 3.74658V17.0799C18.3332 17.3009 18.2454 17.5129 18.0891 17.6692C17.9328 17.8255 17.7209 17.9132 17.4998 17.9132H2.49984C2.27882 17.9132 2.06686 17.8255 1.91058 17.6692C1.7543 17.5129 1.6665 17.3009 1.6665 17.0799V3.74658C1.6665 3.52557 1.7543 3.31361 1.91058 3.15733C2.06686 3.00105 2.27882 2.91325 2.49984 2.91325H5.83317V1.24658H7.49984V2.91325H12.4998V1.24658H14.1665V2.91325ZM12.4998 4.57992H7.49984V6.24658H5.83317V4.57992H3.33317V7.91325H16.6665V4.57992H14.1665V6.24658H12.4998V4.57992ZM16.6665 9.57992H3.33317V16.2466H16.6665V9.57992Z" fill="#214856"/>
</g>
<defs>
<clipPath id="clip0_77_8132">
<rect width="20" height="20" fill="white" transform="translate(0 0.413086)"/>
</clipPath>
</defs>
</svg>
