<svg width="20" height="21" viewBox="0 0 20 21" fill="none" xmlns="http://www.w3.org/2000/svg">
<g clip-path="url(#clip0_77_8156)">
<path d="M1.66675 18.7466C1.66675 16.9785 2.36913 15.2828 3.61937 14.0325C4.86961 12.7823 6.56531 12.0799 8.33342 12.0799C10.1015 12.0799 11.7972 12.7823 13.0475 14.0325C14.2977 15.2828 15.0001 16.9785 15.0001 18.7466H13.3334C13.3334 17.4205 12.8066 16.1487 11.8689 15.211C10.9313 14.2734 9.6595 13.7466 8.33342 13.7466C7.00733 13.7466 5.73556 14.2734 4.79788 15.211C3.8602 16.1487 3.33341 17.4205 3.33341 18.7466H1.66675ZM8.33342 11.2466C5.57092 11.2466 3.33341 9.00908 3.33341 6.24658C3.33341 3.48408 5.57092 1.24658 8.33342 1.24658C11.0959 1.24658 13.3334 3.48408 13.3334 6.24658C13.3334 9.00908 11.0959 11.2466 8.33342 11.2466ZM8.33342 9.57991C10.1751 9.57991 11.6667 8.08825 11.6667 6.24658C11.6667 4.40492 10.1751 2.91325 8.33342 2.91325C6.49175 2.91325 5.00008 4.40492 5.00008 6.24658C5.00008 8.08825 6.49175 9.57991 8.33342 9.57991ZM15.2367 12.6657C16.4079 13.1932 17.4017 14.0476 18.0989 15.1263C18.7961 16.2051 19.1669 17.4622 19.1667 18.7466H17.5001C17.5003 17.7832 17.2222 16.8403 16.6993 16.0312C16.1764 15.2221 15.431 14.5813 14.5526 14.1857L15.2359 12.6657H15.2367ZM14.6634 3.25742C15.503 3.6035 16.2209 4.1912 16.7259 4.94594C17.231 5.70068 17.5004 6.58845 17.5001 7.49658C17.5004 8.64019 17.0732 9.7426 16.3022 10.5873C15.5312 11.4319 14.4723 11.9578 13.3334 12.0616V10.3841C13.9509 10.2956 14.5237 10.0116 14.9678 9.57363C15.412 9.13566 15.704 8.56685 15.801 7.95069C15.8981 7.33454 15.7951 6.7035 15.5071 6.15021C15.2191 5.59692 14.7613 5.15054 14.2009 4.87658L14.6634 3.25742Z" fill="#214856"/>
</g>
<defs>
<clipPath id="clip0_77_8156">
<rect width="20" height="20" fill="white" transform="translate(0 0.413086)"/>
</clipPath>
</defs>
</svg>
