<svg width="20" height="21" viewBox="0 0 20 21" fill="none" xmlns="http://www.w3.org/2000/svg">
<g clip-path="url(#clip0_77_8144)">
<path d="M16.6668 18.7466H15.0002V17.0799C15.0002 16.4169 14.7368 15.781 14.2679 15.3122C13.7991 14.8433 13.1632 14.5799 12.5002 14.5799H7.50016C6.83712 14.5799 6.20124 14.8433 5.7324 15.3122C5.26355 15.781 5.00016 16.4169 5.00016 17.0799V18.7466H3.3335V17.0799C3.3335 15.9748 3.77248 14.915 4.55388 14.1336C5.33529 13.3522 6.39509 12.9132 7.50016 12.9132H12.5002C13.6052 12.9132 14.665 13.3522 15.4464 14.1336C16.2278 14.915 16.6668 15.9748 16.6668 17.0799V18.7466ZM10.0002 11.2466C9.34355 11.2466 8.69337 11.1173 8.08674 10.866C7.48012 10.6147 6.92892 10.2464 6.46463 9.78212C6.00034 9.31782 5.63204 8.76663 5.38076 8.16C5.12949 7.55337 5.00016 6.90319 5.00016 6.24658C5.00016 5.58997 5.12949 4.93979 5.38076 4.33317C5.63204 3.72654 6.00034 3.17534 6.46463 2.71105C6.92892 2.24676 7.48012 1.87846 8.08674 1.62718C8.69337 1.37591 9.34355 1.24658 10.0002 1.24658C11.3262 1.24658 12.598 1.77337 13.5357 2.71105C14.4734 3.64873 15.0002 4.9205 15.0002 6.24658C15.0002 7.57267 14.4734 8.84443 13.5357 9.78212C12.598 10.7198 11.3262 11.2466 10.0002 11.2466ZM10.0002 9.57992C10.8842 9.57992 11.7321 9.22873 12.3572 8.60361C12.9823 7.97848 13.3335 7.13064 13.3335 6.24658C13.3335 5.36253 12.9823 4.51468 12.3572 3.88956C11.7321 3.26444 10.8842 2.91325 10.0002 2.91325C9.11611 2.91325 8.26826 3.26444 7.64314 3.88956C7.01802 4.51468 6.66683 5.36253 6.66683 6.24658C6.66683 7.13064 7.01802 7.97848 7.64314 8.60361C8.26826 9.22873 9.11611 9.57992 10.0002 9.57992Z" fill="#214856"/>
</g>
<defs>
<clipPath id="clip0_77_8144">
<rect width="20" height="20" fill="white" transform="translate(0 0.413086)"/>
</clipPath>
</defs>
</svg>
