<svg width="45" height="45" viewBox="0 0 45 45" fill="none" xmlns="http://www.w3.org/2000/svg">
<g id="gallery">
<g id="vuesax/outline/gallery">
<g id="gallery_2">
<path id="Vector" d="M28.125 42.6562H16.875C6.69375 42.6562 2.34375 38.3063 2.34375 28.125V16.875C2.34375 6.69375 6.69375 2.34375 16.875 2.34375H28.125C38.3063 2.34375 42.6562 6.69375 42.6562 16.875V28.125C42.6562 38.3063 38.3063 42.6562 28.125 42.6562ZM16.875 5.15625C8.23125 5.15625 5.15625 8.23125 5.15625 16.875V28.125C5.15625 36.7687 8.23125 39.8438 16.875 39.8438H28.125C36.7687 39.8438 39.8438 36.7687 39.8438 28.125V16.875C39.8438 8.23125 36.7687 5.15625 28.125 5.15625H16.875Z" fill="#214856"/>
<path id="Vector_2" d="M16.875 20.1562C14.025 20.1562 11.7188 17.85 11.7188 15C11.7188 12.15 14.025 9.84375 16.875 9.84375C19.725 9.84375 22.0312 12.15 22.0312 15C22.0312 17.85 19.725 20.1562 16.875 20.1562ZM16.875 12.6562C15.5812 12.6562 14.5312 13.7062 14.5312 15C14.5312 16.2937 15.5812 17.3438 16.875 17.3438C18.1687 17.3438 19.2188 16.2937 19.2188 15C19.2188 13.7062 18.1687 12.6562 16.875 12.6562Z" fill="#214856"/>
<path id="Vector_3" d="M5.00594 36.9375C4.55594 36.9375 4.10594 36.7125 3.84344 36.3188C3.41219 35.6813 3.58094 34.8 4.23719 34.3688L13.4809 28.1625C15.5059 26.7938 18.2997 26.9625 20.1372 28.5188L20.7559 29.0625C21.6934 29.8688 23.2872 29.8688 24.2059 29.0625L32.0059 22.3688C33.9934 20.6625 37.1247 20.6625 39.1309 22.3688L42.1872 24.9938C42.7684 25.5 42.8434 26.3813 42.3372 26.9813C41.8309 27.5625 40.9497 27.6375 40.3497 27.1313L37.2934 24.5063C36.3559 23.7 34.7622 23.7 33.8247 24.5063L26.0247 31.2C24.0372 32.9063 20.9059 32.9063 18.8997 31.2L18.2809 30.6563C17.4184 29.925 15.9934 29.85 15.0372 30.5063L5.79344 36.7125C5.54969 36.8625 5.26844 36.9375 5.00594 36.9375Z" fill="#214856"/>
</g>
</g>
</g>
</svg>
