<svg width="16" height="17" viewBox="0 0 16 17" fill="none" xmlns="http://www.w3.org/2000/svg">
<path d="M1.78371 4.05922C2.08958 3.73183 2.53859 3.27762 2.9782 2.83984C3.75609 2.06521 5.01367 2.08069 5.78423 2.86261L6.27523 3.36084C6.85564 3.9498 6.80148 4.86467 6.34316 5.55292C5.63287 6.61956 5.9577 7.42401 7.51218 8.97849C9.06932 10.5356 9.85468 10.8397 10.9185 10.1191C11.6009 9.6569 12.513 9.60722 13.1 10.1857L13.6213 10.6995C14.4036 11.4706 14.4184 12.7292 13.6432 13.5074C13.2068 13.9455 12.754 14.3934 12.4259 14.7014C9.71679 17.2447 -0.753304 6.77473 1.78371 4.05922Z" stroke="#81949D" stroke-width="1.5"/>
</svg>
