<svg width="16" height="16" viewBox="0 0 16 16" fill="none" xmlns="http://www.w3.org/2000/svg">
<path d="M12.8784 10.9358C12.4873 10.5444 12.0303 10.2249 11.5284 9.99207C12.2362 9.41863 12.6878 8.54363 12.6878 7.56238C12.6878 5.83113 11.244 4.41082 9.51278 4.43738C7.8081 4.46394 6.43466 5.853 6.43466 7.56238C6.43466 8.54363 6.88778 9.41863 7.59403 9.99207C7.09201 10.2248 6.635 10.5443 6.24403 10.9358C5.39091 11.7905 4.90653 12.9186 4.87528 14.1218C4.87487 14.1384 4.87779 14.155 4.88389 14.1705C4.88998 14.1861 4.89912 14.2002 4.91077 14.2122C4.92242 14.2241 4.93634 14.2336 4.95171 14.2401C4.96709 14.2465 4.9836 14.2499 5.00028 14.2499H5.87528C5.94247 14.2499 5.99872 14.1968 6.00028 14.1296C6.02997 13.2233 6.39716 12.3749 7.04247 11.7311C7.37269 11.3992 7.76547 11.136 8.19808 10.9568C8.63069 10.7777 9.09454 10.6861 9.56278 10.6874C10.5143 10.6874 11.4097 11.0577 12.0831 11.7311C12.7268 12.3749 13.094 13.2233 13.1253 14.1296C13.1268 14.1968 13.1831 14.2499 13.2503 14.2499H14.1253C14.142 14.2499 14.1585 14.2465 14.1739 14.2401C14.1892 14.2336 14.2031 14.2241 14.2148 14.2122C14.2264 14.2002 14.2356 14.1861 14.2417 14.1705C14.2478 14.155 14.2507 14.1384 14.2503 14.1218C14.219 12.9186 13.7347 11.7905 12.8784 10.9358ZM9.56278 9.56238C9.02841 9.56238 8.52528 9.35457 8.14872 8.97644C7.95974 8.78895 7.81046 8.56531 7.70979 8.31888C7.60913 8.07244 7.55913 7.80825 7.56278 7.54207C7.56747 7.02957 7.77216 6.53425 8.12997 6.16707C8.50497 5.78269 9.00653 5.56863 9.54247 5.56238C10.0722 5.55769 10.5862 5.76394 10.9643 6.13425C11.3518 6.51394 11.5643 7.02175 11.5643 7.56238C11.5643 8.09675 11.3565 8.59832 10.9784 8.97644C10.7929 9.16284 10.5723 9.3106 10.3293 9.41118C10.0863 9.51175 9.82576 9.56314 9.56278 9.56238ZM5.64872 7.97488C5.63466 7.83894 5.62685 7.70144 5.62685 7.56238C5.62685 7.31394 5.65028 7.07175 5.69403 6.83582C5.70497 6.77957 5.67528 6.72175 5.62372 6.69832C5.41122 6.603 5.21591 6.47175 5.04716 6.30613C4.84831 6.11333 4.69184 5.88119 4.58773 5.62454C4.48361 5.36789 4.43414 5.09235 4.44247 4.8155C4.45653 4.31394 4.6581 3.83738 5.00966 3.478C5.3956 3.08269 5.91435 2.86707 6.46591 2.87332C6.96435 2.878 7.4456 3.07019 7.80966 3.41082C7.9331 3.52644 8.03935 3.65457 8.12841 3.79207C8.15966 3.8405 8.2206 3.86082 8.27372 3.84207C8.54872 3.74675 8.83935 3.67957 9.13778 3.64832C9.22528 3.63894 9.27528 3.54519 9.23622 3.46707C8.72841 2.46238 7.69091 1.76863 6.49091 1.74988C4.7581 1.72332 3.31435 3.14363 3.31435 4.87332C3.31435 5.85457 3.76591 6.72957 4.47372 7.303C3.97685 7.53269 3.51903 7.84988 3.12216 8.24675C2.26591 9.10144 1.78153 10.2296 1.75028 11.4343C1.74987 11.4509 1.75279 11.4675 1.75889 11.483C1.76498 11.4986 1.77412 11.5127 1.78577 11.5247C1.79742 11.5366 1.81134 11.5461 1.82671 11.5526C1.84209 11.559 1.8586 11.5624 1.87528 11.5624H2.75185C2.81903 11.5624 2.87528 11.5093 2.87685 11.4421C2.90653 10.5358 3.27372 9.68738 3.91903 9.04363C4.37841 8.58425 4.94091 8.2655 5.55497 8.11082C5.61591 8.09519 5.65653 8.03738 5.64872 7.97488Z" fill="#81949D" stroke="#81949D" stroke-width="0.4"/>
</svg>
