<svg width="15" height="15" viewBox="0 0 15 15" fill="none" xmlns="http://www.w3.org/2000/svg">
<path d="M5.81823 4.50537C5.84179 4.41602 5.85427 4.32288 5.85427 4.22732C5.85427 3.57667 5.27579 3.08325 4.56001 3.08325C3.92381 3.08325 3.39285 3.47306 3.28266 4.01662C3.17247 4.56017 2.78383 3.66666 2.35427 3.66666C1.92472 3.66666 1.77084 4.33001 1.77084 4.7166C1.77084 5.10319 1.92472 5.41659 2.35427 5.41659H5.07649C5.50605 5.41659 5.85427 5.10319 5.85427 4.7166C5.85427 4.64298 5.84164 4.57202 5.81823 4.50537Z" stroke="#214856" stroke-width="0.875"/>
<path d="M10.5204 1.91669C10.5204 2.68541 9.24007 3.37502 8.47916 3.37502" stroke="#214856" stroke-width="0.875" stroke-linecap="round"/>
<path d="M10.5208 3.95831C10.5208 4.72703 9.53176 5.12498 8.77084 5.12498" stroke="#214856" stroke-width="0.875" stroke-linecap="round"/>
<path d="M10.5208 1.91669C10.5208 2.68541 11.8017 3.37502 12.5626 3.37502" stroke="#214856" stroke-width="0.875" stroke-linecap="round"/>
<path d="M10.521 3.95831C10.521 4.72703 11.5101 5.12498 12.271 5.12498" stroke="#214856" stroke-width="0.875" stroke-linecap="round"/>
<path d="M10.5208 7.16669V1.91669" stroke="#214856" stroke-width="0.875" stroke-linecap="round"/>
<path d="M1.64365 13.1813L4.03002 7.34792C4.07486 7.2383 4.18153 7.16669 4.29997 7.16669H10.325C10.4434 7.16669 10.5501 7.2383 10.595 7.34792L12.9813 13.1813C13.0598 13.3731 12.9187 13.5834 12.7114 13.5834H5.85416H3.52082H1.9136C1.70629 13.5834 1.56516 13.3731 1.64365 13.1813Z" stroke="#214856" stroke-width="0.875"/>
<path d="M1.64365 13.1813L3.8182 7.8657C3.91918 7.61886 4.27111 7.62582 4.36226 7.87646L6.29518 13.192C6.36436 13.3822 6.22348 13.5834 6.02108 13.5834H3.52082H1.9136C1.70629 13.5834 1.56516 13.3731 1.64365 13.1813Z" stroke="#214856" stroke-width="0.875"/>
<path d="M4.10416 13.2917V8.33335" stroke="#214856" stroke-width="0.875" stroke-linecap="round"/>
</svg>
