<svg width="16" height="16" viewBox="0 0 16 16" fill="none" xmlns="http://www.w3.org/2000/svg">
<path fill-rule="evenodd" clip-rule="evenodd" d="M5.29685 3.99992H3.97264V3.33325H2.64843V5.33325H13.2421V3.33325H11.9179V3.99992H10.5937V3.33325H5.29685V3.99992ZM13.2421 6.66658H2.64843V13.3333H13.2421V6.66658ZM10.5937 1.99992H5.29685V1.33325H3.97264V1.99992H2.64843C1.91709 1.99992 1.32422 2.59687 1.32422 3.33325V13.3333C1.32422 14.0696 1.91709 14.6666 2.64843 14.6666H13.2421C13.9734 14.6666 14.5663 14.0696 14.5663 13.3333V3.33325C14.5663 2.59687 13.9734 1.99992 13.2421 1.99992H11.9179V1.33325H10.5937V1.99992ZM4.63474 9.33325V7.99992H5.95895V9.33325H4.63474ZM7.28316 9.33325H8.60737V7.99992H7.28316V9.33325ZM9.93158 9.33325V7.99992H11.2558V9.33325H9.93158ZM4.63474 10.6666V11.9999H5.95895V10.6666H4.63474ZM8.60737 11.9999H7.28316V10.6666H8.60737V11.9999Z" fill="#81949D"/>
</svg>
