<svg width="14" height="14" viewBox="0 0 14 14" fill="none" xmlns="http://www.w3.org/2000/svg">
<g clip-path="url(#clip0_18_106)">
<path d="M1.4375 12.375C1.4375 11.1815 1.91161 10.0369 2.75552 9.19302C3.59943 8.3491 4.74403 7.875 5.9375 7.875C7.13098 7.875 8.27557 8.3491 9.11948 9.19302C9.9634 10.0369 10.4375 11.1815 10.4375 12.375H9.3125C9.3125 11.4799 8.95692 10.6214 8.32399 9.98851C7.69105 9.35558 6.83261 9 5.9375 9C5.0424 9 4.18395 9.35558 3.55102 9.98851C2.91808 10.6214 2.5625 11.4799 2.5625 12.375H1.4375ZM5.9375 7.3125C4.07281 7.3125 2.5625 5.80219 2.5625 3.9375C2.5625 2.07281 4.07281 0.5625 5.9375 0.5625C7.80219 0.5625 9.3125 2.07281 9.3125 3.9375C9.3125 5.80219 7.80219 7.3125 5.9375 7.3125ZM5.9375 6.1875C7.18063 6.1875 8.1875 5.18062 8.1875 3.9375C8.1875 2.69437 7.18063 1.6875 5.9375 1.6875C4.69438 1.6875 3.6875 2.69437 3.6875 3.9375C3.6875 5.18062 4.69438 6.1875 5.9375 6.1875ZM10.5973 8.27044C11.3878 8.62646 12.0586 9.2032 12.5292 9.93134C12.9998 10.6595 13.2501 11.508 13.25 12.375H12.125C12.1251 11.7247 11.9374 11.0883 11.5845 10.5421C11.2315 9.996 10.7284 9.56343 10.1354 9.29644L10.5967 8.27044H10.5973ZM10.2103 1.91981C10.777 2.15342 11.2615 2.55011 11.6024 3.05957C11.9434 3.56902 12.1252 4.16826 12.125 4.78125C12.1252 5.55319 11.8368 6.29731 11.3164 6.86746C10.796 7.43761 10.0813 7.79257 9.3125 7.86262V6.73031C9.72928 6.67062 10.1159 6.47888 10.4157 6.18326C10.7155 5.88763 10.9126 5.50368 10.9782 5.08777C11.0437 4.67187 10.9741 4.24592 10.7797 3.87245C10.5853 3.49898 10.2763 3.19767 9.89806 3.01275L10.2103 1.91981Z" fill="#214856"/>
</g>
<defs>
<clipPath id="clip0_18_106">
<rect width="13.5" height="13.5" fill="white" transform="translate(0.3125)"/>
</clipPath>
</defs>
</svg>
