<svg width="49" height="48" viewBox="0 0 49 48" fill="none" xmlns="http://www.w3.org/2000/svg">
<g clip-path="url(#clip0_521_19163)">
<g style="mix-blend-mode:multiply">
<mask id="mask0_521_19163" style="mask-type:luminance" maskUnits="userSpaceOnUse" x="2" y="43" width="45" height="5">
<path d="M46.345 43.51H2.125V48H46.345V43.51Z" fill="white"/>
</mask>
<g mask="url(#mask0_521_19163)">
<path d="M46.345 45.76C46.345 47 36.445 48 24.235 48C12.025 48 2.125 47 2.125 45.76C2.125 44.52 12.025 43.52 24.235 43.52C36.445 43.52 46.345 44.52 46.345 45.76Z" fill="#CBE7F2"/>
</g>
</g>
<mask id="mask1_521_19163" style="mask-type:luminance" maskUnits="userSpaceOnUse" x="7" y="13" width="28" height="33">
<path d="M32.9842 13.11C32.7942 13.11 32.5942 13.11 32.4042 13.1C31.8842 13.08 31.3642 13.06 30.8542 13.19C30.8342 13.2 30.8242 13.22 30.8042 13.23C30.6442 13.38 30.6642 13.58 30.6642 13.77C30.6542 14.29 30.6642 14.81 30.6642 15.33C30.6642 15.82 30.6942 16.27 31.0442 16.69C31.4242 17.14 31.3042 17.87 30.9042 18.24C30.4442 18.66 29.7842 18.67 29.3042 18.28C28.8542 17.91 28.7642 17.22 29.1042 16.64C29.2542 16.38 29.3842 16.13 29.3842 15.83C29.3842 15.13 29.3842 14.43 29.3842 13.74C29.3842 13.56 29.3842 13.37 29.2442 13.24C29.2342 13.23 29.2142 13.22 29.2042 13.21C29.1942 13.21 29.1842 13.19 29.1642 13.19C29.0242 13.13 28.8842 13.13 28.7342 13.13C26.3142 13.13 23.8942 13.11 21.4742 13.13H21.4642C21.4642 13.13 21.4042 13.13 21.3742 13.13C20.9142 13.12 20.4542 13.12 19.9942 13.13C19.9642 13.13 19.9342 13.13 19.9042 13.13H19.8842C17.9742 13.1 16.0742 13.13 14.1642 13.13C14.0142 13.13 13.8742 13.14 13.7342 13.2C13.7342 13.2 13.7242 13.2 13.7142 13.21C13.6942 13.21 13.6842 13.23 13.6742 13.24C13.5142 13.38 13.5342 13.58 13.5342 13.76C13.5242 14.33 13.5342 14.89 13.5342 15.46C13.5142 15.93 13.6042 16.34 13.8942 16.73C14.2742 17.25 14.1442 17.87 13.6442 18.29C13.1842 18.68 12.5942 18.68 12.1342 18.29C11.6342 17.87 11.5442 17.27 11.8842 16.72C11.9742 16.58 12.1242 16.47 12.1442 16.32C12.2842 15.3 12.3642 14.28 12.1042 13.26C11.1942 13.26 10.2842 13.28 9.38418 13.26C9.10418 13.26 8.99418 13.32 8.97418 13.63C8.90418 15.38 8.80418 17.13 8.71418 18.88C8.55418 22.2 8.39418 25.52 8.23418 28.84C8.00418 33.7 7.77418 38.56 7.54418 43.42C7.46418 45.11 8.32418 45.9901 10.0242 45.9901H33.3842C33.5642 45.9901 33.7442 45.9901 33.9242 45.9701C34.0742 45.8001 34.1142 45.59 34.0942 45.37C34.0342 45.1 34.0642 44.8301 34.0542 44.5601C34.0842 43.8201 33.9942 43.0701 34.1142 42.3301C34.1642 41.9901 34.1942 41.66 34.2042 41.32C34.1342 41.04 34.1642 40.7601 34.1542 40.4901C34.1842 39.7401 34.0942 38.9901 34.2142 38.2401C34.2642 37.9001 34.2942 37.57 34.3042 37.23C34.2342 36.95 34.2642 36.67 34.2642 36.39C34.2942 35.64 34.2042 34.89 34.3142 34.14C34.3642 33.8 34.3942 33.4701 34.4042 33.1301C34.3442 32.85 34.3642 32.5701 34.3642 32.2901C34.3942 31.5401 34.3042 30.79 34.4242 30.05C34.4742 29.71 34.5042 29.38 34.5142 29.04C34.4442 28.76 34.4742 28.48 34.4742 28.2C34.5042 27.45 34.4042 26.7 34.5242 25.95C34.5742 25.62 34.6042 25.28 34.6142 24.94C34.5442 24.66 34.5742 24.38 34.5742 24.1C34.6042 23.35 34.5142 22.6 34.6242 21.85C34.6742 21.52 34.7042 21.18 34.7142 20.84C34.6442 20.56 34.6742 20.28 34.6642 20C34.6942 19.25 34.6042 18.5 34.7242 17.75C34.7742 17.41 34.8042 17.08 34.8142 16.74C34.7442 16.46 34.7742 16.18 34.7742 15.9C34.8042 15.13 34.7042 14.37 34.8342 13.6C34.8442 13.47 34.8442 13.34 34.7742 13.24C34.7742 13.24 34.7642 13.23 34.7542 13.22C34.7442 13.2 34.7242 13.19 34.7042 13.17C34.4342 13.07 34.1642 13.05 33.8842 13.05C33.6042 13.05 33.3042 13.08 33.0142 13.08" fill="white"/>
</mask>
<g mask="url(#mask1_521_19163)">
<path d="M34.8148 13.0601H7.46484V45.9801H34.8148V13.0601Z" fill="url(#paint0_linear_521_19163)"/>
</g>
<mask id="mask2_521_19163" style="mask-type:luminance" maskUnits="userSpaceOnUse" x="33" y="13" width="9" height="33">
<path d="M37.5266 13.11C37.3566 13.11 37.1866 13.13 37.0266 13.11C36.9966 13.11 36.9766 13.11 36.9466 13.11C36.3766 13.09 35.8066 13.11 35.2366 13.11C35.0566 13.11 34.8566 13.11 34.7266 13.25C34.7266 13.25 34.7166 13.26 34.7066 13.27C34.7066 13.4 34.7066 13.52 34.7066 13.65C34.6066 14.41 34.6866 15.18 34.6666 15.95C34.6666 15.96 34.6666 15.97 34.6666 15.98V16.01C34.6666 16.26 34.6266 16.51 34.7066 16.75C34.6066 17.07 34.6166 17.41 34.6166 17.74C34.5266 18.51 34.5966 19.27 34.5766 20.04V20.07C34.5766 20.07 34.5766 20.09 34.5766 20.1C34.5766 20.35 34.5366 20.6 34.6166 20.85C34.5166 21.17 34.5266 21.5 34.5266 21.83C34.4366 22.6 34.5066 23.36 34.4866 24.13V24.16C34.4866 24.16 34.4866 24.18 34.4866 24.19C34.4866 24.44 34.4466 24.69 34.5266 24.94C34.4266 25.26 34.4366 25.59 34.4366 25.92C34.3466 26.69 34.4166 27.45 34.3966 28.22V28.25C34.3966 28.25 34.3966 28.27 34.3966 28.28C34.3966 28.53 34.3566 28.78 34.4366 29.02C34.3366 29.34 34.3466 29.68 34.3466 30.01C34.2566 30.77 34.3266 31.5401 34.3066 32.3101C34.3066 32.3101 34.3066 32.33 34.3066 32.34V32.37C34.3066 32.62 34.2666 32.8701 34.3466 33.1101C34.2366 33.43 34.2566 33.77 34.2566 34.1C34.1566 34.86 34.2366 35.6301 34.2166 36.4001V36.43C34.2166 36.43 34.2166 36.45 34.2166 36.46C34.2166 36.71 34.1766 36.9601 34.2566 37.2001C34.1566 37.5201 34.1666 37.86 34.1666 38.19C34.0766 38.95 34.1466 39.7201 34.1266 40.4901C34.1266 40.5001 34.1266 40.51 34.1266 40.5201V40.55C34.1266 40.8 34.0866 41.0501 34.1666 41.2901C34.0666 41.6101 34.0766 41.95 34.0766 42.28C33.9866 43.05 34.0566 43.8101 34.0366 44.5801C34.0366 44.5801 34.0366 44.6 34.0366 44.6101V44.64C34.0366 44.89 33.9966 45.14 34.0666 45.3801C34.0366 45.57 34.0066 45.7601 33.9766 45.9501H34.0766C34.3366 45.84 34.5466 45.66 34.7566 45.4901C35.6866 44.7401 36.6266 44.0001 37.5566 43.2401C37.7866 43.0501 37.9566 43.0401 38.1866 43.2401C38.4666 43.4901 38.7566 43.72 39.0566 43.94C39.9366 44.6 40.7266 45.38 41.6666 45.94C41.8466 45.85 41.7566 45.68 41.7466 45.5601C41.7366 45.0401 41.6966 44.5201 41.6666 44C41.5266 40.99 41.3866 37.98 41.2466 34.96C41.0266 30.37 40.8066 25.79 40.5866 21.21C40.4666 18.65 40.3266 16.09 40.2166 13.53C40.2066 13.26 40.1066 13.21 39.8666 13.21C39.4666 13.22 39.0566 13.21 38.6466 13.21C38.4066 13.08 38.1666 13.05 37.9166 13.05C37.8066 13.05 37.6866 13.05 37.5766 13.06" fill="white"/>
</mask>
<g mask="url(#mask2_521_19163)">
<path d="M33.9062 12.9812L33.4688 45.9583L41.778 46.0685L42.2155 13.0914L33.9062 12.9812Z" fill="url(#paint1_linear_521_19163)"/>
</g>
<mask id="mask3_521_19163" style="mask-type:luminance" maskUnits="userSpaceOnUse" x="11" y="0" width="21" height="19">
<path d="M19.7947 0.17C15.1547 1.09 12.1047 4.82 12.1047 9.56C12.1047 10.79 12.1047 12.02 12.1047 13.26C12.1047 14.07 12.1047 14.88 12.1147 15.69C12.1147 16.03 12.0547 16.29 11.8147 16.56C11.3547 17.08 11.4347 17.8 11.9447 18.31C12.4447 18.81 13.1547 18.87 13.7047 18.44C14.2747 17.99 14.4947 17.22 14.0447 16.69C13.6647 16.25 13.6747 15.79 13.6747 15.3C13.6747 14.62 13.6747 13.94 13.6747 13.26C13.6947 13.24 13.7047 13.22 13.7147 13.2C13.8247 13.03 13.7947 12.84 13.7947 12.65C13.7947 11.6 13.7947 10.54 13.7947 9.49C13.8147 7.07 14.6847 5.03 16.5747 3.49C18.6147 1.82 20.9447 1.31 23.5047 2C23.5247 2 23.5447 2 23.5647 2.01C24.1147 2.15 24.6547 2.33 25.1347 2.65C25.1547 2.65 25.1747 2.67 25.1847 2.69C25.2147 2.71 25.2447 2.73 25.2747 2.75C25.8847 3.09 26.4547 3.5 26.9347 4.01C28.3947 5.57 29.1347 7.43 29.1047 9.57C29.1047 10.59 29.1047 11.61 29.1047 12.63C29.1047 12.82 29.0847 13.01 29.1947 13.18C29.2047 13.2 29.2247 13.22 29.2347 13.24C29.2347 13.73 29.2347 14.21 29.2347 14.7C29.2347 15.43 29.3047 16.14 28.8447 16.83C28.4647 17.39 28.7847 18.15 29.3647 18.5C29.9447 18.85 30.7147 18.73 31.1147 18.22C31.5247 17.71 31.5047 16.85 31.0347 16.4C30.8547 16.22 30.7747 16.06 30.7847 15.82C30.7947 14.96 30.7847 14.1 30.7947 13.25C30.8147 13.23 30.8247 13.21 30.8447 13.19C30.9547 13.01 30.9247 12.8 30.9247 12.6C30.9247 11.47 30.9547 10.33 30.9247 9.19C30.8347 6.21 29.6147 3.79 27.3047 1.92C27.2747 1.9 27.2447 1.87 27.2147 1.85C27.2147 1.85 27.2147 1.85 27.2047 1.85C26.6347 1.48 26.1047 1.03 25.4347 0.84C25.2147 0.85 25.0347 0.74 24.8347 0.66C23.7447 0.23 22.6247 0 21.4847 0C20.9247 0 20.3647 0.05 19.7947 0.17Z" fill="white"/>
</mask>
<g mask="url(#mask3_521_19163)">
<path d="M31.5337 0H11.3438V18.86H31.5337V0Z" fill="url(#paint2_linear_521_19163)"/>
</g>
<path d="M38.6031 13.25H37.0231C37.0231 13.25 36.9631 13.16 36.9431 13.11C36.8831 12.95 36.9031 12.77 36.9031 12.6C36.9031 11.55 36.9031 10.49 36.9031 9.44003C36.9031 7.33003 36.1831 5.47003 34.6931 3.99003C32.8831 2.20003 30.6731 1.44003 28.1131 1.80003C27.8431 1.84003 27.5831 1.95003 27.3131 1.92003C27.2431 1.92003 27.1831 1.90003 27.1131 1.87003C26.5631 1.52003 26.0031 1.18003 25.4531 0.83003C30.7631 -1.65997 37.3031 1.70003 38.4031 7.48003C38.5531 8.28003 38.6031 9.08003 38.5931 9.90003C38.5931 11.02 38.5931 12.13 38.5931 13.25" fill="#C46200"/>
<path d="M34.0156 45.97C34.7156 45.26 35.5556 44.71 36.3156 44.06C36.7256 43.7 37.1756 43.38 37.5956 43.03C37.7156 42.94 37.7956 42.83 37.9656 42.96C39.1556 43.92 40.3456 44.88 41.5256 45.84C41.5656 45.87 41.5856 45.92 41.6156 45.96H34.0256L34.0156 45.97Z" fill="#C46200"/>
<path d="M37.0333 9.30997C36.9933 4.18997 32.1333 0.509971 27.2133 1.83997C27.1833 1.83997 27.1433 1.85997 27.1133 1.86997C27.1533 1.91997 27.1833 1.97997 27.2233 2.01997C29.6233 3.97997 30.8033 6.50997 30.8033 9.60997C30.8033 10.81 30.8033 12.02 30.8033 13.23V13.26C32.1033 13.26 33.4033 13.28 34.6933 13.29H34.7333C35.4933 13.29 36.2533 13.28 37.0233 13.27V13.13C37.0233 11.86 37.0433 10.59 37.0233 9.32997M35.2233 13.13C35.0433 13.13 34.8433 13.13 34.7133 13.27C34.7033 13.25 34.6833 13.24 34.6633 13.22C34.1133 13.02 33.5433 13.13 32.9733 13.13C32.2633 13.13 31.5533 13.04 30.8433 13.2C30.9533 13.02 30.9233 12.81 30.9233 12.61C30.9233 11.48 30.9533 10.34 30.9233 9.19997C30.8333 6.21997 29.6133 3.79997 27.3033 1.92997C27.5733 1.95997 27.8333 1.83997 28.1033 1.80997C30.6633 1.45997 32.8733 2.20997 34.6833 3.99997C36.1733 5.47997 36.8933 7.33997 36.8933 9.44997C36.8933 10.5 36.8933 11.56 36.8933 12.61C36.8933 12.78 36.8733 12.96 36.9333 13.12C36.3633 13.1 35.7933 13.12 35.2233 13.12" fill="#FEFEFE"/>
<path d="M23.153 1.76006C22.173 1.54006 21.193 1.52006 20.203 1.66006C16.973 2.11006 14.153 4.95006 13.743 8.19006C13.533 9.86006 13.683 11.5401 13.653 13.2201V13.2501C15.723 13.2501 17.803 13.2501 19.873 13.2501C19.913 13.2001 19.943 13.1601 19.963 13.1101C20.043 12.9401 20.003 12.7401 20.013 12.5601C20.043 11.2001 19.933 9.83006 20.063 8.47006C20.303 6.01006 21.403 3.99006 23.233 2.35006C23.353 2.25006 23.493 2.16006 23.553 2.01006C23.553 1.99006 23.563 1.97006 23.573 1.95006C23.483 1.79006 23.303 1.80006 23.153 1.76006ZM23.303 2.14006C21.133 3.98006 19.983 6.32006 19.903 9.17006C19.873 10.4901 19.893 11.8001 19.893 13.1101H19.873C17.963 13.0801 16.063 13.1101 14.153 13.1101C14.003 13.1101 13.863 13.1201 13.723 13.1801C13.723 13.1801 13.713 13.1801 13.703 13.1901C13.813 13.0201 13.783 12.8301 13.783 12.6501C13.783 11.6001 13.783 10.5401 13.783 9.49006C13.803 7.07006 14.673 5.03006 16.563 3.49006C18.603 1.82006 20.933 1.31006 23.493 2.00006C23.423 2.05006 23.353 2.09006 23.293 2.14006" fill="#FEFEFE"/>
<path d="M29.2344 9.27001C29.2044 7.19001 28.4544 5.39001 26.9944 3.90001C26.4944 3.38001 25.9744 2.87001 25.2444 2.64001C25.2044 2.64001 25.1644 2.64001 25.1244 2.64001C24.9744 2.67001 24.8444 2.76001 24.7144 2.85001C22.6044 4.34001 21.4844 6.40001 21.3144 8.95001C21.2344 10.19 21.2944 11.45 21.3044 12.69C21.3044 12.83 21.3044 12.97 21.3544 13.1C21.3744 13.15 21.4044 13.2 21.4444 13.24C24.0344 13.24 26.6344 13.24 29.2244 13.24V13.21C29.2244 11.89 29.2444 10.57 29.2244 9.26001M29.1444 13.16C29.0044 13.1 28.8644 13.1 28.7144 13.1C26.2944 13.1 23.8744 13.08 21.4544 13.1H21.4444C21.4444 11.77 21.4444 10.44 21.4444 9.10001C21.4444 8.51001 21.5444 7.94001 21.6944 7.37001C22.2244 5.33001 23.4444 3.81001 25.1744 2.67001C25.2044 2.69001 25.2344 2.71001 25.2644 2.73001C25.8744 3.07001 26.4444 3.48001 26.9244 3.99001C28.3844 5.55001 29.1244 7.41001 29.0944 9.55001C29.0944 10.57 29.0944 11.59 29.0944 12.61C29.0944 12.8 29.0744 12.99 29.1844 13.16C29.1744 13.16 29.1644 13.14 29.1444 13.14" fill="#FEFEFE"/>
<path d="M25.2554 2.64008C25.2554 2.64008 25.2154 2.67008 25.1854 2.69008C23.4554 3.83008 22.2354 5.36008 21.7054 7.39008C21.5554 7.96008 21.4554 8.53008 21.4554 9.12008C21.4554 10.4501 21.4554 11.7801 21.4554 13.1201V13.2601H19.8854V13.1201C19.8854 11.8001 19.8654 10.4901 19.8954 9.18008C19.9754 6.33008 21.1354 4.00008 23.2954 2.15008C23.3554 2.10008 23.4254 2.05008 23.4954 2.01008C23.5154 2.00008 23.5454 1.98008 23.5654 1.96008C24.1854 2.03008 24.7654 2.22008 25.2354 2.65008" fill="#C46200"/>
<path d="M15.2146 42.0901C15.9546 42.0901 16.7046 42.0901 17.4446 42.0901C18.0146 42.0901 18.3446 42.4001 18.3246 42.8901C18.3146 43.3601 17.9946 43.6401 17.4446 43.6501C15.9546 43.6501 14.4646 43.6501 12.9746 43.6501C12.4046 43.6501 12.0746 43.3401 12.0946 42.8501C12.1046 42.3801 12.4246 42.1001 12.9746 42.0901C13.7146 42.0901 14.4646 42.0901 15.2046 42.0901" fill="#C46200"/>
<path d="M21.0848 42.1001C21.2448 42.1001 21.4148 42.0801 21.5648 42.1001C21.9848 42.1801 22.2248 42.4401 22.2248 42.8701C22.2248 43.3001 21.9848 43.5801 21.5648 43.6301C21.2648 43.6701 20.9548 43.6501 20.6448 43.6301C20.1848 43.6101 19.8848 43.2901 19.8948 42.8501C19.8948 42.4101 20.1948 42.1001 20.6548 42.0701C20.7948 42.0701 20.9448 42.0701 21.0948 42.0701L21.0848 42.1001Z" fill="#C46200"/>
<path d="M34.5948 17.75C34.5948 18.53 34.5948 19.3 34.5948 20.08C34.5648 20.13 34.5348 20.13 34.5048 20.08C34.5048 19.45 34.5048 18.83 34.5048 18.2C34.5048 18.05 34.4548 17.88 34.5948 17.75Z" fill="#E7B14D"/>
<path d="M34.4932 21.8401C34.4932 22.6201 34.4932 23.3901 34.4932 24.1701C34.4632 24.2201 34.4332 24.2201 34.4032 24.1701C34.4032 23.5401 34.4032 22.9201 34.4032 22.2901C34.4032 22.1401 34.3532 21.9601 34.4932 21.8401Z" fill="#E7B14D"/>
<path d="M34.2042 34.11C34.2042 34.89 34.2042 35.66 34.2042 36.44C34.1742 36.49 34.1441 36.49 34.1141 36.44C34.1141 35.81 34.1141 35.19 34.1141 34.56C34.1141 34.41 34.0642 34.23 34.2042 34.11Z" fill="#E7B14D"/>
<path d="M34.1065 38.2001C34.1065 38.9801 34.1065 39.7501 34.1065 40.5301C34.0765 40.5801 34.0465 40.5801 34.0165 40.5301C34.0165 39.9001 34.0165 39.2801 34.0165 38.6501C34.0165 38.5001 33.9665 38.3201 34.1065 38.2001Z" fill="#E7B14D"/>
<path d="M34.3956 25.9301C34.3956 26.7101 34.3956 27.4801 34.3956 28.2601C34.3656 28.3101 34.3356 28.3101 34.3056 28.2601C34.3056 27.6301 34.3056 27.0101 34.3056 26.3801C34.3056 26.2301 34.2556 26.0501 34.3956 25.9301Z" fill="#E7B14D"/>
<path d="M34.6963 13.65C34.6963 14.43 34.6963 15.2 34.6963 15.98C34.6663 16.03 34.6363 16.03 34.6063 15.98C34.6063 15.35 34.6063 14.73 34.6063 14.1C34.6063 13.95 34.5563 13.78 34.6963 13.65Z" fill="#E7B14D"/>
<path d="M34.0166 42.29C34.0166 43.07 34.0166 43.84 34.0166 44.62C33.9866 44.67 33.9566 44.67 33.9266 44.62C33.9266 43.99 33.9266 43.37 33.9266 42.74C33.9266 42.59 33.8766 42.41 34.0166 42.29Z" fill="#E7B14D"/>
<path d="M34.3057 30.02C34.3057 30.8 34.3057 31.57 34.3057 32.35C34.2757 32.4 34.2457 32.4 34.2157 32.35C34.2157 31.72 34.2157 31.1 34.2157 30.47C34.2157 30.32 34.1657 30.14 34.3057 30.02Z" fill="#E7B14D"/>
<path d="M34.1139 36.4401C34.1139 36.4401 34.1739 36.4401 34.2039 36.4401C34.2039 36.7001 34.2039 36.9601 34.2039 37.2201C34.0239 36.9801 34.1539 36.7001 34.1139 36.4401Z" fill="#DFA53C"/>
<path d="M34.5045 20.0801C34.5045 20.0801 34.5645 20.0801 34.5945 20.0801C34.5945 20.3401 34.5945 20.6001 34.5945 20.8601C34.4145 20.6201 34.5445 20.3401 34.5045 20.0801Z" fill="#DFA53C"/>
<path d="M34.0163 40.53C34.0163 40.53 34.0763 40.53 34.1063 40.53C34.1063 40.79 34.1063 41.05 34.1063 41.31C33.9263 41.07 34.0563 40.79 34.0163 40.53Z" fill="#DFA53C"/>
<path d="M34.6061 15.99C34.6061 15.99 34.6661 15.99 34.6961 15.99C34.6961 16.25 34.6961 16.51 34.6961 16.77C34.5161 16.53 34.6461 16.25 34.6061 15.99Z" fill="#DFA53C"/>
<path d="M34.4069 24.17C34.4069 24.17 34.4669 24.17 34.4969 24.17C34.4969 24.43 34.4969 24.69 34.4969 24.95C34.3169 24.71 34.4469 24.43 34.4069 24.17Z" fill="#DFA53C"/>
<path d="M34.2155 32.35C34.2155 32.35 34.2755 32.35 34.3055 32.35C34.3055 32.61 34.3055 32.87 34.3055 33.13C34.1255 32.89 34.2555 32.61 34.2155 32.35Z" fill="#DFA53C"/>
<path d="M34.3053 28.26C34.3053 28.26 34.3653 28.26 34.3953 28.26C34.3953 28.52 34.3953 28.78 34.3953 29.04C34.2153 28.8 34.3453 28.52 34.3053 28.26Z" fill="#DFA53C"/>
<path d="M33.9147 44.62C33.9147 44.62 33.9747 44.62 34.0047 44.62C34.0047 44.88 34.0047 45.14 34.0047 45.4C33.8247 45.16 33.9547 44.88 33.9147 44.63" fill="#DFA53C"/>
</g>
<defs>
<linearGradient id="paint0_linear_521_19163" x1="18.6078" y1="32.9175" x2="68.2682" y2="32.9175" gradientUnits="userSpaceOnUse">
<stop stop-color="#FBB525"/>
<stop offset="1" stop-color="#FD921A"/>
</linearGradient>
<linearGradient id="paint1_linear_521_19163" x1="55.0958" y1="32.5353" x2="49.2177" y2="32.4574" gradientUnits="userSpaceOnUse">
<stop stop-color="#FBB525"/>
<stop offset="1" stop-color="#FD921A"/>
</linearGradient>
<linearGradient id="paint2_linear_521_19163" x1="-2.78825" y1="8.8585" x2="17.1187" y2="8.8585" gradientUnits="userSpaceOnUse">
<stop stop-color="#FBB525"/>
<stop offset="1" stop-color="#FD921A"/>
</linearGradient>
<clipPath id="clip0_521_19163">
<rect width="44.22" height="48" fill="white" transform="translate(2.125)"/>
</clipPath>
</defs>
</svg>
