<svg width="49" height="48" viewBox="0 0 49 48" fill="none" xmlns="http://www.w3.org/2000/svg">
<g clip-path="url(#clip0_521_19159)">
<g clip-path="url(#clip1_521_19159)">
<g style="mix-blend-mode:multiply">
<mask id="mask0_521_19159" style="mask-type:luminance" maskUnits="userSpaceOnUse" x="4" y="43" width="41" height="5">
<path d="M44.7433 43.71H4.11328V47.83H44.7433V43.71Z" fill="white"/>
</mask>
<g mask="url(#mask0_521_19159)">
<path d="M44.7533 45.77C44.7533 46.91 35.6533 47.83 24.4333 47.83C13.2133 47.83 4.11328 46.91 4.11328 45.77C4.11328 44.63 13.2133 43.71 24.4333 43.71C35.6533 43.71 44.7533 44.63 44.7533 45.77Z" fill="#CBE7F2"/>
</g>
</g>
<mask id="mask1_521_19159" style="mask-type:luminance" maskUnits="userSpaceOnUse" x="23" y="34" width="22" height="12">
<path d="M24.0145 34.43C23.7945 34.43 23.5745 34.41 23.3945 34.58C23.9645 37.06 25.3045 39.07 27.2545 40.67C28.4645 41.67 29.1145 42.91 29.1045 44.48C29.1045 45.2 29.3845 45.47 30.0945 45.48C30.8845 45.48 31.6745 45.48 32.4645 45.48C33.5445 45.48 34.6345 45.48 35.7145 45.48C36.5045 45.48 37.3045 45.48 38.1045 45.52C38.8645 45.56 39.6245 45.62 40.3845 45.47C40.2645 45.33 40.1045 45.33 39.9545 45.34C39.9245 45.34 39.8945 45.34 39.8645 45.34C39.3845 45.34 38.9045 45.34 38.3545 45.34C38.6445 45.05 38.7145 44.75 38.7145 44.41C38.6845 42.95 39.2845 41.79 40.3945 40.87C41.0745 40.31 41.6945 39.71 42.2445 39.02C43.1945 37.82 43.9145 36.51 44.3145 35.02C44.3745 34.81 44.4645 34.58 44.1645 34.47C44.0145 34.43 43.8545 34.42 43.7045 34.42C40.6945 34.42 37.6945 34.42 34.6845 34.42C31.1345 34.42 27.5745 34.42 24.0245 34.42" fill="white"/>
</mask>
<g mask="url(#mask1_521_19159)">
<path d="M44.4545 34.4H23.3945V45.61H44.4545V34.4Z" fill="url(#paint0_linear_521_19159)"/>
</g>
<mask id="mask2_521_19159" style="mask-type:luminance" maskUnits="userSpaceOnUse" x="2" y="19" width="17" height="7">
<path d="M2.20312 20.63C2.28312 20.71 2.30313 20.81 2.32313 20.92C2.56313 22.03 2.72313 23.17 3.05313 24.26C3.19313 24.32 3.34313 24.36 3.48313 24.43C4.72313 25.03 5.91313 24.95 7.06313 24.19C7.81313 23.69 8.07312 23.76 8.65312 24.48C9.45312 25.47 10.5431 25.91 11.7731 25.84C12.9231 25.77 13.8731 25.21 14.6031 24.3C15.0031 23.79 15.3531 23.74 15.8831 24.1C16.3231 24.4 16.7731 24.68 17.3131 24.75C17.7031 24.88 17.7631 24.58 17.8131 24.33C17.9831 23.48 18.2031 22.64 18.3431 21.78C18.4031 21.4 18.5031 21.01 18.4531 20.63C18.4231 20.41 18.4531 20.09 18.0631 20.14C15.9431 20.47 13.8031 20.65 11.6531 20.62C10.6831 20.6 9.72313 20.62 8.75313 20.54C7.26313 20.43 5.78312 20.26 4.32312 20C3.65312 19.88 3.01313 19.62 2.32313 19.59C2.26313 19.94 2.43312 20.31 2.21312 20.64" fill="white"/>
</mask>
<g mask="url(#mask2_521_19159)">
<path d="M18.5031 19.59H2.20312V25.91H18.5031V19.59Z" fill="url(#paint1_linear_521_19159)"/>
</g>
<mask id="mask3_521_19159" style="mask-type:luminance" maskUnits="userSpaceOnUse" x="23" y="26" width="22" height="9">
<path d="M41.0756 30.47C40.7256 30.81 40.4456 31.21 40.0956 31.54C39.3056 32.3 37.7356 32.33 36.9756 31.53C36.6456 31.18 36.3256 30.81 35.9956 30.46C35.4656 29.89 34.6656 29.91 34.1456 30.5C33.9356 30.73 33.7456 30.98 33.5456 31.22C32.5356 32.44 30.8256 32.45 29.7856 31.25C29.6156 31.05 29.4456 30.84 29.2756 30.64C28.6156 29.85 27.8056 29.84 27.1456 30.64C26.8656 30.98 26.5656 31.29 26.2456 31.59C25.5856 32.2 24.8156 32.2 24.0056 32.02C23.6856 31.95 23.3656 31.49 23.1156 31.76C22.9356 31.96 23.0256 32.44 23.1156 32.8C23.1356 33.4 23.2256 34 23.3956 34.58C30.3656 34.58 37.3356 34.58 44.3156 34.58C44.3356 34.57 44.3556 34.55 44.3756 34.54C44.4956 34.41 44.5256 34.23 44.5456 34.07C44.6456 33.47 44.7256 32.88 44.7256 32.27C44.7256 32.19 44.6856 32.12 44.6256 32.07C44.0356 31.79 43.5656 31.36 43.1856 30.84C43.0956 30.71 42.9756 30.61 42.8656 30.5C42.5556 30.2 42.2556 30.05 41.9556 30.05C41.6556 30.05 41.3656 30.19 41.0556 30.48M41.4756 26.28C36.4756 26.28 31.4756 26.28 26.4756 26.28C26.0756 26.28 25.6656 26.27 25.2656 26.34C25.1756 26.42 25.0656 26.49 24.9856 26.58C24.1756 27.56 23.5556 28.64 23.2956 29.9C23.3356 30.2 23.6456 30.26 23.8156 30.45C24.4656 31.17 25.1756 31.15 25.7956 30.4C26.0656 30.08 26.3456 29.76 26.6556 29.48C27.5656 28.63 28.8756 28.64 29.7856 29.48C30.0356 29.71 30.2556 29.98 30.4756 30.24C31.3056 31.21 31.9556 31.21 32.7856 30.26C33.0456 29.97 33.2856 29.66 33.5756 29.4C34.4556 28.63 35.7956 28.67 36.6356 29.48C36.9656 29.8 37.2556 30.14 37.5556 30.48C38.1256 31.12 38.9356 31.11 39.4956 30.46C39.6456 30.28 39.8056 30.11 39.9456 29.92C41.0956 28.49 42.7456 28.48 43.9356 29.89C44.0556 30.04 44.1556 30.24 44.4156 30.17C44.5356 29.99 44.4656 29.81 44.4156 29.63C44.2756 29.06 44.0556 28.53 43.7756 28.02C43.4156 27.38 43.0856 26.72 42.4256 26.32C42.3756 26.31 42.3156 26.3 42.2656 26.29C42.1056 26.27 41.9356 26.27 41.7756 26.27C41.6756 26.27 41.5756 26.27 41.4756 26.27" fill="white"/>
</mask>
<g mask="url(#mask3_521_19159)">
<path d="M22.9999 25.2055L22.5508 34.5547L44.6952 35.6184L45.1443 26.2691L22.9999 25.2055Z" fill="url(#paint2_linear_521_19159)"/>
</g>
<mask id="mask4_521_19159" style="mask-type:luminance" maskUnits="userSpaceOnUse" x="25" y="17" width="19" height="7">
<path d="M42.5239 17.24C41.5039 17.24 40.4939 17.26 39.4839 17.26C35.6239 17.26 31.7739 17.26 27.9139 17.26C27.6639 17.26 27.4139 17.28 27.1739 17.32C26.4039 17.46 25.8639 18.03 25.7339 18.84C25.6139 19.55 25.9739 20.3 26.6039 20.67C26.9439 20.87 27.3039 20.91 27.6839 20.92C28.3839 20.92 28.3839 20.92 28.3939 21.65C28.3939 22.12 28.3939 22.59 28.4039 23.05C28.6439 22.97 28.6039 22.76 28.6239 22.58C28.6439 22.3 28.6239 22.02 28.6239 21.74C28.6239 21.17 28.6639 21.14 29.2439 21.14C29.3739 21.14 29.4939 21.14 29.6239 21.14C32.9939 21.14 36.3739 21.14 39.7439 21.14C39.7939 21.14 39.8339 21.14 39.8839 21.14C40.1039 21.14 40.3239 21.14 40.5339 21.1C40.7239 21.06 40.8839 20.95 41.0739 20.92C41.8839 20.62 42.3339 20.03 42.3739 19.21C42.3839 18.96 42.3839 18.71 42.2939 18.47C42.1939 18.22 42.0739 17.99 41.8939 17.79C41.7339 17.62 41.5639 17.48 41.3339 17.4C41.9339 17.52 42.6839 17.49 43.0239 17.32C42.9339 17.25 42.8339 17.23 42.7339 17.23C42.6639 17.23 42.5939 17.23 42.5239 17.23" fill="white"/>
</mask>
<g mask="url(#mask4_521_19159)">
<path d="M43.0155 17.23H25.6055V23.05H43.0155V17.23Z" fill="url(#paint3_linear_521_19159)"/>
</g>
<mask id="mask5_521_19159" style="mask-type:luminance" maskUnits="userSpaceOnUse" x="25" y="23" width="18" height="4">
<path d="M26.8352 25.14C26.2552 25.45 25.7552 25.87 25.2852 26.33C25.3952 26.46 25.5452 26.45 25.6752 26.43C25.7152 26.43 25.7652 26.43 25.8052 26.43C29.7752 26.43 33.7352 26.43 37.7052 26.43C39.2852 26.43 40.8552 26.43 42.4352 26.42C41.9752 25.83 41.3552 25.44 40.7252 25.07C40.3152 24.83 39.9352 24.55 39.6752 24.16C39.3652 23.68 38.9652 23.52 38.4152 23.53C35.2252 23.54 32.0452 23.53 28.8552 23.53C28.8152 23.53 28.7752 23.53 28.7352 23.54C28.5852 23.56 28.4152 23.58 28.3552 23.34C28.1252 24.19 27.5852 24.76 26.8252 25.17" fill="white"/>
</mask>
<g mask="url(#mask5_521_19159)">
<path d="M42.4452 23.3199H25.2852V26.4599H42.4452V23.3199Z" fill="url(#paint4_linear_521_19159)"/>
</g>
<path d="M23.3135 29.89C23.5635 30.02 23.7635 30.2 23.9535 30.41C24.4535 30.98 25.0935 31 25.6035 30.44C26.0335 29.97 26.4135 29.45 26.9535 29.09C27.8435 28.5 29.0635 28.59 29.8335 29.33C30.2035 29.69 30.5235 30.09 30.8835 30.46C31.3935 30.98 31.9135 30.97 32.4335 30.47C32.9135 30.01 33.2635 29.42 33.8435 29.05C34.7035 28.5 35.9535 28.62 36.6835 29.33C37.0435 29.68 37.3635 30.06 37.6935 30.43C38.2235 31.02 38.9535 30.95 39.4535 30.34C39.7835 29.94 40.0735 29.49 40.5335 29.19C41.7035 28.42 43.1835 28.65 44.0135 29.78C44.1235 29.93 44.2335 30.08 44.4035 30.18C44.5235 30.22 44.5735 30.31 44.6135 30.43C44.7035 30.84 44.7635 31.25 44.7335 31.67C44.7335 31.84 44.7335 32.01 44.5935 32.14C43.9735 31.93 43.5735 31.46 43.1635 30.98C42.8335 30.59 42.5335 30.11 41.8935 30.16C41.3335 30.21 41.0835 30.64 40.7735 31C40.4635 31.35 40.1635 31.7 39.7535 31.95C38.8835 32.48 37.4435 32.33 36.7635 31.49C36.4835 31.14 36.1735 30.8 35.8535 30.49C35.3835 30.02 34.6335 30.09 34.2135 30.61C33.8635 31.04 33.5535 31.5 33.0735 31.84C32.0435 32.56 30.5535 32.39 29.6635 31.33C29.4535 31.08 29.2635 30.81 29.0535 30.56C28.6535 30.09 27.9135 30.04 27.4735 30.48C27.1135 30.84 26.7935 31.25 26.4235 31.61C25.6935 32.34 24.6335 32.5 23.7035 32.03C23.5235 31.94 23.3535 31.84 23.1035 31.71V32.8C22.9235 32.46 23.0135 32.1 23.0235 31.75C23.0435 31.12 23.0935 30.49 23.2935 29.89" fill="white"/>
<mask id="mask6_521_19159" style="mask-type:luminance" maskUnits="userSpaceOnUse" x="2" y="5" width="17" height="41">
<path d="M14.5248 24.18C14.3448 24.38 14.1648 24.57 13.9748 24.75C12.3748 26.2 10.0548 25.95 8.73484 24.38C8.12484 23.66 7.78484 23.57 6.99484 24.09C5.89484 24.81 4.76484 24.89 3.57484 24.34C3.41484 24.26 3.25484 24.13 3.05484 24.27C3.18484 24.93 3.30484 25.58 3.44484 26.24C4.70484 32.29 5.96484 38.35 7.23484 44.4C7.40484 45.23 7.73484 45.48 8.60484 45.49C9.12484 45.49 9.65484 45.49 10.1748 45.49C11.0448 45.49 11.9048 45.49 12.7748 45.52C13.4848 45.55 14.2048 45.61 14.9148 45.47C14.7848 45.33 14.6248 45.33 14.4548 45.33C14.4148 45.33 14.3848 45.33 14.3448 45.33C14.1748 45.33 14.0148 45.33 13.8448 45.33C13.6048 45.33 13.3648 45.33 13.1148 45.32C13.3448 45.02 13.4748 44.75 13.5448 44.43C13.7348 43.47 13.9548 42.51 14.1648 41.54C15.1848 36.78 16.1948 32.01 17.2148 27.25C17.3848 26.46 17.6448 25.68 17.6548 24.86C17.5848 24.74 17.4548 24.7 17.3448 24.65C16.8448 24.51 16.3948 24.27 15.9648 23.99C15.7348 23.84 15.5248 23.77 15.3248 23.77C15.0548 23.77 14.8048 23.91 14.5548 24.19M8.00484 11.76H7.97484C7.79484 11.76 7.61484 11.76 7.47484 11.89C7.47484 12.12 7.47484 12.36 7.45484 12.59C7.40484 13.15 7.29484 13.69 6.80484 14.06C6.51484 14.48 6.10484 14.72 5.60484 14.8C4.27484 15.48 3.26484 16.46 2.67484 17.85C2.49484 18.26 2.42484 18.71 2.21484 19.12C2.45484 19.23 2.32484 19.43 2.31484 19.59C2.44484 19.71 2.61484 19.74 2.78484 19.79C5.11484 20.42 7.50484 20.67 9.90484 20.75C11.5848 20.81 13.2748 20.81 14.9448 20.66C15.9648 20.57 16.9948 20.51 17.9948 20.26C18.0948 20.22 18.1948 20.17 18.2748 20.09C18.3448 19.98 18.3548 19.86 18.3348 19.73C18.2348 19.08 18.0348 18.46 17.6448 17.92C17.4948 17.83 17.3748 17.92 17.2448 17.97C16.9648 18.08 16.6848 18.11 16.4748 17.84C16.2648 17.57 16.2948 17.29 16.5148 17.03C16.6048 16.93 16.7148 16.82 16.6748 16.66C16.5248 16.34 16.2448 16.14 15.9648 15.94C15.4448 15.57 14.8648 15.28 14.3248 14.95C13.6748 14.55 13.3548 13.95 13.3248 13.2C13.3248 12.98 13.3248 12.76 13.3248 12.54C13.3148 11.9 13.1948 11.77 12.5548 11.77C11.8748 11.77 11.2048 11.77 10.5248 11.77C9.68484 11.77 8.85484 11.77 8.01484 11.77M15.1548 6.16999V6.18999C15.1548 6.18999 15.1548 6.18999 15.1548 6.16999ZM15.9848 5.99999C15.2348 5.99999 14.4948 6.03999 13.7448 6.03999C12.8148 6.03999 11.8948 6.03999 10.9648 6.03999C9.58484 6.03999 8.20484 6.03999 6.83484 6.03999C5.87484 6.03999 5.16484 6.74999 5.08484 7.69999C5.01484 8.56999 5.63484 9.35999 6.53484 9.53999C6.69484 9.60999 6.87484 9.57999 7.04484 9.57999C9.08484 9.57999 11.1148 9.57999 13.1548 9.57999C13.3448 9.58999 13.5448 9.57999 13.7348 9.57999C14.0548 9.57999 14.3848 9.55999 14.7048 9.62999C14.7648 9.62999 14.8348 9.62999 14.8948 9.62999C14.9848 9.55999 15.0948 9.54999 15.1948 9.51999C15.8148 9.31999 16.3248 8.51999 16.3248 7.78999C16.3248 7.10999 15.8048 6.34999 15.2248 6.14999C15.2248 6.14999 15.2148 6.14999 15.2048 6.14999C15.2248 6.14999 15.2448 6.14999 15.2948 6.15999C15.3948 6.15999 15.5148 6.15999 15.6348 6.17999C15.9048 6.20999 16.2148 6.23999 16.5148 6.05999C16.4248 5.99999 16.3348 5.98999 16.2348 5.98999C16.1648 5.98999 16.0848 5.98999 16.0148 5.98999" fill="white"/>
</mask>
<g mask="url(#mask6_521_19159)">
<path d="M18.3448 6H2.21484V45.61H18.3448V6Z" fill="url(#paint5_linear_521_19159)"/>
</g>
<mask id="mask7_521_19159" style="mask-type:luminance" maskUnits="userSpaceOnUse" x="17" y="19" width="4" height="6">
<path d="M20.4147 19.57C19.7047 19.78 18.9847 19.94 18.2447 20.04C18.1847 20.07 18.1147 20.1 18.0547 20.13C18.4047 20.34 18.3447 20.67 18.3147 20.99C18.1947 22.13 17.8747 23.23 17.6747 24.36C17.6347 24.58 17.5747 24.76 17.3047 24.74C17.3747 24.84 17.4847 24.82 17.5847 24.83C18.4647 24.91 19.2747 24.7 20.0347 24.26C20.2247 23.76 20.2647 23.22 20.3947 22.71C20.5847 22.02 20.6047 21.29 20.8747 20.62C20.6647 20.39 20.7747 20.11 20.7747 19.86C20.7747 19.64 20.7347 19.53 20.5847 19.53C20.5347 19.53 20.4747 19.54 20.3947 19.56" fill="white"/>
</mask>
<g mask="url(#mask7_521_19159)">
<path d="M20.8844 19.4616L17.1953 19.5453L17.319 24.9939L21.008 24.9102L20.8844 19.4616Z" fill="url(#paint6_linear_521_19159)"/>
</g>
<mask id="mask8_521_19159" style="mask-type:luminance" maskUnits="userSpaceOnUse" x="28" y="17" width="19" height="29">
<path d="M45.3757 34.43C45.2457 34.43 45.1157 34.43 44.9857 34.43C44.7557 34.43 44.5157 34.41 44.3157 34.57C43.6657 37.13 42.2757 39.18 40.2557 40.84C39.1457 41.75 38.5657 42.92 38.6057 44.37C38.6157 44.79 38.4757 45.11 38.0957 45.47H40.3957C40.9057 45.38 41.0857 45.03 41.1157 44.57C41.1357 44.21 41.1157 43.86 41.1757 43.5C41.4157 42.21 42.1857 41.31 43.1657 40.49C44.9757 38.98 46.1857 37.07 46.7757 34.78C46.8457 34.45 46.5857 34.47 46.3957 34.45C46.1857 34.43 45.9757 34.43 45.7657 34.43C45.6357 34.43 45.5057 34.43 45.3857 34.43M40.6657 20.99C36.7857 20.99 32.8957 20.99 29.0157 20.99C28.5757 20.99 28.4657 21.12 28.4757 21.54C28.4857 22.05 28.5757 22.56 28.4057 23.06C28.4057 23.15 28.3857 23.24 28.3757 23.33C28.3357 23.7 28.5657 23.68 28.7557 23.66C28.7957 23.66 28.8457 23.66 28.8757 23.66C29.8357 23.68 30.8057 23.67 31.7657 23.67C32.1257 23.67 32.4957 23.67 32.8557 23.67C34.6957 23.67 36.5457 23.67 38.3857 23.67C38.8157 23.67 39.1857 23.76 39.4657 24.11C40.2657 25.13 41.4657 25.63 42.4457 26.42C42.4757 26.42 42.5057 26.44 42.5357 26.45C43.2757 26.7 44.0257 26.57 44.7757 26.55C44.8557 26.55 44.9157 26.5 44.9757 26.44C44.4557 25.8 43.7657 25.38 43.0757 24.97C42.2357 24.46 41.8057 23.72 41.7857 22.74C41.7857 22.16 41.7857 21.59 41.7857 21.01C41.7557 20.99 41.7257 20.98 41.6957 20.96C41.5257 20.96 41.3557 20.96 41.1757 20.96C41.1257 20.96 41.0757 20.95 41.0557 20.91C40.9257 20.94 40.7957 20.97 40.6557 21M41.0557 17.33C42.0357 17.96 42.3557 18.49 42.2357 19.37C42.1357 20.08 41.7457 20.59 41.0257 20.81C41.0257 20.85 41.0257 20.88 41.0357 20.9C41.2457 20.86 41.4657 20.84 41.6757 20.95C41.6957 20.95 41.7157 20.95 41.7357 20.95C42.0957 20.95 42.4657 20.96 42.8257 20.92C43.7257 20.84 44.4357 20.15 44.4857 19.28C44.5457 18.29 43.9657 17.53 43.0057 17.33H41.0457H41.0557Z" fill="white"/>
</mask>
<g mask="url(#mask8_521_19159)">
<path d="M46.8342 17.3199H28.3242V45.4699H46.8342V17.3199Z" fill="url(#paint7_linear_521_19159)"/>
</g>
<mask id="mask9_521_19159" style="mask-type:luminance" maskUnits="userSpaceOnUse" x="-1" y="6" width="25" height="40">
<path d="M17.595 24.8299C17.475 25.3599 17.335 25.8799 17.225 26.4099C16.605 29.2899 16.005 32.1699 15.385 35.0499C14.805 37.7799 14.255 40.5099 13.625 43.2299C13.455 43.9799 13.575 44.8799 12.805 45.4699H14.895C15.415 45.4099 15.705 45.0999 15.815 44.6199C16.005 43.7599 16.185 42.8899 16.365 42.0199C17.285 37.5899 18.215 33.1699 19.135 28.7499C19.445 27.2599 19.745 25.7699 20.045 24.2799C19.235 24.5099 18.425 24.6999 17.595 24.8499M2.775 12.0199C0.995 12.2499 -0.335 13.5599 -0.775 15.3499C-0.795 15.4299 -0.785 15.5099 -0.875 15.5499V17.0499C-0.715 17.1599 -0.745 17.3599 -0.705 17.5099C-0.245 19.0299 0.715 20.0799 2.205 20.6399C2.445 20.6199 2.415 20.4199 2.445 20.2699C2.475 20.0799 2.455 19.8799 2.455 19.6799C2.455 19.4599 2.535 19.2099 2.295 19.0499C2.165 18.9399 2.015 18.8399 1.885 18.7299C0.695 17.7399 0.335 16.2099 1.015 14.9499C1.525 14.0099 2.815 13.1399 4.205 13.6899C4.785 13.9199 5.145 14.3899 5.535 14.8399C6.005 14.9699 6.665 14.5599 6.815 14.0599C5.985 12.7399 4.855 11.9799 3.385 11.9799C3.185 11.9799 2.985 11.9899 2.785 12.0199M17.715 15.0299C17.425 14.8699 17.545 14.7299 17.665 14.5599C18.295 13.7199 19.105 13.2499 20.165 13.4399C21.355 13.6599 22.165 14.3799 22.465 15.5599C22.835 16.9999 22.055 18.5599 20.735 19.1299C20.345 17.3099 19.355 15.9199 17.725 15.0199M14.985 6.06995C15.735 6.41995 16.155 7.00995 16.165 7.76995C16.185 8.54995 15.825 9.17995 15.035 9.47995C15.015 9.47995 15.005 9.49995 14.985 9.50995C14.955 9.50995 14.925 9.50995 14.895 9.50995C14.805 9.49995 14.725 9.49995 14.635 9.50995C14.135 9.50995 13.635 9.50995 13.145 9.50995C12.545 9.50995 11.935 9.50995 11.335 9.50995C10.245 9.50995 9.165 9.50995 8.075 9.50995C7.865 9.50995 7.635 9.45995 7.455 9.63995C7.455 10.3899 7.475 11.1399 7.475 11.8899C9.115 11.8899 10.755 11.8899 12.395 11.8899C13.195 11.8899 13.185 11.8899 13.195 12.6699C13.195 13.0099 13.155 13.3499 13.245 13.6899C13.455 14.5199 14.055 14.9799 14.765 15.3599C15.465 15.7299 16.175 16.0999 16.665 16.7599C16.745 16.8699 16.875 16.8599 16.995 16.8899C17.415 16.9799 17.545 17.1499 17.545 17.5899C17.545 17.6799 17.525 17.7699 17.575 17.8599C17.865 18.5699 18.225 19.2499 18.255 20.0399C18.405 20.1799 18.575 20.1199 18.745 20.0899C19.235 20.0199 19.725 19.9099 20.205 19.7699C20.525 19.6699 20.665 19.7499 20.665 20.0999C20.665 20.2899 20.565 20.5599 20.895 20.6199C23.065 19.9199 24.405 17.4699 23.845 15.2199C23.185 12.5599 20.195 11.1799 17.875 12.4699C17.195 12.8499 16.685 13.3999 16.245 14.0799C15.955 13.7299 15.755 13.3799 15.705 12.9699C15.555 11.8599 15.675 10.7599 15.645 9.64995C15.875 9.64995 16.115 9.64995 16.345 9.62995C17.285 9.55995 18.025 8.77995 18.055 7.85995C18.075 6.97995 17.385 6.17995 16.495 6.07995H14.995L14.985 6.06995Z" fill="white"/>
</mask>
<g mask="url(#mask9_521_19159)">
<path d="M24.395 6.06995H-0.875V45.4599H24.395V6.06995Z" fill="url(#paint8_linear_521_19159)"/>
</g>
<mask id="mask10_521_19159" style="mask-type:luminance" maskUnits="userSpaceOnUse" x="42" y="26" width="6" height="9">
<path d="M46.9852 31.66C46.2952 32.06 45.5652 32.27 44.7652 32.18C44.7352 32.18 44.7152 32.21 44.6952 32.23C44.5552 32.35 44.6152 32.52 44.6052 32.66C44.5552 33.3 44.4952 33.94 44.3152 34.57C45.0052 34.57 45.6852 34.57 46.3752 34.58C46.4052 34.58 46.4352 34.58 46.4652 34.58C46.6052 34.58 46.7452 34.56 46.7752 34.78C47.0652 33.77 47.1752 32.74 47.1252 31.69C47.0952 31.68 47.0552 31.66 47.0252 31.66C47.0152 31.66 47.0052 31.66 46.9852 31.66ZM42.5352 26.44C42.6152 26.53 42.7052 26.62 42.7752 26.72C43.6152 27.73 44.2352 28.85 44.4052 30.18C44.4352 30.24 44.4652 30.3 44.5052 30.36C44.8052 30.85 45.1452 31.04 45.6052 30.92C46.2052 30.77 46.5552 30.3 46.8552 29.79C46.5452 28.49 45.9652 27.34 44.9752 26.42C44.1652 26.42 43.3452 26.42 42.5352 26.43" fill="white"/>
</mask>
<g mask="url(#mask10_521_19159)">
<path d="M47.0844 25.8304L41.4531 26.5728L42.615 35.3865L48.2463 34.6441L47.0844 25.8304Z" fill="url(#paint9_linear_521_19159)"/>
</g>
<path d="M47.1161 31.68C46.6661 31.91 46.2561 32.2 45.7361 32.29C45.3661 32.36 45.0361 32.22 44.6861 32.23C44.6561 32.2 44.6161 32.17 44.5861 32.14C44.6061 31.55 44.5861 30.95 44.4961 30.36C45.3561 31.05 45.6361 31.03 46.4061 30.18C46.5461 30.03 46.7661 29.99 46.8561 29.79C47.0861 30.4 47.1561 31.03 47.1161 31.68Z" fill="#DBD1CC"/>
<path d="M41.0363 20.8C41.4463 21.01 41.8763 20.84 42.2863 20.88C42.4663 20.9 42.6463 20.89 42.8363 20.9C42.4963 21.04 42.1263 20.91 41.7763 20.98C41.4063 20.98 41.0263 20.98 40.6562 20.98C40.7563 20.86 40.8863 20.81 41.0363 20.8Z" fill="#BB6E57"/>
<path d="M9.58695 17.72C9.58695 18.11 9.22695 18.45 8.81695 18.44C8.40695 18.43 8.05695 18.08 8.06695 17.69C8.07695 17.3 8.38695 17.02 8.81695 17.02C9.26695 17.02 9.58695 17.31 9.58695 17.72ZM14.3069 17.02C13.8369 17 13.4969 17.31 13.4969 17.73C13.4969 18.09 13.8469 18.43 14.2269 18.44C14.6469 18.45 14.9869 18.14 14.9869 17.73C14.9869 17.3 14.7369 17.04 14.2969 17.02M10.7769 17.8C10.7769 18.19 11.1369 18.53 11.5469 18.52C11.9469 18.52 12.2569 18.21 12.2669 17.82C12.2769 17.39 11.9869 17.09 11.5469 17.08C11.1269 17.08 10.7769 17.4 10.7769 17.79M16.2069 17.54C16.2569 17.84 16.4369 18.05 16.7269 18.13C17.0569 18.22 17.3269 18.07 17.5569 17.85C17.8069 17.07 17.5169 16.72 16.6369 16.75C16.3569 16.94 16.1269 17.17 16.1969 17.55M5.38695 17.46C5.38695 17.84 5.72695 18.16 6.12695 18.16C6.50695 18.16 6.85695 17.83 6.86695 17.45C6.86695 17.05 6.53695 16.73 6.09695 16.74C5.69695 16.74 5.37695 17.07 5.38695 17.46Z" fill="white"/>
</g>
</g>
<defs>
<linearGradient id="paint0_linear_521_19159" x1="39.5407" y1="45.2634" x2="60.3324" y2="45.2634" gradientUnits="userSpaceOnUse">
<stop stop-color="#FD8A42"/>
<stop offset="1" stop-color="#FC6727"/>
</linearGradient>
<linearGradient id="paint1_linear_521_19159" x1="12.9935" y1="25.3868" x2="38.8847" y2="25.3868" gradientUnits="userSpaceOnUse">
<stop stop-color="#FD8A42"/>
<stop offset="1" stop-color="#FC6727"/>
</linearGradient>
<linearGradient id="paint2_linear_521_19159" x1="32.0306" y1="21.2248" x2="30.9975" y2="42.7326" gradientUnits="userSpaceOnUse">
<stop stop-color="#FBB525"/>
<stop offset="1" stop-color="#FD921A"/>
</linearGradient>
<linearGradient id="paint3_linear_521_19159" x1="30.5277" y1="21.7783" x2="47.6986" y2="21.7783" gradientUnits="userSpaceOnUse">
<stop stop-color="#FD8A42"/>
<stop offset="1" stop-color="#FC6727"/>
</linearGradient>
<linearGradient id="paint4_linear_521_19159" x1="28.6184" y1="26.2307" x2="45.6312" y2="26.2307" gradientUnits="userSpaceOnUse">
<stop stop-color="#FD8A42"/>
<stop offset="1" stop-color="#FC6727"/>
</linearGradient>
<linearGradient id="paint5_linear_521_19159" x1="-5.05776" y1="22.735" x2="10.932" y2="22.735" gradientUnits="userSpaceOnUse">
<stop stop-color="#FBB525"/>
<stop offset="1" stop-color="#FD921A"/>
</linearGradient>
<linearGradient id="paint6_linear_521_19159" x1="-1.59465" y1="17.6533" x2="4.16057" y2="17.5227" gradientUnits="userSpaceOnUse">
<stop stop-color="#FD8A42"/>
<stop offset="1" stop-color="#FC6727"/>
</linearGradient>
<linearGradient id="paint7_linear_521_19159" x1="12.0331" y1="31.5436" x2="30.289" y2="31.5436" gradientUnits="userSpaceOnUse">
<stop stop-color="#FD8A42"/>
<stop offset="1" stop-color="#FC6727"/>
</linearGradient>
<linearGradient id="paint8_linear_521_19159" x1="-38.7542" y1="21.0725" x2="-14.1216" y2="21.0725" gradientUnits="userSpaceOnUse">
<stop stop-color="#FBB525"/>
<stop offset="0.82" stop-color="#FD991C"/>
<stop offset="1" stop-color="#FD921A"/>
</linearGradient>
<linearGradient id="paint9_linear_521_19159" x1="45.3042" y1="16.937" x2="46.4151" y2="25.3643" gradientUnits="userSpaceOnUse">
<stop stop-color="#FBB525"/>
<stop offset="1" stop-color="#FD7E1A"/>
</linearGradient>
<clipPath id="clip0_521_19159">
<rect width="48" height="48" fill="white" transform="translate(0.125)"/>
</clipPath>
<clipPath id="clip1_521_19159">
<rect width="49.12" height="41.84" fill="white" transform="translate(-0.875 6)"/>
</clipPath>
</defs>
</svg>
