<svg width="49" height="48" viewBox="0 0 49 48" fill="none" xmlns="http://www.w3.org/2000/svg">
<g clip-path="url(#clip0_521_19140)">
<g clip-path="url(#clip1_521_19140)">
<g style="mix-blend-mode:multiply">
<mask id="mask0_521_19140" style="mask-type:luminance" maskUnits="userSpaceOnUse" x="0" y="46" width="45" height="2">
<path d="M44.945 46.13H0.125V47.83H44.945V46.13Z" fill="white"/>
</mask>
<g mask="url(#mask0_521_19140)">
<path d="M44.945 46.98C44.945 47.45 34.915 47.83 22.535 47.83C10.155 47.83 0.125 47.45 0.125 46.98C0.125 46.51 10.155 46.13 22.535 46.13C34.915 46.13 44.945 46.51 44.945 46.98Z" fill="#CBE7F2"/>
</g>
</g>
<path d="M31.4769 26.76C31.9169 28.1 32.3569 29.44 32.7969 30.78C32.8269 30.87 32.8669 30.97 32.9069 31.06C33.1369 31.24 33.1469 31.53 33.2369 31.78C33.3769 32.19 33.5069 32.61 33.6569 33.03C34.1769 34.66 34.7169 36.29 35.2469 37.92C35.3869 38.35 35.6669 38.61 36.0669 38.77C36.5869 38.97 37.1169 39.16 37.6469 39.36C38.0669 39.52 38.3569 39.81 38.5569 40.21C39.0069 41.12 39.4569 42.02 39.8569 42.95C39.9169 43.09 40.0069 43.23 39.8969 43.39C39.8769 43.41 39.8469 43.43 39.8269 43.43C38.9069 43.47 38.0669 43.74 37.3269 44.31C37.1669 44.44 36.9469 44.44 36.7569 44.36C35.6269 43.83 34.5569 43.95 33.5169 44.6C33.2069 44.56 32.9469 44.38 32.6469 44.29C31.8769 44.07 31.1469 44.16 30.4669 44.58C30.1269 44.79 29.8069 44.87 29.4369 44.69C28.7669 44.49 28.1569 44.67 27.5969 45.02C27.2569 45.23 26.9569 45.28 26.5769 45.14C25.4969 44.74 24.3269 45.33 23.9269 46.44C23.8369 46.69 23.9569 46.92 23.9269 47.15H23.5869C23.5069 47.06 23.4669 46.96 23.4669 46.84C23.4669 45.8 23.4069 44.77 23.4969 43.73C23.5769 43.5 23.7869 43.44 23.9669 43.34C25.2669 42.65 25.6969 41.24 25.0069 39.93C24.8769 39.68 24.8169 39.44 24.8969 39.16C25.0669 38.61 24.9769 38.08 24.6869 37.6C24.5069 37.3 24.4669 37.01 24.5569 36.66C24.8369 35.61 24.4069 34.8 23.4069 34.42C22.9069 34.29 22.4269 34.33 21.9869 34.64C21.8869 34.71 21.7869 34.8 21.6469 34.78C21.5169 34.68 21.5369 34.53 21.5269 34.39C21.4469 33.66 21.1269 33.07 20.5169 32.67C20.1669 32.37 19.6969 32.39 19.2969 32.21C19.4069 31.44 19.7569 30.83 20.4169 30.42C20.7169 30.23 21.0369 30.1 21.3769 30.01C22.2569 29.79 22.8469 29.25 23.1769 28.37C23.6269 27.17 24.0869 25.97 24.6069 24.8C24.6369 24.77 24.6669 24.74 24.7169 24.73C25.0869 24.7 25.3969 24.87 25.6969 25.04C26.4269 25.44 27.0569 25.98 27.7569 26.43C28.8769 27.15 30.0369 27.31 31.2769 26.81C31.3469 26.78 31.4069 26.76 31.4769 26.77" fill="#C88C65"/>
<path d="M24.6563 24.78C24.1363 26.21 23.6063 27.64 22.9563 29.01C22.6863 29.58 22.1563 29.91 21.5763 30.04C20.4963 30.29 19.7363 30.9 19.3663 31.98C19.3463 32.05 19.3063 32.11 19.2663 32.17C19.1663 32.31 19.0063 32.33 18.8663 32.37C17.9563 32.63 17.4263 33.24 17.2363 34.18C17.1663 34.54 17.2463 34.87 17.3663 35.19C17.4963 35.54 17.4763 35.85 17.2563 36.16C16.9763 36.55 16.8863 37.02 16.8163 37.49C16.4263 38.33 16.0463 39.17 15.6363 40C14.6663 41.98 13.7663 43.99 12.7663 45.96C12.5663 46.35 12.4663 46.7 12.8563 47.03C12.8863 47.06 12.8863 47.11 12.8663 47.15H7.75628C7.34628 46.78 7.30628 46.57 7.54628 46.07C9.85628 41.24 12.1763 36.4 14.4863 31.57C14.8163 30.88 15.3263 30.38 16.0663 30.21C17.2463 29.93 17.9563 29.2 18.3663 28.03C18.8963 26.53 19.5263 25.07 20.1163 23.59C20.3263 23.57 20.3463 23.76 20.4263 23.89C20.6763 24.28 20.9163 24.69 21.3063 24.97C21.8363 25.36 22.3863 25.4 22.9663 25.11C23.3563 24.91 23.7363 24.71 24.1763 24.66C24.3663 24.64 24.5363 24.61 24.6663 24.8" fill="#AA6B51"/>
<path d="M46.9443 44.03C47.4943 44.67 47.8943 45.38 48.0843 46.22C48.1643 46.6 48.1343 46.92 47.7843 47.14H38.2843C37.9843 46.99 37.8443 46.74 37.9043 46.41C38.1143 45.24 38.6543 44.26 39.6043 43.55C39.7443 43.45 39.9043 43.4 40.0643 43.35C40.1043 43.35 40.1543 43.33 40.1843 43.35C40.9243 43.62 41.5643 43.41 42.1843 42.98C42.2943 42.9 42.4443 42.87 42.5743 42.83C43.7443 42.5 44.8643 42.57 45.9543 43.15C46.3643 43.37 46.7043 43.65 46.9543 44.04" fill="#00B966"/>
<path d="M12.8845 47.14C12.3645 46.71 12.3445 46.62 12.6445 45.99C13.6645 43.88 14.6945 41.77 15.6945 39.65C16.0345 38.93 16.3445 38.2 16.7345 37.51C16.9445 38.07 17.1145 38.59 16.7845 39.2C15.9245 40.79 16.6145 42.65 18.2545 43.36C18.4445 43.44 18.6645 43.47 18.7645 43.7C18.8645 44.74 18.8045 45.78 18.8045 46.82C18.8045 46.94 18.7645 47.04 18.6845 47.13H12.8845V47.14Z" fill="#C88C65"/>
<path d="M29.4544 44.58C29.7844 44.74 30.0644 44.68 30.3844 44.48C31.4144 43.86 32.4544 43.92 33.4744 44.54C33.7044 44.5 33.8444 44.67 33.9744 44.8C34.4544 45.29 34.7944 45.87 34.9144 46.57C34.9544 46.82 34.9144 47.02 34.6744 47.14H27.8644C27.7044 46.95 27.7644 46.73 27.8244 46.53C28.1044 45.65 28.6144 44.96 29.4644 44.58" fill="#43CA8D"/>
<path d="M34.6648 47.14C34.8348 46.94 34.8348 46.73 34.7748 46.46C34.5848 45.64 34.1348 45.01 33.4648 44.54C34.4248 43.81 35.4648 43.7 36.5448 44.17C36.9048 44.33 37.1648 44.3 37.4648 44.06C38.1748 43.51 38.9948 43.32 39.8748 43.34C39.9748 43.28 40.0348 43.31 40.0548 43.42C39.4548 43.62 39.0748 44.09 38.7248 44.59C38.4148 45.03 38.2048 45.52 38.0548 46.05C37.9348 46.45 37.9548 46.83 38.2748 47.14H34.6548H34.6648Z" fill="#01A655"/>
<path d="M29.4532 44.58C29.4332 44.74 29.2932 44.76 29.1932 44.83C28.4132 45.4 27.8732 46.12 27.8532 47.15H23.9032C23.7132 46.94 23.7032 46.71 23.7932 46.44C24.2232 45.19 25.5032 44.57 26.7032 45.06C26.9632 45.17 27.1632 45.17 27.3932 45C28.0132 44.55 28.7032 44.38 29.4532 44.58Z" fill="#00B966"/>
<path d="M22.3056 47.14H19.9556C19.8556 47.03 19.8256 46.89 19.8256 46.74C19.8256 45.76 19.7856 44.77 19.8456 43.79C19.9056 43.52 20.1356 43.49 20.3456 43.43C20.7156 43.38 20.9356 43.01 21.3156 42.99C21.5956 43.15 21.8356 43.37 22.1456 43.48C22.2656 43.52 22.3656 43.61 22.3956 43.75C22.4756 44.76 22.4256 45.78 22.4256 46.79C22.4256 46.92 22.3856 47.04 22.3056 47.15" fill="#C88C65"/>
<path d="M22.3047 47.14C22.3047 45.97 22.3047 44.8 22.3047 43.63C22.6547 43.46 23.0247 43.66 23.3847 43.55C23.4547 43.55 23.5247 43.56 23.5747 43.63C23.5747 44.8 23.5747 45.97 23.5747 47.14H22.3147H22.3047Z" fill="#955A44"/>
<path d="M19.9436 43.68C19.9436 44.83 19.9436 45.99 19.9436 47.14H18.6836C18.6836 45.97 18.6836 44.8 18.6836 43.63C19.1036 43.53 19.5236 43.51 19.9336 43.68" fill="#955A44"/>
<path d="M40.0569 43.43C39.9969 43.4 39.9369 43.37 39.8769 43.35C39.4269 42.23 38.8869 41.15 38.3369 40.07C38.1169 39.63 37.6769 39.48 37.2469 39.33C36.8369 39.18 36.4369 39.03 36.0269 38.89C35.5569 38.73 35.2569 38.42 35.0969 37.93C34.6269 36.44 34.1269 34.95 33.6469 33.46C33.6069 33.33 33.5769 33.18 33.5469 33.05C33.6369 32.99 33.7369 33.01 33.8269 33.04C34.5569 33.25 35.1269 32.85 35.7169 32.54C35.9169 32.43 35.8169 32.24 35.7669 32.08C35.4669 31.16 35.1669 30.24 34.8669 29.32C34.7369 28.9 34.5769 28.49 34.4769 28.06C34.6669 27.68 34.8569 27.3 35.0569 26.93C35.3269 26.44 35.7969 26.43 36.0669 26.93C36.3769 27.48 36.6669 28.03 36.9469 28.59C37.1869 29.07 37.5469 29.36 38.0369 29.53C38.6569 29.75 39.2769 29.99 39.8869 30.21C40.2169 30.33 40.5169 30.5 40.6669 30.82C41.3469 32.18 42.0269 33.54 42.6269 34.94C42.4969 35.13 42.2969 35.13 42.0969 35.14C41.3169 35.17 40.6069 34.94 39.9369 34.54C39.1569 34.08 38.4669 33.49 37.6869 33.03C37.3269 32.82 36.9569 32.67 36.5369 32.64C36.3069 32.63 36.1769 32.68 36.2669 32.96C36.5569 33.84 36.8169 34.74 37.1469 35.61C37.4069 36.29 37.9269 36.71 38.5869 36.96C39.1869 37.19 39.6969 37.57 40.1269 38.05C40.3569 38.3 40.5569 38.58 40.7069 38.89C41.3069 40.09 41.8769 41.3 42.4369 42.52C42.4969 42.65 42.5769 42.77 42.5169 42.93C42.1369 43.1 41.7569 43.26 41.4069 43.51C41.1969 43.66 40.9769 43.67 40.7369 43.59C40.4969 43.51 40.2669 43.43 40.0069 43.45" fill="#AA6B51"/>
<path d="M19.1963 19.19C18.2063 19.19 17.2063 19.2 16.2163 19.19C15.2063 19.18 14.2863 18.37 14.1563 17.39C13.9963 16.27 14.5463 15.33 15.5763 14.97C15.7363 14.82 15.9263 14.83 16.0463 14.85C15.4663 14.85 14.8063 14.84 14.1563 14.85C12.8763 14.59 12.0763 13.57 12.1063 12.21C12.1363 11 13.0663 9.96002 14.3063 9.79002C14.6563 9.74002 14.8963 9.61002 15.0563 9.27002C15.3663 8.65002 15.8263 8.15002 16.4063 7.77002C17.0163 8.15002 17.5463 8.62002 17.8263 9.29002C18.0063 9.72002 18.2963 9.84002 18.6863 9.88002C19.5863 9.98002 20.1963 10.5 20.5963 11.3C20.7463 11.6 20.8263 11.92 20.7863 12.25C20.7363 12.63 20.8363 12.92 21.2063 13.06C21.2163 13.1 21.2263 13.16 21.2063 13.18C20.7163 13.63 20.3063 14.15 19.9663 14.73C19.8563 14.93 19.6263 14.95 19.4063 14.97C18.5163 15.06 17.7663 15.77 17.6363 16.65C17.4863 17.62 17.9563 18.49 18.8263 18.88C18.9663 18.94 19.1763 18.93 19.1863 19.16" fill="#8AC9FE"/>
<path d="M24.6555 24.78C23.9955 24.61 23.4755 24.97 22.9255 25.23C22.3455 25.5 21.8055 25.44 21.2655 25.06C20.8355 24.76 20.5755 24.32 20.3055 23.89C20.2355 23.78 20.1755 23.68 20.1055 23.57C20.6155 22.24 21.1255 20.91 21.6355 19.59C21.6855 19.46 21.7255 19.33 21.7755 19.19C21.7155 19.02 21.8055 18.88 21.8655 18.74C22.3055 17.61 22.7455 16.48 23.1855 15.35C23.2655 15.16 23.3455 14.98 23.5455 14.9C23.8255 14.67 24.1555 14.67 24.4955 14.67C26.2855 14.67 25.9555 14.57 26.7955 16.01C27.0255 16.41 27.2655 16.75 27.7555 16.79C27.8955 16.96 27.7955 17.12 27.7355 17.27C26.8155 19.66 25.8555 22.04 24.9255 24.42C24.8655 24.57 24.7955 24.7 24.6455 24.78H24.6555Z" fill="#955A44"/>
<path d="M42.5662 42.92C41.9462 41.62 41.3362 40.32 40.6962 39.03C40.2362 38.1 39.5362 37.43 38.5762 37.06C37.7462 36.74 37.2062 36.16 36.9362 35.29C36.6862 34.49 36.4262 33.69 36.1562 32.89C36.0562 32.6 36.1262 32.52 36.4162 32.51C37.1162 32.49 37.6762 32.85 38.2262 33.21C38.8262 33.6 39.3962 34.04 40.0062 34.41C40.8162 34.91 41.6862 35.16 42.6462 34.92C44.0762 37.95 45.5062 40.99 46.9362 44.02C45.9662 43.1 44.8362 42.62 43.5062 42.75C43.1862 42.78 42.8762 42.86 42.5562 42.91" fill="#C88C65"/>
<path d="M33.895 17.48C34.475 17.76 34.835 18.28 35.135 18.83C35.255 19.05 35.365 19.18 35.625 19.21C36.485 19.31 37.145 19.72 37.515 20.55C38.115 21.88 37.095 23.56 35.655 23.58C34.395 23.59 33.135 23.58 31.885 23.58C31.065 23.46 30.485 23 30.215 22.21C29.775 20.88 30.415 19.48 31.855 19.19C32.305 19.1 32.595 18.93 32.815 18.49C33.035 18.04 33.345 17.6 33.895 17.49" fill="#DEEAF9"/>
<path d="M16.4151 7.76999C16.4151 7.76999 16.4151 7.79999 16.4151 7.80999C15.8351 8.37999 15.2851 8.96999 14.9151 9.71999C14.8551 9.82999 14.5851 9.87999 14.4151 9.87999C13.2951 9.89999 12.4151 10.89 12.2251 11.9C12.0251 13.01 12.6151 14.08 13.6951 14.6C13.8151 14.66 13.9451 14.72 14.0651 14.79C13.5451 14.89 13.0151 14.83 12.4851 14.83C11.8351 14.83 11.1751 14.88 10.5251 14.8C9.34513 14.66 8.38514 13.62 8.34514 12.46C8.30514 11.18 9.13514 10.08 10.3451 9.89999C10.8851 9.81999 11.1751 9.58999 11.4351 9.09999C12.3851 7.34999 14.6551 6.75999 16.3951 7.75999" fill="#60B7FD"/>
<path d="M24.6562 24.78C25.4162 22.87 26.1763 20.97 26.9163 19.06C27.2063 18.31 27.5662 17.58 27.7662 16.78C28.1362 16.81 28.3262 17.05 28.4362 17.39C28.6262 17.99 28.8162 18.58 29.0062 19.18C28.8462 19.34 28.6262 19.33 28.4262 19.39C27.4762 19.66 26.7862 20.61 26.8862 21.52C27.0162 22.64 27.8562 23.44 28.9362 23.46C29.2862 23.46 29.6363 23.46 29.9862 23.46C30.1462 23.46 30.3262 23.43 30.4562 23.58C30.7962 24.64 31.1362 25.69 31.4762 26.75C31.1162 27.09 30.6562 27.13 30.2062 27.18C29.1462 27.31 28.2462 26.89 27.3862 26.31C26.8162 25.92 26.2762 25.49 25.6862 25.14C25.3662 24.95 25.0362 24.83 24.6762 24.77" fill="#AA6B51"/>
<path d="M23.5533 14.9C23.1633 15.58 22.9533 16.34 22.6433 17.06C22.3433 17.77 22.0633 18.48 21.7833 19.2C20.9233 19.2 20.0533 19.2 19.1933 19.2C18.6533 18.96 18.1333 18.72 17.8033 18.17C16.9833 16.81 17.8733 15 19.4333 14.9C19.6433 14.89 19.8433 14.85 19.9333 14.65C20.2233 14.01 20.6933 13.54 21.2033 13.09C21.6733 13.35 22.0833 13.71 22.2833 14.19C22.5433 14.81 22.9633 14.96 23.5433 14.9" fill="#B0DAFB"/>
<path d="M30.4533 23.58C29.9933 23.58 29.5233 23.55 29.0733 23.58C28.0033 23.66 26.8633 22.81 26.7733 21.46C26.7033 20.31 27.6133 19.33 28.8433 19.2C28.9033 19.2 28.9533 19.2 29.0133 19.19C29.2033 19.14 29.2633 18.98 29.3433 18.82C29.9133 17.7 30.8333 17.1 32.0333 16.98C32.6833 16.92 33.3333 17.06 33.8933 17.48C33.3533 17.84 32.9333 18.31 32.6933 18.92C32.5433 19.29 32.2133 19.22 31.9433 19.27C30.8833 19.46 30.3033 20.25 30.2033 21.04C30.0433 22.36 30.7033 23.07 31.4933 23.41C31.6233 23.46 31.7733 23.46 31.8733 23.58C31.3933 23.58 30.9233 23.58 30.4433 23.59" fill="#B0DAFB"/>
<path d="M37.6343 10.85C36.6543 11.52 35.2443 10.98 34.8343 9.77998C34.5743 9.00998 34.7743 8.15998 35.3743 7.63998C36.0043 7.07998 36.7243 6.97998 37.4943 7.30998C37.5543 7.32998 37.5943 7.37998 37.6443 7.41998C37.2643 7.67998 36.9443 7.99998 36.7843 8.44998C36.4843 9.26998 36.7143 10.08 37.4243 10.66C37.4943 10.72 37.5943 10.76 37.6343 10.85Z" fill="#FEC10C"/>
<path d="M34.5041 28.05C34.6441 28.11 34.6541 28.24 34.6941 28.36C35.1041 29.63 35.5141 30.9 35.9441 32.16C36.0341 32.43 36.0241 32.58 35.7341 32.67C35.5341 32.73 35.3541 32.85 35.1741 32.95C34.6541 33.22 34.1241 33.31 33.5741 33.04C33.2941 32.4 33.1141 31.72 32.9141 31.06C33.3741 30.19 33.8341 29.32 34.2841 28.45C34.3541 28.31 34.4341 28.18 34.5141 28.05" fill="#7C4B37"/>
<path d="M37.6343 10.85C36.8943 10.59 36.4543 9.56998 36.5743 8.90998C36.6743 8.34998 36.8943 7.83998 37.3843 7.50998C37.4643 7.44998 37.5443 7.41998 37.6443 7.41998C38.3043 7.77998 38.6243 8.37998 38.6243 9.11998C38.6243 9.87998 38.3043 10.48 37.6243 10.85" fill="#FED201"/>
<path d="M37.1849 13.39C37.1849 13.52 37.1849 13.69 37.1549 13.86C37.1149 14.11 36.9449 14.26 36.6949 14.26C36.4449 14.26 36.2649 14.12 36.2249 13.87C36.1749 13.49 36.1649 13.1 36.2249 12.72C36.2649 12.48 36.4349 12.35 36.6749 12.35C36.9149 12.35 37.0649 12.48 37.1349 12.71C37.1949 12.92 37.1549 13.14 37.1749 13.4" fill="#FED303"/>
<path d="M37.1853 4.96C37.1853 5.14 37.1853 5.33 37.1553 5.51C37.1153 5.76 36.9453 5.92 36.7053 5.92C36.4453 5.92 36.2553 5.77 36.2253 5.5C36.1853 5.14 36.1753 4.77 36.2253 4.41C36.2553 4.15 36.4253 4.01 36.6753 4C36.9453 4 37.1153 4.15 37.1553 4.42C37.1853 4.6 37.1553 4.78 37.1553 4.97C37.1553 4.97 37.1653 4.97 37.1753 4.97" fill="#FED303"/>
<path d="M39.8863 12.91C39.8863 12.91 39.7663 12.89 39.7163 12.86C39.3563 12.61 39.0463 12.31 38.8063 11.94C38.6763 11.74 38.7563 11.52 38.9363 11.37C39.1263 11.22 39.3363 11.2 39.5163 11.37C39.7863 11.61 40.0363 11.87 40.2663 12.14C40.3963 12.29 40.3863 12.48 40.2963 12.66C40.2163 12.83 40.0663 12.9 39.8663 12.92" fill="#FED202"/>
<path d="M34.6049 11.81C34.6049 11.81 34.5949 11.92 34.5349 11.99C34.2849 12.3 34.0249 12.59 33.7149 12.83C33.5149 12.98 33.2849 12.93 33.1249 12.73C32.9549 12.54 32.9549 12.3 33.1149 12.11C33.3449 11.84 33.5949 11.6 33.8449 11.36C33.9849 11.23 34.1649 11.21 34.3449 11.31C34.5149 11.4 34.6049 11.55 34.6049 11.81Z" fill="#FED202"/>
<path d="M33.4768 5.35999C33.5768 5.35999 33.6768 5.37999 33.7368 5.44999C33.9968 5.70999 34.2768 5.95999 34.5068 6.24999C34.6668 6.43999 34.6368 6.67999 34.4568 6.85999C34.2768 7.03999 34.0468 7.07999 33.8568 6.91999C33.5768 6.67999 33.3168 6.40999 33.0768 6.12999C32.9468 5.97999 32.9568 5.78999 33.0568 5.61999C33.1468 5.45999 33.2868 5.37999 33.4668 5.36999" fill="#FED202"/>
<path d="M39.8537 5.34998C40.0837 5.34998 40.2337 5.44998 40.3137 5.62998C40.3937 5.79998 40.3937 5.99998 40.2637 6.13998C40.0337 6.39998 39.7937 6.65998 39.5337 6.88998C39.3437 7.05998 39.1237 7.03998 38.9337 6.87998C38.7537 6.71998 38.6937 6.49998 38.8237 6.29998C39.0537 5.94998 39.3537 5.66998 39.6837 5.40998C39.7337 5.36998 39.8237 5.35998 39.8637 5.34998" fill="#FED202"/>
<path d="M40.7642 8.64001C40.9242 8.64001 41.0742 8.64001 41.2342 8.64001C41.5142 8.66001 41.6842 8.84001 41.6942 9.11001C41.6942 9.37001 41.5242 9.59001 41.2642 9.61001C40.9342 9.63001 40.5942 9.63001 40.2642 9.61001C40.0042 9.59001 39.8342 9.37001 39.8442 9.11001C39.8442 8.84001 40.0242 8.66001 40.3042 8.65001C40.4642 8.65001 40.6142 8.65001 40.7742 8.65001" fill="#FED201"/>
<path d="M32.6235 8.65001C32.7835 8.65001 32.9335 8.65001 33.0935 8.65001C33.3635 8.67001 33.5135 8.83001 33.5335 9.10001C33.5535 9.36001 33.3835 9.60001 33.1235 9.61001C32.7835 9.63001 32.4335 9.63001 32.0835 9.61001C31.8235 9.59001 31.6535 9.36001 31.6735 9.10001C31.6935 8.82001 31.8535 8.67001 32.1135 8.65001C32.2835 8.64001 32.4535 8.65001 32.6135 8.65001" fill="#FED201"/>
<path d="M10.5256 14.81C11.7056 14.81 12.8856 14.81 14.0556 14.8C14.7856 14.8 15.5156 14.8 16.2356 14.8V14.85C16.0156 14.89 15.7856 14.93 15.5656 14.97C15.4456 14.81 15.2856 14.88 15.1356 14.88C13.7556 14.88 12.3756 14.88 10.9956 14.88C10.8356 14.88 10.6556 14.93 10.5156 14.8" fill="#ACD8FD"/>
<path d="M19.9445 43.68C19.5245 43.69 19.1045 43.74 18.6945 43.63C16.5445 43 15.6845 40.86 16.8045 38.91C16.9045 38.74 16.9645 38.58 16.8845 38.39C16.7745 38.11 16.7545 37.81 16.7345 37.51C16.7445 36.95 16.9045 36.44 17.2345 35.99C17.3645 35.82 17.4245 35.63 17.3245 35.43C16.6445 34.08 17.5445 32.34 19.2645 32.17C19.7145 32.23 20.1845 32.24 20.5445 32.59C20.4945 32.72 20.3845 32.79 20.2945 32.88C19.6045 33.54 19.4745 34.36 19.7345 35.24C19.8445 35.61 19.8245 35.89 19.6145 36.2C19.2345 36.76 19.1145 37.38 19.2745 38.04C19.3845 38.48 19.3145 38.86 19.0945 39.26C18.3745 40.58 18.8545 42.27 20.1445 43.13C20.2745 43.22 20.5145 43.24 20.4345 43.51C20.2645 43.57 20.0945 43.63 19.9245 43.69" fill="#00B966"/>
<path d="M20.4569 43.51C20.1869 43.19 19.7969 43.02 19.5069 42.71C18.5869 41.72 18.3969 40.19 19.1069 39.04C19.2469 38.81 19.3069 38.6 19.2269 38.32C18.9969 37.49 19.0969 36.71 19.6169 36.01C19.7669 35.81 19.7769 35.62 19.6769 35.38C19.2569 34.34 19.6569 33.01 20.5469 32.6C21.3769 33.08 21.6269 33.86 21.6269 34.77C21.6969 34.9 21.6769 35.03 21.6269 35.14C21.4069 35.55 21.5469 35.89 21.7669 36.26C22.1169 36.85 22.1769 37.51 22.0169 38.17C21.9369 38.5 21.9769 38.77 22.1269 39.07C22.7869 40.34 22.6369 41.64 21.7469 42.74C21.6269 42.89 21.5169 43.08 21.2769 43.04C21.0169 43.22 20.7569 43.41 20.4569 43.52" fill="#43CA8D"/>
<path d="M21.2734 43.03C22.4834 42.04 22.7734 40.39 21.9534 38.96C21.8234 38.73 21.7934 38.53 21.8734 38.28C22.0634 37.64 22.0934 36.97 21.7134 36.42C21.3134 35.84 21.3634 35.33 21.6334 34.76C22.1534 34.29 22.7334 34.07 23.4234 34.31C23.3334 35.12 23.4534 35.89 23.7234 36.65C23.8334 36.94 23.8234 37.28 23.7934 37.59C23.7434 38.14 23.8634 38.63 24.0334 39.14C24.4934 40.52 24.2834 41.85 23.5934 43.11C23.5034 43.27 23.3734 43.41 23.4234 43.62C23.0534 43.77 22.6834 43.7 22.3134 43.63C21.9334 43.5 21.5634 43.34 21.2934 43.03" fill="#01A655"/>
<path d="M23.4066 43.62C23.0566 43.62 23.2266 43.44 23.3166 43.31C23.8866 42.46 24.1466 41.51 24.1466 40.49C24.1466 40.08 24.1166 39.64 23.9366 39.28C23.6066 38.59 23.6566 37.87 23.6466 37.16C23.6466 36.81 23.6166 36.45 23.4566 36.16C23.1466 35.6 23.2966 35.02 23.3166 34.45C23.3166 34.4 23.3766 34.36 23.4066 34.31C24.3966 34.56 24.9966 35.61 24.6666 36.61C24.5466 36.97 24.5766 37.24 24.7766 37.56C25.0966 38.06 25.1466 38.63 24.9766 39.21C24.9166 39.39 24.8766 39.56 25.0066 39.74C25.8666 41.01 25.4166 43.04 23.5566 43.63C23.5066 43.63 23.4566 43.63 23.3966 43.63" fill="#00B966"/>
</g>
</g>
<defs>
<clipPath id="clip0_521_19140">
<rect width="48" height="48" fill="white" transform="translate(0.125)"/>
</clipPath>
<clipPath id="clip1_521_19140">
<rect width="48" height="43.83" fill="white" transform="translate(0.125 4)"/>
</clipPath>
</defs>
</svg>
