<svg width="49" height="48" viewBox="0 0 49 48" fill="none" xmlns="http://www.w3.org/2000/svg">
<g clip-path="url(#clip0_521_19167)">
<g style="mix-blend-mode:multiply">
<mask id="mask0_521_19167" style="mask-type:luminance" maskUnits="userSpaceOnUse" x="5" y="45" width="39" height="3">
<path d="M43.6852 45.99H5.28516V48H43.6852V45.99Z" fill="white"/>
</mask>
<g mask="url(#mask0_521_19167)">
<path d="M43.6852 46.99C43.6852 47.55 35.0852 48 24.4852 48C13.8852 48 5.28516 47.55 5.28516 46.99C5.28516 46.43 13.8852 45.98 24.4852 45.98C35.0852 45.98 43.6852 46.43 43.6852 46.99Z" fill="#CBE7F2"/>
</g>
</g>
<path d="M37.5953 7.78799L9.80469 27.6694L10.1072 28.0924L37.8978 8.21091L37.5953 7.78799Z" fill="#FF585F"/>
<path d="M14.1143 3.89251L13.6914 4.19507L33.5728 31.9857L33.9958 31.6831L14.1143 3.89251Z" fill="#FF585F"/>
<path d="M26.3895 1.03699L20.7969 34.7462L21.3099 34.8313L26.9025 1.1221L26.3895 1.03699Z" fill="#FF585F"/>
<path d="M7.03042 14.8856L6.94531 15.3986L40.6545 20.9912L40.7396 20.4782L7.03042 14.8856Z" fill="#FF585F"/>
<path d="M23.8467 0.72998C14.3467 0.72998 6.63672 8.42998 6.63672 17.94C6.63672 27.45 14.3367 35.15 23.8467 35.15C33.3567 35.15 41.0567 27.45 41.0567 17.94C41.0567 8.42998 33.3567 0.72998 23.8467 0.72998ZM23.8467 32.59C15.7567 32.59 9.19672 26.03 9.19672 17.94C9.19672 9.84998 15.7567 3.28998 23.8467 3.28998C31.9367 3.28998 38.4967 9.84998 38.4967 17.94C38.4967 26.03 31.9367 32.59 23.8467 32.59Z" fill="#FCCF5E"/>
<path d="M23.8462 0C13.9362 0 5.90625 8.03 5.90625 17.94C5.90625 27.85 13.9362 35.88 23.8462 35.88C33.7562 35.88 41.7863 27.85 41.7863 17.94C41.7863 8.03 33.7562 0 23.8462 0ZM23.8462 33.21C15.4062 33.21 8.57625 26.37 8.57625 17.94C8.57625 9.51 15.4162 2.67 23.8462 2.67C32.2762 2.67 39.1163 9.51 39.1163 17.94C39.1163 26.37 32.2762 33.21 23.8462 33.21Z" fill="#FD8A42"/>
<path d="M23.8462 0C13.9362 0 5.90625 8.03 5.90625 17.94C5.90625 27.85 13.9362 35.88 23.8462 35.88C33.7562 35.88 41.7863 27.85 41.7863 17.94C41.7863 8.03 33.7562 0 23.8462 0ZM23.8462 35.13C14.3562 35.13 6.65625 27.44 6.65625 17.94C6.65625 8.44 14.3562 0.75 23.8462 0.75C33.3362 0.75 41.0363 8.44 41.0363 17.94C41.0363 27.44 33.3462 35.13 23.8462 35.13Z" fill="#FBB525"/>
<path d="M37.2448 8.54004H36.9648V9.78004H37.2448V8.54004Z" fill="#4C3946"/>
<path d="M36.0234 8.12004C36.0234 8.72004 36.5034 9.20004 37.1034 9.20004C37.7034 9.20004 38.1834 8.72004 38.1834 8.12004C38.1834 7.52004 37.7034 7.04004 37.1034 7.04004C36.5034 7.04004 36.0234 7.52004 36.0234 8.12004Z" fill="#FCCF5E"/>
<path d="M36.5234 8.12004C36.5234 8.44004 36.7834 8.70004 37.1034 8.70004C37.4234 8.70004 37.6834 8.44004 37.6834 8.12004C37.6834 7.80004 37.4234 7.54004 37.1034 7.54004C36.7834 7.54004 36.5234 7.80004 36.5234 8.12004Z" fill="#4C3946"/>
<path d="M35.2769 11.05H35.0469V13.12H35.2769V11.05Z" fill="#FCCF5E"/>
<path d="M37.2144 11.05H36.9844V13.12H37.2144V11.05Z" fill="#FCCF5E"/>
<path d="M39.1636 11.05H38.9336V13.12H39.1636V11.05Z" fill="#FCCF5E"/>
<path d="M39.6447 13.02H34.5547L34.6447 13.57C34.8247 14.6 35.8647 15.37 37.0947 15.37C38.3247 15.37 39.3647 14.6 39.5447 13.57L39.6447 13.02Z" fill="#FFA539"/>
<path d="M39.5264 13.02H35.5664L35.6364 13.47C35.7764 14.32 36.5864 14.96 37.5464 14.96C38.5064 14.96 39.3164 14.33 39.4564 13.47L39.5264 13.02Z" fill="#FCCF5E"/>
<path d="M34.5664 11.14H39.6564L39.5664 10.75C39.3864 10.02 38.3464 9.48999 37.1164 9.48999C35.8864 9.48999 34.8464 10.03 34.6664 10.75L34.5664 11.14Z" fill="#FFA539"/>
<path d="M35.5547 10.99H39.3347L39.2647 10.68C39.1347 10.09 38.3547 9.65002 37.4447 9.65002C36.5347 9.65002 35.7547 10.09 35.6247 10.68L35.5547 10.99Z" fill="#FCCF5E"/>
<path d="M39.7048 12.91H34.4648V13.18H39.7048V12.91Z" fill="#FF585F"/>
<path d="M39.7048 10.95H34.4648V11.22H39.7048V10.95Z" fill="#FF585F"/>
<path d="M38.8941 13.02V14.01H37.3341V13.02H37.1641V14.18H39.0641V13.02H38.8941Z" fill="#FF585F"/>
<path d="M37.4461 9.65001C37.1961 9.65001 36.9661 9.68001 36.7461 9.74001C36.7861 10.17 37.5461 10.52 38.4961 10.52C38.7361 10.52 38.9761 10.5 39.1861 10.45C38.9361 9.98001 38.2461 9.64001 37.4461 9.64001" fill="#FFDD92"/>
<path d="M36.8164 8.11996C36.8164 8.27996 36.9464 8.40996 37.1064 8.40996C37.2664 8.40996 37.3964 8.27996 37.3964 8.11996C37.3964 7.95996 37.2664 7.82996 37.1064 7.82996C36.9464 7.82996 36.8164 7.95996 36.8164 8.11996Z" fill="#FF6489"/>
<path d="M26.7136 2.35999H26.4336V3.59999H26.7136V2.35999Z" fill="#4C3946"/>
<path d="M25.4961 1.93999C25.4961 2.53999 25.9761 3.01999 26.5761 3.01999C27.1761 3.01999 27.6561 2.53999 27.6561 1.93999C27.6561 1.33999 27.1761 0.859985 26.5761 0.859985C25.9761 0.859985 25.4961 1.33999 25.4961 1.93999Z" fill="#FCCF5E"/>
<path d="M25.9961 1.93999C25.9961 2.25999 26.2561 2.51999 26.5761 2.51999C26.8961 2.51999 27.1561 2.25999 27.1561 1.93999C27.1561 1.61999 26.8961 1.35999 26.5761 1.35999C26.2561 1.35999 25.9961 1.61999 25.9961 1.93999Z" fill="#4C3946"/>
<path d="M24.7456 4.87H24.5156V6.94H24.7456V4.87Z" fill="#FCCF5E"/>
<path d="M26.6831 4.87H26.4531V6.94H26.6831V4.87Z" fill="#FCCF5E"/>
<path d="M28.6245 4.87H28.3945V6.94H28.6245V4.87Z" fill="#FCCF5E"/>
<path d="M29.1134 6.82996H24.0234L24.1134 7.37996C24.2934 8.40996 25.3334 9.17996 26.5634 9.17996C27.7934 9.17996 28.8334 8.40996 29.0134 7.37996L29.1134 6.82996Z" fill="#FFA539"/>
<path d="M28.9952 6.82996H25.0352L25.1052 7.27996C25.2452 8.12996 26.0552 8.76996 27.0152 8.76996C27.9752 8.76996 28.7852 8.13996 28.9252 7.27996L28.9952 6.82996Z" fill="#FCCF5E"/>
<path d="M24.0234 4.96006H29.1134L29.0234 4.57006C28.8434 3.84006 27.8034 3.31006 26.5734 3.31006C25.3434 3.31006 24.3034 3.85006 24.1234 4.57006L24.0334 4.96006H24.0234Z" fill="#FFA539"/>
<path d="M25.0156 4.79996H28.7956L28.7256 4.48996C28.5956 3.89996 27.8156 3.45996 26.9056 3.45996C25.9956 3.45996 25.2156 3.89996 25.0856 4.48996L25.0156 4.79996Z" fill="#FCCF5E"/>
<path d="M29.1736 6.72998H23.9336V6.99998H29.1736V6.72998Z" fill="#FF585F"/>
<path d="M29.1736 4.77002H23.9336V5.04002H29.1736V4.77002Z" fill="#FF585F"/>
<path d="M28.3667 6.82996V7.81996H26.8067V6.82996H26.6367V7.98996H28.5367V6.82996H28.3667Z" fill="#FF585F"/>
<path d="M26.9031 3.45995C26.6531 3.45995 26.4231 3.48995 26.2031 3.54995C26.2431 3.97995 27.0031 4.32995 27.9531 4.32995C28.1931 4.32995 28.4331 4.30995 28.6431 4.25995C28.3931 3.78995 27.7031 3.44995 26.9031 3.44995" fill="#FFDD92"/>
<path d="M26.2852 1.94002C26.2852 2.10002 26.4152 2.23002 26.5752 2.23002C26.7352 2.23002 26.8652 2.10002 26.8652 1.94002C26.8652 1.78002 26.7352 1.65002 26.5752 1.65002C26.4152 1.65002 26.2852 1.78002 26.2852 1.94002Z" fill="#FF6489"/>
<path d="M14.2448 5.22998H13.9648V6.46998H14.2448V5.22998Z" fill="#4C3946"/>
<path d="M13.0234 4.80998C13.0234 5.40998 13.5034 5.88998 14.1034 5.88998C14.7034 5.88998 15.1834 5.40998 15.1834 4.80998C15.1834 4.20998 14.7034 3.72998 14.1034 3.72998C13.5034 3.72998 13.0234 4.20998 13.0234 4.80998Z" fill="#FCCF5E"/>
<path d="M13.5234 4.80998C13.5234 5.12998 13.7834 5.38998 14.1034 5.38998C14.4234 5.38998 14.6834 5.12998 14.6834 4.80998C14.6834 4.48998 14.4234 4.22998 14.1034 4.22998C13.7834 4.22998 13.5234 4.48998 13.5234 4.80998Z" fill="#4C3946"/>
<path d="M12.2847 7.75H12.0547V9.82H12.2847V7.75Z" fill="#FCCF5E"/>
<path d="M14.2261 7.75H13.9961V9.82H14.2261V7.75Z" fill="#FCCF5E"/>
<path d="M16.1636 7.75H15.9336V9.82H16.1636V7.75Z" fill="#FCCF5E"/>
<path d="M16.6564 9.70996H11.5664L11.6564 10.26C11.8364 11.29 12.8764 12.06 14.1064 12.06C15.3364 12.06 16.3764 11.29 16.5564 10.26L16.6564 9.70996Z" fill="#FFA539"/>
<path d="M16.5342 9.70996H12.5742L12.6442 10.16C12.7842 11.01 13.5942 11.65 14.5542 11.65C15.5142 11.65 16.3242 11.02 16.4642 10.16L16.5342 9.70996Z" fill="#FCCF5E"/>
<path d="M11.5664 7.83994H16.6564L16.5664 7.44994C16.3864 6.71994 15.3464 6.18994 14.1164 6.18994C12.8864 6.18994 11.8464 6.72994 11.6664 7.44994L11.5664 7.83994Z" fill="#FFA539"/>
<path d="M12.5547 7.67997H16.3347L16.2647 7.36997C16.1347 6.77997 15.3547 6.33997 14.4447 6.33997C13.5347 6.33997 12.7547 6.77997 12.6247 7.36997L12.5547 7.67997Z" fill="#FCCF5E"/>
<path d="M16.7166 9.60999H11.4766V9.87999H16.7166V9.60999Z" fill="#FF585F"/>
<path d="M16.7166 7.65002H11.4766V7.92002H16.7166V7.65002Z" fill="#FF585F"/>
<path d="M15.9058 9.70996V10.7H14.3458V9.70996H14.1758V10.87H16.0758V9.70996H15.9058Z" fill="#FF585F"/>
<path d="M14.4461 6.33996C14.1961 6.33996 13.9661 6.36996 13.7461 6.42996C13.7861 6.85996 14.5461 7.20996 15.4961 7.20996C15.7361 7.20996 15.9761 7.18996 16.1861 7.13996C15.9361 6.66996 15.2461 6.32996 14.4461 6.32996" fill="#FFDD92"/>
<path d="M13.8242 4.81002C13.8242 4.97002 13.9542 5.10002 14.1142 5.10002C14.2742 5.10002 14.4042 4.97002 14.4042 4.81002C14.4042 4.65002 14.2742 4.52002 14.1142 4.52002C13.9542 4.52002 13.8242 4.65002 13.8242 4.81002Z" fill="#FF6489"/>
<path d="M7.92453 15.52H7.64453V16.76H7.92453V15.52Z" fill="#4C3946"/>
<path d="M6.70312 15.1C6.70312 15.7 7.18312 16.18 7.78312 16.18C8.38312 16.18 8.86312 15.7 8.86312 15.1C8.86312 14.5 8.38312 14.02 7.78312 14.02C7.18312 14.02 6.70312 14.5 6.70312 15.1Z" fill="#FCCF5E"/>
<path d="M7.20312 15.1C7.20312 15.42 7.46312 15.68 7.78312 15.68C8.10312 15.68 8.36312 15.42 8.36312 15.1C8.36312 14.78 8.10312 14.52 7.78312 14.52C7.46312 14.52 7.20312 14.78 7.20312 15.1Z" fill="#4C3946"/>
<path d="M5.95656 18.04H5.72656V20.11H5.95656V18.04Z" fill="#FCCF5E"/>
<path d="M7.89406 18.04H7.66406V20.11H7.89406V18.04Z" fill="#FCCF5E"/>
<path d="M9.83547 18.04H9.60547V20.11H9.83547V18.04Z" fill="#FCCF5E"/>
<path d="M10.3244 20H5.23438L5.32438 20.55C5.50438 21.58 6.54438 22.35 7.77438 22.35C9.00438 22.35 10.0444 21.58 10.2244 20.55L10.3244 20Z" fill="#FFA539"/>
<path d="M10.2061 20H6.24609L6.31609 20.45C6.45609 21.3 7.26609 21.94 8.22609 21.94C9.18609 21.94 9.99609 21.31 10.1361 20.45L10.2061 20Z" fill="#FCCF5E"/>
<path d="M5.23438 18.13H10.3244L10.2344 17.74C10.0544 17.01 9.01437 16.48 7.78437 16.48C6.55437 16.48 5.51438 17.02 5.33438 17.74L5.24437 18.13H5.23438Z" fill="#FFA539"/>
<path d="M6.22656 17.97H10.0066L9.93656 17.66C9.80656 17.07 9.02656 16.63 8.11656 16.63C7.20656 16.63 6.42656 17.07 6.29656 17.66L6.22656 17.97Z" fill="#FCCF5E"/>
<path d="M10.3845 19.9H5.14453V20.17H10.3845V19.9Z" fill="#FF585F"/>
<path d="M10.3845 17.9399H5.14453V18.2099H10.3845V17.9399Z" fill="#FF585F"/>
<path d="M9.57375 20V20.99H8.01375V20H7.84375V21.16H9.74375V20H9.57375Z" fill="#FF585F"/>
<path d="M8.11406 16.63C7.86406 16.63 7.63406 16.66 7.41406 16.72C7.45406 17.15 8.21406 17.5 9.16406 17.5C9.40406 17.5 9.64406 17.48 9.85406 17.43C9.60406 16.96 8.91406 16.62 8.11406 16.62" fill="#FFDD92"/>
<path d="M7.49609 15.1001C7.49609 15.2601 7.62609 15.3901 7.78609 15.3901C7.94609 15.3901 8.07609 15.2601 8.07609 15.1001C8.07609 14.9401 7.94609 14.8101 7.78609 14.8101C7.62609 14.8101 7.49609 14.9401 7.49609 15.1001Z" fill="#FF6489"/>
<path d="M10.6042 27.79H10.3242V29.03H10.6042V27.79Z" fill="#4C3946"/>
<path d="M9.38672 27.37C9.38672 27.97 9.86672 28.45 10.4667 28.45C11.0667 28.45 11.5467 27.97 11.5467 27.37C11.5467 26.77 11.0667 26.29 10.4667 26.29C9.86672 26.29 9.38672 26.77 9.38672 27.37Z" fill="#FCCF5E"/>
<path d="M9.88672 27.37C9.88672 27.69 10.1467 27.95 10.4667 27.95C10.7867 27.95 11.0467 27.69 11.0467 27.37C11.0467 27.05 10.7867 26.79 10.4667 26.79C10.1467 26.79 9.88672 27.05 9.88672 27.37Z" fill="#4C3946"/>
<path d="M8.63625 30.3101H8.40625V32.3801H8.63625V30.3101Z" fill="#FCCF5E"/>
<path d="M10.5855 30.3101H10.3555V32.3801H10.5855V30.3101Z" fill="#FCCF5E"/>
<path d="M12.5269 30.3101H12.2969V32.3801H12.5269V30.3101Z" fill="#FCCF5E"/>
<path d="M13.0158 32.27H7.92578L8.01578 32.82C8.19578 33.85 9.23578 34.62 10.4658 34.62C11.6958 34.62 12.7358 33.85 12.9158 32.82L13.0158 32.27Z" fill="#FFA539"/>
<path d="M12.8936 32.27H8.93359L9.00359 32.72C9.14359 33.57 9.95359 34.21 10.9136 34.21C11.8736 34.21 12.6836 33.58 12.8236 32.72L12.8936 32.27Z" fill="#FCCF5E"/>
<path d="M7.92578 30.4H13.0158L12.9258 30.01C12.7458 29.28 11.7058 28.75 10.4758 28.75C9.24578 28.75 8.20578 29.29 8.02578 30.01L7.93578 30.4H7.92578Z" fill="#FFA539"/>
<path d="M8.91406 30.24H12.6941L12.6241 29.93C12.4941 29.34 11.7141 28.9 10.8041 28.9C9.89406 28.9 9.11406 29.34 8.98406 29.93L8.91406 30.24Z" fill="#FCCF5E"/>
<path d="M13.0759 32.17H7.83594V32.44H13.0759V32.17Z" fill="#FF585F"/>
<path d="M13.0759 30.21H7.83594V30.48H13.0759V30.21Z" fill="#FF585F"/>
<path d="M12.2652 32.27V33.26H10.6952V32.27H10.5352V33.43H12.4252V32.27H12.2652Z" fill="#FF585F"/>
<path d="M10.8055 28.9C10.5555 28.9 10.3255 28.93 10.1055 28.99C10.1455 29.42 10.9055 29.77 11.8555 29.77C12.0955 29.77 12.3355 29.75 12.5455 29.7C12.2955 29.23 11.6055 28.89 10.8055 28.89" fill="#FFDD92"/>
<path d="M10.1836 27.37C10.1836 27.53 10.3136 27.66 10.4736 27.66C10.6336 27.66 10.7636 27.53 10.7636 27.37C10.7636 27.21 10.6336 27.08 10.4736 27.08C10.3136 27.08 10.1836 27.21 10.1836 27.37Z" fill="#FF6489"/>
<path d="M33.4831 31.63H33.2031V32.87H33.4831V31.63Z" fill="#4C3946"/>
<path d="M32.2656 31.21C32.2656 31.81 32.7456 32.29 33.3456 32.29C33.9456 32.29 34.4256 31.81 34.4256 31.21C34.4256 30.61 33.9456 30.13 33.3456 30.13C32.7456 30.13 32.2656 30.61 32.2656 31.21Z" fill="#FCCF5E"/>
<path d="M32.7656 31.21C32.7656 31.53 33.0256 31.79 33.3456 31.79C33.6656 31.79 33.9256 31.53 33.9256 31.21C33.9256 30.89 33.6656 30.63 33.3456 30.63C33.0256 30.63 32.7656 30.89 32.7656 31.21Z" fill="#4C3946"/>
<path d="M31.5152 34.14H31.2852V36.21H31.5152V34.14Z" fill="#FBB525"/>
<path d="M33.4644 34.14H33.2344V36.21H33.4644V34.14Z" fill="#FBB525"/>
<path d="M35.4058 34.14H35.1758V36.21H35.4058V34.14Z" fill="#FBB525"/>
<path d="M35.8947 36.11H30.8047L30.8947 36.66C31.0747 37.69 32.1147 38.46 33.3447 38.46C34.5747 38.46 35.6147 37.69 35.7947 36.66L35.8947 36.11Z" fill="#FFA539"/>
<path d="M35.7764 36.11H31.8164L31.8864 36.56C32.0264 37.41 32.8364 38.05 33.7964 38.05C34.7564 38.05 35.5664 37.42 35.7064 36.56L35.7764 36.11Z" fill="#FCCF5E"/>
<path d="M30.8047 34.23H35.8947L35.8047 33.84C35.6247 33.11 34.5847 32.58 33.3547 32.58C32.1247 32.58 31.0847 33.12 30.9047 33.84L30.8147 34.23H30.8047Z" fill="#FFA539"/>
<path d="M31.7969 34.08H35.5769L35.5069 33.77C35.3769 33.18 34.5969 32.74 33.6869 32.74C32.7769 32.74 31.9969 33.18 31.8669 33.77L31.7969 34.08Z" fill="#FCCF5E"/>
<path d="M35.9548 36H30.7148V36.27H35.9548V36Z" fill="#FF585F"/>
<path d="M35.9548 34.04H30.7148V34.31H35.9548V34.04Z" fill="#FF585F"/>
<path d="M35.1441 36.1V37.09H33.5741V36.1H33.4141V37.27H35.3041V36.1H35.1441Z" fill="#FF585F"/>
<path d="M33.6844 32.73C33.4344 32.73 33.2044 32.76 32.9844 32.82C33.0244 33.25 33.7844 33.6 34.7344 33.6C34.9744 33.6 35.2144 33.58 35.4244 33.53C35.1744 33.06 34.4844 32.72 33.6844 32.72" fill="#FFDD92"/>
<path d="M33.0664 31.21C33.0664 31.37 33.1964 31.5 33.3564 31.5C33.5164 31.5 33.6464 31.37 33.6464 31.21C33.6464 31.05 33.5164 30.92 33.3564 30.92C33.1964 30.92 33.0664 31.05 33.0664 31.21Z" fill="#FF585F"/>
<path d="M23.9861 17.4H23.0661L11.9961 42.75H15.3061L23.9861 17.4Z" fill="#FF585F"/>
<path d="M20.7844 26.72L23.9844 17.4H23.0644L18.9844 26.72H20.7844Z" fill="#FF0B1D"/>
<path d="M23.4648 17.4H24.3848L35.0748 42.75H31.7648L23.4648 17.4Z" fill="#FF585F"/>
<path d="M26.9548 23.47L24.3848 17.4H23.4648L26.2748 25.98L26.9548 23.47Z" fill="#FF0B1D"/>
<path d="M32.7659 42.86H15.0859V44.09H32.7659V42.86Z" fill="#FC6727"/>
<path d="M16.4958 42.13L11.9458 40.9L10.4258 43.79H16.4958V42.13Z" fill="#FCCF5E"/>
<path d="M31.1953 42.13L35.7553 40.9L37.2653 43.79H31.1953V42.13Z" fill="#FCCF5E"/>
<path d="M43.7233 43.49H3.86328V46.39H43.7233V43.49Z" fill="#FFA539"/>
<path d="M29.8342 43.49H15.5742L16.3642 46.38H27.3142L29.8342 43.49Z" fill="#FCCF5E"/>
<path d="M46.705 45.89H2.125V46.88H46.705V45.89Z" fill="#FC6727"/>
<path d="M28.5555 45.89H15.1055V46.88H28.5555V45.89Z" fill="#FD8A42"/>
<path d="M23.8459 15.6801C22.5959 15.6801 21.5859 16.6901 21.5859 17.9401C21.5859 19.1901 22.5959 20.2001 23.8459 20.2001C25.0959 20.2001 26.1059 19.1901 26.1059 17.9401C26.1059 16.6901 25.0959 15.6801 23.8459 15.6801Z" fill="#FF585F"/>
<path d="M23.8458 16.52C23.0558 16.52 22.4258 17.16 22.4258 17.94C22.4258 18.72 23.0658 19.36 23.8458 19.36C24.6258 19.36 25.2658 18.72 25.2658 17.94C25.2658 17.16 24.6258 16.52 23.8458 16.52Z" fill="#FCCF5E"/>
<path d="M21.2136 34.4399H20.9336V35.6799H21.2136V34.4399Z" fill="#4C3946"/>
<path d="M19.9961 34.0199C19.9961 34.6199 20.4761 35.0999 21.0761 35.0999C21.6761 35.0999 22.1561 34.6199 22.1561 34.0199C22.1561 33.4199 21.6761 32.9399 21.0761 32.9399C20.4761 32.9399 19.9961 33.4199 19.9961 34.0199Z" fill="#FCCF5E"/>
<path d="M20.4961 34.0199C20.4961 34.3399 20.7561 34.5999 21.0761 34.5999C21.3961 34.5999 21.6561 34.3399 21.6561 34.0199C21.6561 33.6999 21.3961 33.4399 21.0761 33.4399C20.7561 33.4399 20.4961 33.6999 20.4961 34.0199Z" fill="#4C3946"/>
<path d="M19.2456 36.95H19.0156V39.02H19.2456V36.95Z" fill="#FCCF5E"/>
<path d="M21.1948 36.95H20.9648V39.02H21.1948V36.95Z" fill="#FCCF5E"/>
<path d="M23.1362 36.95H22.9062V39.02H23.1362V36.95Z" fill="#FCCF5E"/>
<path d="M23.6252 38.92H18.5352L18.6252 39.47C18.8052 40.5 19.8452 41.27 21.0752 41.27C22.3052 41.27 23.3452 40.5 23.5252 39.47L23.6252 38.92Z" fill="#FFA539"/>
<path d="M23.5069 38.92H19.5469L19.6169 39.37C19.7569 40.22 20.5669 40.86 21.5269 40.86C22.4869 40.86 23.2969 40.23 23.4369 39.37L23.5069 38.92Z" fill="#FCCF5E"/>
<path d="M18.5352 37.04H23.6252L23.5352 36.65C23.3552 35.92 22.3152 35.39 21.0852 35.39C19.8552 35.39 18.8152 35.93 18.6352 36.65L18.5452 37.04H18.5352Z" fill="#FFA539"/>
<path d="M19.5234 36.89H23.3034L23.2334 36.5801C23.1034 35.9901 22.3234 35.55 21.4134 35.55C20.5034 35.55 19.7234 35.9901 19.5934 36.5801L19.5234 36.89Z" fill="#FCCF5E"/>
<path d="M23.6853 38.8101H18.4453V39.0801H23.6853V38.8101Z" fill="#FF585F"/>
<path d="M23.6853 36.86H18.4453V37.13H23.6853V36.86Z" fill="#FF585F"/>
<path d="M22.8645 38.92V39.91H21.3045V38.92H21.1445V40.08H23.0345V38.92H22.8645Z" fill="#FF585F"/>
<path d="M21.4148 35.55C21.1648 35.55 20.9348 35.58 20.7148 35.64C20.7548 36.07 21.5148 36.42 22.4648 36.42C22.7048 36.42 22.9448 36.4 23.1548 36.35C22.9048 35.88 22.2148 35.54 21.4148 35.54" fill="#FFDD92"/>
<path d="M20.7969 34.02C20.7969 34.18 20.9269 34.31 21.0869 34.31C21.2469 34.31 21.3769 34.18 21.3769 34.02C21.3769 33.86 21.2469 33.73 21.0869 33.73C20.9269 33.73 20.7969 33.86 20.7969 34.02Z" fill="#FF6489"/>
<path d="M23.845 17.21C23.445 17.21 23.125 17.53 23.125 17.93C23.125 18.33 23.445 18.65 23.845 18.65C24.245 18.65 24.565 18.33 24.565 17.93C24.565 17.53 24.245 17.21 23.845 17.21Z" fill="#4C3946"/>
<path d="M23.8441 17.51C23.6041 17.51 23.4141 17.7 23.4141 17.94C23.4141 18.18 23.6041 18.37 23.8441 18.37C24.0841 18.37 24.2741 18.18 24.2741 17.94C24.2741 17.7 24.0841 17.51 23.8441 17.51Z" fill="#FCCF5E"/>
<path d="M40.3542 21.24H40.0742V22.48H40.3542V21.24Z" fill="#4C3946"/>
<path d="M39.1367 20.82C39.1367 21.42 39.6167 21.9 40.2167 21.9C40.8167 21.9 41.2967 21.42 41.2967 20.82C41.2967 20.22 40.8167 19.74 40.2167 19.74C39.6167 19.74 39.1367 20.22 39.1367 20.82Z" fill="#FCCF5E"/>
<path d="M39.6367 20.82C39.6367 21.14 39.8967 21.4 40.2167 21.4C40.5367 21.4 40.7967 21.14 40.7967 20.82C40.7967 20.5 40.5367 20.24 40.2167 20.24C39.8967 20.24 39.6367 20.5 39.6367 20.82Z" fill="#4C3946"/>
<path d="M38.3862 23.75H38.1562V25.82H38.3862V23.75Z" fill="#FCCF5E"/>
<path d="M40.3237 23.75H40.0938V25.82H40.3237V23.75Z" fill="#FCCF5E"/>
<path d="M42.2769 23.75H42.0469V25.82H42.2769V23.75Z" fill="#FCCF5E"/>
<path d="M42.7658 25.72H37.6758L37.7658 26.27C37.9458 27.3 38.9858 28.07 40.2158 28.07C41.4458 28.07 42.4858 27.3 42.6658 26.27L42.7658 25.72Z" fill="#FFA539"/>
<path d="M42.6358 25.72H38.6758L38.7458 26.17C38.8858 27.02 39.6958 27.66 40.6558 27.66C41.6158 27.66 42.4258 27.03 42.5658 26.17L42.6358 25.72Z" fill="#FCCF5E"/>
<path d="M37.6758 23.8399H42.7658L42.6758 23.4499C42.4958 22.7199 41.4558 22.1899 40.2258 22.1899C38.9958 22.1899 37.9558 22.7299 37.7758 23.4499L37.6758 23.8399Z" fill="#FFA539"/>
<path d="M38.6641 23.69H42.4441L42.3741 23.38C42.2441 22.79 41.4641 22.35 40.5541 22.35C39.6441 22.35 38.8641 22.79 38.7341 23.38L38.6641 23.69Z" fill="#FCCF5E"/>
<path d="M42.8142 25.61H37.5742V25.88H42.8142V25.61Z" fill="#FF585F"/>
<path d="M42.8142 23.65H37.5742V23.92H42.8142V23.65Z" fill="#FF585F"/>
<path d="M42.0034 25.71V26.7H40.4434V25.71H40.2734V26.87H42.1734V25.71H42.0034Z" fill="#FF585F"/>
<path d="M40.5555 22.34C40.3055 22.34 40.0755 22.37 39.8555 22.43C39.8955 22.86 40.6555 23.21 41.6055 23.21C41.8455 23.21 42.0855 23.19 42.2955 23.14C42.0455 22.67 41.3555 22.33 40.5555 22.33" fill="#FFDD92"/>
<path d="M39.9258 20.82C39.9258 20.98 40.0558 21.11 40.2158 21.11C40.3758 21.11 40.5058 20.98 40.5058 20.82C40.5058 20.66 40.3758 20.53 40.2158 20.53C40.0558 20.53 39.9258 20.66 39.9258 20.82Z" fill="#FF6489"/>
</g>
<defs>
<clipPath id="clip0_521_19167">
<rect width="44.58" height="48" fill="white" transform="translate(2.125)"/>
</clipPath>
</defs>
</svg>
