<svg width="49" height="48" viewBox="0 0 49 48" fill="none" xmlns="http://www.w3.org/2000/svg">
<g clip-path="url(#clip0_521_19154)">
<g clip-path="url(#clip1_521_19154)">
<g style="mix-blend-mode:multiply">
<mask id="mask0_521_19154" style="mask-type:luminance" maskUnits="userSpaceOnUse" x="5" y="36" width="42" height="7">
<path d="M46.055 36.9H5.625V42.29H46.055V36.9Z" fill="white"/>
</mask>
<g mask="url(#mask0_521_19154)">
<path d="M46.0533 39.59C46.0533 41.08 37.0033 42.28 25.8333 42.28C14.6633 42.28 5.61328 41.07 5.61328 39.59C5.61328 38.11 14.6633 36.9 25.8333 36.9C37.0033 36.9 46.0533 38.11 46.0533 39.59Z" fill="#CBE7F2"/>
</g>
</g>
<path d="M13.7366 20.82V38.28C13.7366 38.64 14.0266 38.93 14.3866 38.93H21.9266C22.2866 38.93 22.5766 38.64 22.5766 38.28V20.82C22.5766 19.12 19.7066 18.9 19.8066 17.78C19.9666 16.38 20.0466 12.85 19.3966 11.16H16.9066C16.2566 12.85 16.3366 16.39 16.4966 17.78C16.5966 18.89 13.7266 19.12 13.7266 20.82M14.0866 20.94C14.0866 19.35 16.7266 19.14 16.6366 18.09C16.4866 16.78 16.4066 13.01 17.0166 11.43H19.3166C19.9166 13.01 19.8466 16.78 19.6966 18.09C19.5966 19.14 22.2466 19.35 22.2466 20.94V37.29C22.2466 37.63 21.9766 37.9 21.6466 37.9H14.6866C14.3566 37.9 14.0866 37.63 14.0866 37.29V20.94Z" fill="#E6E6E6"/>
<mask id="mask1_521_19154" style="mask-type:luminance" maskUnits="userSpaceOnUse" x="16" y="6" width="4" height="6">
<path d="M17.1061 6C16.9061 6 16.7461 6.16 16.7461 6.36V11.43H19.5761V6.36C19.5761 6.16 19.4161 6 19.2161 6H17.1161H17.1061Z" fill="white"/>
</mask>
<g mask="url(#mask1_521_19154)">
<path d="M19.5761 6H16.7461V11.43H19.5761V6Z" fill="url(#paint0_linear_521_19154)"/>
</g>
<mask id="mask2_521_19154" style="mask-type:luminance" maskUnits="userSpaceOnUse" x="14" y="12" width="9" height="26">
<path d="M16.7238 12.6899C16.4638 14.4999 16.5238 17.0599 16.6438 18.0899C16.7338 19.1299 14.0938 19.3499 14.0938 20.9399V37.2899C14.0938 37.6299 14.3637 37.8999 14.6937 37.8999H21.6538C21.9838 37.8999 22.2537 37.6299 22.2537 37.2899V20.9399C22.2537 19.3499 19.6037 19.1399 19.7037 18.0899C19.8237 17.0599 19.8937 14.5099 19.6237 12.6999H16.7238V12.6899Z" fill="white"/>
</mask>
<g mask="url(#mask2_521_19154)">
<path d="M22.2637 12.6899H14.0938V37.8899H22.2637V12.6899Z" fill="url(#paint1_linear_521_19154)"/>
</g>
<g opacity="0.31">
<mask id="mask3_521_19154" style="mask-type:luminance" maskUnits="userSpaceOnUse" x="14" y="18" width="3" height="20">
<path d="M16.7652 18.75H14.2852V37.37H16.7652V18.75Z" fill="white"/>
</mask>
<g mask="url(#mask3_521_19154)">
<path d="M16.757 18.75C15.927 19.57 15.317 19.4 14.567 20.55C13.907 21.55 14.597 37.37 14.597 37.37C14.597 37.37 14.697 21.71 15.077 20.79C15.507 19.76 16.647 19.32 16.757 18.75Z" fill="white"/>
</g>
</g>
<g opacity="0.31">
<mask id="mask4_521_19154" style="mask-type:luminance" maskUnits="userSpaceOnUse" x="16" y="11" width="2" height="8">
<path d="M17.3831 11.5601H16.9531V18.1701H17.3831V11.5601Z" fill="white"/>
</mask>
<g mask="url(#mask4_521_19154)">
<path d="M16.9531 14.86C16.9531 16.69 17.0531 18.17 17.1631 18.17C17.2731 18.17 17.3731 16.69 17.3731 14.86C17.3731 13.03 17.3931 11.55 17.2831 11.55C17.1731 11.55 16.9531 13.03 16.9531 14.86Z" fill="white"/>
</g>
</g>
<mask id="mask5_521_19154" style="mask-type:luminance" maskUnits="userSpaceOnUse" x="20" y="35" width="4" height="4">
<path d="M23.7364 35.9H20.3164V38.23H23.7364V35.9Z" fill="white"/>
</mask>
<g mask="url(#mask5_521_19154)">
<path d="M23.7364 35.9H20.3164V38.23H23.7364V35.9Z" fill="url(#paint2_linear_521_19154)"/>
</g>
<path d="M20.0664 39.1601H23.9764V34.8101H20.0664V39.1601ZM20.3164 34.9501H23.7364V38.2301H20.3164V34.9501Z" fill="#F2F2F2"/>
<g opacity="0.3">
<mask id="mask6_521_19154" style="mask-type:luminance" maskUnits="userSpaceOnUse" x="20" y="35" width="2" height="3">
<path d="M21.3956 35.3101H20.5156V37.0901H21.3956V35.3101Z" fill="white"/>
</mask>
<g mask="url(#mask6_521_19154)">
<path d="M21.3956 35.3101H20.5156V37.0901H21.3956V35.3101Z" fill="white"/>
</g>
</g>
<path d="M23.9131 36.8V39.07H22.2031L23.8031 38.93L23.9131 36.8Z" fill="#878787"/>
<path d="M20.2445 38.6899L21.8645 39.0699H20.1445V38.6099V36.1899L20.2445 38.6899Z" fill="white"/>
<g opacity="0.4">
<mask id="mask7_521_19154" style="mask-type:luminance" maskUnits="userSpaceOnUse" x="28" y="15" width="13" height="12">
<path d="M40.5744 15.47H28.9844V26.49H40.5744V15.47Z" fill="white"/>
</mask>
<g mask="url(#mask7_521_19154)">
<path d="M34.7638 25.43C36.6638 23.83 34.4838 21.57 33.4338 19.96C32.4338 18.41 31.2938 16.66 33.9338 15.47C32.3638 16.18 33.6438 17.89 34.7338 19.57C35.8338 21.26 37.2038 23.37 34.7638 25.43Z" fill="#CCCCCC"/>
<path d="M31.0957 26.38C32.7257 25.2 30.8557 23.52 29.9557 22.34C29.0957 21.2 28.1257 19.9 30.3857 19.02C29.0357 19.54 30.1357 20.81 31.0757 22.05C32.0157 23.3 33.1857 24.86 31.0957 26.38Z" fill="#CCCCCC"/>
<path d="M39.3257 26.4899C41.0757 25.2199 39.0657 23.4099 38.1057 22.1299C37.1757 20.8999 36.1257 19.4999 38.5657 18.5499C37.1157 19.1199 38.2957 20.4799 39.3057 21.8199C40.3157 23.1699 41.5857 24.8499 39.3257 26.4899Z" fill="#CCCCCC"/>
</g>
</g>
<path d="M45.4953 37.39C45.4953 35.73 40.8353 34.38 35.0953 34.38C29.3553 34.38 24.6953 35.73 24.6953 37.39C24.6953 39.05 29.3553 40.4 35.0953 40.4C40.8353 40.4 45.4953 39.05 45.4953 37.39Z" fill="#666666"/>
<path d="M48.1264 35.74C48.1264 33.65 42.2964 31.96 35.0964 31.96C27.8964 31.96 22.0664 33.65 22.0664 35.74C22.0664 37.83 27.8964 39.52 35.0964 39.52C42.2964 39.52 48.1264 37.83 48.1264 35.74Z" fill="#B3B3B3"/>
<path d="M47.7356 35.71C47.7356 33.82 42.0956 32.29 35.1256 32.29C28.1556 32.29 22.5156 33.82 22.5156 35.71C22.5156 37.6 28.1556 39.13 35.1256 39.13C42.0956 39.13 47.7356 37.6 47.7356 35.71Z" fill="#F2F2F2"/>
<path d="M40.4666 35.7401C40.4666 34.8801 38.0666 34.1801 35.0966 34.1801C32.1266 34.1801 29.7266 34.8801 29.7266 35.7401C29.7266 36.6001 32.1266 37.3001 35.0966 37.3001C38.0666 37.3001 40.4666 36.6001 40.4666 35.7401Z" fill="#36211D"/>
<path d="M45.3331 34.3401C45.1731 34.6001 44.8931 34.8001 44.5831 34.7601C45.0231 35.0401 45.1031 35.7101 44.8032 36.1401C44.5032 36.5601 43.9331 36.7001 43.4431 36.5401C43.6231 36.6201 43.6631 36.8901 43.5431 37.0601C43.4231 37.2201 43.2032 37.2801 43.0032 37.2601C42.8032 37.2401 42.6231 37.1501 42.4431 37.0601C42.4832 37.4901 42.1731 37.9001 41.7931 38.0901C41.4031 38.2801 40.9532 38.2901 40.5232 38.2301C40.1932 38.1801 39.8432 37.9201 39.6632 37.6401C39.6132 38.3301 38.8432 38.7801 38.1632 38.7301C37.4732 38.6801 37.0331 38.2401 36.5132 37.7901C36.4232 38.1501 35.9832 38.3201 35.6232 38.2401C35.2632 38.1601 34.9132 37.9301 34.6632 37.6601C34.5532 38.0401 34.1132 38.2601 33.7132 38.2201C33.3132 38.1801 32.7931 37.9601 32.4931 37.7001C32.1931 38.2201 31.6232 38.5701 31.0232 38.6001C30.4232 38.6301 29.7532 38.2701 29.4032 37.7901C29.3032 38.0801 28.9732 38.2801 28.6732 38.2201C28.3732 38.1601 28.0432 37.6401 28.0532 37.3301C27.6232 37.6101 27.1032 37.7901 26.6032 37.6901C26.1032 37.5901 25.5332 37.1001 25.5332 36.5801C25.1932 36.7501 24.7232 36.5701 24.5932 36.2101C24.4732 35.8501 24.6832 35.2801 25.0532 35.2101C24.6232 35.1101 24.3932 34.5701 24.5332 34.1501C24.6832 33.7301 25.1032 33.4601 25.5432 33.3801C25.9832 33.3101 26.4332 33.4001 26.8532 33.5201C27.1132 33.6001 27.3832 33.6701 27.6532 33.7401C31.7032 34.8001 36.5631 35.3001 39.9931 33.0801C40.6332 32.6601 41.4531 32.6201 42.2132 32.6301C42.8032 32.6301 43.3832 32.6601 43.9632 32.7101C44.1831 32.7301 44.4032 32.7501 44.6231 32.7801C44.8431 32.8101 45.0831 32.8401 45.2431 33.0001C45.3631 33.1201 45.4131 33.2801 45.4431 33.4501C45.4931 33.7501 45.4731 34.0801 45.3131 34.3401" fill="#518020"/>
<path d="M44.6969 33.8C44.6869 33.99 44.4469 34.06 44.2669 34.04C44.0869 34.01 43.8569 33.84 43.6769 33.88C44.1369 34.04 44.3569 34.66 44.1169 35.08C44.0069 35.26 43.8369 35.45 43.6569 35.34C43.7869 35.57 43.7969 35.89 43.6069 36.08C43.3969 36.28 43.0869 36.31 42.8069 36.26C42.7869 36.48 42.5469 36.62 42.3269 36.6C42.1069 36.58 41.8169 36.45 41.6669 36.29C41.7669 36.43 41.7769 36.61 41.7869 36.78C41.7869 36.98 41.7669 37.19 41.6469 37.34C41.4769 37.55 41.1469 37.57 40.8969 37.46C40.6469 37.35 40.4069 37.14 40.2369 36.93C40.3069 37.16 40.1169 37.42 39.8869 37.44C39.7569 37.44 39.6269 37.39 39.5269 37.32C39.3769 37.21 39.2069 36.97 39.1469 36.79C39.1069 37.11 39.0069 37.44 38.7869 37.68C38.5669 37.92 38.2169 38.06 37.9069 37.96C37.5269 37.84 37.2869 37.4 37.1369 37.04C37.1769 37.23 37.0069 37.42 36.8169 37.47C36.6269 37.52 36.4269 37.45 36.2569 37.34C36.0469 37.21 35.8269 37.01 35.7169 36.79C35.7569 37.16 35.4069 37.5 35.0369 37.56C34.6669 37.62 34.3069 37.47 33.9869 37.29C33.9569 37.45 33.8069 37.58 33.6369 37.59C33.4769 37.59 33.2769 37.45 33.2269 37.3C33.2669 37.46 33.1069 37.62 32.9369 37.64C32.7669 37.66 32.6069 37.58 32.4669 37.5C32.1569 37.32 31.8869 36.96 31.6369 36.69C31.5469 36.91 31.4469 37.14 31.2969 37.33C31.1469 37.52 30.9369 37.67 30.6969 37.7C30.5669 37.72 30.4369 37.7 30.3069 37.68C29.8669 37.58 29.4169 37.29 29.2969 36.85C29.2969 37.05 29.0669 37.21 28.8669 37.18C28.6669 37.16 28.4969 36.99 28.4369 36.8C28.3769 36.61 28.3569 36.43 28.4169 36.24C28.3169 36.34 28.2169 36.44 28.1169 36.53C27.9569 36.67 27.7869 36.81 27.5969 36.89C27.3969 36.97 27.1669 36.98 26.9869 36.87C26.7569 36.74 26.5269 36.35 26.6369 36.11C26.5569 36.25 26.3169 36.19 26.2569 36.04C26.1969 35.89 26.2369 35.69 26.3269 35.56C26.1869 35.43 25.9169 35.49 25.8269 35.32C25.7969 35.28 25.7969 35.22 25.7969 35.17C25.7969 34.82 26.0569 34.51 26.3569 34.34C26.6669 34.17 27.0169 34.11 27.3669 34.06C27.4569 33.96 27.5469 33.86 27.6469 33.76C31.6969 34.82 36.5569 35.32 39.9869 33.1C40.6369 32.68 41.4469 32.64 42.2069 32.65C42.7969 32.65 43.3769 32.68 43.9569 32.73C44.1869 32.98 44.3869 33.28 44.5769 33.56C44.6269 33.64 44.6869 33.72 44.6769 33.82" fill="#456E1B"/>
<path d="M47.0865 30.99C47.0365 30.64 46.7665 30.45 46.4365 30.42C46.4065 30.42 46.3765 30.42 46.3465 30.42C46.3365 30.38 46.3265 30.34 46.3165 30.33C46.2765 30.17 46.1765 30 46.0465 29.89C45.8165 29.67 45.4265 29.7 45.2565 29.99C45.1065 30.26 45.0865 30.59 45.1765 30.9C44.9565 31.06 44.7365 31.22 44.5165 31.39C44.2365 31.61 43.9365 31.8 43.8065 32.14C43.7265 32.35 43.9365 32.58 44.1365 32.58C44.4765 32.58 44.7765 32.36 45.0665 32.21C45.3665 32.05 45.6665 31.9 45.9765 31.76C46.1865 31.81 46.3965 31.81 46.5965 31.73C46.9065 31.61 47.1165 31.35 47.0665 31.01" fill="#FED3B1"/>
<mask id="mask8_521_19154" style="mask-type:luminance" maskUnits="userSpaceOnUse" x="26" y="27" width="18" height="11">
<path d="M28.6147 30.94C27.7247 31.63 26.8447 32.42 26.4147 33.44C26.3747 33.54 26.3347 33.64 26.3047 33.74C26.0747 34.5 26.3247 35.07 26.8347 35.5C28.1547 36.6 30.1647 36.82 31.8047 36.97C33.7147 37.14 35.7847 36.99 37.7247 36.98C38.9747 36.98 40.2047 36.62 41.4147 36.31C41.7647 36.22 42.1247 36.12 42.4047 35.9C43.0547 35.39 43.1247 34.42 42.9847 33.6C42.9147 33.19 42.8047 32.79 42.6647 32.41C41.7947 30.07 39.6047 28.22 37.1147 27.85C36.7647 27.8 36.4147 27.77 36.0647 27.77C33.3647 27.77 30.7647 29.24 28.5947 30.93" fill="white"/>
</mask>
<g mask="url(#mask8_521_19154)">
<path d="M43.1342 27.78H26.0742V37.14H43.1342V27.78Z" fill="url(#paint3_linear_521_19154)"/>
</g>
<g opacity="0.2">
<mask id="mask9_521_19154" style="mask-type:luminance" maskUnits="userSpaceOnUse" x="26" y="32" width="18" height="6">
<path d="M43.0939 32.41H26.2539V37.05H43.0939V32.41Z" fill="white"/>
</mask>
<g mask="url(#mask9_521_19154)">
<path d="M42.4534 35.9C42.1734 36.12 41.8134 36.23 41.4634 36.31C40.2534 36.62 39.0234 36.97 37.7734 36.98C35.8334 36.98 33.7634 37.13 31.8534 36.97C30.2034 36.83 28.1934 36.6 26.8834 35.5C26.3634 35.07 26.1134 34.5 26.3534 33.74C26.3834 33.64 26.4234 33.54 26.4634 33.44C26.6034 33.58 26.7334 33.72 26.8234 33.8C27.7934 34.58 28.9934 34.97 30.2034 35.18C34.5234 35.92 39.1134 34.9 42.7234 32.42C42.8634 32.8 42.9734 33.2 43.0434 33.61C43.1834 34.43 43.1134 35.4 42.4634 35.91" fill="#592D16"/>
</g>
</g>
<mask id="mask10_521_19154" style="mask-type:luminance" maskUnits="userSpaceOnUse" x="28" y="34" width="6" height="5">
<path d="M31.6338 34.3C30.6738 34.43 29.6638 34.8 29.2638 35.08C28.9538 35.3 28.6438 35.52 28.4038 35.82C28.1738 36.12 28.0238 36.51 28.1038 36.88C28.2138 37.42 28.7438 37.76 29.2638 37.94C29.3938 37.99 29.5238 38.02 29.6638 38.06C30.2138 38.2 30.7938 38.24 31.3638 38.24C31.5238 38.24 31.6938 38.24 31.8338 38.16C31.9838 38.09 32.0938 37.93 32.0638 37.77C32.0038 37.43 31.4538 37.47 31.2638 37.18C31.7338 37.13 32.2138 37.07 32.6438 36.88C33.0738 36.69 33.4738 36.36 33.6238 35.91C34.0638 34.64 33.3038 34.24 32.2838 34.24C32.0738 34.24 31.8638 34.26 31.6438 34.29" fill="white"/>
</mask>
<g mask="url(#mask10_521_19154)">
<path d="M34.0634 34.26H28.0234V38.25H34.0634V34.26Z" fill="url(#paint4_linear_521_19154)"/>
</g>
<mask id="mask11_521_19154" style="mask-type:luminance" maskUnits="userSpaceOnUse" x="35" y="31" width="11" height="7">
<path d="M42.0364 31.98C41.0364 32.41 39.6264 32.25 38.5264 32.5C37.2664 32.79 36.1064 33.33 35.7564 34.63C35.7364 34.69 35.7264 34.75 35.7164 34.81C35.2264 37.28 38.5764 37.62 40.2264 37.33C40.8364 37.22 41.4464 37.08 41.9664 36.75C42.6264 36.32 42.9764 35.65 43.3464 35C43.7464 34.3 44.1864 33.75 44.7564 33.14C45.1364 32.72 45.3464 32.08 45.0964 31.6C45.0264 31.47 44.9264 31.36 44.7864 31.26C44.6164 31.14 44.4264 31.09 44.2264 31.09C43.4864 31.09 42.6164 31.74 42.0464 31.98" fill="white"/>
</mask>
<g mask="url(#mask11_521_19154)">
<path d="M45.3448 31.09H35.2148V37.62H45.3448V31.09Z" fill="url(#paint5_linear_521_19154)"/>
</g>
<g opacity="0.1">
<mask id="mask12_521_19154" style="mask-type:luminance" maskUnits="userSpaceOnUse" x="27" y="28" width="11" height="6">
<path d="M37.1244 28.4301H27.9844V33.0301H37.1244V28.4301Z" fill="white"/>
</mask>
<g mask="url(#mask12_521_19154)">
<path d="M36.7046 28.76C36.0146 28.31 35.0046 28.42 34.2346 28.54C33.4146 28.67 32.6346 28.97 31.8946 29.34C31.1746 29.71 30.4846 30.15 29.8146 30.61C29.1546 31.06 28.2146 31.55 27.9946 32.37C27.9046 32.72 28.1646 33.01 28.4946 33.03C29.2246 33.09 29.8546 32.53 30.4546 32.18C31.0646 31.82 31.6746 31.45 32.3046 31.13C32.9046 30.82 33.5246 30.56 34.1746 30.4C34.5146 30.32 34.8546 30.28 35.2046 30.28C35.5646 30.28 35.9046 30.38 36.2646 30.34C37.0746 30.24 37.4446 29.25 36.6946 28.76" fill="white"/>
</g>
</g>
<g opacity="0.1">
<mask id="mask13_521_19154" style="mask-type:luminance" maskUnits="userSpaceOnUse" x="37" y="29" width="4" height="3">
<path d="M40.6358 29.24H37.9258V31.36H40.6358V29.24Z" fill="white"/>
</mask>
<g mask="url(#mask13_521_19154)">
<path d="M40.3958 29.96C40.1458 29.74 39.8558 29.6 39.5558 29.47C39.1858 29.31 38.8258 29.18 38.4258 29.28C38.0258 29.39 37.7758 29.91 38.0158 30.28C38.2058 30.55 38.4458 30.71 38.7358 30.87C38.9558 30.99 39.1658 31.16 39.3858 31.27C39.7658 31.44 40.1858 31.41 40.4558 31.06C40.6958 30.75 40.6958 30.25 40.3958 29.97" fill="white"/>
</g>
</g>
<g opacity="0.2">
<mask id="mask14_521_19154" style="mask-type:luminance" maskUnits="userSpaceOnUse" x="35" y="31" width="11" height="7">
<path d="M45.2041 31.6H35.6641V37.42H45.2041V31.6Z" fill="white"/>
</mask>
<g mask="url(#mask14_521_19154)">
<path d="M44.7544 33.14C44.1944 33.76 43.7544 34.3 43.3444 35C42.9644 35.66 42.6144 36.33 41.9644 36.75C41.4444 37.08 40.8344 37.22 40.2244 37.33C38.5644 37.62 35.2144 37.28 35.7144 34.81C35.8044 34.84 35.9044 34.89 36.0444 34.94C36.8144 35.28 37.6344 35.52 38.4744 35.58C39.5544 35.66 40.6744 35.45 41.5944 34.87C42.4144 34.35 43.0344 33.58 43.6144 32.8C43.7944 32.56 43.9644 32.32 44.1844 32.12C44.4444 31.89 44.7744 31.74 45.0844 31.58C45.3444 32.06 45.1244 32.7 44.7444 33.12" fill="#592D16"/>
</g>
</g>
<g opacity="0.1">
<mask id="mask15_521_19154" style="mask-type:luminance" maskUnits="userSpaceOnUse" x="28" y="34" width="4" height="5">
<path d="M31.6342 34.3H28.0742V38.07H31.6342V34.3Z" fill="white"/>
</mask>
<g mask="url(#mask15_521_19154)">
<path d="M29.106 36.1401C28.876 36.5601 28.826 37.1001 29.076 37.5101C29.216 37.7401 29.436 37.9001 29.656 38.0801C29.526 38.0501 29.386 38.0101 29.256 37.9601C28.736 37.7801 28.206 37.4301 28.096 36.9001C28.016 36.5301 28.166 36.1401 28.396 35.8401C28.626 35.5401 28.946 35.3201 29.256 35.1001C29.656 34.8101 30.666 34.4401 31.626 34.3201C31.116 34.5901 30.586 34.8101 30.096 35.1501C29.706 35.4201 29.326 35.7401 29.096 36.1601" fill="white"/>
</g>
</g>
<path d="M7.32398 38.57L6.89398 39.64C6.81398 39.83 6.95398 40.04 7.15398 40.05C8.31398 40.11 11.674 40.25 14.274 40.05C14.464 40.04 14.594 39.85 14.534 39.66L14.114 38.32C14.074 38.19 13.954 38.11 13.814 38.11L7.58398 38.37C7.46398 38.37 7.36398 38.45 7.32398 38.56" fill="#666666"/>
<mask id="mask16_521_19154" style="mask-type:luminance" maskUnits="userSpaceOnUse" x="0" y="30" width="21" height="10">
<path d="M0.125 30.58C0.125 35.37 4.835 39.18 10.505 39.18C16.175 39.18 20.675 35.37 20.675 30.58H0.125Z" fill="white"/>
</mask>
<g mask="url(#mask16_521_19154)">
<path d="M20.685 30.58H0.125V39.18H20.685V30.58Z" fill="url(#paint6_linear_521_19154)"/>
</g>
<g opacity="0.15">
<mask id="mask17_521_19154" style="mask-type:luminance" maskUnits="userSpaceOnUse" x="0" y="30" width="21" height="10">
<path d="M20.6836 30.58H0.683594V39.18H20.6836V30.58Z" fill="white"/>
</mask>
<g mask="url(#mask17_521_19154)">
<path d="M19.6236 30.58C18.7336 34.6 14.5536 37.65 9.52359 37.65C5.76359 37.65 2.47359 35.95 0.683594 33.4C2.07359 36.8 6.00359 39.24 10.5036 39.18C15.8536 39.11 20.6736 35.37 20.6736 30.58H19.6136H19.6236Z" fill="#450904"/>
</g>
</g>
<path d="M20.685 30.58C20.685 30.72 20.605 30.86 20.465 30.99C19.485 31.88 15.355 32.55 10.405 32.55C5.455 32.55 1.325 31.88 0.345 30.99C0.205 30.86 0.125 30.72 0.125 30.58C0.125 29.49 4.725 28.61 10.405 28.61C16.085 28.61 20.685 29.49 20.685 30.58Z" fill="#EF2B4C"/>
<path d="M20.4638 30.9901C19.4838 31.8801 15.3537 32.5501 10.4037 32.5501C5.45375 32.5501 1.32375 31.8801 0.34375 30.9901C1.32375 30.1001 5.45375 29.4301 10.4037 29.4301C15.3537 29.4301 19.4838 30.1001 20.4638 30.9901Z" fill="#F9C432"/>
<g opacity="0.2">
<mask id="mask18_521_19154" style="mask-type:luminance" maskUnits="userSpaceOnUse" x="2" y="29" width="16" height="3">
<path d="M17.0647 29.92H2.80469V31.86H17.0647V29.92Z" fill="white"/>
</mask>
<g mask="url(#mask18_521_19154)">
<path d="M2.98283 30.6501C2.73283 30.8101 2.68283 31.0001 3.16283 31.2101C3.77283 31.4801 4.53283 31.4101 5.18283 31.5101C5.99283 31.6301 6.81283 31.6701 7.63283 31.7101C10.2228 31.8501 12.8428 31.9801 15.4028 31.5601C15.9228 31.4801 16.4628 31.3601 16.8728 31.0301C16.9428 30.9701 17.0228 30.9001 17.0428 30.8101C17.1128 30.5401 16.7528 30.3801 16.4728 30.3401C14.1028 29.9901 11.7128 29.8501 9.31283 29.9301C8.23283 29.9601 7.15283 29.9001 6.07283 29.9601C5.52283 29.9901 4.97283 30.0601 4.44283 30.1901C4.16283 30.2601 3.34283 30.4201 2.97283 30.6501" fill="white"/>
</g>
</g>
<path d="M3.385 30.8C3.575 30.67 3.805 30.6 4.035 30.59C4.095 30.59 4.155 30.59 4.205 30.63C4.185 30.72 4.175 30.81 4.185 30.9C3.975 30.91 3.745 31.02 3.635 31.21C3.515 31.09 3.425 30.96 3.375 30.8" fill="#518020"/>
<path d="M8.28625 31.49C8.19625 31.43 8.15625 31.3 8.10625 31.21C8.05625 31.27 7.98625 31.32 7.90625 31.34C7.95625 31.49 8.06625 31.62 8.21625 31.68C8.21625 31.62 8.24625 31.54 8.28625 31.5" fill="#518020"/>
<path d="M17.8839 31.7C17.7939 31.64 17.7539 31.51 17.7039 31.42C17.6539 31.48 17.5839 31.53 17.5039 31.55C17.5539 31.7 17.6639 31.83 17.8139 31.89C17.8139 31.83 17.8439 31.75 17.8839 31.71" fill="#518020"/>
<path d="M8.30537 30.16C8.28537 30.05 8.34537 29.93 8.38537 29.83C8.30537 29.83 8.22537 29.82 8.15537 29.78C8.08537 29.92 8.06537 30.09 8.12537 30.23C8.16537 30.19 8.24537 30.16 8.30537 30.16Z" fill="#518020"/>
<path d="M2.46672 31.26C2.37672 31.32 2.24672 31.32 2.13672 31.34C2.17672 31.41 2.19672 31.49 2.18672 31.57C2.34672 31.57 2.50672 31.51 2.60672 31.39C2.54672 31.38 2.48672 31.32 2.46672 31.26Z" fill="#518020"/>
<path d="M15.0641 30.01C14.9541 30.01 14.8441 30.07 14.7441 30.12C14.7441 30.04 14.7141 29.96 14.6641 29.9C14.7941 29.82 14.9641 29.78 15.1141 29.83C15.0741 29.87 15.0541 29.96 15.0541 30.01" fill="#518020"/>
<path d="M5.09687 31.99C5.02687 31.91 4.89688 31.88 4.79688 31.85C4.85687 31.79 4.88687 31.72 4.89687 31.64C5.04687 31.67 5.19687 31.76 5.26687 31.9C5.20687 31.9 5.13687 31.95 5.09687 31.99Z" fill="#518020"/>
<path d="M10.2448 31.0801L10.2148 31.3501C10.2148 31.3501 10.5948 31.0801 10.9848 31.3001V31.0901C10.9848 31.0901 10.6448 30.9001 10.2448 31.0901" fill="#518020"/>
<path d="M6.65656 29.96L6.39656 29.76C6.39656 29.76 6.44656 30.32 5.97656 30.59L6.20656 30.71C6.20656 30.71 6.60656 30.48 6.65656 29.95" fill="#518020"/>
<path d="M18.0368 30.89H18.2568C18.2568 30.89 18.0168 30.61 18.1568 30.28L17.9868 30.3C17.9868 30.3 17.8568 30.58 18.0368 30.89Z" fill="#518020"/>
<path d="M13.5267 30.45L13.2067 30.37C13.2067 30.37 13.4667 30.87 13.1367 31.3L13.3967 31.32C13.3967 31.32 13.6767 30.96 13.5167 30.45" fill="#518020"/>
<path d="M15.6366 31.2L15.6566 31.53C15.6566 31.53 15.2166 31.18 14.7266 31.41L14.7566 31.15C14.7566 31.15 15.1666 30.95 15.6366 31.2Z" fill="#518020"/>
<path d="M12.7569 30.54C12.6369 30.69 12.3069 30.81 12.1169 30.83C11.1469 30.98 10.1869 30.79 9.29688 30.38C9.31687 30.3 9.34687 30.23 9.37687 30.15C9.55687 29.7 9.89687 29.32 10.3269 29.11C10.8369 28.87 11.4569 28.87 11.9469 29.15C12.2069 29.3 12.4269 29.52 12.5669 29.78C12.6969 30.01 12.7669 30.27 12.7669 30.53" fill="#B63F1F"/>
<path d="M10.1731 29.5601C9.96313 29.5601 9.96313 29.8801 10.1731 29.8801C10.3831 29.8801 10.3831 29.5601 10.1731 29.5601Z" fill="#9D2C04"/>
<path d="M10.9055 29.21C10.7555 29.21 10.7555 29.44 10.9055 29.44C11.0555 29.44 11.0555 29.21 10.9055 29.21Z" fill="#9D2C04"/>
<path d="M11.8946 29.75C11.7746 29.75 11.6546 29.86 11.6646 29.98C11.6646 30.1 11.7646 30.21 11.8946 30.21C12.0146 30.21 12.1346 30.1 12.1246 29.98C12.1246 29.86 12.0246 29.75 11.8946 29.75Z" fill="#9D2C04"/>
<path d="M4.76562 31.22C4.86563 31.34 5.13562 31.44 5.28562 31.46C6.07562 31.58 6.85563 31.43 7.58563 31.1C7.56563 31.04 7.54563 30.98 7.52563 30.92C7.37563 30.56 7.10563 30.25 6.75563 30.08C6.34563 29.88 5.83563 29.89 5.43563 30.11C5.22563 30.23 5.04563 30.41 4.93563 30.62C4.83563 30.81 4.77563 31.02 4.77563 31.23" fill="#B63F1F"/>
<path d="M6.86578 30.42C7.03578 30.42 7.03578 30.68 6.86578 30.68C6.69578 30.68 6.69578 30.42 6.86578 30.42Z" fill="#9D2C04"/>
<path d="M6.26578 30.13C6.38578 30.13 6.38578 30.32 6.26578 30.32C6.14578 30.32 6.14578 30.13 6.26578 30.13Z" fill="#9D2C04"/>
<path d="M5.46344 30.58C5.56344 30.58 5.65344 30.67 5.65344 30.77C5.65344 30.87 5.57344 30.96 5.46344 30.96C5.36344 30.96 5.27344 30.87 5.27344 30.77C5.27344 30.67 5.35344 30.58 5.46344 30.58Z" fill="#9D2C04"/>
<g opacity="0.2">
<mask id="mask19_521_19154" style="mask-type:luminance" maskUnits="userSpaceOnUse" x="9" y="29" width="4" height="2">
<path d="M12.7552 29.8H9.28516V30.89H12.7552V29.8Z" fill="white"/>
</mask>
<g mask="url(#mask19_521_19154)">
<path d="M12.7569 30.54C12.6369 30.69 12.3069 30.81 12.1169 30.83C11.1469 30.98 10.1869 30.79 9.29688 30.38C9.31687 30.3 9.34687 30.23 9.37687 30.15C10.4369 30.38 11.5769 30.25 12.5669 29.78C12.6969 30.01 12.7669 30.27 12.7669 30.53" fill="#450904"/>
</g>
</g>
<path d="M10.4058 31.05C10.1158 31.32 9.86579 31.55 9.43579 31.51C9.09579 31.48 8.85579 31.32 8.54579 31.21C8.50579 31.2 8.46579 31.23 8.48579 31.27C8.62579 31.64 9.24579 31.76 9.59579 31.76C9.95579 31.76 10.4158 31.5 10.5658 31.17C10.6058 31.08 10.4858 30.97 10.4058 31.05Z" fill="#416619"/>
<path d="M11.5062 30.99C11.4162 30.94 11.3362 30.9 11.2462 30.86C11.3562 30.69 11.4262 30.5 11.3762 30.3C11.3362 30.14 11.1362 29.99 10.9862 30.14C10.8862 30.23 10.7762 30.35 10.6762 30.48C10.6262 30.37 10.5562 30.28 10.4662 30.2C10.3462 30.1 10.1262 30.12 10.0362 30.25C9.80618 30.58 10.0362 31.16 10.2862 31.4C10.5662 31.66 11.0862 31.68 11.4362 31.53C11.6362 31.45 11.7162 31.12 11.5062 30.99Z" fill="#518020"/>
<path d="M16.7045 35.66C16.7045 35.66 14.4345 38.04 17.0745 40.07C19.1745 41.69 20.5245 39.57 20.5245 39.57L16.7045 35.66Z" fill="#518020"/>
<path d="M18.8049 35.9501C18.2949 35.6401 17.5149 35.2201 16.9049 35.5201C16.3949 35.7701 16.3549 36.4501 16.4249 36.9401C16.5449 37.7501 16.8949 38.5301 17.4749 39.1001C18.0549 39.6701 18.8949 40.0001 19.7049 39.8901C20.1449 39.8301 20.5849 39.6201 20.7949 39.2301C21.3949 38.1001 20.0149 36.7101 18.7949 35.9601" fill="#BEFF7A"/>
<path d="M20.0535 37.86C20.2035 37.87 20.3635 37.9 20.4535 38.02C20.5335 38.13 20.5235 38.28 20.5135 38.41C20.4835 38.64 20.4435 38.87 20.3035 39.05C20.1635 39.23 19.9035 39.34 19.7035 39.24C19.6235 39.2 19.5635 39.14 19.5035 39.08C19.3135 38.88 18.7735 38.26 18.9135 37.96C19.0535 37.65 19.8035 37.84 20.0535 37.87" fill="#8CDE36"/>
<path d="M19.4157 37.05C19.4957 36.96 19.5757 36.86 19.5557 36.74C19.5457 36.65 19.4657 36.58 19.3957 36.52C19.1557 36.33 18.8557 36.2 18.5457 36.16C18.4957 36.16 18.4457 36.15 18.3957 36.16C18.3157 36.2 18.2857 36.29 18.2757 36.38C18.2257 36.74 18.3157 37.1 18.4457 37.43C18.7257 38.12 19.1457 37.32 19.4057 37.04" fill="#8CDE36"/>
<path d="M17.3038 36.07C16.8138 35.86 16.6038 36.73 16.7638 37.09C16.8538 37.3 17.0738 37.41 17.2738 37.52C17.3838 37.58 17.4938 37.65 17.6138 37.68C17.7338 37.71 17.8738 37.71 17.9738 37.63C18.2838 37.41 17.9138 36.84 17.7838 36.63C17.6938 36.48 17.5738 36.24 17.4338 36.14C17.3938 36.11 17.3538 36.09 17.3238 36.07" fill="#8CDE36"/>
<path d="M18.4164 39.5499C18.5464 39.5699 18.7064 39.5499 18.7864 39.4399C18.8564 39.3499 18.8464 39.2299 18.8364 39.1199C18.8064 38.8199 18.7764 38.1199 18.5464 37.8899C18.3564 37.6999 17.9364 37.8899 17.7464 37.9999C17.3564 38.2399 17.1564 38.4899 17.4464 38.9099C17.6664 39.2299 18.0264 39.5099 18.4164 39.5599" fill="#8CDE36"/>
<path d="M20.1851 38.22C20.1651 38.11 19.9851 38.14 20.0151 38.26C20.0351 38.37 20.2151 38.34 20.1851 38.22Z" fill="#BEFF7A"/>
<path d="M20.0168 38.85C19.9968 38.77 19.8768 38.8 19.8968 38.88C19.9168 38.96 20.0368 38.93 20.0168 38.85Z" fill="#BEFF7A"/>
<path d="M19.246 38.14C19.226 38.05 19.096 38.08 19.106 38.17C19.126 38.26 19.256 38.23 19.246 38.14Z" fill="#BEFF7A"/>
<path d="M18.1435 38.72C18.0635 38.72 18.0335 38.83 18.1135 38.86C18.2135 38.89 18.2435 38.72 18.1435 38.72Z" fill="#BEFF7A"/>
<path d="M18.5248 39.24C18.5048 39.15 18.3648 39.18 18.3848 39.27C18.4048 39.36 18.5448 39.33 18.5248 39.24Z" fill="#BEFF7A"/>
<path d="M18.7966 36.7399C18.8166 36.7199 18.8166 36.6899 18.8066 36.6699C18.7766 36.5999 18.6866 36.6199 18.6766 36.6699C18.6666 36.7399 18.7466 36.7799 18.7966 36.7399Z" fill="#BEFF7A"/>
<path d="M18.7062 37.28C18.6862 37.21 18.5762 37.23 18.5962 37.3C18.6162 37.37 18.7262 37.35 18.7062 37.28Z" fill="#BEFF7A"/>
<path d="M17.1667 36.92C17.1267 36.74 16.8467 36.8 16.8867 36.98C16.9267 37.16 17.2067 37.1 17.1667 36.92Z" fill="#BEFF7A"/>
<path d="M17.5949 36.8601C17.5749 36.7801 17.4549 36.81 17.4749 36.89C17.4949 36.97 17.6149 36.9401 17.5949 36.8601Z" fill="#BEFF7A"/>
<mask id="mask20_521_19154" style="mask-type:luminance" maskUnits="userSpaceOnUse" x="14" y="39" width="27" height="2">
<path d="M14.8164 39.89V40.36H40.9464V39.66L14.8164 39.89Z" fill="white"/>
</mask>
<g mask="url(#mask20_521_19154)">
<path d="M40.9464 39.66H14.8164V40.37H40.9464V39.66Z" fill="url(#paint7_linear_521_19154)"/>
</g>
<path d="M40.9464 40.81L14.8264 41.33L14.8164 40.86L40.9364 40.1L40.9464 40.81Z" fill="#FFC038"/>
</g>
</g>
<defs>
<linearGradient id="paint0_linear_521_19154" x1="16.2461" y1="8.51" x2="19.0811" y2="8.51" gradientUnits="userSpaceOnUse">
<stop stop-color="#FF846C"/>
<stop offset="1" stop-color="#FF585F"/>
</linearGradient>
<linearGradient id="paint1_linear_521_19154" x1="-1.02475" y1="19.6854" x2="7.16975" y2="19.6854" gradientUnits="userSpaceOnUse">
<stop stop-color="#FBB525"/>
<stop offset="1" stop-color="#FD921A"/>
</linearGradient>
<linearGradient id="paint2_linear_521_19154" x1="20.1824" y1="36.993" x2="23.6114" y2="36.993" gradientUnits="userSpaceOnUse">
<stop stop-color="#FD8A42"/>
<stop offset="1" stop-color="#FC6727"/>
</linearGradient>
<linearGradient id="paint3_linear_521_19154" x1="20.54" y1="30.3679" x2="37.4393" y2="30.3679" gradientUnits="userSpaceOnUse">
<stop stop-color="#FBB525"/>
<stop offset="1" stop-color="#FD921A"/>
</linearGradient>
<linearGradient id="paint4_linear_521_19154" x1="20.8605" y1="33.5616" x2="26.5494" y2="33.5616" gradientUnits="userSpaceOnUse">
<stop stop-color="#FD8A42"/>
<stop offset="1" stop-color="#FC6727"/>
</linearGradient>
<linearGradient id="paint5_linear_521_19154" x1="37.4598" y1="35.0645" x2="47.0313" y2="35.0645" gradientUnits="userSpaceOnUse">
<stop stop-color="#FD8A42"/>
<stop offset="1" stop-color="#FC6727"/>
</linearGradient>
<linearGradient id="paint6_linear_521_19154" x1="-2.475" y1="34.012" x2="18.153" y2="34.012" gradientUnits="userSpaceOnUse">
<stop stop-color="#FF846C"/>
<stop offset="1" stop-color="#FF585F"/>
</linearGradient>
<linearGradient id="paint7_linear_521_19154" x1="27.3936" y1="44.5676" x2="53.616" y2="44.5676" gradientUnits="userSpaceOnUse">
<stop stop-color="#FD8A42"/>
<stop offset="1" stop-color="#FC6727"/>
</linearGradient>
<clipPath id="clip0_521_19154">
<rect width="48" height="48" fill="white" transform="translate(0.125)"/>
</clipPath>
<clipPath id="clip1_521_19154">
<rect width="48" height="36.28" fill="white" transform="translate(0.125 6)"/>
</clipPath>
</defs>
</svg>
