<svg width="49" height="48" viewBox="0 0 49 48" fill="none" xmlns="http://www.w3.org/2000/svg">
<g clip-path="url(#clip0_521_19171)">
<g style="mix-blend-mode:multiply">
<mask id="mask0_521_19171" style="mask-type:luminance" maskUnits="userSpaceOnUse" x="6" y="46" width="33" height="3">
<path d="M38.1628 46.083H6.28906V48.0001H38.1628V46.083Z" fill="white"/>
</mask>
<g mask="url(#mask0_521_19171)">
<path d="M38.1628 47.0415C38.1628 47.5701 31.032 48.0001 22.2259 48.0001C13.4199 48.0001 6.28906 47.5701 6.28906 47.0415C6.28906 46.513 13.4199 46.083 22.2259 46.083C31.032 46.083 38.1628 46.513 38.1628 47.0415Z" fill="#CBE7F2"/>
</g>
</g>
<path d="M35.8974 32.6723C36.5335 32.8067 37.1874 32.8963 37.7966 33.1382C40.7887 34.2938 42.7058 37.268 42.446 40.3675C42.1683 43.6553 39.8749 46.2442 36.6679 46.9071C36.5245 46.934 36.3364 46.8892 36.2199 47.0415H34.2491C32.9591 46.8982 31.7945 46.4055 30.7822 45.5992C29.2593 44.3898 28.3456 42.8221 28.0589 40.8961C28.032 40.7348 27.9872 40.5736 27.9783 40.4123C27.9604 40.045 27.9604 39.6778 27.9783 39.3194C28.1485 37.913 28.5785 36.5961 29.4654 35.4673C30.6927 33.8996 32.2783 32.9411 34.2581 32.6634C34.4193 32.6365 34.5806 32.6007 34.7418 32.5828C35.127 32.5828 35.5212 32.4663 35.8885 32.6903" fill="#525253"/>
<path d="M21.2742 40.4751C20.8083 40.932 20.3335 41.3888 19.8677 41.8457C18.5777 43.1268 17.2877 44.4078 16.0156 45.7068C15.4513 46.2891 14.869 46.8266 14.0627 47.0416H13.0773C12.5488 46.9699 12.0919 46.7459 11.7246 46.3607C11.3663 45.9934 10.99 45.6351 10.6406 45.2588C10.5421 45.1603 10.354 45.0618 10.4973 44.8647C10.5958 44.8288 10.6854 44.8647 10.775 44.9005C11.7694 45.3216 12.6652 45.1155 13.4894 44.4616C13.6506 44.3361 13.794 44.1838 13.9373 44.0405C17.431 40.5468 20.9248 37.053 24.4096 33.5682C24.5798 33.398 24.75 33.2188 24.9023 33.0218C25.5742 32.2961 25.7265 31.4541 25.4577 30.5134C25.4129 30.3701 25.3233 30.2447 25.3681 30.0834C25.4488 29.967 25.5473 30.0297 25.61 30.0924C26.1833 30.6568 26.8194 31.1674 27.2852 31.8393C27.975 33.0845 27.536 34.3386 26.7298 35.1449C25.3592 36.5245 23.9796 37.8951 22.609 39.2657C22.1521 39.6509 21.8206 40.1616 21.2921 40.4661" fill="#FE585F"/>
<path d="M39.6776 5.00005C40.0808 5.23296 40.5466 5.33151 40.9049 5.67192C41.4066 6.15567 41.6126 6.78276 41.8903 7.38296C41.9531 7.82192 42.0068 8.26088 42.0158 8.7088C42.0158 9.98088 41.541 11.0559 40.7437 11.9965C40.3047 12.5161 39.7851 12.973 39.3014 13.4567C39.2028 13.5463 39.1133 13.6628 38.952 13.618C38.4056 12.319 37.8591 11.02 37.3126 9.71213C37.1603 9.34484 37.0081 8.98651 36.8647 8.61921C36.2376 7.05151 36.9901 5.53755 38.6116 5.06276C38.6474 5.0538 38.6743 5.01796 38.7101 4.99109H39.6956L39.6776 5.00005Z" fill="#DFDFDF"/>
<path d="M10.436 44.9094C10.875 45.3752 11.3229 45.8411 11.7619 46.3069C11.5648 46.7996 11.1079 46.8892 10.669 47.0057C10.5704 47.0325 10.454 46.9698 10.3554 47.0505H9.45062C8.60854 46.7996 8.02624 46.1905 7.43499 45.5813C6.71833 44.8467 5.98374 44.13 5.25812 43.4044C4.13833 42.2757 4.07562 40.8692 5.11479 39.6688C5.31187 39.633 5.40145 39.7942 5.51791 39.9017C7.08562 41.4605 8.64437 43.0282 10.2031 44.5869C10.3017 44.6855 10.4092 44.7661 10.4271 44.9184" fill="#525253"/>
<path d="M10.4376 44.9094C9.73886 44.2197 9.04011 43.5388 8.34136 42.849C7.26636 41.783 6.19136 40.7259 5.11636 39.6599C4.33698 38.7192 4.1399 37.7069 4.71323 36.5872C4.85657 36.3184 5.07157 36.1034 5.27761 35.8884C8.95052 32.2155 12.6324 28.5515 16.2874 24.8697C17.2191 23.929 18.2493 23.7051 19.4586 24.2157C19.5124 24.2336 19.5661 24.2426 19.6199 24.2605C19.8618 24.3142 20.0141 24.5024 20.1753 24.6636C21.6266 26.1149 23.0778 27.5661 24.5291 29.0174C24.6724 29.1607 24.8157 29.313 24.9949 29.4205C25.183 29.5907 25.3711 29.743 25.398 30.0207C25.4518 30.3701 25.6309 30.6747 25.6668 31.0419C25.7384 31.8034 25.5145 32.4574 25.0576 33.0397C25.0307 33.0755 24.9591 33.0755 24.9053 33.0934C24.7082 33.1472 24.6186 32.9769 24.5111 32.8784C24.0184 32.3947 23.5347 31.9019 23.042 31.4182C21.5549 29.9132 20.0409 28.4261 18.5539 26.9122C18.3568 26.7061 18.2314 26.7061 18.0253 26.9122C14.4868 30.4686 10.9303 34.0161 7.38282 37.5547C7.1499 37.7876 7.16782 37.9309 7.39177 38.1549C8.8699 39.6151 10.3301 41.0932 11.8082 42.5534C12.3099 43.064 12.8205 43.5657 13.3222 44.0763C13.4297 44.1928 13.582 44.2824 13.582 44.4705C12.9907 45.1424 11.8172 45.4738 10.778 45.0349C10.6705 44.9901 10.5541 44.9542 10.4376 44.9094Z" fill="#FE836C"/>
<path d="M38.9422 13.618C39.7933 12.7849 40.7429 12.0413 41.3252 10.9574C41.8895 9.91819 42.0149 8.82527 41.8447 7.67861C41.8268 7.57111 41.791 7.46361 41.8895 7.37402C42.1583 8.14444 42.5793 8.86111 42.7585 9.66736C43.1079 11.2261 42.8481 12.6774 41.8985 13.9763C41.7014 14.2361 41.4774 14.478 41.2535 14.7109C36.8012 19.1721 32.3399 23.6334 27.8787 28.0857C27.7622 28.2021 27.6727 28.3455 27.5024 28.3992C27.1531 28.3276 27.0097 27.9961 26.7589 27.799C26.6872 27.7094 26.5977 27.6378 26.5977 27.5034C26.7231 27.3959 26.8485 27.2974 26.9649 27.1809C30.9872 23.1676 35.0006 19.1453 39.0229 15.1319C39.3185 14.8453 39.3812 14.5944 39.1841 14.254C39.0677 14.0569 38.987 13.8419 38.9422 13.609" fill="#D9D9D9"/>
<path d="M32.0365 17.0759C31.49 15.7859 30.9436 14.4959 30.4061 13.1969C30.2269 12.7669 30.0567 12.3369 29.8775 11.9159C29.1788 10.2765 30.2538 8.35047 32.2515 8.32359C33.2907 8.31464 34.0969 8.86109 34.5627 9.81964C34.7329 10.169 34.8494 10.5542 34.9927 10.9215C35.0823 11.4769 35.1271 12.0144 35.0375 12.5788C34.8852 13.5821 34.5 14.469 33.8461 15.2394C33.2907 15.8934 32.6636 16.4846 32.0365 17.0759Z" fill="#DFDFDF"/>
<path d="M25.0576 20.274C24.7083 19.638 24.4843 18.9571 24.1976 18.2942C23.7497 17.2371 23.3287 16.1711 22.8897 15.123C22.406 13.9584 22.9883 12.7759 23.6333 12.2294C24.4843 11.5128 25.6937 11.4411 26.688 12.0682C27.3599 12.4892 27.6735 13.179 27.9333 13.8957C27.9601 13.9763 27.987 14.048 28.0139 14.1286C28.1483 14.8453 28.1662 15.553 28.0228 16.2696C27.8347 17.2909 27.3151 18.124 26.6433 18.8765C26.2491 19.3155 25.8191 19.7186 25.398 20.1217C25.3085 20.2113 25.2099 20.3367 25.0487 20.283" fill="#DFDFDF"/>
<path d="M32.0336 17.0759C32.0336 16.8877 32.1948 16.7981 32.3023 16.6817C32.8219 16.1263 33.4132 15.6336 33.879 15.0244C34.4255 14.3256 34.7748 13.5373 34.9092 12.6594C34.9898 12.1577 35.0526 11.665 34.9092 11.1634C34.8823 11.0738 34.8913 10.9752 34.9809 10.9036C35.4288 11.8979 35.9215 12.8834 35.9573 14.0031C36.0111 15.4902 35.5005 16.8071 34.4613 17.8552C31.6215 20.7219 28.7638 23.5706 25.9061 26.4194C25.8434 26.4821 25.7538 26.5359 25.6821 26.5896C25.2701 26.4104 24.9744 26.1059 24.7773 25.7027C24.8938 25.6042 25.0103 25.5146 25.1178 25.4071C27.4559 23.069 29.7851 20.7309 32.1321 18.4106C32.383 18.1598 32.4188 17.9627 32.2665 17.6761C32.168 17.4879 32.1142 17.2729 32.0336 17.0669" fill="#D9D9D9"/>
<path d="M24.7889 25.7117C25.0756 26.0252 25.3622 26.3388 25.6937 26.5986C25.9624 26.939 26.276 27.2257 26.5985 27.5123C26.6612 27.593 26.7149 27.6646 26.7777 27.7452C26.6433 28.0946 26.3208 28.2827 26.0879 28.5336C25.846 28.7934 25.5952 29.0442 25.3354 29.2861C25.2279 29.3846 25.1383 29.528 24.9591 29.4742C24.8427 29.3757 24.7262 29.2861 24.6187 29.1875C23.2929 27.8707 21.976 26.5448 20.6591 25.228C20.3187 24.8965 19.9693 24.574 19.6289 24.2425C20.1664 23.705 20.7218 23.1675 21.2504 22.6121C21.4295 22.424 21.5191 22.433 21.6983 22.6121C22.1193 23.06 22.5762 23.4721 23.0152 23.9021C23.4093 24.0902 23.7049 24.3859 23.8931 24.78C24.1618 25.1115 24.4754 25.4071 24.7979 25.6938" fill="#4C5E63"/>
<path d="M23.8818 24.798C23.5593 24.5293 23.2637 24.2337 23.0039 23.9201C23.6131 23.1855 24.3387 22.5585 25.0016 21.8687C25.4943 21.358 25.5033 21.367 25.1897 20.7041C25.127 20.5697 25.0464 20.4353 25.0554 20.283C26.0408 19.3514 27.0889 18.4735 27.6354 17.1745C28.0027 16.2876 28.1012 15.3739 27.9579 14.4243C27.9399 14.3168 27.9041 14.2093 28.0116 14.1287C28.3431 14.9797 28.791 15.786 28.9343 16.6997C29.1762 18.2047 28.8627 19.5932 27.8862 20.7668C26.7037 22.1822 25.3062 23.4005 24.0162 24.7264C23.9804 24.7622 23.9266 24.7801 23.8818 24.807" fill="#D9D9D9"/>
<path d="M35.894 32.6724H34.6577C34.5502 32.5649 34.5502 32.4215 34.5502 32.2872C34.5502 29.743 34.5502 27.1988 34.5502 24.6188C34.4248 24.7174 34.3352 24.8249 34.2277 24.9324C32.669 26.4911 31.1102 28.0499 29.5515 29.6086C29.4081 29.752 29.2827 29.9222 29.0767 29.9938C28.6467 29.8147 28.3331 29.519 28.1719 29.0801C28.2167 28.9278 28.351 28.8382 28.4585 28.7397C31.809 25.3893 35.1594 22.0478 38.4919 18.6884C38.7606 18.4107 39.0383 18.2943 39.4235 18.3032C40.3552 18.3301 41.2869 18.3032 42.2185 18.3032C42.8008 18.3032 43.1054 18.5182 43.1144 18.9213C43.1144 19.3334 42.8098 19.5484 42.2096 19.5484C41.4033 19.5484 40.5971 19.5484 39.7908 19.5484C39.549 19.5484 39.3787 19.6201 39.2175 19.7903C38.2052 20.8115 37.1929 21.8328 36.1717 22.8361C35.9746 23.0243 35.9119 23.2213 35.9119 23.4901C35.9119 26.5538 35.9119 29.6176 35.9119 32.6813" fill="#B7B7B7"/>
<path d="M28.1843 29.0711C28.4083 29.4205 28.7577 29.6444 29.0085 29.9669C29.0533 30.0744 28.9906 30.1551 28.9189 30.2178C28.4083 30.7463 27.8887 31.2748 27.3512 31.7765C27.2974 31.8213 27.2347 31.8482 27.1631 31.8482C26.6435 31.1763 26.0074 30.603 25.3893 30.0207C25.237 29.8415 25.0937 29.6713 24.9414 29.4921C25.4789 29.0801 25.9089 28.5426 26.4016 28.0857C26.5181 27.9782 26.6435 27.8707 26.7599 27.7632C27.0018 27.9782 27.2437 28.2021 27.4856 28.4171C27.6827 28.668 27.8887 28.9098 28.1664 29.0801" fill="#525253"/>
<path d="M22.5226 39.2299C24.3769 39.2299 26.2403 39.2299 28.0946 39.2299C28.0946 39.6419 28.0946 40.054 28.0946 40.4661C25.8192 40.4661 23.5528 40.4661 21.2773 40.4661C21.6626 40.0272 22.0746 39.6061 22.5226 39.2299Z" fill="#B7B7B7"/>
<path d="M38.8774 42.7147C38.098 42.2309 37.3455 41.7024 36.4766 41.3709C36.9334 40.8245 37.0141 40.1526 37.1305 39.4807C37.1484 39.4986 37.1843 39.5255 37.1753 39.5434C37.0678 40.1705 37.4799 40.4393 37.9457 40.6632C38.5011 40.932 38.9759 41.3261 39.5582 41.5322C39.397 41.9622 39.182 42.3743 38.8595 42.7147" fill="#DFDFDF"/>
<path d="M34.0957 41.3709C33.5582 41.5053 33.1282 41.8547 32.6713 42.1234C32.3398 42.3115 31.9457 42.419 31.7217 42.7684C31.3992 42.4101 31.1663 41.989 30.9961 41.5411C31.7755 41.2276 32.4563 40.717 33.1998 40.3407C33.3342 40.269 33.3701 40.1347 33.3611 39.9913C33.4059 39.9913 33.4596 39.9913 33.4686 40.0272C33.5313 40.5467 33.8717 40.9409 34.0957 41.3888" fill="#DFDFDF"/>
<path d="M35.9042 35.315V38.0115C35.4921 38.0831 35.0801 38.1369 34.668 38.0115C34.668 37.1156 34.668 36.2109 34.668 35.315C35.0801 35.2075 35.4921 35.2254 35.9042 35.315Z" fill="#DFDFDF"/>
<path d="M23.0952 31.3375C23.6954 31.9198 24.2956 32.5021 24.8958 33.0844C24.8958 33.2277 24.7793 33.2994 24.6987 33.38C21.0527 37.0261 17.4066 40.6721 13.7606 44.3181C13.7068 44.3719 13.6352 44.4167 13.5724 44.4704L11.7539 42.6071C11.8793 42.41 12.0764 42.2756 12.2377 42.1054C15.0506 39.2925 17.8635 36.4706 20.6854 33.6577C20.8377 33.5054 20.9631 33.3084 21.196 33.2725C21.2766 33.2725 21.3572 33.2994 21.4379 33.3173C21.9485 33.3979 22.2262 33.1023 22.1097 32.6006C22.0918 32.52 22.056 32.4484 22.0649 32.3588C22.3516 31.9557 22.6741 31.6063 23.0952 31.3375Z" fill="#525253"/>
<path d="M21.2055 33.3263C21.0801 33.4338 20.9547 33.5324 20.8382 33.6488C17.9536 36.5334 15.0691 39.418 12.1755 42.3026C12.0501 42.428 11.9605 42.5982 11.7545 42.6071C10.8676 41.7382 9.98072 40.8603 9.1028 39.9913C8.48468 39.3732 7.87551 38.7461 7.23947 38.1459C6.99759 37.913 6.98864 37.7876 7.23947 37.5457C10.0166 34.7865 12.7757 32.0184 15.5438 29.2592C16.3859 28.4171 17.228 27.5751 18.0701 26.733C18.1776 26.6255 18.2582 26.4642 18.4553 26.6613C19.9961 28.229 21.5549 29.7878 23.1047 31.3465C22.8091 31.7228 22.4776 32.0542 22.1013 32.3499C21.8863 32.3767 21.7878 32.1976 21.6713 32.0811C20.8561 31.2749 20.0499 30.4596 19.2347 29.6534C18.8136 29.2324 18.5091 29.1696 18.2493 29.4205C17.9984 29.6713 18.0611 30.0117 18.4553 30.4059C19.2884 31.239 20.1216 32.0632 20.9457 32.8963C21.0622 33.0128 21.2413 33.1113 21.2145 33.3263" fill="#4C5E63"/>
<path d="M34.6672 38.0115C35.0793 37.9488 35.4913 37.8861 35.9034 38.0115C36.5305 38.3161 37.0411 38.7282 37.1397 39.4896C37.2024 40.2152 37.1397 40.8961 36.4857 41.3798C35.6795 41.9442 34.918 41.9442 34.1028 41.3798C33.628 41.0394 33.4847 40.5198 33.3682 39.9913C33.3413 39.0238 33.843 38.4146 34.6761 38.0205" fill="#D9D9D9"/>
<path d="M21.2033 33.3262C20.2358 32.3498 19.2593 31.3733 18.2918 30.3969C18.1753 30.2804 18.041 30.1729 18.0051 30.0117C17.9335 29.7071 17.9872 29.4383 18.2739 29.2681C18.5785 29.0889 18.8562 29.1606 19.0891 29.3935C19.6445 29.94 20.191 30.4954 20.7374 31.0419C21.1854 31.4808 21.6333 31.9198 22.0812 32.3587C22.2693 32.6544 22.3589 32.9589 22.0812 33.2546C21.8124 33.5412 21.5079 33.5054 21.1854 33.3352" fill="#DFDFDF"/>
</g>
<defs>
<clipPath id="clip0_521_19171">
<rect width="38.7358" height="43" fill="white" transform="translate(4.37891 5)"/>
</clipPath>
</defs>
</svg>
