<svg width="49" height="48" viewBox="0 0 49 48" fill="none" xmlns="http://www.w3.org/2000/svg">
<g clip-path="url(#clip0_521_19145)">
<g clip-path="url(#clip1_521_19145)">
<g style="mix-blend-mode:multiply">
<mask id="mask0_521_19145" style="mask-type:luminance" maskUnits="userSpaceOnUse" x="0" y="45" width="48" height="3">
<path d="M47.535 45.79H0.125V48H47.535V45.79Z" fill="white"/>
</mask>
<g mask="url(#mask0_521_19145)">
<path d="M47.5367 46.89C47.5367 47.5 36.9267 48 23.8367 48C10.7467 48 0.136719 47.51 0.136719 46.89C0.136719 46.27 10.7467 45.78 23.8367 45.78C36.9267 45.78 47.5367 46.27 47.5367 46.89Z" fill="#CBE7F2"/>
</g>
</g>
<path d="M41.8066 31.59C41.8066 33.06 41.7966 34.54 41.7966 36.01C41.7966 38.94 41.7966 41.87 41.7966 44.8C41.7966 45.15 41.8766 45.25 42.1866 45.24C43.0066 45.22 43.8266 45.24 44.6466 45.25V46.83C44.4666 46.83 44.2866 46.82 44.1066 46.82C30.1866 46.82 16.2666 46.82 2.34665 46.83C1.91665 46.83 1.78665 46.72 1.80665 46.23C1.84665 45.23 1.81665 45.23 2.73665 45.23C3.27665 45.23 3.82664 45.23 4.36664 45.23C4.55664 45.23 4.67665 45.21 4.67665 44.94C4.66665 40.49 4.66665 36.04 4.65665 31.59C4.55665 31.43 4.53664 31.25 4.53664 31.06C4.53664 30.4 4.52664 29.73 4.53664 29.07C4.54664 28.52 4.68665 28.38 5.15665 28.35C6.15665 28.28 6.22664 28.35 6.22664 29.47C6.22664 29.98 6.22664 30.49 6.22664 31C6.22664 31.22 6.22664 31.43 6.10665 31.62C6.10665 36.03 6.10665 40.43 6.09664 44.84C6.09664 45.19 6.20665 45.25 6.48665 45.24C7.54665 45.23 8.60665 45.24 9.66665 45.24C9.80665 45.13 9.96665 45.1 10.1366 45.1C10.9366 45.1 11.7366 45.08 12.5366 45.11C14.6766 45.11 16.8266 45.11 18.9766 45.11C20.3966 45.08 21.8266 45.09 23.2466 45.11C24.6666 45.09 26.0966 45.09 27.5166 45.11C29.6666 45.11 31.8066 45.11 33.9566 45.11C34.7566 45.08 35.5566 45.11 36.3666 45.1C36.5366 45.1 36.6966 45.13 36.8366 45.24C37.8966 45.24 38.9566 45.22 40.0166 45.24C40.2966 45.24 40.4066 45.18 40.4066 44.84C40.3966 40.43 40.3966 36.03 40.3966 31.62C40.3066 31.47 40.2766 31.31 40.2766 31.13C40.2766 30.4 40.2566 29.68 40.2766 28.95C40.2866 28.47 40.3966 28.37 40.8366 28.34C41.8566 28.28 41.9566 28.38 41.9566 29.52C41.9566 30 41.9566 30.48 41.9566 30.96C41.9566 31.18 41.9566 31.4 41.8266 31.58" fill="#8B6239"/>
<path d="M11.3069 26.16C11.3069 25.54 11.2969 24.92 11.2969 24.3C11.2969 17.93 11.2969 11.56 11.2969 5.19002C11.2969 4.83002 11.3869 4.66002 11.7469 4.52002C15.7069 3.06002 19.6769 1.56002 23.6469 0.0700175C23.7469 0.0300175 23.8469 -0.0299825 23.9569 0.0100175C24.0269 0.110017 24.0069 0.220017 24.0069 0.330017C23.9469 4.24002 24.1269 8.14002 24.0969 12.05C24.0669 16.5 24.0969 20.95 24.0969 25.41C24.0969 25.67 24.1569 25.94 23.9869 26.18C23.7869 26.35 23.5569 26.33 23.3269 26.33C19.5469 26.33 15.7669 26.33 11.9869 26.33C11.7569 26.33 11.5169 26.36 11.3269 26.18" fill="#FAAF3B"/>
<path d="M8.11344 39.68C7.69344 39.68 7.27344 39.66 6.86344 39.68C6.64344 39.68 6.52344 39.64 6.52344 39.38C6.53344 37.96 6.52344 36.53 6.52344 35.11C6.52344 34.79 6.75344 34.61 6.92344 34.41C8.16344 32.97 9.64344 31.85 11.2834 30.92C11.3634 30.76 11.5034 30.67 11.6634 30.59C15.1234 29 18.6534 28.69 22.2634 30.07C22.8434 30.29 23.3934 30.58 23.9134 30.91C23.9834 30.94 24.0434 30.98 24.1134 31.02C25.0134 31.54 25.8434 32.16 26.7334 32.71C28.6134 33.87 30.6434 34.21 32.8034 33.82C33.0434 33.78 33.2834 33.66 33.5234 33.79C34.4634 33.57 35.3434 33.2 36.1634 32.69C36.3734 32.56 36.5434 32.55 36.7634 32.66C37.6934 33.11 38.6334 33.54 39.5834 33.98C39.7734 34.07 39.8734 34.17 39.8634 34.39C39.8534 36.12 39.8434 37.86 39.8434 39.59C39.4834 39.69 39.1234 39.61 38.7634 39.64C38.6034 39.65 38.4334 39.59 38.2734 39.69C38.1734 39.77 38.0534 39.82 37.9334 39.82C36.9934 39.82 36.0434 39.89 35.1034 39.78C34.8634 39.7 34.6134 39.72 34.3634 39.72C30.6334 39.72 26.9134 39.72 23.1834 39.72C19.4234 39.72 15.6634 39.72 11.9034 39.72C11.6834 39.72 11.4734 39.71 11.2634 39.78C10.3234 39.89 9.37344 39.82 8.43344 39.82C8.30344 39.82 8.19344 39.77 8.09344 39.69" fill="#FAAF3B"/>
<path d="M24.0434 6.33002C26.1134 7.19002 28.1934 8.04002 30.2634 8.90002C31.2534 9.31002 32.2334 9.73002 33.2234 10.13C33.4234 10.21 33.5434 10.3 33.5434 10.55C33.5334 16.53 33.5334 22.52 33.5234 28.5C33.3734 28.64 33.1734 28.62 32.9934 28.62C30.2034 28.62 27.4034 28.62 24.6134 28.62C23.9834 28.62 23.9034 28.55 23.9134 27.93C23.9134 27.34 23.8334 26.75 23.9734 26.17C24.0134 26 23.9934 25.83 23.9934 25.66C23.9934 19.4 23.9934 13.14 23.9934 6.88002C23.9934 6.70002 23.9434 6.51002 24.0334 6.33002" fill="#F6921E"/>
<path d="M41.8036 31.59C41.8036 30.71 41.7836 29.82 41.8036 28.94C41.8036 28.62 41.7136 28.51 41.4136 28.5C40.3736 28.48 40.3736 28.47 40.3736 29.62C40.3736 30.29 40.3736 30.95 40.3636 31.62C38.8836 31.04 38.1936 29.96 38.2236 28.22C38.2536 26.23 38.3936 24.26 38.9736 22.36C39.1636 21.73 39.4136 21.12 39.8036 20.6C40.5836 19.53 41.5936 19.53 42.3736 20.6C42.9636 21.42 43.2536 22.39 43.4636 23.39C43.8336 25.12 43.9636 26.88 43.9236 28.65C43.8936 30.08 43.0336 31.25 41.8236 31.59" fill="#39B44A"/>
<path d="M6.09457 31.62C6.09457 30.72 6.07457 29.82 6.09457 28.92C6.09457 28.59 6.00457 28.5 5.71457 28.5C4.66457 28.5 4.66457 28.48 4.66457 29.64C4.66457 30.29 4.66457 30.94 4.65457 31.59C3.55457 31.26 2.64457 30.23 2.58457 29.02C2.47457 26.54 2.64457 24.1 3.49457 21.76C3.70457 21.18 3.99457 20.65 4.41457 20.23C4.99457 19.66 5.71457 19.65 6.31457 20.19C6.79457 20.62 7.08457 21.21 7.31457 21.83C8.11457 24.08 8.30457 26.44 8.21457 28.81C8.15457 30.25 7.34457 31.18 6.10457 31.61" fill="#39B44A"/>
<path d="M23.9569 31.02C22.8069 30.41 21.6369 29.85 20.3469 29.6C17.6169 29.06 14.9669 29.33 12.3969 30.41C12.0269 30.57 11.6669 30.74 11.2969 30.91C11.2969 29.33 11.2969 27.75 11.2969 26.17H23.9469C23.9469 26.17 23.9669 26.22 23.9869 26.25C23.9369 27.64 24.1169 29.02 24.0769 30.41C24.0769 30.62 24.1269 30.85 23.9469 31.02" fill="#8B6239"/>
<path d="M33.5448 33.78C30.9648 34.45 28.5548 34.07 26.3248 32.6C25.5648 32.1 24.8048 31.6 24.0448 31.1C23.9348 30.33 24.0248 29.56 23.9948 28.79C23.9948 28.61 24.0748 28.54 24.2448 28.55C24.3048 28.55 24.3648 28.55 24.4348 28.55C27.3448 28.55 30.2548 28.55 33.1648 28.55C33.2848 28.55 33.4148 28.51 33.5248 28.6C33.5248 30.33 33.5348 32.06 33.5448 33.78Z" fill="#754C24"/>
<path d="M35.125 39.67C36.185 39.67 37.235 39.67 38.295 39.67C38.295 41.53 38.315 43.38 38.325 45.24H35.125C35.125 45.24 35.055 45.15 35.035 45.1C34.935 44.34 35.005 43.58 34.995 42.83C34.975 41.95 34.995 41.07 34.995 40.19C34.995 40.04 34.995 39.88 35.075 39.74C35.095 39.72 35.115 39.7 35.135 39.68" fill="#754C24"/>
<path d="M8.11375 39.6801C9.17375 39.6801 10.2238 39.6801 11.2838 39.6801C11.3038 39.7001 11.3238 39.7201 11.3438 39.7401C11.4838 40.0701 11.4238 40.4101 11.4238 40.7501C11.4238 41.4401 11.4438 42.1401 11.4238 42.8301C11.4238 43.5901 11.4838 44.3501 11.3838 45.1101C11.3638 45.1601 11.3338 45.2201 11.2938 45.2601C10.2238 45.2601 9.15375 45.2601 8.09375 45.2601C8.09375 43.4001 8.11375 41.5501 8.12375 39.6901" fill="#754C24"/>
<path d="M24.0431 6.33C24.0431 12.95 24.0431 19.56 24.0431 26.18C24.0131 26.21 23.9831 26.21 23.9531 26.18V26.15V0C24.0931 0.14 24.0231 0.32 24.0231 0.48C24.0331 2.43 24.0331 4.37 24.0431 6.32" fill="#F8B55E"/>
<path d="M23.9453 26.18C23.9453 26.18 24.0053 26.18 24.0353 26.18C24.0353 26.8 24.0553 27.42 24.0353 28.04C24.0153 28.41 24.1453 28.51 24.5053 28.51C27.5153 28.5 30.5153 28.51 33.5253 28.51C33.5253 28.54 33.5253 28.57 33.5253 28.6C30.5053 28.6 27.4853 28.6 24.4553 28.59C24.1353 28.59 24.0253 28.68 24.0353 29.01C24.0553 29.71 24.0353 30.4 24.0453 31.1C24.0153 31.07 23.9753 31.05 23.9453 31.02C23.9453 29.41 23.9453 27.8 23.9453 26.18Z" fill="#A2723F"/>
<path d="M38.2969 39.67C38.8069 39.45 39.3469 39.63 39.8669 39.57C39.3569 39.78 38.8169 39.6 38.2969 39.67Z" fill="#F8B244"/>
<path d="M27.9455 45.2301C26.3655 45.2301 24.7855 45.2201 23.2055 45.2101C23.0355 45.0401 23.0555 44.8101 23.0555 44.6001C23.0555 43.1601 23.0555 41.7201 23.0555 40.2901C23.0555 40.0801 23.0355 39.8501 23.1955 39.6701C23.7455 39.5701 24.3055 39.6401 24.8555 39.6301C25.7555 39.6201 26.6555 39.6301 27.5455 39.6301C28.0355 39.6301 28.0655 39.6601 28.0655 40.1601C28.0655 41.3201 28.0655 42.4801 28.0655 43.6401C28.0655 44.0101 28.0655 44.3801 28.0655 44.7601C28.0655 44.9301 28.0755 45.1101 27.9255 45.2301" fill="#80C9EB"/>
<path d="M23.2048 39.68C23.2048 41.52 23.2048 43.36 23.2048 45.21C21.6248 45.21 20.0448 45.22 18.4648 45.23C18.2348 44.97 18.3548 44.65 18.3348 44.36C18.3148 44.13 18.3348 43.91 18.3248 43.68C18.3148 43.38 18.3248 43.09 18.3248 42.8C18.3248 41.92 18.3248 41.04 18.3248 40.15C18.3248 39.65 18.3648 39.62 18.8548 39.62C20.2748 39.62 21.7048 39.62 23.1248 39.62C23.1548 39.64 23.1748 39.65 23.1948 39.67" fill="#29AAE1"/>
<path d="M27.9436 45.23L27.9636 43.67C28.0336 43.66 28.0736 43.67 28.1036 43.74C28.2136 43.99 28.1836 44.26 28.1836 44.52C28.1836 44.87 28.3236 45.02 28.6836 45.02C29.5336 45.02 30.3836 45.02 31.2336 45.02C32.3036 45.02 33.3736 45.02 34.4436 45.02C34.6736 45.02 34.9136 44.99 35.1036 45.16C35.1136 45.19 35.1136 45.22 35.1036 45.25C32.8636 45.25 30.6336 45.25 28.3936 45.25C28.2436 45.25 28.0836 45.23 27.9336 45.22" fill="#EEB866"/>
<path d="M18.4469 43.67C18.4469 44.19 18.4669 44.71 18.4669 45.23C16.0769 45.23 13.6869 45.25 11.2969 45.25C11.2969 45.22 11.2969 45.19 11.2969 45.16C11.5069 44.97 11.7569 45.01 12.0069 45.01C13.8569 45.01 15.7069 45.01 17.5669 45.01C18.1969 45.01 18.1969 44.99 18.2269 44.36C18.2369 44.12 18.1369 43.82 18.4469 43.67Z" fill="#EEB866"/>
<path d="M20.8058 7.91C19.9258 7.9 20.0458 8.02 20.0358 7.15C20.0358 6.32 20.0358 6.32 20.8758 6.32C20.9558 6.32 21.0358 6.33 21.1058 6.32C21.5058 6.26 21.6858 6.41 21.6158 6.83C21.6058 6.92 21.6158 7.02 21.6158 7.11C21.6158 7.64333 21.3425 7.91 20.7958 7.91" fill="#F05A24"/>
<path d="M18.4558 13.47C18.4458 14.35 18.5758 14.23 17.7058 14.24C16.8758 14.24 16.8758 14.24 16.8758 13.41C16.8758 12.56 16.7658 12.67 17.6058 12.66C17.6258 12.66 17.6358 12.66 17.6558 12.66C18.1958 12.66 18.4658 12.93 18.4658 13.47" fill="#F05A24"/>
<path d="M20.8058 11.08C19.9258 11.07 20.0458 11.19 20.0358 10.32C20.0358 9.49004 20.0358 9.49004 20.8758 9.49004C20.9558 9.49004 21.0358 9.50004 21.1058 9.49004C21.5058 9.43004 21.6858 9.58004 21.6158 10C21.6058 10.09 21.6158 10.19 21.6158 10.28C21.6158 10.8134 21.3425 11.08 20.7958 11.08" fill="#F05A24"/>
<path d="M15.284 13.48C15.274 14.36 15.404 14.24 14.534 14.25C13.704 14.25 13.704 14.25 13.704 13.42C13.704 12.57 13.594 12.68 14.434 12.67C14.454 12.67 14.464 12.67 14.484 12.67C15.024 12.67 15.294 12.94 15.294 13.48" fill="#F05A24"/>
<path d="M21.6269 13.47C21.6269 13.99 21.3635 14.25 20.8369 14.25C20.3102 14.25 20.0469 13.99 20.0469 13.47C20.0469 12.67 20.0469 12.66 20.8669 12.67C21.7569 12.67 21.6169 12.54 21.6369 13.47" fill="#F05A24"/>
<path d="M15.2869 16.63C15.2869 17.1567 14.9803 17.42 14.3669 17.42C13.7069 17.42 13.6969 17.42 13.7069 16.46C13.7069 15.7 13.5869 15.84 14.6969 15.84C15.3969 15.84 15.2769 15.77 15.2869 16.63Z" fill="#F05A24"/>
<path d="M18.4548 16.64C18.4448 17.52 18.5748 17.4 17.6948 17.41C16.8648 17.41 16.8648 17.41 16.8648 16.57C16.8648 16.49 16.8748 16.41 16.8648 16.34C16.8048 15.94 16.9448 15.75 17.3648 15.82C17.4548 15.83 17.5548 15.82 17.6448 15.82C18.1781 15.82 18.4448 16.0934 18.4448 16.64" fill="#F05A24"/>
<path d="M16.8766 22.94C16.8866 22.06 16.7566 22.18 17.6366 22.17C18.4666 22.17 18.4666 22.17 18.4666 23C18.4666 23.86 18.5766 23.74 17.7366 23.75C17.7166 23.75 17.7066 23.75 17.6866 23.75C17.1466 23.75 16.8766 23.48 16.8766 22.94Z" fill="#F05A24"/>
<path d="M21.6252 22.98C21.6152 23.86 21.7452 23.74 20.8652 23.75C20.0352 23.75 20.0352 23.75 20.0352 22.91V22.77C20.0352 22.3634 20.2318 22.16 20.6252 22.16H20.8152C21.3552 22.16 21.6252 22.43 21.6252 22.97" fill="#F05A24"/>
<path d="M14.4764 23.75C13.5964 23.74 13.7164 23.86 13.7164 22.99C13.7164 22.17 13.7164 22.17 14.5564 22.17C14.6464 22.17 14.7464 22.18 14.8364 22.17C15.1964 22.12 15.3564 22.26 15.3064 22.63C15.2864 22.74 15.3064 22.85 15.3064 22.95C15.3064 23.4833 15.0331 23.75 14.4864 23.75" fill="#F05A24"/>
<path d="M21.626 19.81C21.616 20.7 21.746 20.57 20.866 20.58C20.036 20.58 20.036 20.58 20.036 19.74C20.036 18.88 19.926 19.01 20.766 18.99C20.786 18.99 20.796 18.99 20.816 18.99C21.356 18.99 21.626 19.26 21.626 19.8" fill="#F05A24"/>
<path d="M18.4542 19.81C18.4442 20.69 18.5742 20.57 17.6942 20.58C16.8642 20.58 16.8642 20.58 16.8642 19.74C16.8642 19.66 16.8742 19.58 16.8642 19.51C16.8042 19.11 16.9543 18.93 17.3743 19C17.4643 19.01 17.5643 19 17.6543 19C18.1876 19 18.4542 19.2733 18.4542 19.82" fill="#F05A24"/>
<path d="M14.5047 20.58C13.7047 20.58 13.7047 20.58 13.7047 19.76C13.7047 18.88 13.5847 19.01 14.4647 19C15.2847 19 15.2947 19 15.2847 19.8C15.2847 20.71 15.4147 20.57 14.4947 20.59" fill="#F05A24"/>
<path d="M20.8058 17.41C19.9258 17.4 20.0458 17.53 20.0358 16.65C20.0358 15.82 20.0358 15.82 20.8758 15.82C20.9558 15.82 21.0358 15.83 21.1058 15.82C21.5058 15.76 21.6858 15.91 21.6158 16.33C21.6058 16.42 21.6158 16.52 21.6158 16.61C21.6158 17.1433 21.3425 17.41 20.7958 17.41" fill="#F05A24"/>
<path d="M17.6456 11.08C16.7656 11.07 16.8856 11.19 16.8756 10.32C16.8756 9.49004 16.8756 9.49004 17.7156 9.49004C17.7956 9.49004 17.8756 9.50004 17.9456 9.49004C18.3456 9.43004 18.5256 9.58004 18.4556 10C18.4456 10.09 18.4556 10.19 18.4556 10.28C18.4556 10.8134 18.1823 11.08 17.6356 11.08" fill="#F05A24"/>
<path d="M14.4763 9.49C15.0163 9.49 15.2863 9.77667 15.2863 10.35C15.2863 11.21 15.3063 11.07 14.3563 11.07C13.6963 11.07 13.6963 11.07 13.6963 10.11C13.6963 9.38 13.6363 9.5 14.4663 9.49" fill="#F05B24"/>
<path d="M17.6542 6.32001C18.1942 6.32001 18.4642 6.61001 18.4642 7.19001C18.4642 8.04001 18.4842 7.91001 17.5342 7.91001C16.7442 7.91001 16.8942 8.03001 16.8842 6.94001C16.8842 6.22001 16.8242 6.34001 17.6642 6.33001" fill="#F05A24"/>
<path d="M14.4738 7.91002C13.5938 7.90002 13.7138 8.02002 13.7038 7.15002C13.7038 6.33002 13.7038 6.33002 14.5538 6.33002C14.6638 6.33002 14.7738 6.34002 14.8838 6.33002C15.2138 6.29002 15.3338 6.44002 15.2938 6.75002C15.2838 6.86002 15.2938 6.97002 15.2938 7.08002C15.2938 7.99002 15.3838 7.92002 14.4838 7.92002" fill="#F05B24"/>
<path d="M17.9953 37.25C15.3853 37.25 12.7853 37.25 10.1753 37.25C9.81531 37.25 9.69531 37.16 9.69531 36.79C9.70531 35.66 9.69531 35.66 10.8053 35.66C15.8153 35.66 20.8253 35.66 25.8353 35.66C26.2553 35.66 26.3953 35.76 26.3853 36.2C26.3553 37.26 26.3853 37.26 25.2953 37.26H17.9853L17.9953 37.25Z" fill="#F05A24"/>
<path d="M19.1938 34.08C18.2838 34.08 17.3638 34.08 16.4538 34.08C16.1638 34.08 16.0438 34.01 16.0438 33.69C16.0238 32.49 16.0138 32.49 17.2138 32.49C18.7638 32.49 20.3138 32.5 21.8638 32.49C22.2538 32.49 22.4038 32.56 22.3938 33C22.3638 34.09 22.3938 34.09 21.2838 34.09H19.1938V34.08Z" fill="#F05A24"/>
<path d="M14.4535 33.32C14.4435 34.2 14.5735 34.08 13.6935 34.09C12.8735 34.09 12.8735 34.09 12.8735 33.25C12.8735 33.16 12.8835 33.06 12.8735 32.97C12.8235 32.61 12.9535 32.45 13.3335 32.5C13.4435 32.52 13.5535 32.5 13.6535 32.5C14.1869 32.5 14.4535 32.7734 14.4535 33.32Z" fill="#F05A24"/>
<path d="M36.7536 37.25C35.9536 37.25 35.9536 37.25 35.9536 36.42C35.9536 35.55 35.8436 35.67 36.7236 35.66C37.5336 35.66 37.5436 35.66 37.5336 36.45C37.5336 37.37 37.6536 37.23 36.7536 37.24" fill="#F05A24"/>
<path d="M28.0457 43.6701C28.0457 43.6701 27.9957 43.6701 27.9657 43.6701C27.9657 42.4901 27.9557 41.3201 27.9657 40.1401C27.9657 39.8001 27.9157 39.6501 27.5157 39.6601C26.0757 39.6901 24.6357 39.6801 23.1957 39.6901V39.6601C23.1957 39.6601 23.1557 39.6301 23.1657 39.6101C23.1757 39.5901 23.1857 39.5801 23.1957 39.5801C26.9957 39.5801 30.7857 39.5801 34.5857 39.5801C34.7657 39.5801 34.9657 39.5101 35.1157 39.6701C34.9057 39.8401 34.6457 39.8101 34.4057 39.8101C32.6057 39.8101 30.8157 39.8101 29.0157 39.8101C28.1857 39.8101 28.1857 39.8101 28.1857 40.6601C28.1857 41.3701 28.2057 42.0801 28.1757 42.8001C28.1657 43.0901 28.2557 43.4101 28.0357 43.6701" fill="#F8B244"/>
<path d="M23.2034 39.5701C23.2034 39.5701 23.2034 39.6201 23.2034 39.6501C21.7634 39.6501 20.3234 39.6701 18.8734 39.6501C18.5234 39.6501 18.4234 39.7301 18.4334 40.0801C18.4534 40.9901 18.4334 41.9101 18.4334 42.8201C18.3634 42.8301 18.3234 42.8101 18.2834 42.7501C18.1234 42.0501 18.2234 41.3301 18.2134 40.6201C18.1934 39.8101 18.2134 39.8001 17.3834 39.8001C15.5834 39.8001 13.7834 39.8001 11.9834 39.8001C11.7334 39.8001 11.4834 39.8301 11.2734 39.6601C11.4234 39.4901 11.6234 39.5601 11.8034 39.5601C15.6034 39.5601 19.4034 39.5601 23.1934 39.5601" fill="#F7B042"/>
<path d="M27.1456 13.41C26.2656 13.4 26.3856 13.52 26.3756 12.65C26.3756 11.82 26.3756 11.82 27.2156 11.82C27.2756 11.82 27.3356 11.82 27.3956 11.82C27.8356 11.75 28.0356 11.92 27.9556 12.37C27.9456 12.45 27.9556 12.52 27.9556 12.6C27.9456 13.53 28.0856 13.39 27.1456 13.4" fill="#F05A24"/>
<path d="M31.1256 12.6C31.1156 13.54 31.2556 13.41 30.3156 13.41C29.4156 13.41 29.5456 13.53 29.5456 12.62C29.5456 11.71 29.4156 11.85 30.3256 11.83H30.3756C31.2456 11.84 31.1156 11.72 31.1256 12.6Z" fill="#F05A24"/>
<path d="M27.1456 16.58C26.2656 16.57 26.3856 16.69 26.3756 15.82C26.3756 14.99 26.3756 14.99 27.2156 14.99C28.0656 14.99 27.9556 14.89 27.9656 15.72C27.9656 15.74 27.9656 15.75 27.9656 15.77C27.9556 16.7 28.0956 16.56 27.1556 16.57" fill="#F05A24"/>
<path d="M30.3156 21.41C31.2456 21.42 31.1156 21.28 31.1156 22.22C31.1156 23.1 31.2356 22.98 30.3656 22.99C29.5356 22.99 29.5356 22.99 29.5356 22.16C29.5356 21.3 29.4256 21.42 30.3156 21.41Z" fill="#F05A24"/>
<path d="M26.3757 25.35C26.3857 24.47 26.2657 24.59 27.1357 24.58C27.9657 24.58 27.9657 24.58 27.9657 25.42C27.9657 25.5 27.9557 25.58 27.9657 25.65C28.0257 26.05 27.8757 26.23 27.4557 26.16C27.3657 26.15 27.2757 26.16 27.1757 26.16C26.6424 26.16 26.3757 25.8867 26.3757 25.34" fill="#F05A24"/>
<path d="M30.3035 26.17C29.4335 26.16 29.5435 26.28 29.5435 25.41C29.5435 24.59 29.5435 24.59 30.3835 24.59C30.4635 24.59 30.5435 24.6 30.6135 24.59C31.0135 24.53 31.1935 24.68 31.1235 25.1C31.1135 25.19 31.1235 25.28 31.1235 25.38C31.1135 26.31 31.2535 26.17 30.3035 26.18" fill="#F05B24"/>
<path d="M26.3757 22.19C26.3857 21.31 26.2657 21.43 27.1357 21.42C27.9657 21.42 27.9657 21.42 27.9657 22.25C27.9657 23.1 28.0657 22.99 27.2357 23C27.2157 23 27.2057 23 27.1857 23C26.2457 22.99 26.3957 23.13 26.3757 22.19Z" fill="#F05A24"/>
<path d="M27.2056 18.25C28.0656 18.26 27.9556 18.14 27.9556 19.03C27.9556 19.96 28.0856 19.83 27.1456 19.83C26.2656 19.83 26.3856 19.95 26.3756 19.08C26.3756 18.25 26.3756 18.25 27.2056 18.25Z" fill="#F05A24"/>
<path d="M31.125 15.76C31.115 16.7 31.255 16.57 30.315 16.57C29.435 16.57 29.555 16.69 29.545 15.82C29.545 15.68 29.545 15.54 29.545 15.4C29.525 15.1 29.655 14.97 29.955 14.99C30.095 14.99 30.235 14.99 30.375 14.99C31.245 15 31.125 14.88 31.135 15.76" fill="#F05A24"/>
<path d="M30.3443 18.25C31.1243 18.25 31.1243 18.25 31.1243 19.19C31.1243 19.96 31.2243 19.83 30.2443 19.84C29.5443 19.84 29.5443 19.84 29.5443 18.89C29.5443 18.14 29.4743 18.27 30.3443 18.26" fill="#F05A24"/>
<path d="M28.0547 42.83C28.0547 41.93 28.0647 41.04 28.0547 40.14C28.0547 39.79 28.1247 39.66 28.5147 39.66C30.7247 39.68 32.9347 39.67 35.1447 39.67C35.1447 40.72 35.1347 41.78 35.1247 42.83C34.9447 43 34.7247 42.98 34.5147 42.98C32.5747 42.98 30.6247 42.98 28.6847 42.98C28.4647 42.98 28.2447 42.99 28.0747 42.83" fill="#F6921E"/>
<path d="M28.0532 42.8301C30.4032 42.8301 32.7532 42.8301 35.1132 42.8301C35.1132 43.6101 35.1132 44.3801 35.1132 45.1601C32.9132 45.1601 30.7132 45.1601 28.5132 45.1601C28.1432 45.1601 28.0132 45.0501 28.0432 44.6901C28.0732 44.3501 28.0432 44.0101 28.0432 43.6701C28.0432 43.3901 28.0432 43.1101 28.0432 42.8301" fill="#FAAF3B"/>
<path d="M11.2852 39.67C13.4952 39.67 15.7052 39.67 17.9152 39.66C18.3052 39.66 18.3752 39.8 18.3752 40.14C18.3552 41.04 18.3752 41.93 18.3752 42.83C18.2052 43 17.9752 42.98 17.7652 42.98C15.8252 42.98 13.8752 42.98 11.9252 42.98C11.7152 42.98 11.4852 43 11.3152 42.83L11.2952 39.67H11.2852Z" fill="#F6921E"/>
<path d="M11.3047 42.84C13.6547 42.84 16.0147 42.84 18.3647 42.84C18.3947 42.84 18.4147 42.84 18.4447 42.84C18.4447 43.12 18.4447 43.4 18.4447 43.68C18.2847 44 18.3647 44.35 18.3747 44.68C18.3847 45.06 18.2747 45.18 17.8847 45.18C15.6947 45.16 13.4947 45.18 11.3047 45.18V42.85V42.84Z" fill="#FAAF3B"/>
</g>
</g>
<defs>
<clipPath id="clip0_521_19145">
<rect width="48" height="48" fill="white" transform="translate(0.125)"/>
</clipPath>
<clipPath id="clip1_521_19145">
<rect width="47.41" height="48" fill="white" transform="translate(0.125)"/>
</clipPath>
</defs>
</svg>
