<svg width="24" height="24" viewBox="0 0 24 24" fill="none" xmlns="http://www.w3.org/2000/svg">
<path d="M2 21.3284C2.56321 20.6399 3.48128 20.5 4.5 20.5C4.81204 20.5 5.13015 20.6249 5.4364 20.8231C6.34752 21.413 7.65248 21.413 8.56361 20.8231C8.86986 20.6249 9.18797 20.5 9.5 20.5C9.81203 20.5 10.1301 20.6249 10.4364 20.8231C11.3475 21.413 12.6525 21.413 13.5636 20.8231C13.8699 20.6249 14.188 20.5 14.5 20.5C14.812 20.5 15.1301 20.6249 15.4364 20.8231C16.3475 21.413 17.6525 21.413 18.5636 20.8231C18.8699 20.6249 19.188 20.5 19.5 20.5C20.5187 20.5 21.4368 20.6399 22 21.3284" stroke="#214856" stroke-width="1.5" stroke-linecap="round"/>
<path d="M12 1.5L19.3501 10.6877C19.612 11.015 19.3789 11.5 18.9597 11.5L12 11.5" stroke="#214856" stroke-width="1.5"/>
<path d="M12 3.5L6.6 10.7C6.35279 11.0296 6.58798 11.5 7 11.5L12 11.5" stroke="#214856" stroke-width="1.5"/>
<path d="M19.0976 16.817L21.2744 14.3293C21.5573 14.006 21.3277 13.5 20.8981 13.5L11.5 13.5L3.10188 13.5C2.67231 13.5 2.44272 14.006 2.7256 14.3293L4.90238 16.817C5.28216 17.251 5.83081 17.5 6.40753 17.5L17.5925 17.5C18.1692 17.5 18.7178 17.251 19.0976 16.817Z" stroke="#214856" stroke-width="1.5"/>
<path d="M12 1.5V13.5" stroke="#214856" stroke-width="1.5" stroke-linecap="round"/>
</svg>
