<svg width="18" height="18" viewBox="0 0 18 18" fill="none" xmlns="http://www.w3.org/2000/svg">
<path d="M15.75 3.9375H2.25C1.9425 3.9375 1.6875 3.6825 1.6875 3.375C1.6875 3.0675 1.9425 2.8125 2.25 2.8125H15.75C16.0575 2.8125 16.3125 3.0675 16.3125 3.375C16.3125 3.6825 16.0575 3.9375 15.75 3.9375Z" fill="black"/>
<path d="M15.3142 7.6875H2.6875C2.14083 7.6875 1.6875 7.4325 1.6875 7.125C1.6875 6.8175 2.14083 6.5625 2.6875 6.5625H15.3142C15.8608 6.5625 16.3142 6.8175 16.3142 7.125C16.3142 7.4325 15.8742 7.6875 15.3142 7.6875Z" fill="black"/>
<path d="M15.75 11.4375H2.25C1.9425 11.4375 1.6875 11.1825 1.6875 10.875C1.6875 10.5675 1.9425 10.3125 2.25 10.3125H15.75C16.0575 10.3125 16.3125 10.5675 16.3125 10.875C16.3125 11.1825 16.0575 11.4375 15.75 11.4375Z" fill="black"/>
<path d="M15.3142 15.1875H2.6875C2.14083 15.1875 1.6875 14.9325 1.6875 14.625C1.6875 14.3175 2.14083 14.0625 2.6875 14.0625H15.3142C15.8608 14.0625 16.3142 14.3175 16.3142 14.625C16.3142 14.9325 15.8742 15.1875 15.3142 15.1875Z" fill="black"/>
</svg>
