<svg width="25" height="24" viewBox="0 0 25 24" fill="none" xmlns="http://www.w3.org/2000/svg">
<path fill-rule="evenodd" clip-rule="evenodd" d="M4.78571 1.71429C3.36543 1.71429 2.21429 2.86543 2.21429 4.28571V14.2166L5.89403 10.5369C6.22831 10.2017 6.77169 10.2017 7.10597 10.5369L13.7857 17.2166L17.894 13.1083C18.2283 12.7732 18.7717 12.7732 19.106 13.1083L22.7857 16.788V4.28571C22.7857 2.86543 21.6346 1.71429 20.2143 1.71429H4.78571ZM24.5 4.28571C24.5 1.91914 22.5809 0 20.2143 0H4.78571C2.41914 0 0.5 1.91914 0.5 4.28571V19.7143C0.5 22.0809 2.41914 24 4.78571 24H20.2143C22.5809 24 24.5 22.0809 24.5 19.7143V4.28571ZM22.7857 19.212L18.5 14.9263L14.9977 18.4286L18.8549 22.2857H20.2143C21.6346 22.2857 22.7857 21.1346 22.7857 19.7143V19.212ZM16.4309 22.2857L6.5 12.3549L2.21429 16.6406V19.7143C2.21429 21.1346 3.36543 22.2857 4.78571 22.2857H16.4309ZM17.6429 5.14286C16.6957 5.14286 15.9286 5.91 15.9286 6.85714C15.9286 7.80429 16.6957 8.57143 17.6429 8.57143C18.59 8.57143 19.3571 7.80429 19.3571 6.85714C19.3571 5.91 18.59 5.14286 17.6429 5.14286ZM14.2143 6.85714C14.2143 4.96371 15.7494 3.42857 17.6429 3.42857C19.5363 3.42857 21.0714 4.96371 21.0714 6.85714C21.0714 8.75057 19.5363 10.2857 17.6429 10.2857C15.7494 10.2857 14.2143 8.75057 14.2143 6.85714Z" fill="#214856"/>
</svg>
