<svg width="25" height="24" viewBox="0 0 25 24" fill="none" xmlns="http://www.w3.org/2000/svg">
<path d="M2.5 21.3284C3.06321 20.6399 3.98128 20.5 5 20.5C5.31204 20.5 5.63015 20.6249 5.9364 20.8231C6.84752 21.413 8.15248 21.413 9.06361 20.8231C9.36986 20.6249 9.68797 20.5 10 20.5C10.312 20.5 10.6301 20.6249 10.9364 20.8231C11.8475 21.413 13.1525 21.413 14.0636 20.8231C14.3699 20.6249 14.688 20.5 15 20.5C15.312 20.5 15.6301 20.6249 15.9364 20.8231C16.8475 21.413 18.1525 21.413 19.0636 20.8231C19.3699 20.6249 19.688 20.5 20 20.5C21.0187 20.5 21.9368 20.6399 22.5 21.3284" stroke="#214856" stroke-width="1.5" stroke-linecap="round"/>
<path d="M12.5 1.5L19.8501 10.6877C20.112 11.015 19.8789 11.5 19.4597 11.5L12.5 11.5" stroke="#214856" stroke-width="1.5"/>
<path d="M12.5 3.5L7.1 10.7C6.85279 11.0296 7.08798 11.5 7.5 11.5L12.5 11.5" stroke="#214856" stroke-width="1.5"/>
<path d="M19.5976 16.817L21.7744 14.3293C22.0573 14.006 21.8277 13.5 21.3981 13.5L12 13.5L3.60188 13.5C3.17231 13.5 2.94272 14.006 3.2256 14.3293L5.40238 16.817C5.78216 17.251 6.33081 17.5 6.90753 17.5L18.0925 17.5C18.6692 17.5 19.2178 17.251 19.5976 16.817Z" stroke="#214856" stroke-width="1.5"/>
<path d="M12.5 1.5V13.5" stroke="#214856" stroke-width="1.5" stroke-linecap="round"/>
</svg>
