<svg width="28" height="28" viewBox="0 0 28 28" fill="none" xmlns="http://www.w3.org/2000/svg">
<path d="M20.75 8.9375H7.25C6.9425 8.9375 6.6875 8.6825 6.6875 8.375C6.6875 8.0675 6.9425 7.8125 7.25 7.8125H20.75C21.0575 7.8125 21.3125 8.0675 21.3125 8.375C21.3125 8.6825 21.0575 8.9375 20.75 8.9375Z" fill="black"/>
<path d="M14.3525 12.6875H7.25C6.9425 12.6875 6.6875 12.4325 6.6875 12.125C6.6875 11.8175 6.9425 11.5625 7.25 11.5625H14.3525C14.66 11.5625 14.915 11.8175 14.915 12.125C14.915 12.4325 14.6675 12.6875 14.3525 12.6875Z" fill="black"/>
<path d="M20.75 16.4375H7.25C6.9425 16.4375 6.6875 16.1825 6.6875 15.875C6.6875 15.5675 6.9425 15.3125 7.25 15.3125H20.75C21.0575 15.3125 21.3125 15.5675 21.3125 15.875C21.3125 16.1825 21.0575 16.4375 20.75 16.4375Z" fill="black"/>
<path d="M14.3525 20.1875H7.25C6.9425 20.1875 6.6875 19.9325 6.6875 19.625C6.6875 19.3175 6.9425 19.0625 7.25 19.0625H14.3525C14.66 19.0625 14.915 19.3175 14.915 19.625C14.915 19.9325 14.6675 20.1875 14.3525 20.1875Z" fill="black"/>
</svg>
