<svg width="24" height="24" viewBox="0 0 24 24" fill="none" xmlns="http://www.w3.org/2000/svg">
<path d="M9.43838 6.4378C9.47877 6.28462 9.50016 6.12496 9.50016 5.96113C9.50016 4.84573 8.50847 3.99988 7.28144 3.99988C6.19081 3.99988 5.28058 4.66812 5.09168 5.59993C4.90279 6.53174 4.23654 5 3.50016 5C2.76378 5 2.5 6.13718 2.5 6.7999C2.5 7.46263 2.76378 7.99988 3.50016 7.99988H8.16683C8.90321 7.99988 9.50016 7.46263 9.50016 6.7999C9.50016 6.67371 9.47851 6.55206 9.43838 6.4378Z" stroke="#214856" stroke-width="1.5"/>
<path d="M17.4994 2C17.4994 3.3178 15.3044 4.5 14 4.5" stroke="#214856" stroke-width="1.5" stroke-linecap="round"/>
<path d="M17.5 5.49997C17.5 6.81777 15.8044 7.49997 14.5 7.49997" stroke="#214856" stroke-width="1.5" stroke-linecap="round"/>
<path d="M17.4997 2C17.4997 3.3178 19.6956 4.5 21 4.5" stroke="#214856" stroke-width="1.5" stroke-linecap="round"/>
<path d="M17.5 5.49997C17.5 6.81777 19.1956 7.49997 20.5 7.49997" stroke="#214856" stroke-width="1.5" stroke-linecap="round"/>
<path d="M17.5 11V2" stroke="#214856" stroke-width="1.5" stroke-linecap="round"/>
<path d="M2.28199 21.3107L6.3729 11.3107C6.44978 11.1228 6.63265 11 6.83568 11H17.1643C17.3674 11 17.5502 11.1228 17.6271 11.3107L21.718 21.3107C21.8526 21.6396 21.6106 22 21.2552 22H9.5H5.5H2.74477C2.38936 22 2.14743 21.6396 2.28199 21.3107Z" stroke="#214856" stroke-width="1.5"/>
<path d="M2.28199 21.3107L6.00978 12.1983C6.18289 11.7752 6.78621 11.7871 6.94245 12.2167L10.256 21.3291C10.3746 21.6552 10.1331 22 9.78615 22H5.5H2.74477C2.38936 22 2.14743 21.6396 2.28199 21.3107Z" stroke="#214856" stroke-width="1.5"/>
<path d="M6.5 21.5L6.5 13" stroke="#214856" stroke-width="1.5" stroke-linecap="round"/>
</svg>
