<svg width="24" height="24" viewBox="0 0 24 24" fill="none" xmlns="http://www.w3.org/2000/svg">
<path d="M2.5 19.5V14.5945C2.5 14.2066 2.61284 13.827 2.82478 13.502L9.11226 3.8612C9.66607 3.01203 10.6113 2.5 11.6251 2.5H12.3749C13.3887 2.5 14.3339 3.01203 14.8877 3.8612L21.1752 13.502C21.3872 13.827 21.5 14.2066 21.5 14.5945V19.5C21.5 20.6046 20.6046 21.5 19.5 21.5H4.5C3.39543 21.5 2.5 20.6046 2.5 19.5Z" stroke="#214856" stroke-width="1.5"/>
<path d="M15.5 21.5C15.5 18.9897 15.5 14.9998 12.007 14.9998C8.51409 14.9998 8.5 18.9897 8.5 21.5" stroke="#214856" stroke-width="1.5"/>
<path d="M17 7C16.5513 7 16.0914 7.20911 15.6633 7.51579C14.832 8.11135 13.6125 8.11135 12.7811 7.51578C12.3531 7.20911 11.8931 7 11.4444 7C10.9958 7 10.5358 7.20911 10.1077 7.51578C9.2764 8.11135 8.05049 8.1168 7.21626 7.52527C7.14495 7.4747 7.07279 7.42672 7 7.38181" stroke="#214856" stroke-width="1.5"/>
</svg>
