<svg width="24" height="24" viewBox="0 0 24 24" fill="none" xmlns="http://www.w3.org/2000/svg">
<path fill-rule="evenodd" clip-rule="evenodd" d="M18.19 9.19006H13.19L12 5.48006C11.813 4.92014 11.4545 4.43332 10.9752 4.08868C10.4959 3.74403 9.92031 3.55908 9.33 3.56006H8.81C8.06474 3.56006 7.35001 3.85612 6.82303 4.38309C6.29605 4.91007 6 5.6248 6 6.37006V17.6301C6 17.9999 6.07301 18.3661 6.21485 18.7077C6.35669 19.0493 6.56457 19.3595 6.82656 19.6206C7.08856 19.8816 7.39951 20.0884 7.74159 20.229C8.08367 20.3697 8.45014 20.4414 8.82 20.4401H15.7C16.3094 20.443 16.9029 20.2463 17.39 19.8801L19.88 18.0001C20.2291 17.7382 20.5122 17.3984 20.7066 17.0078C20.9011 16.6171 21.0016 16.1864 21 15.7501V12.0001C21 11.2548 20.7039 10.5401 20.177 10.0131C19.65 9.48612 18.9353 9.19006 18.19 9.19006V9.19006Z" stroke="#214856" stroke-width="1.5" stroke-linecap="round" stroke-linejoin="round"/>
<path d="M3.8501 9.58008V19.0201" stroke="#214856" stroke-width="1.5" stroke-linecap="round" stroke-linejoin="bevel"/>
</svg>
