<svg width="24" height="24" viewBox="0 0 24 24" fill="none" xmlns="http://www.w3.org/2000/svg">
<path fill-rule="evenodd" clip-rule="evenodd" d="M18.19 14.8099H13.19L12 18.5199C11.813 19.0799 11.4545 19.5667 10.9752 19.9113C10.4959 20.256 9.92031 20.4409 9.33 20.4399H8.81C8.06474 20.4399 7.35001 20.1439 6.82303 19.6169C6.29605 19.0899 6 18.3752 6 17.6299V6.36994C6 6.00008 6.07301 5.63386 6.21485 5.29228C6.35669 4.9507 6.56457 4.64049 6.82656 4.37942C7.08856 4.11836 7.39951 3.91158 7.74159 3.77096C8.08367 3.63033 8.45014 3.55862 8.82 3.55994H15.7C16.3094 3.55703 16.9029 3.75372 17.39 4.11994L19.88 5.99994C20.2291 6.26176 20.5122 6.60156 20.7066 6.99221C20.9011 7.38286 21.0016 7.81356 21 8.24994V11.9999C21 12.7452 20.7039 13.4599 20.177 13.9869C19.65 14.5139 18.9353 14.8099 18.19 14.8099V14.8099Z" stroke="#214856" stroke-width="1.5" stroke-linecap="round" stroke-linejoin="round"/>
<path d="M3.8501 14.4199V4.97992" stroke="#214856" stroke-width="1.5" stroke-linecap="round" stroke-linejoin="bevel"/>
</svg>
