<svg width="24" height="24" viewBox="0 0 24 24" fill="none" xmlns="http://www.w3.org/2000/svg">
<path d="M16.2804 1.90001H12.4804C11.9204 1.90001 10.7004 2.07001 10.0504 2.72001L7.02035 5.06001L7.94035 6.25001L11.0404 3.85001C11.2904 3.61001 11.9204 3.41001 12.4804 3.41001H16.2804C17.1804 3.41001 18.1504 4.13001 18.3504 4.94001L20.7704 12.29C20.9304 12.73 20.9004 13.13 20.6904 13.42C20.4704 13.73 20.0704 13.91 19.5804 13.91H15.5804C15.0604 13.91 14.5804 14.13 14.2504 14.51C13.9104 14.9 13.7604 15.42 13.8404 15.96L14.3404 19.17C14.4604 19.73 14.0804 20.36 13.5404 20.54C13.0504 20.72 12.4204 20.46 12.2004 20.14L8.10035 14.04L6.86035 14.87L10.9604 20.97C11.5904 21.91 12.9704 22.36 14.0504 21.95C15.3004 21.54 16.1004 20.16 15.8204 18.88L15.3304 15.73C15.3204 15.66 15.3204 15.56 15.3904 15.48C15.4404 15.43 15.5104 15.4 15.5904 15.4H19.5904C20.5704 15.4 21.4204 14.99 21.9204 14.28C22.4104 13.59 22.5104 12.68 22.1904 11.8L19.8004 4.52001C19.4304 3.07001 17.8904 1.90001 16.2804 1.90001Z" fill="#214856"/>
<path d="M5.37988 2.99998H4.37988C2.52988 2.99998 1.62988 3.86998 1.62988 5.64997V15.45C1.62988 17.23 2.52988 18.1 4.37988 18.1H5.37988C7.22988 18.1 8.12988 17.23 8.12988 15.45V5.64997C8.12988 3.86998 7.22988 2.99998 5.37988 2.99998ZM4.37988 16.6C3.28988 16.6 3.12988 16.34 3.12988 15.45V5.64997C3.12988 4.75997 3.28988 4.49998 4.37988 4.49998H5.37988C6.46988 4.49998 6.62988 4.75997 6.62988 5.64997V15.45C6.62988 16.34 6.46988 16.6 5.37988 16.6H4.37988Z" fill="#214856"/>
</svg>
