<svg width="16" height="16" viewBox="0 0 16 16" fill="none" xmlns="http://www.w3.org/2000/svg">
<g clip-path="url(#clip0_630_15536)">
<path fill-rule="evenodd" clip-rule="evenodd" d="M7.33336 2.12675C7.37941 1.98072 7.47082 1.85318 7.5943 1.76264C7.71778 1.6721 7.86691 1.62329 8.02003 1.62329C8.17315 1.62329 8.32228 1.6721 8.44576 1.76264C8.56924 1.85318 8.66065 1.98072 8.7067 2.12675L9.9467 5.94009H13.9467C14.1053 5.93409 14.2615 5.98018 14.3914 6.07131C14.5213 6.16244 14.6179 6.29361 14.6662 6.44476C14.7146 6.59592 14.7122 6.75875 14.6593 6.90839C14.6064 7.05802 14.506 7.18623 14.3734 7.27342L11.1267 9.62675L12.3667 13.4468C12.4157 13.5923 12.417 13.7496 12.3702 13.8959C12.3235 14.0422 12.2312 14.1697 12.1068 14.2597C11.9825 14.3498 11.8326 14.3978 11.6791 14.3967C11.5255 14.3955 11.3764 14.3453 11.2534 14.2534L8.00003 11.8734L4.75336 14.2334C4.63037 14.3253 4.48121 14.3755 4.32766 14.3767C4.17411 14.3778 4.02422 14.3298 3.89988 14.2397C3.77553 14.1497 3.68325 14.0222 3.6365 13.8759C3.58975 13.7296 3.59099 13.5723 3.64003 13.4268L4.88003 9.60675L1.63336 7.25342C1.50075 7.16623 1.40033 7.03802 1.34744 6.88839C1.29456 6.73875 1.29211 6.57592 1.34048 6.42476C1.38885 6.27361 1.48538 6.14244 1.61531 6.05131C1.74524 5.96018 1.90144 5.91409 2.06003 5.92009H6.06003L7.33336 2.12675Z" stroke="#214856" stroke-width="1.5" stroke-linecap="round" stroke-linejoin="round"/>
</g>
<defs>
<clipPath id="clip0_630_15536">
<rect width="16" height="16" fill="white"/>
</clipPath>
</defs>
</svg>
