<svg width="22" height="23" viewBox="0 0 22 23" fill="none" xmlns="http://www.w3.org/2000/svg">
<path d="M11.5986 12.9521H6.3623V11.3525H11.5508C11.9746 11.3525 12.3118 11.2865 12.5625 11.1543C12.8177 11.0221 13.0023 10.8398 13.1162 10.6074C13.2301 10.3704 13.2871 10.1016 13.2871 9.80078C13.2871 9.50456 13.2256 9.2334 13.1025 8.9873C12.984 8.73665 12.7995 8.53613 12.5488 8.38574C12.3027 8.23079 11.9883 8.15332 11.6055 8.15332H9.79395V16.5H7.74316V6.54688H11.5986C12.3825 6.54688 13.0524 6.68587 13.6084 6.96387C14.1689 7.24186 14.5996 7.62467 14.9004 8.1123C15.2012 8.59993 15.3516 9.1582 15.3516 9.78711C15.3516 10.4479 15.1966 11.0153 14.8867 11.4893C14.5814 11.9632 14.1484 12.3255 13.5879 12.5762C13.0319 12.8268 12.3688 12.9521 11.5986 12.9521ZM11.9746 13.5127V15.1123H6.3623V13.5127H11.9746Z" fill="#81949D"/>
<rect x="1" y="1.5" width="20" height="20" rx="10" stroke="#81949D" stroke-width="2"/>
</svg>
