<svg width="32" height="32" viewBox="0 0 32 32" fill="none" xmlns="http://www.w3.org/2000/svg">
<path fill-rule="evenodd" clip-rule="evenodd" d="M20.4247 22.182C18.9163 23.3231 17.0372 24 15 24C10.0294 24 6 19.9706 6 15C6 10.0294 10.0294 6 15 6C19.9706 6 24 10.0294 24 15C24 17.0372 23.3231 18.9163 22.182 20.4247L25.636 23.8787C26.1213 24.364 26.1213 25.1508 25.636 25.636C25.1508 26.1213 24.364 26.1213 23.8787 25.636L20.4247 22.182ZM15 22C18.866 22 22 18.866 22 15C22 11.134 18.866 8 15 8C11.134 8 8 11.134 8 15C8 18.866 11.134 22 15 22Z" fill="#31303D"/>
</svg>
