<svg width="22" height="23" viewBox="0 0 22 23" fill="none" xmlns="http://www.w3.org/2000/svg">
<g clip-path="url(#clip0_370_16240)">
<path fill-rule="evenodd" clip-rule="evenodd" d="M11 22.5522C4.92487 22.5522 0 17.5934 0 11.4764C0 5.35944 4.92487 0.400635 11 0.400635C17.0751 0.400635 22 5.35944 22 11.4764C22 17.5934 17.0751 22.5522 11 22.5522ZM11 20.5384C15.9706 20.5384 20 16.4812 20 11.4764C20 6.47162 15.9706 2.41442 11 2.41442C6.02944 2.41442 2 6.47162 2 11.4764C2 16.4812 6.02944 20.5384 11 20.5384ZM16 10.4695H12V5.43509H10V12.4833H16V10.4695Z" fill="#81949D"/>
</g>
<defs>
<clipPath id="clip0_370_16240">
<rect width="22" height="23" fill="white"/>
</clipPath>
</defs>
</svg>
