<svg width="28" height="29" viewBox="0 0 28 29" fill="none" xmlns="http://www.w3.org/2000/svg">
<path d="M13.9993 15.375C10.301 15.375 7.29102 12.365 7.29102 8.66671C7.29102 4.96837 10.301 1.95837 13.9993 1.95837C17.6977 1.95837 20.7077 4.96837 20.7077 8.66671C20.7077 12.365 17.6977 15.375 13.9993 15.375ZM13.9993 3.70837C11.2693 3.70837 9.04102 5.93671 9.04102 8.66671C9.04102 11.3967 11.2693 13.625 13.9993 13.625C16.7293 13.625 18.9577 11.3967 18.9577 8.66671C18.9577 5.93671 16.7293 3.70837 13.9993 3.70837Z" fill="#81949D" stroke="#81949D" stroke-width="0.6"/>
<path d="M3.97852 27.0417C3.50018 27.0417 3.10352 26.645 3.10352 26.1667C3.10352 21.185 7.99188 17.125 14.0002 17.125C15.2719 17.125 16.5319 17.3117 17.7102 17.6617C18.1769 17.8017 18.4335 18.2917 18.2935 18.7467C18.1535 19.2134 17.6635 19.47 17.2085 19.33C16.1819 19.0267 15.1085 18.8633 14.0002 18.8633C8.96021 18.8633 4.85352 22.13 4.85352 26.155C4.85352 26.645 4.45685 27.0417 3.97852 27.0417Z" fill="#81949D" stroke="#81949D" stroke-width="0.6"/>
<path d="M22.5403 20.2634C22.5169 20.2634 22.4819 20.2634 22.4586 20.2634C22.4236 20.2634 22.377 20.2634 22.342 20.2634C20.6386 20.205 19.3086 18.8284 19.3086 17.1134C19.3086 15.375 20.7203 13.9634 22.4586 13.9634C24.1969 13.9634 25.6086 15.375 25.6086 17.1134C25.597 18.8284 24.267 20.205 22.5636 20.2634C22.5636 20.2634 22.5519 20.2634 22.5403 20.2634ZM22.4586 15.7134C21.6886 15.7134 21.0586 16.3434 21.0586 17.1134C21.0586 17.8717 21.6536 18.49 22.4003 18.5134C22.4003 18.5017 22.4703 18.5017 22.552 18.5134C23.287 18.4667 23.8586 17.86 23.8586 17.1134C23.8586 16.3434 23.2286 15.7134 22.4586 15.7134Z" fill="#81949D"/>
<path d="M22.459 28.4304C21.129 28.4304 19.799 28.0804 18.7607 27.392C17.7807 26.7387 17.209 25.7937 17.209 24.7904C17.209 23.787 17.769 22.8304 18.7607 22.177C20.8373 20.8004 24.0806 20.8004 26.1456 22.177C27.1256 22.8304 27.6973 23.787 27.6973 24.7787C27.6973 25.782 27.1373 26.727 26.1456 27.392C25.119 28.092 23.789 28.4304 22.459 28.4304ZM19.729 23.6354C19.2273 23.9737 18.959 24.382 18.959 24.7904C18.959 25.1987 19.239 25.607 19.729 25.9454C21.2106 26.937 23.6957 26.937 25.1773 25.9454C25.679 25.607 25.959 25.1987 25.9473 24.7904C25.9473 24.382 25.6673 23.9737 25.1773 23.6354C23.7073 22.6437 21.2106 22.6437 19.729 23.6354Z" fill="#81949D"/>
</svg>
