<svg width="36" height="36" viewBox="0 0 36 36" fill="none" xmlns="http://www.w3.org/2000/svg">
<g clip-path="url(#clip0_467_17604)">
<rect width="36" height="36" rx="18" fill="#FF0000"/>
<path fill-rule="evenodd" clip-rule="evenodd" d="M26.8035 10.6049C27.7672 10.8644 28.5271 11.6243 28.7866 12.588C29.2684 14.3487 29.2499 18.0184 29.2499 18.0184C29.2499 18.0184 29.2499 21.6695 28.7866 23.4302C28.5271 24.394 27.7672 25.1539 26.8035 25.4133C25.0428 25.8767 18 25.8767 18 25.8767C18 25.8767 10.9757 25.8767 9.19645 25.3948C8.2327 25.1353 7.47281 24.3755 7.21334 23.4117C6.75 21.6695 6.75 17.9999 6.75 17.9999C6.75 17.9999 6.75 14.3487 7.21334 12.588C7.47281 11.6243 8.25123 10.8459 9.19645 10.5864C10.9571 10.123 18 10.123 18 10.123C18 10.123 25.0428 10.123 26.8035 10.6049ZM21.614 17.9998L15.7573 21.373V14.6267L21.614 17.9998Z" fill="white"/>
</g>
<defs>
<clipPath id="clip0_467_17604">
<rect width="36" height="36" fill="white"/>
</clipPath>
</defs>
</svg>
