<svg width="36" height="36" viewBox="0 0 36 36" fill="none" xmlns="http://www.w3.org/2000/svg">
<g clip-path="url(#clip0_467_17608)">
<rect width="36" height="36" rx="18" fill="#0DC143"/>
<path d="M26.0628 9.90862C24.1331 7.92213 21.4655 6.84375 18.7412 6.84375C12.952 6.84375 8.29797 11.5546 8.35472 17.287C8.35472 19.1032 8.86554 20.8627 9.71689 22.4519L8.24121 27.8438L13.7466 26.4248C15.279 27.2762 16.9818 27.6735 18.6845 27.6735C24.4169 27.6735 29.0709 22.9627 29.0709 17.2302C29.0709 14.4492 27.9926 11.8383 26.0628 9.90862ZM18.7412 25.914C17.2088 25.914 15.6763 25.5167 14.3709 24.7221L14.0304 24.5519L10.7385 25.4032L11.5899 22.1681L11.3628 21.8275C8.86554 17.7978 10.0574 12.4627 14.1439 9.96537C18.2304 7.46807 23.5088 8.65997 26.0061 12.7465C28.5034 16.8329 27.3115 22.1113 23.225 24.6086C21.9196 25.46 20.3304 25.914 18.7412 25.914ZM23.7358 19.614L23.1115 19.3302C23.1115 19.3302 22.2034 18.9329 21.6358 18.6492C21.579 18.6492 21.5223 18.5924 21.4655 18.5924C21.2953 18.5924 21.1818 18.6492 21.0682 18.7059C21.0682 18.7059 21.0115 18.7627 20.2169 19.6708C20.1601 19.7843 20.0466 19.841 19.9331 19.841H19.8763C19.8196 19.841 19.7061 19.7843 19.6493 19.7275L19.3655 19.614C18.7412 19.3302 18.1736 18.9897 17.7196 18.5356C17.6061 18.4221 17.4358 18.3086 17.3223 18.1951C16.925 17.7978 16.5277 17.3438 16.2439 16.8329L16.1872 16.7194C16.1304 16.6627 16.1304 16.6059 16.0736 16.4924C16.0736 16.3789 16.0736 16.2654 16.1304 16.2086C16.1304 16.2086 16.3574 15.9248 16.5277 15.7546C16.6412 15.641 16.698 15.4708 16.8115 15.3573C16.925 15.187 16.9818 14.96 16.925 14.7897C16.8682 14.5059 16.1872 12.9735 16.0169 12.6329C15.9034 12.4627 15.7899 12.4059 15.6196 12.3492H15.4493C15.3358 12.3492 15.1655 12.3492 14.9953 12.3492C14.8818 12.3492 14.7682 12.4059 14.6547 12.4059L14.598 12.4627C14.4845 12.5194 14.3709 12.6329 14.2574 12.6897C14.1439 12.8032 14.0872 12.9167 13.9736 13.0302C13.5763 13.541 13.3493 14.1654 13.3493 14.7897C13.3493 15.2438 13.4628 15.6978 13.6331 16.0951L13.6899 16.2654C14.2007 17.3438 14.8818 18.3086 15.7899 19.16L16.0169 19.387C16.1872 19.5573 16.3574 19.6708 16.4709 19.841C17.6628 20.8627 19.025 21.6005 20.5574 21.9978C20.7277 22.0546 20.9547 22.0546 21.125 22.1113C21.2953 22.1113 21.5223 22.1113 21.6926 22.1113C21.9763 22.1113 22.3169 21.9978 22.5439 21.8843C22.7142 21.7708 22.8277 21.7708 22.9412 21.6573L23.0547 21.5437C23.1682 21.4302 23.2818 21.3735 23.3953 21.26C23.5088 21.1465 23.6223 21.0329 23.679 20.9194C23.7926 20.6924 23.8493 20.4086 23.9061 20.1248C23.9061 20.0113 23.9061 19.841 23.9061 19.7275C23.9061 19.7275 23.8493 19.6708 23.7358 19.614Z" fill="white"/>
</g>
<defs>
<clipPath id="clip0_467_17608">
<rect width="36" height="36" fill="white"/>
</clipPath>
</defs>
</svg>
