<svg width="36" height="36" viewBox="0 0 36 36" fill="none" xmlns="http://www.w3.org/2000/svg">
<g clip-path="url(#clip0_467_17606)">
<rect width="36" height="36" rx="18" fill="#5181B8"/>
<path fill-rule="evenodd" clip-rule="evenodd" d="M29.4493 12.4011C29.6163 11.8449 29.4494 11.436 28.6553 11.436H26.0297C25.362 11.436 25.0544 11.7892 24.8875 12.1787C24.8875 12.1787 23.5522 15.4332 21.6607 17.5471C21.0487 18.1591 20.7706 18.3536 20.4367 18.3536C20.2698 18.3536 20.0283 18.1591 20.0283 17.6029V12.4011C20.0283 11.7335 19.8345 11.436 19.2781 11.436H15.1521C14.735 11.436 14.4841 11.7459 14.4841 12.0396C14.4841 12.6725 15.4297 12.8184 15.5272 14.5986V18.4652C15.5272 19.3129 15.3742 19.4667 15.0404 19.4667C14.1503 19.4667 11.9853 16.1974 10.701 12.4568C10.4493 11.7297 10.1969 11.436 9.52582 11.436H6.90021C6.15003 11.436 6 11.7892 6 12.1787C6 12.8741 6.89027 16.3234 10.1447 20.8852C12.3146 24.0003 15.3712 25.6894 18.1528 25.6894C19.822 25.6894 20.0283 25.3143 20.0283 24.6682V22.3136C20.0283 21.5634 20.1864 21.4137 20.7147 21.4137C21.1044 21.4137 21.7719 21.6084 23.3298 23.1104C25.11 24.8904 25.4033 25.6894 26.4048 25.6894H29.0304C29.7806 25.6894 30.1556 25.3143 29.9392 24.574C29.7025 23.8362 28.8526 22.7661 27.7247 21.4972C27.1127 20.7738 26.1947 19.995 25.9168 19.6056C25.5272 19.1049 25.6385 18.8825 25.9168 18.4376C25.9168 18.4376 29.1155 13.9313 29.4493 12.4013V12.4011Z" fill="white"/>
</g>
<defs>
<clipPath id="clip0_467_17606">
<rect width="36" height="36" fill="white"/>
</clipPath>
</defs>
</svg>
