<svg width="36" height="36" viewBox="0 0 36 36" fill="none" xmlns="http://www.w3.org/2000/svg">
<g clip-path="url(#clip0_467_17607)">
<rect width="36" height="36" rx="18" fill="#675DA9"/>
<path d="M26.8155 9.13841C26.2201 8.59101 23.8096 6.83837 18.4364 6.81436C18.4364 6.81436 12.1029 6.43022 9.01538 9.26325C7.29635 10.9823 6.69133 13.4936 6.62891 16.6147C6.56649 19.7311 6.48486 25.5748 12.1173 27.1594H12.1221L12.1173 29.5747C12.1173 29.5747 12.0837 30.5542 12.7271 30.7511C13.505 30.9912 13.966 30.2469 14.7103 29.445C15.1184 29.0033 15.6802 28.3598 16.1076 27.8653C19.9586 28.187 22.9213 27.4475 23.2574 27.3371C24.0353 27.0826 28.4385 26.5208 29.1539 20.677C29.8934 14.6652 28.7938 10.8574 26.8155 9.13841ZM27.4685 20.2545C26.8635 25.1331 23.2958 25.4404 22.638 25.6516C22.3595 25.7429 19.7569 26.3911 16.4821 26.175C16.4821 26.175 14.0428 29.1185 13.2841 29.882C13.1641 30.002 13.0248 30.0501 12.9336 30.026C12.804 29.9924 12.7656 29.8388 12.7704 29.6131C12.7704 29.2866 12.7896 25.594 12.7896 25.594C12.7848 25.594 12.7848 25.594 12.7896 25.594C8.02142 24.2735 8.29992 19.2989 8.35274 16.6964C8.40556 14.0938 8.89534 11.957 10.3503 10.5213C12.9576 8.15885 18.3404 8.50938 18.3404 8.50938C22.8829 8.52858 25.058 9.89708 25.5622 10.3533C27.238 11.7938 28.0928 15.227 27.4685 20.2545Z" fill="white"/>
<path d="M20.6498 16.7876C20.4914 16.7876 20.3569 16.6628 20.3473 16.4995C20.2945 15.4671 19.8095 14.9629 18.8203 14.9101C18.6523 14.9005 18.5226 14.7565 18.5322 14.5884C18.5418 14.4203 18.6859 14.2907 18.854 14.3003C20.16 14.3723 20.8899 15.1214 20.9571 16.4659C20.9667 16.634 20.8371 16.778 20.669 16.7828C20.6594 16.7876 20.6546 16.7876 20.6498 16.7876Z" fill="white"/>
<path d="M22.2058 17.3062H22.201C22.0329 17.3014 21.8984 17.1622 21.9032 16.9941C21.9273 15.9569 21.6295 15.1166 20.9957 14.4252C20.3667 13.7337 19.4976 13.3592 18.3499 13.2775C18.1819 13.2631 18.057 13.1191 18.0714 12.951C18.0858 12.783 18.2299 12.6581 18.398 12.6725C19.6944 12.7686 20.7172 13.2199 21.4471 14.017C22.1817 14.8189 22.5371 15.8225 22.5131 17.0085C22.5083 17.1766 22.369 17.3062 22.2058 17.3062Z" fill="white"/>
<path d="M23.8005 17.9304C23.6324 17.9304 23.498 17.7959 23.498 17.6279C23.4836 15.7696 22.9506 14.3531 21.8654 13.2919C20.7946 12.2451 19.4357 11.7121 17.8367 11.6977C17.6686 11.6977 17.5342 11.5585 17.5342 11.3904C17.5342 11.2223 17.6734 11.0879 17.8367 11.0879C19.5989 11.1023 21.0971 11.6929 22.2831 12.8549C23.474 14.017 24.0838 15.6207 24.103 17.6183C24.1078 17.7911 23.9733 17.9304 23.8005 17.9304C23.8053 17.9304 23.8053 17.9304 23.8005 17.9304Z" fill="white"/>
<path d="M18.893 20.5475C18.893 20.5475 19.3203 20.5859 19.5508 20.3026L19.9974 19.7408C20.2135 19.4623 20.7369 19.2847 21.2458 19.568C21.5292 19.7264 22.0429 20.0433 22.3599 20.2786C22.7008 20.5283 23.3922 21.1045 23.397 21.1093C23.7284 21.3878 23.8052 21.796 23.5795 22.2329C23.5795 22.2329 23.5795 22.2377 23.5795 22.2425C23.349 22.6507 23.0369 23.0348 22.648 23.3902C22.6432 23.3902 22.6432 23.395 22.6384 23.395C22.3166 23.6639 21.9997 23.8175 21.6924 23.8511C21.654 23.8607 21.6108 23.8607 21.5532 23.8607C21.4187 23.8607 21.2843 23.8415 21.1498 23.7983L21.1402 23.7839C20.66 23.6495 19.8629 23.3133 18.5377 22.5787C17.6733 22.1033 16.9579 21.6183 16.3481 21.1333C16.0263 20.8788 15.6998 20.5955 15.3637 20.2594C15.3541 20.2498 15.3397 20.2354 15.3301 20.2258C15.3205 20.2162 15.3061 20.2018 15.2965 20.1922C15.2869 20.1826 15.2725 20.1682 15.2629 20.1586C15.2533 20.149 15.2389 20.1346 15.2292 20.125C14.8979 19.7888 14.6098 19.4623 14.3553 19.1406C13.8703 18.5356 13.3854 17.8153 12.91 16.951C12.1753 15.6209 11.8392 14.8238 11.7048 14.3485L11.6904 14.3388C11.6471 14.2044 11.6279 14.0699 11.6279 13.9355C11.6279 13.8779 11.6279 13.8347 11.6375 13.7962C11.6759 13.4841 11.8296 13.172 12.0937 12.8503C12.0937 12.8455 12.0985 12.8455 12.0985 12.8407C12.4538 12.447 12.838 12.1396 13.2461 11.9092C13.2461 11.9092 13.2509 11.9092 13.2557 11.9092C13.6879 11.6835 14.096 11.7603 14.3793 12.0916C14.3793 12.0916 14.9603 12.7879 15.21 13.1288C15.4453 13.4505 15.7622 13.9595 15.9207 14.2428C16.204 14.7518 16.0263 15.2752 15.7478 15.4913L15.186 15.9378C14.9027 16.1683 14.9411 16.5957 14.9411 16.5957C14.9411 16.5957 15.7718 19.7552 18.893 20.5475Z" fill="white"/>
</g>
<defs>
<clipPath id="clip0_467_17607">
<rect width="36" height="36" fill="white"/>
</clipPath>
</defs>
</svg>
