<svg width="36" height="36" viewBox="0 0 36 36" fill="none" xmlns="http://www.w3.org/2000/svg">
<g clip-path="url(#clip0_467_17605)">
<rect width="36" height="36" rx="18" fill="#419FD9"/>
<path fill-rule="evenodd" clip-rule="evenodd" d="M22.0013 26.9133C23.2595 27.4637 23.7313 26.3104 23.7313 26.3104L27.0601 9.58776C27.0338 8.46068 25.5136 9.14217 25.5136 9.14217L6.87752 16.4551C6.87752 16.4551 5.98634 16.7696 6.06497 17.32C6.14361 17.8705 6.85131 18.1326 6.85131 18.1326L11.5431 19.7052C11.5431 19.7052 12.9585 24.3446 13.2468 25.2358C13.5089 26.1007 13.7448 26.127 13.7448 26.127C14.0069 26.2318 14.2428 26.0483 14.2428 26.0483L17.2833 23.2962L22.0013 26.9133ZM22.8128 12.5496C22.8128 12.5496 23.4681 12.1564 23.4419 12.5496C23.4419 12.5496 23.5468 12.602 23.206 12.9689C22.8915 13.2835 15.4737 19.9411 14.4777 20.8323C14.3991 20.8847 14.3467 20.9633 14.3467 21.0682L14.0583 23.532C14.0059 23.7941 13.6652 23.8203 13.5865 23.5844L12.3546 19.5479C12.3022 19.3907 12.3546 19.2072 12.5119 19.1023L22.8128 12.5496Z" fill="white"/>
</g>
<defs>
<clipPath id="clip0_467_17605">
<rect width="36" height="36" fill="white"/>
</clipPath>
</defs>
</svg>
