<svg width="28" height="28" viewBox="0 0 28 28" fill="none" xmlns="http://www.w3.org/2000/svg">
<path d="M14.0002 24.75C13.3302 24.75 12.6502 24.58 12.0502 24.23L6.11016 20.8C4.91016 20.1 4.16016 18.81 4.16016 17.42V10.58C4.16016 9.18999 4.91016 7.89999 6.11016 7.19999L12.0502 3.77C13.2502 3.07 14.7402 3.07 15.9502 3.77L21.8902 7.19999C23.0902 7.89999 23.8402 9.18999 23.8402 10.58V17.42C23.8402 18.81 23.0902 20.1 21.8902 20.8L15.9502 24.23C15.3502 24.58 14.6702 24.75 14.0002 24.75ZM14.0002 4.74998C13.5902 4.74998 13.1702 4.85998 12.8002 5.06998L6.86016 8.49998C6.12016 8.92998 5.66016 9.71999 5.66016 10.58V17.42C5.66016 18.27 6.12016 19.07 6.86016 19.5L12.8002 22.93C13.5402 23.36 14.4602 23.36 15.2002 22.93L21.1402 19.5C21.8802 19.07 22.3402 18.28 22.3402 17.42V10.58C22.3402 9.72999 21.8802 8.92998 21.1402 8.49998L15.2002 5.06998C14.8302 4.85998 14.4102 4.74998 14.0002 4.74998Z" fill="black"/>
<path d="M13.9999 13.7501C12.2999 13.7501 10.9199 12.37 10.9199 10.67C10.9199 8.97004 12.2999 7.59009 13.9999 7.59009C15.6999 7.59009 17.0799 8.97004 17.0799 10.67C17.0799 12.37 15.6999 13.7501 13.9999 13.7501ZM13.9999 9.09009C13.1299 9.09009 12.4199 9.80004 12.4199 10.67C12.4199 11.54 13.1299 12.2501 13.9999 12.2501C14.8699 12.2501 15.5799 11.54 15.5799 10.67C15.5799 9.80004 14.8699 9.09009 13.9999 9.09009Z" fill="black"/>
<path d="M18 19.4101C17.59 19.4101 17.25 19.0701 17.25 18.6601C17.25 17.2801 15.79 16.1501 14 16.1501C12.21 16.1501 10.75 17.2801 10.75 18.6601C10.75 19.0701 10.41 19.4101 10 19.4101C9.59 19.4101 9.25 19.0701 9.25 18.6601C9.25 16.4501 11.38 14.6501 14 14.6501C16.62 14.6501 18.75 16.4501 18.75 18.6601C18.75 19.0701 18.41 19.4101 18 19.4101Z" fill="black"/>
</svg>
