<svg width="24" height="24" viewBox="0 0 24 24" fill="none" xmlns="http://www.w3.org/2000/svg">
<path d="M22 12.1199L19.4 14.9999C18.4627 16.0311 17.3203 16.855 16.0459 17.4188C14.7716 17.9826 13.3935 18.2738 12 18.2738C10.6065 18.2738 9.2284 17.9826 7.95406 17.4188C6.67971 16.855 5.53727 16.0311 4.6 14.9999L2 12.1199L4.32 9.33989C5.2585 8.21448 6.43287 7.30908 7.76001 6.68776C9.08715 6.06644 10.5346 5.74438 12 5.74438C13.4654 5.74438 14.9129 6.06644 16.24 6.68776C17.5671 7.30908 18.7415 8.21448 19.68 9.33989L22 12.1199Z" stroke="#214856" stroke-width="1.2" stroke-linecap="round" stroke-linejoin="round"/>
<path d="M12.0902 14.2598C13.5262 14.2598 14.6902 13.1405 14.6902 11.7598C14.6902 10.3791 13.5262 9.25977 12.0902 9.25977C10.6543 9.25977 9.49023 10.3791 9.49023 11.7598C9.49023 13.1405 10.6543 14.2598 12.0902 14.2598Z" stroke="#214856" stroke-width="1.2" stroke-linecap="round" stroke-linejoin="bevel"/>
</svg>
