<svg width="32" height="32" viewBox="0 0 32 32" fill="none" xmlns="http://www.w3.org/2000/svg">
<path d="M27.0269 24.9067C25.7069 26.12 23.9736 26.7867 22.1736 26.7734H7.38691C1.16025 26.32 1.14692 17.2534 7.38691 16.8H7.45358C3.85358 6.7467 16.1602 1.7867 21.3336 8.04003V8.05336C22.2669 9.20003 22.9736 10.72 23.2936 12.6534C25.0669 12.88 26.5069 13.7467 27.5336 14.9734C29.8669 17.7334 30.0669 22.24 27.0269 24.9067Z" stroke="#4FB6B0" stroke-width="2" stroke-miterlimit="10" stroke-linecap="round" stroke-linejoin="round"/>
<path d="M9.67979 17.3467C8.98646 17 8.22646 16.8133 7.45312 16.8" stroke="#4FB6B0" stroke-width="2" stroke-miterlimit="10" stroke-linecap="round" stroke-linejoin="round"/>
<path d="M21.1338 13.2267C21.8271 12.88 22.5871 12.6933 23.3605 12.68" stroke="#4FB6B0" stroke-width="2" stroke-miterlimit="10" stroke-linecap="round" stroke-linejoin="round"/>
<path d="M29.293 11.3334C29.293 12.8 28.613 14.12 27.533 14.9734C26.5063 13.7467 25.0663 12.88 23.293 12.6534C22.973 10.72 22.2663 9.20002 21.333 8.05335V8.04002C22.173 7.18669 23.3463 6.66669 24.6263 6.66669C27.1997 6.66669 29.293 8.76002 29.293 11.3334Z" stroke="#4FB6B0" stroke-width="2" stroke-miterlimit="10" stroke-linecap="round" stroke-linejoin="round"/>
</svg>
