<svg width="20" height="20" viewBox="0 0 20 20" fill="none" xmlns="http://www.w3.org/2000/svg">
<path d="M1.66699 12.5H15.417C17.0253 12.5 18.3337 13.8083 18.3337 15.4167C18.3337 17.025 17.0253 18.3333 15.417 18.3333C13.8087 18.3333 12.5003 17.025 12.5003 15.4167V15" stroke="#4FB6B0" stroke-width="1.5" stroke-miterlimit="10" stroke-linecap="round" stroke-linejoin="round"/>
<path d="M1.66699 10H15.417C17.017 10 18.3337 8.69169 18.3337 7.08335C18.3337 5.48335 17.017 4.16669 15.417 4.16669C13.817 4.16669 12.5003 5.47502 12.5003 7.08335V7.50002" stroke="#4FB6B0" stroke-width="1.5" stroke-miterlimit="10" stroke-linecap="round" stroke-linejoin="round"/>
<path d="M1.66699 7.5H7.75866C9.00032 7.5 10.0003 6.49166 10.0003 5.25833C10.0003 4.01666 8.99199 3.01666 7.75866 3.01666C6.51699 3.01666 5.51699 4.025 5.51699 5.25833V5.575" stroke="#4FB6B0" stroke-width="1.5" stroke-miterlimit="10" stroke-linecap="round" stroke-linejoin="round"/>
</svg>
