<svg width="133" height="120" viewBox="0 0 133 120" fill="none" xmlns="http://www.w3.org/2000/svg">
<path d="M103.657 61.4601C103.657 85.0458 84.5374 104.166 60.9517 104.166C37.3661 104.166 18.2461 85.0458 18.2461 61.4601C18.2461 37.8745 37.3661 18.7545 60.9517 18.7545C84.5374 18.7545 103.657 37.8745 103.657 61.4601Z" fill="#008100" stroke="#008100" stroke-width="4"/>
<path d="M80.09 26.2366C77.04 29.0281 73.3696 30.7858 69.1305 31.5095C67.8381 31.7421 66.7008 32.0523 66.5716 32.2074C66.1839 32.8536 65.6152 35.1024 65.6152 36.1363C65.6152 37.6613 66.2873 39.6774 67.0627 40.5304C67.7089 41.2283 67.7606 41.2283 70.2161 41.1249C72.8526 41.0215 73.6539 40.7113 75.7476 39.0571C76.4455 38.5143 76.4455 38.5143 77.5569 39.0054C79.0044 39.6516 81.1498 41.7969 81.8735 43.322C82.3388 44.2783 82.4938 45.0538 82.5197 46.5529L82.5455 48.5432L83.8379 49.1894C84.9752 49.7581 85.4663 49.8356 87.8443 49.8356C90.455 49.8356 90.6101 49.8098 92.1092 48.9568C94.2546 47.7419 95.5987 46.6305 97.1237 44.6919L98.4419 43.0376L97.1754 40.8406C94.0995 35.4642 89.2918 30.2947 84.3032 26.9603C82.8299 25.9522 81.5375 25.151 81.4341 25.151C81.3307 25.1768 80.7362 25.6421 80.09 26.2366Z" fill="#15EC15"/>
<path d="M40.025 34.0943C34.7779 38.049 31.9605 39.2639 27.3079 39.5482L25.0592 39.7033L24.0253 41.6936C20.3549 48.6983 18.9074 55.0827 19.1659 62.7595C19.3985 69.2215 20.5617 74.0809 23.1981 79.5606C24.9558 83.2051 24.8524 83.1017 26.5842 82.6365C27.3596 82.4297 29.0656 82.2229 30.3321 82.2229C32.4258 82.1712 33.072 82.3005 36.7165 83.4119L40.7746 84.6526L41.5501 84.1098C43.8764 82.4555 46.2285 78.6301 46.4353 76.2262L46.5387 74.8563L45.298 73.8482C44.6001 73.3054 43.3594 72.194 42.5323 71.3668C41.1365 70.0227 41.0331 69.8418 41.1106 68.9113C41.1882 68.0066 41.3433 67.8257 42.9975 66.7142C45.9959 64.6723 48.012 62.165 48.4256 59.9163C48.5807 59.1925 48.4773 59.0891 47.0039 58.2878C45.2463 57.3315 44.0573 55.9099 43.6179 54.2556C43.3336 53.2475 43.4111 49.8356 43.7213 49.5513C43.7988 49.4738 44.3416 49.2928 44.962 49.1636C48.1413 48.4398 51.5015 45.7 53.1816 42.4431L54.0862 40.7372L53.621 39.5223C52.6905 37.1185 48.9167 33.7583 45.7116 32.4917C43.2819 31.5354 43.5145 31.4578 40.025 34.0943Z" fill="#15EC15"/>
<path d="M73.4217 79.2763C71.9225 81.3699 71.5089 82.5848 71.5865 84.8077C71.664 87.47 71.5348 87.806 69.9322 88.5815C66.8305 90.1065 63.9872 90.029 61.5058 88.3747L60.2652 87.5217L58.8952 88.4522C55.4575 90.7268 54.1134 95.0693 55.3541 99.8511C56.1812 103.03 56.052 102.875 58.5592 103.082C63.0567 103.47 69.5445 102.591 74.1713 100.988C77.2213 99.9287 80.4523 98.507 80.7108 98.0935C80.7883 97.9384 80.6849 97.0079 80.4781 95.9739C79.6768 92.226 80.1421 87.9353 81.7447 83.8772L82.3909 82.2746L81.5379 81.1632C80.4523 79.7415 77.945 78.4491 75.8255 78.2424L74.2747 78.0873L73.4217 79.2763Z" fill="#15EC15"/>
<path fill-rule="evenodd" clip-rule="evenodd" d="M6.36978 40.2315C5.58924 40.5115 5.22343 41.35 5.54913 42.1126C5.87994 42.8872 6.79679 43.2872 7.58959 43.0028L11.251 41.6893L9.72322 38.112C9.39241 37.3374 8.47556 36.9374 7.68275 37.2218C6.90221 37.5018 6.53641 38.3403 6.8621 39.1029L7.09713 39.6533C7.12764 39.7247 7.12733 39.8056 7.09627 39.8767C7.06521 39.9479 7.00617 40.0032 6.93306 40.0294L6.36978 40.2315ZM5.03057 42.3341C4.57742 41.273 5.09337 40.0903 6.17938 39.7007L6.4611 39.5997L6.34355 39.3244C5.8904 38.2633 6.40635 37.0807 7.49235 36.6911C8.56609 36.3059 9.79374 36.8414 10.2418 37.8905L11.887 41.7429C11.9175 41.8143 11.9172 41.8952 11.8862 41.9664C11.8551 42.0375 11.7961 42.0928 11.723 42.119L7.78 43.5335C6.70626 43.9187 5.4786 43.3831 5.03057 42.3341Z" fill="#15EC15"/>
<path d="M5.54913 42.1126C5.22343 41.35 5.58924 40.5115 6.36978 40.2315L6.93306 40.0294C7.00617 40.0032 7.06521 39.9479 7.09627 39.8767C7.12733 39.8056 7.12764 39.7247 7.09713 39.6533L6.8621 39.1029C6.53641 38.3403 6.90221 37.5018 7.68275 37.2218C8.47556 36.9374 9.39241 37.3374 9.72322 38.112L11.251 41.6893L7.58959 43.0028C6.79679 43.2872 5.87994 42.8872 5.54913 42.1126Z" fill="#15EC15"/>
<path d="M57.4733 20.0073C52.9241 20.3433 48.0647 21.4548 44.9371 22.8764C41.7579 24.298 39.0438 25.7455 38.3718 26.3658C38.0099 26.7019 37.6998 26.9086 37.6998 26.8311C37.6998 26.7277 36.976 27.1671 36.0972 27.7875C33.8226 29.3642 27.0763 36.0846 27.4382 36.4206C27.6967 36.6791 31.7289 35.6969 33.2539 34.9732C34.779 34.2753 36.9243 32.8019 37.1311 32.3367C37.1828 32.2074 37.3379 32.1299 37.493 32.1299C37.6481 32.1299 38.5269 31.5612 39.4832 30.8634C42.1973 28.8472 42.8693 28.6146 44.627 29.0023C45.4282 29.1833 46.2295 29.3383 46.3846 29.39C46.5397 29.4159 47.6511 30.0104 48.8401 30.6824C51.8902 32.4401 55.483 36.0846 56.2843 38.2041C57.4475 41.28 56.5686 43.8648 52.9758 47.742C51.2957 49.5513 47.9096 51.7742 46.8499 51.7742C46.5397 51.7742 46.4622 51.9552 46.5397 52.4721C46.7206 53.4543 46.8499 53.9454 47.005 54.1005C47.0825 54.1781 47.2634 54.4624 47.4185 54.7467C47.5736 55.0311 48.1423 55.4963 48.7109 55.7806C49.2537 56.065 49.7707 56.3751 49.7965 56.4785C49.8482 56.6078 50.0291 56.6853 50.2101 56.6853C50.5978 56.6853 51.6576 58.5205 51.6576 59.1925C51.6576 59.4769 51.4249 60.3815 51.1148 61.2345C50.8304 62.0617 50.5461 62.9663 50.4944 63.2248C50.4427 63.4574 50.2101 63.8451 50.0033 64.0778C49.7707 64.2846 49.5897 64.543 49.5897 64.6464C49.5897 64.9825 46.8757 67.6706 45.7901 68.4202C45.1698 68.8338 44.6787 69.2473 44.6787 69.3507C44.6787 69.4541 45.5575 70.2296 46.6172 71.0308C49.0728 72.9177 49.719 74.1067 49.538 76.4072C49.2537 79.8966 46.0486 84.756 42.6367 86.9531C41.9905 87.3666 41.2151 87.7027 40.9307 87.7027C40.6206 87.7027 38.9663 87.2633 37.2862 86.6946C33.2022 85.3764 31.0827 85.0145 28.8081 85.3505C27.8517 85.4798 26.9729 85.6607 26.9212 85.7382C26.8437 85.8158 27.0763 86.2552 27.4123 86.7205C28.4979 88.1421 33.1247 92.9239 33.8484 93.3633C34.2103 93.596 34.9082 94.1129 35.3993 94.5006C36.9243 95.7672 40.6206 98.0676 42.3524 98.8948C45.5833 100.368 51.6576 102.436 52.8466 102.436C52.8983 102.436 52.769 101.997 52.5622 101.48C51.6576 99.1274 51.5283 94.5265 52.3296 92.2002C52.7432 90.9595 54.5008 88.1679 55.2763 87.4959C56.7237 86.2552 59.3602 84.5751 60.0839 84.4458C61.2729 84.2391 62.1776 84.4975 62.3844 85.1179C62.798 86.3844 65.9255 87.0823 67.7866 86.3069C68.5362 85.9967 68.6137 85.8675 68.5103 85.1437C68.2001 82.9725 69.6476 78.9661 71.5862 76.6657L72.7235 75.3216H75.0498C77.9448 75.2957 78.9787 75.5801 81.2791 77.0017C82.9851 78.0614 83.502 78.6042 85.0529 80.9564C85.6991 81.9128 85.6216 82.8174 84.7427 84.5492C83.6313 86.7463 83.1919 88.9434 83.2177 92.226C83.2436 93.7769 83.3211 95.4053 83.4245 95.8189L83.5796 96.5685L85.2597 95.2761C87.9737 93.2082 88.3614 92.8722 90.9979 90.1841C92.3937 88.7624 93.531 87.47 93.531 87.2633C93.531 87.0823 93.6344 86.9272 93.7378 86.9272C94.1513 86.9272 96.2967 83.6704 97.8476 80.7238C99.812 77.0275 101.621 71.4961 102.216 67.4897C102.759 63.6901 102.604 56.6078 101.854 53.3251C101.208 50.5077 99.9154 46.3462 99.6828 46.3462C99.5794 46.3462 99.1141 46.8373 98.6488 47.4576C97.6925 48.75 95.1594 50.8179 93.3501 51.8001C89.8864 53.687 83.7864 53.2734 80.7622 50.9471C79.1079 49.6806 79.0821 49.6289 79.1855 47.1992C79.3147 44.7695 78.8236 43.2962 77.6863 42.6758C76.885 42.2364 76.7558 42.2364 75.3858 42.9084C72.7235 44.2008 69.1565 44.5627 66.4683 43.7873C65.8738 43.6063 63.8319 41.9521 64.1937 41.9521C64.2454 41.9521 63.987 41.28 63.5992 40.4529C62.2552 37.5321 62.617 32.6727 64.4005 30.0362C64.8916 29.3125 65.2018 29.1316 66.2616 28.9506C70.2163 28.3044 71.5862 27.9943 72.9044 27.3739C75.36 26.2366 78.0223 24.3497 78.0223 23.7294C78.0223 23.29 75.0498 22.0751 71.9481 21.2738C67.4764 20.1365 62.0225 19.6454 57.4733 20.0073Z" fill="#6BC1EC"/>
<path d="M106.558 9.51307C100.018 16.6729 96.0636 20.9636 93.5046 23.7294C92.6775 24.5823 91.5919 25.7972 91.0491 26.4175L90.041 27.529L91.0749 28.4078C91.6436 28.8989 92.2639 29.2608 92.419 29.2349C92.7033 29.1574 103.327 17.6551 113.924 5.94608L116.664 2.92189C116.664 2.92189 117.784 2.45714 120.309 2.45714C122.834 2.45714 123.953 3.05112 123.953 3.05112C128.651 7.45555 125.274 10.7035 119.637 10.883C115.837 10.9864 115.062 11.1673 113.64 12.3046C111.648 13.8542 111.653 18.1858 113.537 19.8005C114.932 20.9636 115.553 21.1446 119.146 21.2738C121.911 21.3772 122.79 21.5065 123.359 21.8683C124.522 22.6438 125.065 23.8069 125.065 25.487C125.065 26.8569 124.961 27.1154 124.108 28.201C122.324 30.4097 120.901 32.5029 120.36 35.4126C119.818 38.3851 121.162 42.5724 123.462 45.0538L124.522 46.1911L123.488 47.1992C122.196 48.4657 121.963 48.931 121.963 50.12C121.963 52.317 123.023 54.359 124.186 54.359C124.651 54.359 124.91 54.0747 125.375 53.0666C125.711 52.3429 126.021 51.7742 126.099 51.7742C126.176 51.7742 126.486 52.3429 126.822 53.0666C127.469 54.4882 128.218 54.7726 129.019 53.8937C130.002 52.8081 130.57 49.7839 129.976 48.6725C129.847 48.414 129.252 47.742 128.709 47.1992L127.675 46.1911L128.709 45.1055C130.519 43.1411 132.044 39.4448 132.044 37.0668C132.044 36.4206 131.889 35.2833 131.682 34.5854C130.98 31.997 129.722 30.3775 128.192 28.382C127.236 27.0637 127.133 26.8052 127.133 25.3836C127.133 22.8764 126.202 21.248 124.16 20.1624C123.307 19.723 122.506 19.5937 119.637 19.4645C116.638 19.3611 116.07 19.2577 115.553 18.8183C114.197 17.6808 113.22 13.948 115.76 13.3385C117.062 12.9835 118.164 12.744 119.714 12.744C123.385 12.7182 124.393 12.4856 126.099 11.3224C128.735 9.48722 128.82 4.1511 126.287 2.03158C123.68 -0.149837 119.637 -0.482891 116.277 0.595581C113.103 1.61413 108.293 7.60661 106.558 9.51307ZM129.821 35.4643C129.743 35.5418 128.063 35.6193 126.099 35.6193C124.134 35.6193 122.454 35.5418 122.377 35.4643C121.47 34.5577 125.335 29.0282 126.099 29.0282C127.415 29.0282 130.468 34.8175 129.821 35.4643ZM126.099 37.6613C127.727 37.6613 129.33 37.5838 129.614 37.4545C130.105 37.2736 130.157 37.3253 130.053 37.9973C129.75 39.9299 128.109 43.7656 126.331 44.9504C124.883 45.7405 122.305 38.7628 122.118 37.8681C122.015 37.3253 122.066 37.2736 122.558 37.4545C122.868 37.5838 124.47 37.6613 126.099 37.6613ZM127.262 48.4399C128.063 49.1377 128.167 49.3962 128.167 50.456V51.645L127.443 50.3526C126.9 49.3445 126.616 49.0602 126.099 49.0602C125.582 49.0602 125.297 49.3445 124.755 50.3526L124.031 51.645V50.456C124.031 49.3962 124.134 49.1377 124.936 48.4399C125.452 48.0004 125.969 47.6386 126.099 47.6386C126.228 47.6386 126.745 48.0004 127.262 48.4399Z" fill="#214856"/>
<path d="M124.91 32.7502C124.548 33.6808 124.91 34.0685 126.099 34.0685C127.21 34.0685 127.262 34.0426 127.262 33.293C127.262 32.5693 127.184 32.5176 126.15 32.4401C125.375 32.3884 125.013 32.4659 124.91 32.7502Z" fill="#214856"/>
<path d="M59.9287 1.34515C58.7914 1.70702 57.7575 2.32736 57.0855 3.02526C56.5944 3.56806 56.4393 4.05917 56.3617 5.35156C56.2583 6.92827 56.2842 7.03166 57.2147 8.03973C57.7317 8.63423 58.5588 9.22873 59.0757 9.40966C60.1355 9.74568 63.4182 9.61644 63.8317 9.20288C63.9868 9.04779 64.1678 8.45329 64.2453 7.85879C64.4262 6.59225 64.0127 6.43716 63.4182 7.57447C62.5394 9.25457 60.4974 9.51305 59.3084 8.06558C58.016 6.54056 58.2486 2.97356 59.6702 2.19813C60.9368 1.55193 62.7978 2.24982 63.3148 3.61975C63.444 3.95578 63.6508 4.21425 63.8059 4.21425C64.1936 4.21425 64.1161 1.99134 63.7284 1.68117C63.2631 1.29345 60.73 1.08667 59.9287 1.34515Z" fill="#214856"/>
<path d="M53.6726 1.52608C53.4142 1.78456 47.7018 2.58584 47.1848 2.4566C46.7196 2.32737 46.6937 2.40491 46.823 3.18034C46.9264 3.6456 47.0039 4.34349 47.0039 4.75706C47.0039 5.71343 47.3916 5.71343 47.7276 4.78291C48.0378 3.90408 49.02 2.87017 49.4078 2.99941C49.5628 3.0511 49.9247 4.62782 50.1832 6.54056C50.6484 9.71984 50.6484 10.0042 50.2607 10.2885C49.3044 11.0122 49.7179 11.0381 52.8972 10.4953C53.776 10.3402 54.0604 9.64229 53.2332 9.64229C52.8197 9.64229 52.6904 9.25458 52.3286 6.72149C52.0959 5.14478 51.8374 3.56806 51.7599 3.23204C51.6565 2.74093 51.7599 2.66339 52.4061 2.66339C53.0006 2.66339 53.2849 2.87017 53.6985 3.56806C54.4222 4.78291 54.8616 4.75706 54.6549 3.49052C54.5773 2.97356 54.4998 2.27567 54.4998 1.93965C54.4998 1.42269 54.0087 1.16422 53.6726 1.52608Z" fill="#214856"/>
<path d="M67.8124 2.45662C67.0887 2.87019 66.9078 3.18036 66.9078 4.13673C66.9078 4.65369 67.1145 5.17064 67.4506 5.48082L67.9934 5.97192L66.4942 7.54864C65.6929 8.42747 64.8658 9.12536 64.659 9.12536C64.4522 9.12536 64.323 9.30629 64.3747 9.56477C64.5039 10.2627 66.8044 10.3661 67.0112 9.71986C67.1662 9.28044 69.7769 6.46303 69.9061 6.61812C69.9837 6.69566 69.4925 9.69401 69.3633 9.92664C69.2858 10.03 69.0014 10.0559 68.7171 9.97833C68.226 9.84909 67.9934 10.2627 68.4069 10.5211C68.5103 10.5728 69.4408 10.7279 70.4748 10.8055C71.793 10.9605 72.3358 10.9089 72.3358 10.7021C72.3358 10.547 72.0773 10.4177 71.793 10.4177C71.276 10.4177 71.2502 10.3402 71.4053 9.17705C71.5087 8.50501 71.6638 7.34186 71.7413 6.59227C71.8188 5.86853 71.9998 5.24819 72.1032 5.24819C72.2324 5.24819 72.3358 4.78293 72.3358 4.21427C72.3358 3.3613 72.4133 3.18036 72.8528 3.18036C73.1371 3.18036 73.3697 3.02528 73.3697 2.81849C73.3697 2.22399 68.7688 1.91382 67.8124 2.45662ZM70.3197 2.97358C70.4489 3.3613 70.1387 5.45497 69.932 5.6876C69.8286 5.76514 69.5184 5.6359 69.2341 5.37743C68.6654 4.86047 68.5362 3.46469 69.0273 2.97358C69.415 2.58586 70.1904 2.58586 70.3197 2.97358Z" fill="#214856"/>
<path d="M43.4638 3.38715C43.2829 3.49054 42.9727 4.11089 42.7401 4.73123C42.5333 5.37743 42.2748 6.07532 42.1714 6.2821C42.0939 6.48888 41.9905 6.72151 41.9646 6.79906C41.9388 6.8766 41.8354 7.13508 41.732 7.39356C41.6028 7.62619 41.3184 8.50501 41.0599 9.30629C40.8273 10.1076 40.5688 10.6504 40.4913 10.5211C40.4138 10.3919 40.0777 9.46138 39.7676 8.47916C39.4574 7.4711 39.0697 6.51473 38.9146 6.3338C38.7078 6.07532 38.7853 5.97193 39.1989 5.84269C39.5091 5.76514 39.7676 5.53251 39.7676 5.32573C39.7676 5.06725 39.6125 4.98971 39.3798 5.0931C39.1472 5.17064 38.3201 5.42912 37.493 5.66175C35.787 6.15286 35.3993 6.41134 35.8387 6.85075C36.0455 7.05753 36.2264 7.05753 36.4849 6.8249C36.7951 6.59227 36.976 6.79906 37.493 8.14314C37.8548 9.04781 38.2942 10.3144 38.4752 10.9864C38.6561 11.6843 38.8887 12.2271 38.9921 12.2271C39.0955 12.2271 39.2764 12.6407 39.354 13.1576C39.6383 14.6568 40.2328 14.1657 41.0858 11.7101C41.4994 10.4953 42.068 9.04781 42.3523 8.45332C42.6367 7.88466 42.8693 7.18677 42.8693 6.90245C42.8951 6.3338 44.3943 10.5987 44.4202 11.2449C44.4202 11.5034 44.2392 11.7101 44.0324 11.7101C43.8257 11.7101 43.6447 11.8135 43.6447 11.9686C43.6447 12.3563 44.1358 12.2788 45.9193 11.6843C47.5736 11.1415 47.9355 10.7796 46.9791 10.6245C46.5655 10.5728 46.307 10.1076 45.8159 8.73764C45.4799 7.72958 45.0922 6.69567 44.9371 6.41134C44.782 6.12701 44.4719 5.29988 44.2134 4.5503C43.9032 3.61978 43.6706 3.25791 43.4638 3.38715Z" fill="#214856"/>
<path d="M31.5224 8.73763C30.2558 9.30628 28.1363 10.7279 28.1363 11.0122C28.1363 11.1415 28.4206 11.1673 28.7825 11.0898C29.2478 10.9605 29.4287 11.0381 29.4287 11.3224C29.4287 11.5292 29.5321 11.7101 29.6355 11.7101C29.7647 11.7101 30.4884 12.925 31.2639 14.4241C32.7372 17.3191 32.7631 17.6293 31.2897 17.6551C30.6694 17.6551 27.0765 16.2335 26.8439 15.8716C26.6371 15.5614 22.9926 14.1915 22.8117 14.3724C22.6307 14.5534 23.6905 19.4386 24.0007 19.8522C24.104 19.9814 24.3367 20.731 24.5176 21.4806C24.7502 22.5404 24.7502 22.9281 24.5176 23.2124C23.768 24.1171 24.5176 24.0395 25.8875 23.0573C27.4126 21.9717 27.5935 21.3772 26.3011 21.6615C25.474 21.8425 25.2413 21.5064 24.9053 19.6712C24.7502 18.9217 24.8278 18.7407 25.4998 18.2496L26.2753 17.681L27.8778 18.4822C29.0151 19.0509 29.4028 19.3352 29.1961 19.542C29.041 19.6971 28.9117 19.9297 28.9117 20.0331C28.9117 20.4984 29.6355 20.1624 30.7986 19.1801C31.4707 18.5856 32.944 17.681 34.0296 17.1382C36.6144 15.8716 37.3123 15.122 37.3123 13.597C37.3123 12.2271 36.5885 11.4516 35.2703 11.4516C34.4949 11.4516 34.469 11.4258 34.5466 10.4694C34.5982 9.95248 34.469 9.30628 34.2881 9.07365C33.8228 8.42746 32.5563 8.27237 31.5224 8.73763ZM32.5304 10.03C32.8664 10.3919 33.0215 10.6762 32.8923 10.6762C32.7631 10.6762 32.8148 10.7796 33.0215 10.9088C33.28 11.0898 33.3059 11.2449 33.0474 11.6843C32.8923 11.9945 32.6338 12.2271 32.4787 12.1754C32.0135 12.0203 31.1346 10.2626 31.3156 9.82324C31.5482 9.22874 31.8067 9.28043 32.5304 10.03ZM34.4949 12.6923C35.0118 13.0542 35.6322 14.1657 35.6322 14.7085C35.6322 15.0186 35.3478 15.4581 35.0118 15.6648C34.4173 16.0526 34.3915 16.0526 33.9521 15.0445C33.6936 14.5017 33.4093 14.0364 33.3059 14.0364C33.1766 14.0364 33.0215 13.8296 32.944 13.597C32.6597 12.8733 33.797 12.2012 34.4949 12.6923ZM25.0604 17.1382C25.4223 17.1382 25.3447 17.5776 24.957 17.7327C24.7761 17.8102 24.4659 17.6293 24.285 17.3449C24.0007 16.8797 24.0007 16.828 24.3884 16.9831C24.621 17.0606 24.9312 17.1382 25.0604 17.1382Z" fill="#214856"/>
<path d="M17.8481 19.0251C16.168 20.5501 14.1777 22.6179 14.1777 22.8247C14.1777 23.1607 14.5138 23.1607 14.8756 22.7988C15.2633 22.4111 15.5735 22.6179 18.1583 25.0734C20.1227 26.9345 20.3812 27.2705 20.2261 27.865C19.9935 28.8472 20.3812 28.6663 21.9321 27.0896C23.2503 25.7455 23.5346 24.9442 22.4232 25.6162C21.8287 25.9781 21.5444 25.8489 20.5104 24.6599L19.9418 24.0395L20.6914 23.3158C21.26 22.7988 21.441 22.3594 21.4927 21.5323C21.5185 20.6276 21.3893 20.3433 20.588 19.5679C19.6058 18.6373 18.4943 18.4306 17.8481 19.0251ZM19.399 21.1963C20.2003 21.9459 20.3295 22.8505 19.735 23.3416C19.4248 23.6001 19.1405 23.4192 18.0291 22.3336C17.3053 21.6098 16.7884 20.9119 16.8918 20.7569C17.2019 20.2399 18.6494 20.4725 19.399 21.1963Z" fill="#214856"/>
<path d="M12.5241 24.815C12.3173 25.2285 11.852 25.8747 11.4902 26.3141C11.1283 26.7277 10.8181 27.1671 10.8181 27.2705C10.8181 27.6065 11.5418 27.5031 11.6711 27.1413C11.8003 26.7794 13.377 27.5031 14.0491 28.2527C14.411 28.6404 14.3593 28.7955 13.5321 29.9587C13.041 30.6566 12.6016 31.3286 12.5499 31.4837C12.4982 31.6129 12.2397 31.5354 12.0071 31.2769C11.7486 31.0184 11.2058 30.6566 10.7923 30.4239C10.1719 30.1138 10.0685 29.9328 10.1978 29.4159C10.2753 29.054 10.2495 28.7697 10.1202 28.7697C9.88759 28.7697 8.05239 31.1218 7.79392 31.7422C7.63883 32.1816 8.25918 32.2591 8.64689 31.8714C8.90537 31.6129 12.4207 33.5515 13.0152 34.2753C13.1703 34.4562 13.5838 34.7922 13.9715 35.0248C14.4626 35.335 14.6177 35.6193 14.5143 36.0071C14.3851 36.524 14.6177 36.6791 15.083 36.3172C15.4707 36.0329 17.0216 33.6032 17.0216 33.2672C17.0216 33.2155 16.8406 33.1638 16.6339 33.1638C16.4271 33.1638 16.2461 33.2672 16.2461 33.4223C16.2461 33.8875 15.6 33.7066 14.3593 32.9053L13.1186 32.1299L14.0749 30.6566C14.5919 29.8294 15.0571 29.1315 15.083 29.0798C15.1347 29.0282 15.8067 29.4159 16.608 29.9328C17.9263 30.76 18.0296 30.8892 17.6678 31.2511C17.2801 31.6388 17.3576 32.1299 17.797 32.1299C18.1072 32.1299 20.175 28.9765 19.9941 28.7955C19.9165 28.718 19.6322 28.7955 19.3737 28.9506C18.9085 29.2608 18.3657 29.054 17.4093 28.201C17.125 27.9425 16.0911 27.2447 15.083 26.6243C13.5063 25.6421 13.2736 25.4353 13.3512 24.815C13.4546 23.9103 12.9893 23.9103 12.5241 24.815Z" fill="#214856"/>
<path d="M1.64184 47.9487C1.38336 49.0602 0.73717 52.6789 0.73717 52.9891C0.73717 53.506 1.20243 53.3768 1.38336 52.8081C1.5126 52.3946 1.69354 52.3429 2.36558 52.4721C2.83084 52.5497 3.32195 52.7047 3.45119 52.8081C3.60628 52.9115 4.58849 53.1442 5.64825 53.3251C8.80168 53.8162 8.62075 53.6353 8.0521 55.7031C7.92286 56.1942 6.8114 56.3493 6.55292 55.9099C6.47538 55.7548 5.20884 55.6514 3.68382 55.6514C1.17658 55.6514 0.995648 55.6255 0.995648 55.1344C0.995648 54.8501 0.814713 54.6175 0.607931 54.6175C0.297757 54.6175 0.220214 55.031 0.220214 56.6853C0.220214 58.6239 0.504539 59.3993 0.814713 58.2362C0.918104 57.7968 1.17658 57.7192 2.39143 57.7192H3.83891V59.5286V61.3379H2.28804C0.918104 61.3379 0.73717 61.2862 0.73717 60.8209C0.73717 60.5366 0.633778 60.304 0.478692 60.304C0.349453 60.304 0.220214 60.8209 0.220214 61.4413C0.220214 62.0616 0.14267 62.9405 0.0651269 63.3799C-0.0641121 64.0002 -0.0124165 64.1812 0.323605 64.1812C0.556235 64.1812 0.73717 64.0002 0.73717 63.7934C0.73717 63.4574 1.30582 63.4057 4.25247 63.4057C7.53514 63.4057 7.76777 63.4316 7.89701 63.9227C8.20718 65.06 8.49151 64.3362 8.49151 62.5011C8.49151 61.3896 8.38812 60.5625 8.23303 60.5625C8.10379 60.5625 7.97455 60.7434 7.97455 60.9502C7.97455 61.2604 7.61268 61.3379 6.29445 61.3379H4.61434V59.5286V57.7192H6.19106C7.53514 57.7192 7.79362 57.7968 7.89701 58.2362C7.97455 58.5205 8.20718 58.7531 8.38812 58.7531C8.67244 58.7531 8.74999 58.262 8.74999 56.6853C8.74999 55.548 8.85338 54.6175 8.98262 54.6175C9.11186 54.6175 9.39618 53.5319 9.62881 52.2136C10.3009 48.3623 10.3526 48.6466 8.95677 48.2589C7.61268 47.9229 7.4059 48.1038 8.23303 48.931C8.67244 49.3704 8.82753 50.12 8.74999 51.4382C8.72414 51.6708 7.19912 51.6191 6.24275 51.3865C5.90673 51.309 5.64825 51.0763 5.64825 50.8437C5.64825 50.2751 6.42369 49.1894 6.83725 49.1894C7.61268 49.1894 7.14742 48.7242 6.24275 48.5691C5.69995 48.4657 5.05375 48.3365 4.82112 48.2589C4.51095 48.1555 4.35586 48.2589 4.35586 48.5174C4.35586 48.75 4.4851 48.931 4.61434 48.931C4.76943 48.931 4.87282 49.3962 4.87282 49.9649C4.87282 51.1022 4.79527 51.128 3.01178 50.8437C2.18465 50.6886 2.02956 50.5594 2.02956 50.0424C2.02956 49.3445 3.08932 48.1555 3.70967 48.1555C4.40756 48.1555 4.12323 47.7161 3.2961 47.5352C2.00371 47.2767 1.79693 47.3542 1.64184 47.9487Z" fill="#214856"/>
<path d="M7.97533 65.3185C7.97533 65.8871 7.76855 65.9647 4.56342 66.6109C1.09982 67.2829 0.996428 67.2829 0.660407 66.3782C0.376081 65.6803 0.220994 66.585 0.401929 67.6965L0.608711 68.9372L3.52951 69.5834L6.45031 70.2296L5.33886 71.2376C4.74436 71.7804 3.6329 72.6334 2.88332 73.1245C1.46169 74.0809 1.33245 74.3394 1.66847 76.0453C1.82356 76.8466 2.28882 77.1826 2.28882 76.4847C2.28882 75.8127 3.0384 75.5284 5.57149 75.1665C8.82831 74.7012 9.13848 74.7012 9.65544 75.1923C10.2499 75.7868 10.3275 75.5542 10.1465 73.8999C10.0173 72.9436 9.86222 72.4525 9.62959 72.4525C9.42281 72.4525 9.26772 72.6851 9.26772 72.9436C9.26772 73.5381 8.85416 73.719 6.88973 73.9258C6.0626 74.0033 5.39055 74.1843 5.39055 74.2877C5.39055 74.4169 5.15792 74.5203 4.84775 74.5203C4.35664 74.5203 4.38249 74.4686 5.05453 73.9258C5.44225 73.5898 6.37277 72.9177 7.07066 72.4525C8.72492 71.341 9.65544 70.3588 9.29357 70.152C9.13848 70.0486 7.94949 69.7643 6.68294 69.48C5.39055 69.2215 4.2791 68.9372 4.2274 68.8338C4.14986 68.7045 4.66682 68.5494 5.39055 68.4461C6.08844 68.3427 6.73464 68.1617 6.83803 68.0325C7.09651 67.5931 8.02703 67.7999 8.49229 68.3685C8.9317 68.9113 8.9834 68.9372 9.16433 68.4978C9.24187 68.2393 9.21603 67.774 9.06094 67.4638C8.90585 67.1537 8.69907 66.4041 8.62153 65.7837C8.44059 64.6206 7.97533 64.2846 7.97533 65.3185Z" fill="#214856"/>
<path d="M19.6064 112.192C19.6064 115.4 17.0061 118 13.7983 118C10.5906 118 7.99023 115.4 7.99023 112.192C7.99023 108.984 10.5906 106.384 13.7983 106.384C17.0061 106.384 19.6064 108.984 19.6064 112.192Z" stroke="#214856" stroke-width="4"/>
<path d="M30.142 94.7032L19.0254 106.879" stroke="#214856" stroke-width="6"/>
</svg>
