<svg width="133" height="121" viewBox="0 0 133 121" fill="none" xmlns="http://www.w3.org/2000/svg">
<path d="M103.657 61.8731C103.657 85.4588 84.5372 104.579 60.9515 104.579C37.3658 104.579 18.2458 85.4588 18.2458 61.8731C18.2458 38.2874 37.3658 19.1675 60.9515 19.1675C84.5372 19.1675 103.657 38.2874 103.657 61.8731Z" fill="#008100" stroke="#008100" stroke-width="4"/>
<path d="M80.09 26.6495C77.04 29.4411 73.3696 31.1987 69.1305 31.9224C67.8381 32.1551 66.7008 32.4652 66.5716 32.6203C66.1839 33.2665 65.6152 35.5153 65.6152 36.5492C65.6152 38.0742 66.2873 40.0904 67.0627 40.9433C67.7089 41.6412 67.7606 41.6412 70.2161 41.5378C72.8526 41.4344 73.6539 41.1243 75.7476 39.47C76.4455 38.9272 76.4455 38.9272 77.5569 39.4183C79.0044 40.0645 81.1498 42.2099 81.8735 43.7349C82.3388 44.6913 82.4938 45.4667 82.5197 46.9659L82.5455 48.9561L83.8379 49.6023C84.9752 50.171 85.4663 50.2485 87.8443 50.2485C90.455 50.2485 90.6101 50.2227 92.1092 49.3697C94.2546 48.1549 95.5987 47.0434 97.1237 45.1048L98.4419 43.4506L97.1754 41.2535C94.0995 35.8772 89.2918 30.7076 84.3032 27.3732C82.8299 26.3652 81.5375 25.5639 81.4341 25.5639C81.3307 25.5897 80.7362 26.055 80.09 26.6495Z" fill="#15EC15"/>
<path d="M40.0258 34.5076C34.7787 38.4623 31.9613 39.6772 27.3087 39.9615L25.0599 40.1166L24.026 42.1069C20.3556 49.1116 18.9081 55.496 19.1666 63.1728C19.3992 69.6348 20.5624 74.4942 23.1989 79.9739C24.9565 83.6184 24.8531 83.5151 26.5849 83.0498C27.3604 82.843 29.0663 82.6362 30.3329 82.6362C32.4265 82.5845 33.0727 82.7138 36.7173 83.8252L40.7754 85.0659L41.5508 84.5231C43.8771 82.8689 46.2292 79.0434 46.436 76.6395L46.5394 75.2696L45.2987 74.2615C44.6008 73.7187 43.3601 72.6073 42.533 71.7801C41.1372 70.4361 41.0338 70.2551 41.1114 69.3246C41.1889 68.4199 41.344 68.239 42.9983 67.1275C45.9966 65.0856 48.0127 62.5783 48.4263 60.3296C48.5814 59.6058 48.478 59.5024 47.0047 58.7012C45.247 57.7448 44.058 56.3232 43.6186 54.6689C43.3343 53.6608 43.4118 50.2489 43.722 49.9646C43.7996 49.8871 44.3424 49.7061 44.9627 49.5769C48.142 48.8532 51.5022 46.1133 53.1823 42.8565L54.087 41.1505L53.6217 39.9357C52.6912 37.5318 48.9174 34.1716 45.7123 32.9051C43.2826 31.9487 43.5152 31.8712 40.0258 34.5076Z" fill="#15EC15"/>
<path d="M73.4212 79.6895C71.922 81.7832 71.5085 82.9981 71.586 85.221C71.6635 87.8833 71.5343 88.2193 69.9317 88.9947C66.83 90.5198 63.9867 90.4422 61.5054 88.788L60.2647 87.935L58.8947 88.8655C55.457 91.1401 54.1129 95.4825 55.3536 100.264C56.1807 103.444 56.0515 103.289 58.5587 103.495C63.0562 103.883 69.544 103.004 74.1708 101.402C77.2208 100.342 80.4518 98.9203 80.7103 98.5067C80.7878 98.3516 80.6844 97.4211 80.4776 96.3872C79.6764 92.6393 80.1416 88.3486 81.7442 84.2904L82.3904 82.6879L81.5374 81.5764C80.4518 80.1548 77.9446 78.8624 75.825 78.6556L74.2742 78.5005L73.4212 79.6895Z" fill="#15EC15"/>
<path fill-rule="evenodd" clip-rule="evenodd" d="M6.37027 40.6445C5.58973 40.9246 5.22392 41.7631 5.54961 42.5257C5.88042 43.3003 6.79728 43.7003 7.59008 43.4159L11.2515 42.1023L9.72371 38.525C9.3929 37.7505 8.47605 37.3505 7.68324 37.6349C6.9027 37.9149 6.5369 38.7534 6.86259 39.516L7.09762 40.0664C7.12813 40.1378 7.12781 40.2186 7.09676 40.2898C7.0657 40.361 7.00665 40.4162 6.93355 40.4425L6.37027 40.6445ZM5.03106 42.7471C4.57791 41.6861 5.09386 40.5034 6.17987 40.1138L6.46158 40.0127L6.34403 39.7375C5.89088 38.6764 6.40684 37.4937 7.49284 37.1041C8.56658 36.7189 9.79423 37.2545 10.2423 38.3036L11.8875 42.156C11.918 42.2274 11.9177 42.3083 11.8867 42.3794C11.8556 42.4506 11.7965 42.5059 11.7234 42.5321L7.78048 43.9466C6.70675 44.3318 5.47909 43.7962 5.03106 42.7471Z" fill="#15EC15"/>
<path d="M5.54961 42.5257C5.22392 41.7631 5.58973 40.9246 6.37027 40.6445L6.93355 40.4425C7.00665 40.4162 7.0657 40.361 7.09676 40.2898C7.12781 40.2186 7.12813 40.1378 7.09762 40.0664L6.86259 39.516C6.5369 38.7534 6.9027 37.9149 7.68324 37.6349C8.47605 37.3505 9.3929 37.7505 9.72371 38.525L11.2515 42.1023L7.59008 43.4159C6.79728 43.7003 5.88042 43.3003 5.54961 42.5257Z" fill="#15EC15"/>
<path d="M57.4731 20.4205C52.9239 20.7565 48.0645 21.868 44.9369 23.2896C41.7576 24.7112 39.0436 26.1587 38.3715 26.7791C38.0097 27.1151 37.6995 27.3219 37.6995 27.2443C37.6995 27.1409 36.9758 27.5803 36.0969 28.2007C33.8223 29.7774 27.0761 36.4978 27.4379 36.8338C27.6964 37.0923 31.7287 36.1101 33.2537 35.3864C34.7787 34.6885 36.9241 33.2151 37.1309 32.7499C37.1826 32.6207 37.3376 32.5431 37.4927 32.5431C37.6478 32.5431 38.5266 31.9745 39.483 31.2766C42.197 29.2604 42.8691 29.0278 44.6267 29.4155C45.428 29.5965 46.2293 29.7515 46.3844 29.8032C46.5395 29.8291 47.6509 30.4236 48.8399 31.0956C51.8899 32.8533 55.4828 36.4978 56.2841 38.6173C57.4472 41.6932 56.5684 44.278 52.9756 48.1552C51.2954 49.9645 47.9094 52.1874 46.8496 52.1874C46.5395 52.1874 46.4619 52.3684 46.5395 52.8853C46.7204 53.8675 46.8496 54.3587 47.0047 54.5137C47.0823 54.5913 47.2632 54.8756 47.4183 55.1599C47.5734 55.4443 48.142 55.9095 48.7107 56.1938C49.2535 56.4782 49.7704 56.7883 49.7963 56.8917C49.848 57.021 50.0289 57.0985 50.2098 57.0985C50.5976 57.0985 51.6573 58.9337 51.6573 59.6058C51.6573 59.8901 51.4247 60.7948 51.1145 61.6477C50.8302 62.4749 50.5459 63.3795 50.4942 63.638C50.4425 63.8706 50.2098 64.2584 50.0031 64.491C49.7704 64.6978 49.5895 64.9562 49.5895 65.0596C49.5895 65.3957 46.8755 68.0838 45.7899 68.8334C45.1695 69.247 44.6784 69.6605 44.6784 69.7639C44.6784 69.8673 45.5572 70.6428 46.617 71.444C49.0725 73.3309 49.7187 74.5199 49.5378 76.8204C49.2535 80.3098 46.0483 85.1692 42.6364 87.3663C41.9902 87.7799 41.2148 88.1159 40.9305 88.1159C40.6203 88.1159 38.966 87.6765 37.2859 87.1078C33.202 85.7896 31.0825 85.4277 28.8079 85.7637C27.8515 85.893 26.9727 86.0739 26.921 86.1514C26.8434 86.229 27.0761 86.6684 27.4121 87.1337C28.4977 88.5553 33.1244 93.3371 33.8482 93.7765C34.2101 94.0092 34.9079 94.5261 35.3991 94.9138C36.9241 96.1804 40.6203 98.4808 42.3521 99.308C45.5831 100.781 51.6573 102.849 52.8463 102.849C52.898 102.849 52.7688 102.41 52.562 101.893C51.6573 99.5406 51.5281 94.9397 52.3294 92.6134C52.7429 91.3727 54.5006 88.5811 55.276 87.9091C56.7235 86.6684 59.36 84.9883 60.0837 84.8591C61.2727 84.6523 62.1774 84.9107 62.3841 85.5311C62.7977 86.7976 65.9253 87.4955 67.7863 86.7201C68.5359 86.4099 68.6135 86.2807 68.5101 85.5569C68.1999 83.3857 69.6474 79.3793 71.586 77.0789L72.7233 75.7348H75.0496C77.9445 75.7089 78.9784 75.9933 81.2789 77.4149C82.9848 78.4746 83.5018 79.0175 85.0527 81.3696C85.6989 82.326 85.6213 83.2306 84.7425 84.9624C83.631 87.1595 83.1916 89.3566 83.2175 92.6392C83.2433 94.1901 83.3209 95.8185 83.4243 96.2321L83.5793 96.9817L85.2594 95.6893C87.9735 93.6215 88.3612 93.2854 90.9977 90.5973C92.3934 89.1756 93.5307 87.8832 93.5307 87.6765C93.5307 87.4955 93.6341 87.3404 93.7375 87.3404C94.1511 87.3404 96.2964 84.0836 97.8473 81.137C99.8118 77.4407 101.621 71.9093 102.216 67.9029C102.758 64.1033 102.603 57.021 101.854 53.7383C101.208 50.9209 99.9151 46.7594 99.6825 46.7594C99.5791 46.7594 99.1139 47.2505 98.6486 47.8709C97.6922 49.1632 95.1591 51.2311 93.3498 52.2133C89.8862 54.1002 83.7861 53.6866 80.7619 51.3603C79.1077 50.0938 79.0818 50.0421 79.1852 47.6124C79.3145 45.1827 78.8233 43.7094 77.686 43.089C76.8848 42.6496 76.7555 42.6496 75.3856 43.3216C72.7233 44.614 69.1563 44.9759 66.4681 44.2005C65.8736 44.0195 63.8316 42.3653 64.1935 42.3653C64.2452 42.3653 63.9867 41.6932 63.599 40.8661C62.2549 37.9453 62.6168 33.0859 64.4003 30.4494C64.8914 29.7257 65.2016 29.5448 66.2613 29.3638C70.216 28.7176 71.586 28.4075 72.9042 27.7871C75.3597 26.6498 78.0221 24.7629 78.0221 24.1426C78.0221 23.7032 75.0496 22.4883 71.9478 21.687C67.4762 20.5497 62.0223 20.0586 57.4731 20.4205Z" fill="#6BC1EC"/>
<path d="M106.558 9.92608C100.019 17.0859 96.0638 21.3767 93.5049 24.1424C92.6777 24.9953 91.5921 26.2102 91.0493 26.8305L90.0413 27.942L91.0752 28.8208C91.6438 29.3119 92.2642 29.6738 92.4193 29.648C92.7036 29.5704 103.327 18.0681 113.925 6.35909L116.664 3.3349C116.664 3.3349 117.784 2.87015 120.309 2.87015C122.834 2.87015 123.954 3.46413 123.954 3.46413C128.652 7.86856 125.274 11.1165 119.637 11.296C115.837 11.3994 115.062 11.5803 113.64 12.7176C111.648 14.2672 111.653 18.5988 113.537 20.2135C114.933 21.3767 115.553 21.5576 119.146 21.6868C121.912 21.7902 122.79 21.9195 123.359 22.2813C124.522 23.0568 125.065 24.2199 125.065 25.9C125.065 27.27 124.962 27.5284 124.109 28.614C122.325 30.8227 120.901 32.9159 120.361 35.8256C119.818 38.7981 121.162 42.9854 123.462 45.4668L124.522 46.6041L123.488 47.6122C122.196 48.8787 121.963 49.344 121.963 50.533C121.963 52.73 123.023 54.772 124.186 54.772C124.651 54.772 124.91 54.4877 125.375 53.4796C125.711 52.7559 126.021 52.1872 126.099 52.1872C126.176 52.1872 126.487 52.7559 126.823 53.4796C127.469 54.9012 128.218 55.1856 129.02 54.3067C130.002 53.2211 130.571 50.1969 129.976 49.0855C129.847 48.827 129.252 48.155 128.71 47.6122L127.676 46.6041L128.71 45.5185C130.519 43.5541 132.044 39.8578 132.044 37.4798C132.044 36.8336 131.889 35.6963 131.682 34.9984C130.98 32.41 129.722 30.7905 128.193 28.795C127.236 27.4767 127.133 27.2183 127.133 25.7966C127.133 23.2894 126.202 21.661 124.16 20.5754C123.307 20.136 122.506 20.0067 119.637 19.8775C116.639 19.7741 116.07 19.6707 115.553 19.2313C114.197 18.0938 113.22 14.361 115.76 13.7516C117.062 13.3965 118.164 13.1571 119.715 13.1571C123.385 13.1312 124.393 12.8986 126.099 11.7354C128.735 9.90023 128.82 4.56411 126.287 2.44459C123.68 0.263172 119.637 -0.0698814 116.277 1.00859C113.103 2.02714 108.293 8.01962 106.558 9.92608ZM129.821 35.8773C129.743 35.9548 128.063 36.0324 126.099 36.0324C124.135 36.0324 122.454 35.9548 122.377 35.8773C121.47 34.9707 125.335 29.4412 126.099 29.4412C127.415 29.4412 130.468 35.2305 129.821 35.8773ZM126.099 38.0743C127.727 38.0743 129.33 37.9968 129.614 37.8675C130.105 37.6866 130.157 37.7383 130.054 38.4104C129.75 40.3429 128.109 44.1786 126.332 45.3634C124.883 46.1535 122.305 39.1758 122.118 38.2811C122.015 37.7383 122.067 37.6866 122.558 37.8675C122.868 37.9968 124.471 38.0743 126.099 38.0743ZM127.262 48.8529C128.063 49.5508 128.167 49.8092 128.167 50.869V52.058L127.443 50.7656C126.9 49.7575 126.616 49.4732 126.099 49.4732C125.582 49.4732 125.298 49.7575 124.755 50.7656L124.031 52.058V50.869C124.031 49.8092 124.135 49.5508 124.936 48.8529C125.453 48.4135 125.97 48.0516 126.099 48.0516C126.228 48.0516 126.745 48.4135 127.262 48.8529Z" fill="white"/>
<path d="M124.91 33.1632C124.548 34.0937 124.91 34.4814 126.099 34.4814C127.21 34.4814 127.262 34.4556 127.262 33.706C127.262 32.9823 127.185 32.9306 126.151 32.853C125.375 32.8013 125.013 32.8789 124.91 33.1632Z" fill="white"/>
<path d="M59.9287 1.75807C58.7914 2.11994 57.7575 2.74028 57.0855 3.43817C56.5944 3.98098 56.4393 4.47209 56.3617 5.76448C56.2583 7.34119 56.2842 7.44458 57.2147 8.45265C57.7317 9.04715 58.5588 9.64165 59.0757 9.82258C60.1355 10.1586 63.4182 10.0294 63.8317 9.6158C63.9868 9.46071 64.1678 8.86621 64.2453 8.27171C64.4262 7.00517 64.0127 6.85008 63.4182 7.98739C62.5394 9.66749 60.4974 9.92597 59.3084 8.47849C58.016 6.95347 58.2486 3.38648 59.6702 2.61104C60.9368 1.96485 62.7978 2.66274 63.3148 4.03267C63.444 4.36869 63.6508 4.62717 63.8059 4.62717C64.1936 4.62717 64.1161 2.40426 63.7284 2.09409C63.2631 1.70637 60.73 1.49959 59.9287 1.75807Z" fill="white"/>
<path d="M53.6734 1.93941C53.4149 2.19789 47.7025 2.99917 47.1856 2.86994C46.7203 2.7407 46.6945 2.81824 46.8237 3.59367C46.9271 4.05893 47.0046 4.75682 47.0046 5.17039C47.0046 6.12676 47.3924 6.12676 47.7284 5.19624C48.0386 4.31741 49.0208 3.2835 49.4085 3.41274C49.5636 3.46443 49.9254 5.04115 50.1839 6.95389C50.6492 10.1332 50.6492 10.4175 50.2615 10.7018C49.3051 11.4256 49.7187 11.4514 52.8979 10.9086C53.7768 10.7535 54.0611 10.0556 53.234 10.0556C52.8204 10.0556 52.6912 9.66791 52.3293 7.13482C52.0967 5.55811 51.8382 3.98139 51.7606 3.64537C51.6572 3.15426 51.7606 3.07672 52.4068 3.07672C53.0013 3.07672 53.2857 3.2835 53.6992 3.98139C54.423 5.19624 54.8624 5.17039 54.6556 3.90385C54.578 3.38689 54.5005 2.689 54.5005 2.35298C54.5005 1.83602 54.0094 1.57755 53.6734 1.93941Z" fill="white"/>
<path d="M67.8122 2.86958C67.0885 3.28314 66.9075 3.59332 66.9075 4.54969C66.9075 5.06664 67.1143 5.5836 67.4503 5.89377L67.9931 6.38488L66.494 7.9616C65.6927 8.84042 64.8655 9.53831 64.6588 9.53831C64.452 9.53831 64.3227 9.71925 64.3744 9.97773C64.5037 10.6756 66.8041 10.779 67.0109 10.1328C67.166 9.6934 69.7766 6.87599 69.9059 7.03108C69.9834 7.10862 69.4923 10.107 69.3631 10.3396C69.2855 10.443 69.0012 10.4688 68.7169 10.3913C68.2258 10.2621 67.9931 10.6756 68.4067 10.9341C68.5101 10.9858 69.4406 11.1409 70.4745 11.2184C71.7928 11.3735 72.3356 11.3218 72.3356 11.115C72.3356 10.9599 72.0771 10.8307 71.7928 10.8307C71.2758 10.8307 71.2499 10.7532 71.405 9.59001C71.5084 8.91797 71.6635 7.75481 71.7411 7.00523C71.8186 6.28149 71.9995 5.66114 72.1029 5.66114C72.2322 5.66114 72.3356 5.19588 72.3356 4.62723C72.3356 3.77425 72.4131 3.59332 72.8525 3.59332C73.1368 3.59332 73.3695 3.43823 73.3695 3.23145C73.3695 2.63695 68.7686 2.32678 67.8122 2.86958ZM70.3194 3.38654C70.4487 3.77425 70.1385 5.86793 69.9317 6.10056C69.8283 6.1781 69.5181 6.04886 69.2338 5.79038C68.6652 5.27343 68.5359 3.87764 69.027 3.38654C69.4148 2.99882 70.1902 2.99882 70.3194 3.38654Z" fill="white"/>
<path d="M43.4635 3.80016C43.2826 3.90355 42.9724 4.5239 42.7398 5.14424C42.533 5.79044 42.2745 6.48833 42.1712 6.69511C42.0936 6.90189 41.9902 7.13452 41.9644 7.21207C41.9385 7.28961 41.8351 7.54809 41.7317 7.80657C41.6025 8.0392 41.3182 8.91802 41.0597 9.7193C40.8271 10.5206 40.5686 11.0634 40.4911 10.9341C40.4135 10.8049 40.0775 9.87439 39.7673 8.89217C39.4571 7.88411 39.0694 6.92774 38.9143 6.74681C38.7076 6.48833 38.7851 6.38494 39.1987 6.2557C39.5088 6.17815 39.7673 5.94552 39.7673 5.73874C39.7673 5.48026 39.6122 5.40272 39.3796 5.50611C39.147 5.58365 38.3198 5.84213 37.4927 6.07476C35.7868 6.56587 35.399 6.82435 35.8384 7.26376C36.0452 7.47054 36.2262 7.47054 36.4846 7.23791C36.7948 7.00528 36.9758 7.21207 37.4927 8.55615C37.8546 9.46082 38.294 10.7274 38.4749 11.3994C38.6559 12.0973 38.8885 12.6401 38.9919 12.6401C39.0953 12.6401 39.2762 13.0537 39.3537 13.5706C39.6381 15.0698 40.2326 14.5787 41.0856 12.1231C41.4991 10.9083 42.0678 9.46082 42.3521 8.86632C42.6364 8.29767 42.869 7.59978 42.869 7.31546C42.8949 6.74681 44.3941 11.0117 44.4199 11.6579C44.4199 11.9164 44.239 12.1231 44.0322 12.1231C43.8254 12.1231 43.6445 12.2265 43.6445 12.3816C43.6445 12.7693 44.1356 12.6918 45.9191 12.0973C47.5733 11.5545 47.9352 11.1926 46.9788 11.0375C46.5653 10.9858 46.3068 10.5206 45.8157 9.15065C45.4797 8.14259 45.092 7.10868 44.9369 6.82435C44.7818 6.54002 44.4716 5.71289 44.2131 4.96331C43.903 4.03279 43.6703 3.67092 43.4635 3.80016Z" fill="white"/>
<path d="M31.5219 9.15081C30.2553 9.71946 28.1358 11.1411 28.1358 11.4254C28.1358 11.5547 28.4201 11.5805 28.782 11.503C29.2473 11.3737 29.4282 11.4513 29.4282 11.7356C29.4282 11.9424 29.5316 12.1233 29.635 12.1233C29.7642 12.1233 30.488 13.3382 31.2634 14.8373C32.7367 17.7323 32.7626 18.0424 31.2892 18.0683C30.6689 18.0683 27.0761 16.6467 26.8434 16.2848C26.6366 15.9746 22.9921 14.6047 22.8112 14.7856C22.6302 14.9666 23.69 19.8518 24.0002 20.2654C24.1036 20.3946 24.3362 21.1442 24.5171 21.8938C24.7498 22.9535 24.7498 23.3412 24.5171 23.6256C23.7675 24.5302 24.5171 24.4527 25.8871 23.4705C27.4121 22.3849 27.593 21.7904 26.3006 22.0747C25.4735 22.2556 25.2409 21.9196 24.9048 20.0844C24.7498 19.3348 24.8273 19.1539 25.4993 18.6628L26.2748 18.0941L27.8773 18.8954C29.0146 19.4641 29.4024 19.7484 29.1956 19.9552C29.0405 20.1103 28.9112 20.3429 28.9112 20.4463C28.9112 20.9116 29.635 20.5755 30.7981 19.5933C31.4702 18.9988 32.9435 18.0941 34.0291 17.5513C36.6139 16.2848 37.3118 15.5352 37.3118 14.0102C37.3118 12.6403 36.588 11.8648 35.2698 11.8648C34.4944 11.8648 34.4685 11.839 34.5461 10.8826C34.5978 10.3657 34.4685 9.71946 34.2876 9.48683C33.8223 8.84063 32.5558 8.68555 31.5219 9.15081ZM32.5299 10.4432C32.866 10.8051 33.021 11.0894 32.8918 11.0894C32.7626 11.0894 32.8143 11.1928 33.021 11.322C33.2795 11.503 33.3054 11.658 33.0469 12.0975C32.8918 12.4076 32.6333 12.6403 32.4782 12.5886C32.013 12.4335 31.1342 10.6758 31.3151 10.2364C31.5477 9.64192 31.8062 9.69361 32.5299 10.4432ZM34.4944 13.1055C35.0113 13.4674 35.6317 14.5788 35.6317 15.1216C35.6317 15.4318 35.3473 15.8712 35.0113 16.078C34.4168 16.4657 34.391 16.4657 33.9516 15.4577C33.6931 14.9149 33.4088 14.4496 33.3054 14.4496C33.1761 14.4496 33.021 14.2428 32.9435 14.0102C32.6592 13.2865 33.7965 12.6144 34.4944 13.1055ZM25.0599 17.5513C25.4218 17.5513 25.3442 17.9908 24.9565 18.1458C24.7756 18.2234 24.4654 18.0424 24.2845 17.7581C24.0002 17.2929 24.0002 17.2412 24.3879 17.3963C24.6205 17.4738 24.9307 17.5513 25.0599 17.5513Z" fill="white"/>
<path d="M17.8484 19.4383C16.1683 20.9633 14.178 23.0311 14.178 23.2379C14.178 23.5739 14.514 23.5739 14.8759 23.212C15.2636 22.8243 15.5738 23.0311 18.1585 25.4866C20.123 27.3477 20.3815 27.6837 20.2264 28.2782C19.9937 29.2604 20.3815 29.0795 21.9323 27.5028C23.2506 26.1587 23.5349 25.3574 22.4234 26.0294C21.8289 26.3913 21.5446 26.2621 20.5107 25.0731L19.942 24.4527L20.6916 23.729C21.2603 23.212 21.4412 22.7726 21.4929 21.9455C21.5188 21.0408 21.3895 20.7565 20.5882 19.9811C19.606 19.0505 18.4946 18.8438 17.8484 19.4383ZM19.3992 21.6095C20.2005 22.3591 20.3298 23.2637 19.7353 23.7548C19.4251 24.0133 19.1408 23.8324 18.0293 22.7468C17.3056 22.023 16.7886 21.3251 16.892 21.1701C17.2022 20.6531 18.6496 20.8857 19.3992 21.6095Z" fill="white"/>
<path d="M12.5238 25.2282C12.317 25.6418 11.8518 26.288 11.4899 26.7274C11.128 27.141 10.8179 27.5804 10.8179 27.6838C10.8179 28.0198 11.5416 27.9164 11.6708 27.5545C11.8001 27.1927 13.3768 27.9164 14.0488 28.666C14.4107 29.0537 14.359 29.2088 13.5319 30.372C13.0408 31.0698 12.6014 31.7419 12.5497 31.897C12.498 32.0262 12.2395 31.9487 12.0069 31.6902C11.7484 31.4317 11.2056 31.0698 10.792 30.8372C10.1717 30.527 10.0683 30.3461 10.1975 29.8292C10.2751 29.4673 10.2492 29.183 10.12 29.183C9.88734 29.183 8.05215 31.5351 7.79367 32.1555C7.63858 32.5949 8.25893 32.6724 8.64665 32.2847C8.90513 32.0262 12.4204 33.9648 13.0149 34.6885C13.17 34.8695 13.5836 35.2055 13.9713 35.4381C14.4624 35.7483 14.6175 36.0326 14.5141 36.4203C14.3849 36.9373 14.6175 37.0924 15.0828 36.7305C15.4705 36.4462 17.0213 34.0165 17.0213 33.6805C17.0213 33.6288 16.8404 33.5771 16.6336 33.5771C16.4268 33.5771 16.2459 33.6805 16.2459 33.8356C16.2459 34.3008 15.5997 34.1199 14.359 33.3186L13.1183 32.5432L14.0747 31.0698C14.5916 30.2427 15.0569 29.5448 15.0828 29.4931C15.1344 29.4414 15.8065 29.8292 16.6078 30.3461C17.926 31.1732 18.0294 31.3025 17.6675 31.6643C17.2798 32.0521 17.3574 32.5432 17.7968 32.5432C18.1069 32.5432 20.1748 29.3897 19.9938 29.2088C19.9163 29.1313 19.632 29.2088 19.3735 29.3639C18.9082 29.6741 18.3654 29.4673 17.4091 28.6143C17.1247 28.3558 16.0908 27.6579 15.0828 27.0376C13.506 26.0554 13.2734 25.8486 13.3509 25.2282C13.4543 24.3236 12.9891 24.3236 12.5238 25.2282Z" fill="white"/>
<path d="M1.64184 48.362C1.38336 49.4735 0.73717 53.0922 0.73717 53.4023C0.73717 53.9193 1.20243 53.7901 1.38336 53.2214C1.5126 52.8078 1.69354 52.7561 2.36558 52.8854C2.83084 52.9629 3.32195 53.118 3.45119 53.2214C3.60628 53.3248 4.58849 53.5574 5.64825 53.7384C8.80168 54.2295 8.62075 54.0485 8.0521 56.1164C7.92286 56.6075 6.8114 56.7626 6.55292 56.3231C6.47538 56.1681 5.20884 56.0647 3.68382 56.0647C1.17658 56.0647 0.995648 56.0388 0.995648 55.5477C0.995648 55.2634 0.814713 55.0307 0.607931 55.0307C0.297757 55.0307 0.220214 55.4443 0.220214 57.0986C0.220214 59.0372 0.504539 59.8126 0.814713 58.6494C0.918104 58.21 1.17658 58.1325 2.39143 58.1325H3.83891V59.9418V61.7512H2.28804C0.918104 61.7512 0.73717 61.6995 0.73717 61.2342C0.73717 60.9499 0.633778 60.7173 0.478692 60.7173C0.349453 60.7173 0.220214 61.2342 0.220214 61.8546C0.220214 62.4749 0.14267 63.3537 0.0651269 63.7931C-0.0641121 64.4135 -0.0124165 64.5944 0.323605 64.5944C0.556235 64.5944 0.73717 64.4135 0.73717 64.2067C0.73717 63.8707 1.30582 63.819 4.25247 63.819C7.53514 63.819 7.76777 63.8448 7.89701 64.336C8.20718 65.4733 8.49151 64.7495 8.49151 62.9143C8.49151 61.8029 8.38812 60.9757 8.23303 60.9757C8.10379 60.9757 7.97455 61.1567 7.97455 61.3635C7.97455 61.6736 7.61268 61.7512 6.29445 61.7512H4.61434V59.9418V58.1325H6.19106C7.53514 58.1325 7.79362 58.21 7.89701 58.6494C7.97455 58.9338 8.20718 59.1664 8.38812 59.1664C8.67244 59.1664 8.74999 58.6753 8.74999 57.0986C8.74999 55.9613 8.85338 55.0307 8.98262 55.0307C9.11186 55.0307 9.39618 53.9451 9.62881 52.6269C10.3009 48.7756 10.3526 49.0599 8.95677 48.6722C7.61268 48.3362 7.4059 48.5171 8.23303 49.3442C8.67244 49.7836 8.82753 50.5332 8.74999 51.8515C8.72414 52.0841 7.19912 52.0324 6.24275 51.7998C5.90673 51.7222 5.64825 51.4896 5.64825 51.257C5.64825 50.6883 6.42369 49.6027 6.83725 49.6027C7.61268 49.6027 7.14742 49.1375 6.24275 48.9824C5.69995 48.879 5.05375 48.7497 4.82112 48.6722C4.51095 48.5688 4.35586 48.6722 4.35586 48.9307C4.35586 49.1633 4.4851 49.3442 4.61434 49.3442C4.76943 49.3442 4.87282 49.8095 4.87282 50.3781C4.87282 51.5154 4.79527 51.5413 3.01178 51.257C2.18465 51.1019 2.02956 50.9726 2.02956 50.4557C2.02956 49.7578 3.08932 48.5688 3.70967 48.5688C4.40756 48.5688 4.12323 48.1294 3.2961 47.9485C2.00371 47.69 1.79693 47.7675 1.64184 48.362Z" fill="white"/>
<path d="M7.9746 65.7317C7.9746 66.3003 7.76782 66.3779 4.56269 67.0241C1.09909 67.6961 0.995696 67.6961 0.659674 66.7914C0.375349 66.0935 0.220262 66.9982 0.401196 68.1097L0.607979 69.3504L3.52878 69.9966L6.44958 70.6427L5.33813 71.6508C4.74363 72.1936 3.63217 73.0466 2.88259 73.5377C1.46096 74.4941 1.33172 74.7525 1.66774 76.4585C1.82283 77.2598 2.28809 77.5958 2.28809 76.8979C2.28809 76.2259 3.03767 75.9415 5.57076 75.5797C8.82758 75.1144 9.13775 75.1144 9.65471 75.6055C10.2492 76.2 10.3267 75.9674 10.1458 74.3131C10.0166 73.3568 9.86149 72.8657 9.62886 72.8657C9.42208 72.8657 9.26699 73.0983 9.26699 73.3568C9.26699 73.9513 8.85343 74.1322 6.88899 74.339C6.06186 74.4165 5.38982 74.5975 5.38982 74.7009C5.38982 74.8301 5.15719 74.9335 4.84702 74.9335C4.35591 74.9335 4.38176 74.8818 5.0538 74.339C5.44152 74.003 6.37204 73.3309 7.06993 72.8657C8.72419 71.7542 9.65471 70.772 9.29284 70.5652C9.13775 70.4618 7.94875 70.1775 6.68221 69.8932C5.38982 69.6347 4.27837 69.3504 4.22667 69.247C4.14913 69.1177 4.66608 68.9626 5.38982 68.8592C6.08771 68.7559 6.73391 68.5749 6.8373 68.4457C7.09578 68.0063 8.0263 68.2131 8.49156 68.7817C8.93097 69.3245 8.98266 69.3504 9.1636 68.9109C9.24114 68.6525 9.21529 68.1872 9.06021 67.877C8.90512 67.5669 8.69834 66.8173 8.6208 66.1969C8.43986 65.0338 7.9746 64.6978 7.9746 65.7317Z" fill="white"/>
<path d="M19.6057 112.605C19.6057 115.813 17.0053 118.413 13.7976 118.413C10.5899 118.413 7.9895 115.813 7.9895 112.605C7.9895 109.397 10.5899 106.797 13.7976 106.797C17.0053 106.797 19.6057 109.397 19.6057 112.605Z" stroke="white" stroke-width="4"/>
<path d="M30.1415 95.1162L19.0249 107.292" stroke="white" stroke-width="6"/>
</svg>
