<svg width="146" height="852" viewBox="0 0 146 852" fill="none" xmlns="http://www.w3.org/2000/svg">
<path d="M118 148.5L106.632 150.523L110.563 139.666L118 148.5ZM11.3339 10.9998C11.3339 13.9453 8.94608 16.3331 6.00055 16.3331C3.05502 16.3331 0.667221 13.9453 0.667221 10.9998C0.667221 8.05426 3.05502 5.66644 6.00055 5.66644C8.94608 5.66644 11.3339 8.05426 11.3339 10.9998ZM111.973 147.215C110.669 146.64 109.441 146.048 108.288 145.44L109.221 143.671C110.33 144.256 111.515 144.827 112.78 145.384L111.973 147.215ZM104.838 143.431C103.632 142.652 102.529 141.848 101.525 141.021L102.798 139.478C103.736 140.252 104.776 141.01 105.923 141.75L104.838 143.431ZM98.5282 138.156C97.5659 137.078 96.7466 135.964 96.0628 134.817L97.7806 133.793C98.3958 134.825 99.1385 135.836 100.021 136.825L98.5282 138.156ZM94.3257 131.027C93.8854 129.695 93.601 128.334 93.4578 126.948L95.4472 126.742C95.5762 127.992 95.8316 129.211 96.2246 130.399L94.3257 131.027ZM93.4297 122.801C93.5412 121.464 93.7627 120.109 94.0814 118.74L96.0293 119.194C95.7302 120.479 95.5253 121.737 95.4228 122.967L93.4297 122.801ZM95.2341 114.823C95.6729 113.577 96.1804 112.318 96.7481 111.049L98.5737 111.866C98.0257 113.091 97.5392 114.298 97.1206 115.487L95.2341 114.823ZM98.5261 107.4C99.1354 106.238 99.7881 105.067 100.478 103.889L102.204 104.901C101.528 106.054 100.89 107.197 100.297 108.328L98.5261 107.4ZM102.565 100.476C103.272 99.3633 104.008 98.2442 104.767 97.1198L106.425 98.2389C105.675 99.3498 104.949 100.453 104.253 101.549L102.565 100.476ZM107.051 93.8149C107.809 92.7425 108.583 91.6658 109.371 90.5855L110.987 91.7642C110.204 92.8375 109.436 93.9058 108.685 94.9686L107.051 93.8149ZM111.744 87.3726C112.536 86.3113 113.337 85.247 114.145 84.1805L115.739 85.3875C114.934 86.4514 114.135 87.512 113.347 88.5688L111.744 87.3726ZM116.549 81.0149C117.353 79.96 118.158 78.9045 118.962 77.8469L120.554 79.0578C119.749 80.1159 118.943 81.1731 118.141 82.2267L116.549 81.0149ZM121.363 74.6805C122.163 73.6198 122.958 72.5588 123.746 71.498L125.352 72.6904C124.56 73.7561 123.762 74.8213 122.959 75.885L121.363 74.6805ZM126.094 68.3007C126.874 67.2252 127.642 66.1508 128.395 65.0779L130.032 66.2269C129.272 67.3093 128.498 68.3922 127.713 69.4748L126.094 68.3007ZM130.644 61.8066C131.386 60.7026 132.108 59.6013 132.805 58.5032L134.493 59.5758C133.785 60.6898 133.054 61.8055 132.304 62.9222L130.644 61.8066ZM134.865 55.1475C135.547 53.9944 136.197 52.8463 136.812 51.7038L138.573 52.6511C137.945 53.8196 137.281 54.9913 136.587 56.1652L134.865 55.1475ZM138.588 48.2001C139.156 47.0013 139.679 45.8107 140.151 44.629L142.008 45.3708C141.519 46.5951 140.979 47.8243 140.395 49.0573L138.588 48.2001ZM141.457 40.9597C141.85 39.6911 142.176 38.4354 142.428 37.1939L144.388 37.5921C144.121 38.905 143.778 40.2254 143.367 41.5519L141.457 40.9597ZM142.968 33.3799C143.067 32.0895 143.076 30.8167 142.986 29.5623L144.981 29.4194C145.078 30.7789 145.068 32.1509 144.962 33.5331L142.968 33.3799ZM142.404 25.8139C142.109 24.6006 141.709 23.4034 141.194 22.2231L143.027 21.4235C143.589 22.7102 144.026 24.017 144.348 25.3414L142.404 25.8139ZM139.383 18.8636C138.713 17.8294 137.942 16.8075 137.063 15.7992L138.57 14.4847C139.509 15.5613 140.338 16.6588 141.061 17.7764L139.383 18.8636ZM134.395 13.0885C133.909 12.6475 133.4 12.2094 132.868 11.7744L134.132 10.2251C134.692 10.6815 135.227 11.1424 135.74 11.6077L134.395 13.0885ZM132.868 11.7744C132.337 11.3416 131.81 10.9254 131.285 10.5256L132.497 8.93457C133.04 9.34834 133.585 9.7784 134.132 10.2251L132.868 11.7744ZM128.143 8.30295C127.012 7.56503 125.894 6.90163 124.788 6.30829L125.733 4.54575C126.892 5.16731 128.059 5.86021 129.236 6.62823L128.143 8.30295ZM121.282 4.64152C120.058 4.13346 118.846 3.70873 117.648 3.36102L118.205 1.44023C119.476 1.80896 120.757 2.25837 122.049 2.79416L121.282 4.64152ZM113.903 2.51135C112.618 2.30049 111.345 2.17379 110.084 2.1236L110.164 0.12518C111.506 0.178572 112.86 0.313401 114.227 0.537759L113.903 2.51135ZM106.241 2.20203C104.958 2.30394 103.685 2.47939 102.419 2.72048L102.045 0.755793C103.378 0.501936 104.723 0.316313 106.082 0.208321L106.241 2.20203ZM98.6546 3.62929C97.4196 3.98835 96.1907 4.40355 94.9666 4.86724L94.2581 2.99693C95.5269 2.5163 96.806 2.08393 98.0963 1.70881L98.6546 3.62929ZM91.3608 6.37191C90.181 6.90737 89.0054 7.48102 87.8327 8.08574L86.9161 6.30816C88.1146 5.69012 89.3204 5.10162 90.5342 4.55072L91.3608 6.37191ZM84.3711 9.9582C83.2325 10.6006 82.0963 11.2652 80.9613 11.9455L79.9331 10.2301C81.08 9.54263 82.2316 8.86889 83.3885 8.21627L84.3711 9.9582ZM77.5863 14.0094C76.4661 14.7055 75.3474 15.4095 74.2276 16.1155L73.1609 14.4237C74.2812 13.7174 75.4046 13.0105 76.5306 12.3107L77.5863 14.0094ZM70.8633 18.2332C69.7351 18.9398 68.6052 19.6413 67.4736 20.3302L66.4336 18.6218C67.5555 17.9389 68.6777 17.2422 69.8018 16.5382L70.8633 18.2332ZM64.0379 22.372C62.8744 23.044 61.7072 23.696 60.5356 24.3199L59.5955 22.5547C60.7435 21.9432 61.8904 21.3027 63.0375 20.6401L64.0379 22.372ZM56.946 26.1289C55.7212 26.7085 54.4897 27.25 53.2507 27.7446L52.5092 25.8871C53.7053 25.4096 54.8987 24.8851 56.0906 24.3211L56.946 26.1289ZM49.437 29.1016C48.1362 29.5055 46.8255 29.8496 45.504 30.1238L45.0977 28.1655C46.3509 27.9054 47.5992 27.578 48.8439 27.1915L49.437 29.1016ZM41.471 30.7299C40.1202 30.8535 38.7581 30.8962 37.3837 30.848L37.4538 28.8493C38.7403 28.8943 40.0181 28.8544 41.2888 28.7382L41.471 30.7299ZM33.312 30.436C31.9958 30.2143 30.6699 29.9037 29.3335 29.4967L29.9162 27.5835C31.1708 27.9656 32.413 28.2564 33.6442 28.4638L33.312 30.436ZM25.5108 28.0755C24.3066 27.5462 23.0946 26.9356 21.8741 26.2388L22.8657 24.5019C24.0279 25.1654 25.1776 25.7444 26.3156 26.2446L25.5108 28.0755ZM18.421 24.0495C17.3592 23.309 16.2908 22.5017 15.2152 21.6243L16.4793 20.0745C17.518 20.9217 18.5464 21.6986 19.565 22.409L18.421 24.0495ZM12.1997 18.9963C11.2376 18.1042 10.2694 17.1551 9.29474 16.1466L10.7328 14.7567C11.6834 15.7402 12.6255 16.6637 13.5596 17.5298L12.1997 18.9963ZM6.59796 13.2226C6.14566 12.7097 5.69191 12.184 5.23666 11.6451L6.76443 10.3544C7.21074 10.8827 7.65523 11.3977 8.09793 11.8997L6.59796 13.2226Z" fill="#4FB6B0"/>
<path d="M118 285.635L106.634 287.669L110.556 276.808L118 285.635ZM134.132 156.361C134.693 156.819 135.231 157.28 135.745 157.745L134.404 159.228C133.915 158.787 133.404 158.347 132.868 157.91L134.132 156.361ZM138.587 160.61C139.537 161.685 140.373 162.777 141.102 163.884L139.431 164.984C138.757 163.959 137.978 162.942 137.088 161.933L138.587 160.61ZM143.096 167.529C143.668 168.825 144.107 170.137 144.422 171.462L142.476 171.925C142.189 170.718 141.789 169.521 141.266 168.336L143.096 167.529ZM145.012 175.565C145.087 176.934 145.044 178.31 144.896 179.693L142.907 179.48C143.045 178.197 143.083 176.928 143.015 175.673L145.012 175.565ZM144.179 183.737C143.861 185.038 143.462 186.342 142.99 187.649L141.109 186.97C141.559 185.724 141.937 184.487 142.237 183.262L144.179 183.737ZM141.44 191.42C140.886 192.628 140.277 193.839 139.621 195.051L137.862 194.099C138.499 192.922 139.088 191.75 139.623 190.586L141.44 191.42ZM137.616 198.53C136.928 199.659 136.204 200.789 135.451 201.919L133.787 200.809C134.527 199.699 135.236 198.592 135.908 197.489L137.616 198.53ZM133.161 205.231C132.391 206.31 131.597 207.389 130.785 208.467L129.187 207.264C129.99 206.198 130.774 205.132 131.534 204.068L133.161 205.231ZM128.351 211.634C127.532 212.68 126.7 213.724 125.859 214.767L124.302 213.512C125.138 212.475 125.964 211.438 126.776 210.401L128.351 211.634ZM123.334 217.867C122.49 218.893 121.641 219.918 120.791 220.94L119.253 219.662C120.102 218.641 120.948 217.619 121.789 216.597L123.334 217.867ZM118.238 224.005C117.387 225.028 116.538 226.047 115.697 227.062L114.157 225.786C115 224.768 115.85 223.747 116.702 222.725L118.238 224.005ZM113.164 230.139C112.318 231.176 111.484 232.208 110.666 233.235L109.101 231.99C109.925 230.955 110.765 229.916 111.615 228.874L113.164 230.139ZM108.226 236.352C107.411 237.414 106.619 238.469 105.854 239.518L104.238 238.339C105.014 237.276 105.816 236.207 106.639 235.135L108.226 236.352ZM103.567 242.76C102.811 243.873 102.094 244.976 101.42 246.069L99.7175 245.02C100.408 243.899 101.142 242.771 101.913 241.636L103.567 242.76ZM99.4614 249.462C98.8279 250.644 98.2572 251.81 97.7567 252.96L95.923 252.161C96.4479 250.956 97.043 249.741 97.6987 248.517L99.4614 249.462ZM96.4046 256.577C96.0142 257.846 95.7262 259.089 95.5502 260.305L93.5708 260.018C93.7634 258.688 94.0761 257.344 94.4931 255.989L96.4046 256.577ZM95.3783 264.073C95.455 265.322 95.6734 266.542 96.047 267.734L94.1387 268.332C93.7143 266.979 93.4682 265.598 93.382 264.195L95.3783 264.073ZM97.5835 271.119C98.1984 272.135 98.9521 273.136 99.8588 274.12L98.3884 275.476C97.3972 274.401 96.5611 273.293 95.8721 272.153L97.5835 271.119ZM102.687 276.729C103.634 277.483 104.685 278.224 105.846 278.951L104.785 280.646C103.566 279.883 102.452 279.099 101.442 278.294L102.687 276.729ZM109.177 280.838C110.293 281.412 111.486 281.977 112.76 282.53L111.964 284.364C110.653 283.795 109.419 283.212 108.261 282.616L109.177 280.838Z" fill="#4FB6B0"/>
<path d="M118 436.5L106.567 438.117L110.883 427.407L118 436.5ZM134.173 292.396C134.719 292.893 135.242 293.393 135.743 293.897L134.325 295.307C133.848 294.828 133.349 294.35 132.827 293.875L134.173 292.396ZM138.504 296.982C139.419 298.125 140.229 299.284 140.941 300.458L139.231 301.495C138.566 300.398 137.805 299.31 136.942 298.231L138.504 296.982ZM142.873 304.231C143.431 305.555 143.875 306.893 144.213 308.244L142.273 308.729C141.96 307.477 141.548 306.237 141.03 305.009L142.873 304.231ZM144.921 312.413C145.052 313.813 145.08 315.221 145.014 316.637L143.016 316.545C143.078 315.217 143.051 313.901 142.93 312.599L144.921 312.413ZM144.559 320.832C144.331 322.191 144.026 323.554 143.654 324.922L141.724 324.395C142.081 323.087 142.371 321.788 142.587 320.501L144.559 320.832ZM142.391 328.885C141.927 330.168 141.409 331.454 140.844 332.742L139.012 331.938C139.561 330.687 140.063 329.442 140.511 328.204L142.391 328.885ZM139.067 336.502C138.453 337.72 137.802 338.94 137.118 340.161L135.373 339.183C136.044 337.986 136.681 336.791 137.282 335.602L139.067 336.502ZM135.044 343.713C134.337 344.879 133.605 346.045 132.852 347.21L131.172 346.126C131.916 344.974 132.638 343.824 133.334 342.676L135.044 343.713ZM130.571 350.654C129.809 351.779 129.031 352.903 128.24 354.027L126.605 352.876C127.389 351.761 128.161 350.646 128.916 349.532L130.571 350.654ZM125.852 357.373C125.052 358.48 124.243 359.586 123.43 360.69L121.82 359.504C122.63 358.404 123.435 357.303 124.232 356.202L125.852 357.373ZM120.99 363.983C120.172 365.081 119.354 366.176 118.538 367.268L116.936 366.071C117.752 364.979 118.569 363.885 119.385 362.789L120.99 363.983ZM116.094 370.545C115.275 371.647 114.461 372.745 113.658 373.84L112.046 372.656C112.852 371.558 113.668 370.456 114.49 369.351L116.094 370.545ZM111.256 377.144C110.458 378.256 109.674 379.362 108.908 380.463L107.266 379.32C108.039 378.21 108.828 377.096 109.632 375.977L111.256 377.144ZM106.604 383.845C105.841 384.992 105.102 386.132 104.394 387.264L102.699 386.202C103.418 385.053 104.167 383.898 104.939 382.737L106.604 383.845ZM102.308 390.726C101.619 391.92 100.97 393.103 100.366 394.275L98.5881 393.358C99.2084 392.155 99.873 390.944 100.576 389.727L102.308 390.726ZM98.617 397.926C98.0622 399.189 97.5694 400.435 97.1454 401.664L95.2548 401.011C95.6986 399.725 96.2119 398.428 96.786 397.122L98.617 397.926ZM96.0419 405.489C95.7402 406.811 95.5326 408.109 95.4272 409.382L93.434 409.217C93.548 407.841 93.7716 406.449 94.092 405.044L96.0419 405.489ZM95.4408 413.281C95.5649 414.572 95.8137 415.836 96.1981 417.073L94.2884 417.667C93.8614 416.294 93.5866 414.894 93.45 413.472L95.4408 413.281ZM97.7255 420.62C98.3328 421.708 99.0668 422.777 99.939 423.826L98.4011 425.104C97.4542 423.965 96.6495 422.795 95.9794 421.596L97.7255 420.62ZM102.703 426.666C103.638 427.499 104.674 428.316 105.818 429.119L104.669 430.756C103.467 429.913 102.37 429.048 101.373 428.16L102.703 426.666ZM109.144 431.23C110.264 431.876 111.462 432.51 112.742 433.131L111.868 434.93C110.549 434.29 109.309 433.634 108.145 432.963L109.144 431.23Z" fill="#4FB6B0"/>
<path d="M118 619L106.479 619.78L111.564 609.413L118 619ZM134.243 443.466C134.717 443.992 135.173 444.522 135.613 445.054L134.071 446.328C133.65 445.818 133.212 445.31 132.757 444.804L134.243 443.466ZM138.05 448.281C138.843 449.436 139.562 450.604 140.211 451.783L138.459 452.747C137.842 451.627 137.158 450.515 136.401 449.413L138.05 448.281ZM141.987 455.444C142.524 456.716 142.984 457.999 143.374 459.292L141.458 459.868C141.09 458.643 140.653 457.427 140.144 456.222L141.987 455.444ZM144.343 463.271C144.595 464.611 144.777 465.959 144.893 467.316L142.9 467.486C142.79 466.194 142.617 464.913 142.377 463.641L144.343 463.271ZM145.046 471.403C145.035 472.748 144.965 474.1 144.84 475.457L142.848 475.274C142.968 473.969 143.036 472.673 143.047 471.387L145.046 471.403ZM144.315 479.483C144.093 480.811 143.823 482.144 143.51 483.48L141.562 483.023C141.867 481.726 142.128 480.436 142.342 479.153L144.315 479.483ZM142.481 487.368C142.105 488.648 141.693 489.931 141.248 491.217L139.358 490.563C139.794 489.305 140.196 488.052 140.562 486.805L142.481 487.368ZM139.846 495.009C139.362 496.243 138.85 497.478 138.314 498.716L136.479 497.921C137.007 496.703 137.509 495.489 137.985 494.278L139.846 495.009ZM136.652 502.396C136.089 503.596 135.506 504.797 134.905 505.999L133.116 505.104C133.71 503.916 134.286 502.73 134.842 501.546L136.652 502.396ZM133.068 509.572C132.448 510.749 131.813 511.926 131.165 513.103L129.413 512.139C130.055 510.971 130.685 509.805 131.299 508.639L133.068 509.572ZM129.21 516.596C128.55 517.755 127.881 518.913 127.205 520.07L125.478 519.061C126.151 517.909 126.816 516.758 127.471 515.607L129.21 516.596ZM125.172 523.51C124.489 524.655 123.801 525.798 123.11 526.94L121.399 525.904C122.089 524.766 122.774 523.626 123.455 522.486L125.172 523.51ZM121.034 530.354C120.34 531.492 119.644 532.628 118.95 533.761L117.244 532.716C117.938 531.583 118.633 530.448 119.327 529.311L121.034 530.354ZM116.866 537.165C116.17 538.305 115.477 539.442 114.79 540.575L113.08 539.538C113.769 538.402 114.463 537.263 115.16 536.122L116.866 537.165ZM112.738 543.984C112.051 545.134 111.373 546.28 110.705 547.422L108.979 546.412C109.65 545.264 110.332 544.113 111.021 542.958L112.738 543.984ZM108.726 550.852C108.062 552.021 107.412 553.184 106.779 554.342L105.024 553.382C105.663 552.214 106.318 551.041 106.987 549.864L108.726 550.852ZM104.909 557.84C104.291 559.025 103.695 560.204 103.122 561.375L101.325 560.496C101.906 559.308 102.511 558.115 103.135 556.916L104.909 557.84ZM101.427 564.973C100.88 566.187 100.361 567.392 99.8755 568.587L98.0226 567.834C98.5187 566.613 99.0472 565.385 99.6045 564.15L101.427 564.973ZM98.4701 572.282C98.0239 573.547 97.6197 574.799 97.2613 576.038L95.3401 575.482C95.71 574.203 96.1262 572.915 96.584 571.617L98.4701 572.282ZM96.3037 579.824C96.0258 581.119 95.805 582.398 95.6459 583.659L93.6616 583.409C93.8285 582.086 94.0593 580.751 94.3482 579.405L96.3037 579.824ZM95.3542 587.548C95.3269 588.856 95.3752 590.142 95.5047 591.407L93.5151 591.61C93.3768 590.259 93.3257 588.891 93.3547 587.507L95.3542 587.548ZM96.1544 595.188C96.4582 596.426 96.8513 597.643 97.3402 598.837L95.4892 599.595C94.9623 598.307 94.5388 596.996 94.212 595.665L96.1544 595.188ZM99.0562 602.281C99.688 603.347 100.408 604.395 101.223 605.425L99.6542 606.666C98.7856 605.568 98.0143 604.445 97.3357 603.3L99.0562 602.281ZM103.791 608.297C104.689 609.191 105.667 610.071 106.731 610.934L105.472 612.487C104.357 611.583 103.328 610.659 102.379 609.714L103.791 608.297ZM109.804 613.216C110.848 613.929 111.958 614.629 113.135 615.316L112.127 617.044C110.911 616.334 109.762 615.609 108.676 614.868L109.804 613.216Z" fill="#4FB6B0"/>
<path d="M134 851.5L123.23 847.335L132.222 840.091L134 851.5ZM129.408 847.321C128.587 846.262 127.784 845.208 126.998 844.16L128.598 842.96C129.377 843.999 130.174 845.045 130.989 846.096L129.408 847.321ZM124.692 841.034C123.887 839.924 123.102 838.82 122.336 837.723L123.976 836.578C124.735 837.665 125.513 838.759 126.311 839.86L124.692 841.034ZM120.058 834.395C119.318 833.292 118.598 832.196 117.897 831.107L119.579 830.025C120.273 831.104 120.986 832.189 121.718 833.281L120.058 834.395ZM115.785 827.749C115.065 826.578 114.368 825.414 113.693 824.259L115.42 823.25C116.088 824.393 116.777 825.543 117.489 826.702L115.785 827.749ZM111.734 820.815C111.088 819.65 110.466 818.492 109.865 817.342L111.637 816.416C112.231 817.551 112.846 818.695 113.484 819.846L111.734 820.815ZM108.025 813.704C107.436 812.501 106.872 811.305 106.331 810.119L108.151 809.29C108.684 810.459 109.241 811.638 109.822 812.826L108.025 813.704ZM104.735 806.476C104.203 805.212 103.698 803.958 103.219 802.714L105.086 801.996C105.557 803.221 106.054 804.456 106.578 805.7L104.735 806.476ZM101.862 799.01C101.413 797.72 100.992 796.439 100.599 795.169L102.51 794.578C102.896 795.825 103.309 797.084 103.751 798.353L101.862 799.01ZM99.4818 791.316C99.132 790.022 98.8111 788.739 98.5181 787.467L100.467 787.018C100.754 788.265 101.069 789.524 101.413 790.795L99.4818 791.316ZM97.6863 783.495C97.439 782.183 97.2214 780.883 97.0324 779.594L99.0112 779.304C99.1963 780.566 99.4094 781.839 99.6517 783.125L97.6863 783.495ZM96.5289 775.561C96.3913 774.224 96.2844 772.899 96.2067 771.587L98.2033 771.469C98.2792 772.752 98.3838 774.048 98.5184 775.356L96.5289 775.561ZM96.0586 767.553C96.0394 766.205 96.051 764.87 96.0917 763.549L98.0907 763.61C98.0509 764.902 98.0396 766.207 98.0584 767.525L96.0586 767.553ZM96.307 759.53C96.4097 758.186 96.5422 756.855 96.7027 755.538L98.688 755.78C98.5311 757.068 98.4016 758.368 98.3012 759.682L96.307 759.53ZM97.2783 751.559C97.5004 750.231 97.7504 748.918 98.0264 747.619L99.9827 748.034C99.7127 749.306 99.4681 750.591 99.2508 751.889L97.2783 751.559ZM98.9444 743.705C99.2783 742.405 99.6373 741.118 100.019 739.846L101.935 740.421C101.56 741.668 101.209 742.929 100.882 744.203L98.9444 743.705ZM101.249 736.02C101.683 734.753 102.139 733.5 102.614 732.259L104.482 732.975C104.014 734.194 103.567 735.425 103.141 736.668L101.249 736.02ZM104.115 728.534C104.635 727.303 105.172 726.086 105.726 724.88L107.543 725.715C106.998 726.902 106.469 728.101 105.957 729.313L104.115 728.534ZM107.453 721.257C108.045 720.06 108.65 718.874 109.267 717.701L111.037 718.632C110.428 719.791 109.83 720.961 109.246 722.143L107.453 721.257ZM111.172 714.179C111.82 713.01 112.478 711.854 113.143 710.709L114.873 711.713C114.214 712.848 113.562 713.993 112.92 715.149L111.172 714.179ZM115.178 707.273C115.868 706.128 116.564 704.993 117.262 703.869L118.961 704.925C118.267 706.042 117.576 707.169 116.89 708.306L115.178 707.273ZM119.377 700.503C120.096 699.371 120.814 698.25 121.529 697.138L123.211 698.221C122.497 699.33 121.781 700.448 121.066 701.575L119.377 700.503ZM123.679 693.811C124.408 692.685 125.131 691.568 125.845 690.461L127.526 691.545C126.81 692.654 126.086 693.772 125.358 694.898L123.679 693.811ZM127.986 687.121C128.701 685.997 129.403 684.882 130.089 683.775L131.789 684.829C131.098 685.943 130.392 687.065 129.673 688.195L127.986 687.121ZM132.156 680.379C132.837 679.235 133.497 678.1 134.131 676.973L135.874 677.954C135.231 679.097 134.563 680.246 133.874 681.402L132.156 680.379ZM136.008 673.51C136.626 672.322 137.209 671.142 137.755 669.971L139.568 670.815C139.009 672.015 138.412 673.221 137.783 674.432L136.008 673.51ZM139.309 666.383C139.797 665.159 140.238 663.942 140.625 662.733L142.529 663.342C142.127 664.6 141.671 665.861 141.166 667.125L139.309 666.383ZM141.655 658.967C141.943 657.691 142.163 656.422 142.311 655.157L144.297 655.389C144.141 656.729 143.908 658.067 143.606 659.407L141.655 658.967ZM142.529 651.324C142.522 650.048 142.434 648.774 142.258 647.5L144.239 647.226C144.428 648.59 144.522 649.952 144.529 651.314L142.529 651.324ZM141.475 643.735C141.141 642.539 140.723 641.339 140.215 640.135L142.058 639.358C142.598 640.639 143.044 641.918 143.401 643.197L141.475 643.735ZM138.522 636.694C137.904 635.596 137.207 634.493 136.426 633.383L138.062 632.233C138.879 633.395 139.612 634.554 140.264 635.712L138.522 636.694ZM134.088 630.34C133.663 629.83 133.219 629.318 132.757 628.804L134.243 627.466C134.722 627.998 135.182 628.529 135.624 629.059L134.088 630.34Z" fill="#4FB6B0"/>
</svg>
