<svg width="120" height="84" viewBox="0 0 120 84" fill="none" xmlns="http://www.w3.org/2000/svg">
<path d="M20.3879 1.40628C19.5443 1.78123 18.5132 2.85919 17.8102 4.07777C16.8259 5.85876 16.6853 6.70238 16.7322 10.1238C16.7322 12.3266 17.0134 15.0449 17.2946 16.2166C17.5758 17.3883 17.8102 19.9192 17.8102 21.8877C17.8102 24.7935 17.6227 25.684 16.8259 26.7151C15.6074 28.2617 14.3888 28.2617 13.1233 26.6213C12.0454 25.309 12.0454 24.7466 12.9359 17.9976C13.4514 14.3419 11.9048 11.8579 9.7957 12.9358C7.7335 14.0607 6.84301 18.4194 8.01471 21.7471C8.34279 22.7782 8.34279 23.4343 7.96785 24.1373C7.31169 25.4496 6.51493 25.3559 5.10889 23.903C4.21839 22.9656 3.98405 22.2157 3.98405 20.341C3.98405 18.4194 3.79658 17.857 2.95295 17.2946C2.01559 16.6853 1.87499 16.7322 1.17196 17.8101C-1.64013 22.0751 0.75015 26.6682 8.81147 32.7611C15.1855 37.5416 15.6074 37.9166 16.6385 38.8539C17.154 39.3226 19.1225 40.4474 20.9972 41.3848C24.8404 43.2127 27.6525 45.8373 31.4019 51.0865C33.7922 54.4142 34.0734 54.6485 35.7138 54.6485H37.4479L36.698 52.2114C35.6201 48.4619 36.0419 45.3686 38.1041 42.369C40.1194 39.4164 40.26 38.5259 38.6665 37.4948C37.2136 36.5574 36.7918 36.8386 35.8544 39.6038C35.4326 40.8693 34.7764 42.1816 34.4483 42.4628C33.3235 43.4001 31.4957 42.6034 29.2929 40.2131C26.387 37.1198 24.5123 33.136 23.7624 28.3555C23.2 24.8404 23.1531 23.6687 23.3875 20.8097C23.4812 19.638 26.0121 16.9196 27.8868 16.0291C29.9959 14.998 32.3393 13.0296 32.3393 12.186C32.3393 10.0769 27.5587 10.2175 24.8404 12.4203C23.8093 13.2171 22.825 13.8732 22.5438 13.8732C21.6533 13.8732 20.1536 11.3892 20.1536 9.79568C20.1536 8.53024 20.5754 7.78035 22.497 5.95249C24.981 3.56222 25.3559 2.43738 24.0436 1.40628C23.0125 0.609524 22.1689 0.609524 20.3879 1.40628Z" fill="#214856"/>
<path d="M93.1273 1.68749C92.4711 2.62485 92.4711 2.90606 93.0336 4.07777C93.4085 4.78079 94.3459 5.76502 95.1426 6.18683C97.7672 7.78035 98.1422 11.7173 95.7988 13.2639C94.6739 13.9669 94.5802 13.9201 92.7055 12.4672C90.4089 10.5924 86.847 9.98315 85.8159 11.2486C84.7379 12.514 85.8627 14.1544 88.6748 15.4667C90.0809 16.1229 91.815 17.2946 92.5649 18.0913C93.7366 19.3568 93.9709 19.9661 94.1115 22.6844C94.4396 29.0116 92.2368 35.7138 88.3936 39.9788C84.9254 43.822 83.0506 43.8688 81.7852 40.1194C80.801 37.2135 80.1448 36.6511 78.8325 37.5885C77.4265 38.5727 77.5202 39.5101 79.3949 42.369C81.6446 45.8842 81.8789 48.6962 80.3323 53.8049C80.1448 54.5079 80.3792 54.6485 81.8789 54.6485C83.5662 54.6485 83.8005 54.461 85.769 51.6021C88.956 46.8215 92.8461 43.1189 96.3143 41.4785C98.0016 40.6818 100.486 39.1351 101.798 38.0572C103.157 36.9323 106.25 34.5421 108.641 32.7142C115.624 27.3712 118.108 23.528 117.077 19.7317C116.046 15.8885 113.796 16.451 113.421 20.6691C113.234 22.7313 112.906 23.528 112.062 24.2311C110.75 25.309 110.422 25.309 109.672 24.4185C109.156 23.8093 109.156 23.2 109.672 21.1846C110.422 17.9976 110 15.6542 108.313 13.7795C107.188 12.514 106.907 12.4203 106.016 12.889C104.657 13.592 104.329 15.1855 104.751 18.935C105.313 24.5591 105.266 25.9183 104.329 26.9494C103.157 28.2149 102.126 28.2149 100.861 26.8557C99.5482 25.4496 99.2202 21.1378 100.111 16.451C101.751 7.31167 100.111 1.64062 95.5176 0.890732C94.1584 0.703259 93.7366 0.843864 93.1273 1.68749Z" fill="#214856"/>
<path d="M37.8225 6.7024C37.2601 7.68663 36.9789 10.1238 37.4476 10.1238C37.8225 10.1238 37.9631 13.4514 37.9631 20.716C37.9631 30.1833 38.0569 31.2613 38.713 31.027C39.1348 30.8864 39.8378 30.7458 40.3534 30.7458C41.1501 30.7458 41.2439 30.3708 41.2439 26.387V22.0752L43.0249 21.1378C46.5869 19.2162 48.0866 13.0296 45.7901 9.60822C45.2277 8.71773 44.0091 7.63976 43.1186 7.21795C41.4782 6.37432 38.1975 6.09311 37.8225 6.7024ZM42.978 11.5767C43.7748 13.0765 43.7279 14.9512 42.9311 16.9197C41.7594 19.6849 41.2439 18.8881 41.2439 14.295C41.2439 9.84256 41.7126 9.09267 42.978 11.5767Z" fill="#214856"/>
<path d="M50.9929 6.70243C49.6806 7.0305 49.4932 8.43655 49.4463 18.7944C49.4463 26.6214 50.0556 28.8711 52.6333 30.2771C53.7582 30.8864 54.0394 30.8864 55.2111 30.2771C57.7888 28.8242 58.3512 26.6683 58.3512 18.3257C58.3512 11.483 58.2575 10.6393 57.3201 8.90523C56.7577 7.82726 55.961 6.84303 55.5391 6.65556C54.6955 6.32748 52.2584 6.37435 50.9929 6.70243ZM54.9767 12.7484C55.4923 16.3104 55.0705 26.4808 54.4143 27.1369C54.0394 27.5119 53.7582 27.5119 53.3363 27.0901C52.6333 26.4339 52.4459 11.9517 53.102 10.4519C53.7113 8.85836 54.6018 9.93633 54.9767 12.7484Z" fill="#214856"/>
<path d="M60.8819 7.40544C60.7881 10.8737 61.0225 30.5114 61.1631 30.652C61.2568 30.7458 61.9598 30.6989 62.7566 30.5114L64.2095 30.1834V19.9192V9.65511H66.2717C68.3808 9.65511 68.8963 9.18643 68.8963 7.26484C68.8963 6.46808 68.5214 6.37434 64.9125 6.37434C61.1162 6.37434 60.9287 6.42121 60.8819 7.40544Z" fill="#214856"/>
<path d="M73.9584 7.17111C72.3649 7.31171 71.7087 7.54605 71.7087 8.06161C71.7087 9.04584 70.7713 17.5758 70.4901 19.2631C70.3964 20.013 70.1621 22.9188 70.0683 25.684L69.834 30.7458H71.4275H73.021L73.3491 26.9963C73.6772 23.4812 73.7709 23.2469 74.7551 23.2469C75.7394 23.2469 75.8331 23.4812 76.1612 27.2307L76.4893 31.1676L77.9422 30.8864C78.7858 30.7458 79.5357 30.5583 79.6294 30.4646C79.77 30.324 79.1139 21.8408 78.5046 15.9823C78.4109 14.9512 78.1765 12.4672 77.989 10.4519C77.7547 7.49919 77.5672 6.84303 76.9111 6.93677C76.4893 6.98364 75.177 7.07737 73.9584 7.17111ZM75.4113 18.1851C75.4582 19.4974 75.2707 19.9661 74.7551 19.9661C73.9584 19.9661 73.9115 18.9819 74.3802 14.1076L74.7551 10.8268L75.0363 13.6389C75.2238 15.1856 75.3644 17.2478 75.4113 18.1851Z" fill="#214856"/>
<path d="M55.9139 35.2919C54.8359 35.4794 54.8359 35.5263 54.8359 44.3375C54.8359 49.2118 54.9765 53.4768 55.1171 53.8986C55.4452 54.7891 58.1167 54.9297 58.9603 54.0861C59.3821 53.6643 59.5228 53.7111 59.5228 54.3673C59.5228 54.9297 59.7571 55.1172 60.2726 54.9297C60.6945 54.7891 61.3037 54.6485 61.6787 54.6485C62.2411 54.6485 62.3348 53.0081 62.3348 44.8999V35.1045L60.9288 35.3388L59.5228 35.5263V42.7908C59.5228 49.6805 59.1009 52.2113 58.0698 51.6021C57.8355 51.4146 57.648 47.8057 57.648 43.1189C57.648 38.6196 57.5074 35.0107 57.3199 35.0107C57.0856 35.0576 56.4763 35.1982 55.9139 35.2919Z" fill="#214856"/>
<path d="M11.5764 58.7261C11.4358 58.9604 11.2014 60.9757 11.0608 63.3191C10.8734 65.6157 10.639 68.8496 10.4984 70.4431C10.2172 73.1146 10.3109 73.4427 11.4358 74.5675C13.1699 76.3016 15.3258 76.0673 16.7319 73.9113C18.6535 71.0524 17.9973 67.4435 14.4822 61.5381C12.7012 58.5855 12.0451 57.9293 11.5764 58.7261Z" fill="#214856"/>
<path d="M25.6367 58.7261C25.4492 58.8667 25.3086 64.4908 25.3086 71.193C25.3086 82.0664 25.4023 83.3318 26.0585 83.0506C26.4803 82.91 27.1833 82.7694 27.652 82.7694C28.4956 82.7694 28.5894 82.3007 28.6831 77.7077L28.8237 72.6928L29.8548 77.8014C30.4641 80.6135 30.9796 82.9569 31.0265 83.0038C31.1202 83.0975 31.8701 83.0038 32.7138 82.91C33.8386 82.7226 34.1667 82.4882 33.9792 81.8789C33.8855 81.4571 33.2293 78.5982 32.62 75.5049L31.4483 69.8807L32.5732 64.4908C33.1824 61.5382 33.5574 58.9604 33.4637 58.7729C33.323 58.5386 32.62 58.398 31.8701 58.398C30.5578 58.398 30.5578 58.4449 29.6673 62.9442L28.8237 67.5373L28.6831 62.9442L28.5425 58.398H27.2302C26.5272 58.398 25.7773 58.5386 25.6367 58.7261Z" fill="#214856"/>
<path d="M37.8699 58.726C37.4012 58.8198 36.9794 59.1947 36.9794 59.4759C36.9325 59.804 36.7919 60.882 36.6045 61.9131C36.4638 62.9442 36.3232 66.928 36.3232 70.818C36.3232 78.645 36.9325 80.8947 39.5103 82.3007C40.6351 82.91 40.9163 82.91 42.0412 82.3007C42.7442 81.9258 43.7284 80.8478 44.244 79.9573C45.1345 78.5044 45.2282 77.5202 45.2282 70.5837C45.2282 63.5066 45.1345 62.7098 44.1971 60.9288C43.6347 59.8509 42.8379 58.8666 42.4161 58.6792C41.5725 58.3511 39.1353 58.398 37.8699 58.726ZM41.5725 62.9442C42.0412 64.6314 42.0412 76.5359 41.5725 78.1763C41.0569 80.0511 40.4476 79.8167 39.7915 77.5202C39.2291 75.3642 39.3697 63.2254 39.979 62.2412C40.5882 61.3038 41.1975 61.585 41.5725 62.9442Z" fill="#214856"/>
<path d="M47.8994 59.8978C47.665 60.7414 47.665 61.4913 47.8994 61.585C48.0869 61.6788 48.2743 66.5062 48.2743 72.3178V82.8632L49.3523 82.582C49.9147 82.4413 50.6646 82.3007 50.9927 82.3007C51.4145 82.3007 51.5551 79.9105 51.5551 71.9897C51.5551 62.0068 51.602 61.6788 52.4925 61.6788C53.383 61.6788 53.4298 62.0068 53.4298 72.271C53.4298 81.7383 53.5236 82.8163 54.1797 82.582C54.6015 82.4413 55.3046 82.3007 55.8201 82.3007C56.6637 82.3007 56.7106 81.8321 56.7106 70.3494V58.398H52.4925H48.3212L47.8994 59.8978Z" fill="#214856"/>
<path d="M59.5225 70.6306V82.8632L62.3345 82.6757C65.6153 82.4413 67.0682 81.3634 68.2399 78.2701C69.7866 74.1926 67.9119 68.8965 64.4436 67.7716L62.8032 67.2092V62.8036V58.398H61.1628H59.5225V70.6306ZM64.4436 71.7085C65.6622 73.5833 65.7559 75.7861 64.7248 77.4733C64.1624 78.3169 63.5531 79.02 63.2719 79.02C62.9907 79.02 62.8032 77.3327 62.8032 74.8018C62.8032 70.4431 63.1782 69.7401 64.4436 71.7085Z" fill="#214856"/>
<path d="M70.911 58.726C70.4424 58.8666 70.3018 61.8193 70.3018 71.1461C70.3018 82.0664 70.3955 83.3318 71.0516 83.0506C71.4735 82.91 72.1765 82.7694 72.692 82.7694C73.5357 82.7694 73.5825 82.3007 73.5825 70.5837V58.3979L72.5514 58.4448C71.9421 58.4448 71.1923 58.5854 70.911 58.726Z" fill="#214856"/>
<path d="M75.9261 58.9604C75.9261 59.2885 75.7854 60.0384 75.6448 60.6008C75.3636 61.585 75.5042 61.6788 77.0509 61.6788H78.7381V72.271V82.8632L79.8161 82.582C80.3785 82.4413 81.1284 82.3007 81.4565 82.3007C81.8783 82.3007 82.0189 79.9105 82.0189 72.0366V61.7256L83.3312 61.585C84.3623 61.4913 84.6435 61.2101 84.7373 59.8978L84.8779 58.398H80.4254C77.1446 58.398 75.9261 58.5386 75.9261 58.9604Z" fill="#214856"/>
<path d="M113.28 58.7261C113.046 59.101 112.249 70.3962 112.343 72.599C112.343 74.1925 114.077 75.7392 115.764 75.7392C117.732 75.7392 119.185 73.8645 119.42 70.8649C119.607 68.709 119.373 67.7716 118.248 65.3345C115.717 59.9446 113.936 57.6012 113.28 58.7261Z" fill="#214856"/>
<path d="M4.96804 60.6476C1.31233 66.4593 0.140625 70.9586 1.59354 73.7707C2.85898 76.2079 5.01491 76.864 6.7959 75.3642C7.35832 74.9424 7.92074 74.1925 8.06134 73.7707C8.24882 73.3489 8.15508 69.7869 7.87387 65.8969C7.26458 58.1636 6.93651 57.5543 4.96804 60.6476Z" fill="#214856"/>
<path d="M90.8306 59.1947C89.237 59.3353 88.5809 59.5697 88.5809 60.0852C88.5809 61.0695 87.6435 69.5995 87.3623 71.2867C87.2686 72.0366 87.0342 74.9424 86.9405 77.7076C86.753 82.1601 86.7999 82.7225 87.5498 82.8631C89.5651 83.3318 89.8932 82.8163 90.2213 78.9731C90.5493 75.5517 90.6431 75.2705 91.6273 75.2705C92.6115 75.2705 92.7053 75.5048 93.0334 79.2543L93.3614 83.1912L94.8143 82.91C95.658 82.7694 96.4079 82.5819 96.5016 82.4882C96.5953 82.3945 96.2204 77.3327 95.658 71.193C95.0956 65.0532 94.6737 59.7571 94.6737 59.4291C94.6737 59.1479 94.2988 58.9135 93.877 58.9604C93.4083 59.0073 92.0491 59.101 90.8306 59.1947ZM92.2835 70.2087C92.3303 71.5211 92.1429 71.9897 91.6273 71.9897C90.8306 71.9897 90.7837 71.0055 91.2524 66.1312L91.6273 62.8504L91.9085 65.6625C92.096 67.2092 92.2366 69.2714 92.2835 70.2087Z" fill="#214856"/>
<path d="M106.016 62.0068C104.001 65.4751 102.642 69.0371 102.642 70.818C102.642 73.2552 104.61 76.2079 106.25 76.2079C107.375 76.2079 109.531 74.8956 109.859 74.0051C110.141 73.3021 109.812 65.1001 109.391 63.0848C109.344 62.7099 109.25 61.585 109.25 60.6008C109.203 57.9293 108.078 58.398 106.016 62.0068Z" fill="#214856"/>
<path d="M0 77.567C0 77.8014 0.843627 79.0668 1.87473 80.3791C3.37451 82.2539 4.07753 82.7694 5.10863 82.7694C6.88962 82.7694 7.78011 81.6914 7.12396 80.2385C6.4678 78.7387 0 76.3016 0 77.567Z" fill="#214856"/>
<path d="M15.9355 77.4733C13.4984 78.3169 11.2487 79.6761 11.0144 80.4729C10.2645 82.8631 13.5921 83.613 15.5606 81.4571C16.9666 79.9573 18.2789 78.0357 18.2789 77.5202C18.2789 77.0984 17.0135 77.0984 15.9355 77.4733Z" fill="#214856"/>
<path d="M102.032 77.4265C101.704 77.8014 102.922 79.6293 104.797 81.504C105.641 82.3945 106.484 82.7694 107.234 82.6757C108.593 82.4882 109.484 81.3634 109.062 80.2385C108.593 79.02 102.782 76.6766 102.032 77.4265Z" fill="#214856"/>
<path d="M117.077 77.8014C113.984 78.8794 112.859 79.8636 113.046 81.2697C113.14 82.3008 113.468 82.582 114.64 82.6757C115.905 82.8163 116.421 82.4882 118.061 80.6135C120.92 77.3327 120.639 76.536 117.077 77.8014Z" fill="#214856"/>
</svg>
