<svg width="330" height="336" viewBox="0 0 330 336" fill="none" xmlns="http://www.w3.org/2000/svg">
<path opacity="0.8" d="M328.938 163.473L335.451 161.272L328.938 147.988H337.599L338.723 141.038L328.93 130.768H340.389L340.601 129.473L342.631 116.96L290.923 113.735L227.774 109.798L-21.7136 94.2458V107.436L-5.81409 120.152L-21.7136 120.795V130.252L-12.9012 134.324L-18.3815 145.279L-6.82897 155.176L-21.7136 162.821V175.656L332.076 181.988L334.157 169.187L328.938 163.456V163.473Z" fill="#00AAFF"/>
<path opacity="0.8" d="M309.259 79.9802L323.551 78.7188L323.23 60.3982L312.726 59.814L319.077 51.7459L305.893 45.1339L322.891 41.0109L322.655 27.897L-4.43555 46.607L-0.122375 88.5479L16.8174 98.6225L4.74051 102.373L16.2169 110.898L2.23717 111.542L3.09136 119.83L323.839 94.9313L323.67 85.4154L309.259 79.9802Z" fill="#00AAFF"/>
<path opacity="0.8" d="M272.766 35.144L279.548 31.4867L279.506 30.9787L271.573 28.6929L279.126 26.4409L278.914 23.8926L275.277 22.9021L278.517 19.9643L272.038 15.689L277.975 12.6243L277.755 9.96593L268.444 7.65468C268.444 7.65468 273.451 5.07253 277.189 3.14227L277.003 0.907227L59.7122 12.4041L60.3126 19.0754L68.8375 21.2258L60.5917 22.174L61.6235 33.6709H66.9346L62.3677 38.8183L72.7278 42.4079L62.6214 44.8376L63.2134 51.4581L280.14 38.2256L279.997 36.4901L272.791 35.1186L272.766 35.144Z" fill="#00AAFF"/>
<path opacity="0.8" d="M354.335 220.957L335.569 215.344L351.815 210.138L335.095 203.568L354.056 201.096L354.006 197.836L344.381 194.196L351.874 189.794L339.958 180.532L353.693 176.375L353.625 171.913L335.036 165.335C335.036 165.335 345.354 162.211 353.447 159.756L353.397 155.972L-24.4199 183.08L-22.72 189.658L1.85657 196.169L-7.20954 209.206L4.66436 215.759L-13.637 224.911L-10.8715 235.637L4.27533 235.841L-9.07857 242.596L-6.57525 252.299L354.42 227.197L354.327 220.957H354.335Z" fill="#00AAFF"/>
<path opacity="0.8" d="M315.847 281.836L336.812 278.738L334.402 262.339L320.744 262.711L329.666 250.334L304.844 242.554L330.436 235.315L328.66 223.192L16.3271 247.303L18.1032 253.848L36.2438 254.728L24.3784 264.312L41.2251 266.707L23.9132 275.199L24.4461 277.163L36.9119 278.755L32.2098 285.231L45.9865 291.648L31.4401 302.934L31.5839 303.45L56.0844 305.998C56.0844 305.998 50.5365 310.308 45.1915 314.448L338.935 293.249L337.988 286.772L315.847 281.828V281.836Z" fill="#00AAFF"/>
<mask id="mask0_151_9623" style="mask-type:alpha" maskUnits="userSpaceOnUse" x="102" y="30" width="171" height="278">
<path fill-rule="evenodd" clip-rule="evenodd" d="M233.207 144.22C246.375 127.63 251.916 105.288 246.29 83.1551C236.722 45.5318 198.499 22.7704 160.912 32.3198C131.481 39.7884 111.168 64.8578 108.33 93.4387L154.765 82.0235C158.686 77.009 164.229 73.2068 170.876 71.5147C186.83 67.4653 203.064 77.124 207.125 93.1017C210.574 106.667 193.663 122.294 181.837 128.622C181.552 128.626 181.266 128.63 180.981 128.636L174.013 180.432C190.969 182.473 218.313 195.855 220.469 213.587C222.999 234.435 208.174 253.383 187.348 255.925C178.675 256.983 170.334 255.016 163.367 250.859L102.953 258.683C119.492 291.33 155.16 311.753 193.558 307.078C242.602 301.112 277.529 256.466 271.569 207.371C268.335 180.733 253.727 158.256 233.207 144.22Z" fill="white"/>
</mask>
<g mask="url(#mask0_151_9623)">
<path d="M-56.5967 210.017L278.421 472.676" stroke="#F9F9F9" stroke-miterlimit="10"/>
<path d="M-48.2146 199.302L286.803 461.969" stroke="#F9F9F9" stroke-miterlimit="10"/>
<path d="M-39.8413 188.594L295.177 451.254" stroke="#F9F9F9" stroke-miterlimit="10"/>
<path d="M-31.459 177.879L303.559 440.547" stroke="#F9F9F9" stroke-miterlimit="10"/>
<path d="M-23.0769 167.171L311.941 429.831" stroke="#F9F9F9" stroke-miterlimit="10"/>
<path d="M-14.6946 156.456L320.323 419.123" stroke="#F9F9F9" stroke-miterlimit="10"/>
<path d="M-6.31274 145.748L328.705 408.407" stroke="#F9F9F9" stroke-miterlimit="10"/>
<path d="M2.06128 135.033L337.079 397.7" stroke="#F9F9F9" stroke-miterlimit="10"/>
<path d="M10.4438 124.325L345.462 386.984" stroke="#F9F9F9" stroke-miterlimit="10"/>
<path d="M18.825 113.618L353.843 376.277" stroke="#F9F9F9" stroke-miterlimit="10"/>
<path d="M27.2073 102.902L362.225 365.562" stroke="#F9F9F9" stroke-miterlimit="10"/>
<path d="M35.5894 92.1946L370.599 354.854" stroke="#F9F9F9" stroke-miterlimit="10"/>
<path d="M43.9639 81.4792L378.982 344.139" stroke="#F9F9F9" stroke-miterlimit="10"/>
<path d="M52.3455 70.7717L387.363 333.431" stroke="#F9F9F9" stroke-miterlimit="10"/>
<path d="M60.7278 60.0557L395.746 322.715" stroke="#F9F9F9" stroke-miterlimit="10"/>
<path d="M69.1096 49.3491L404.127 312.008" stroke="#F9F9F9" stroke-miterlimit="10"/>
<path d="M77.4832 38.6328L412.501 301.292" stroke="#F9F9F9" stroke-miterlimit="10"/>
<path d="M85.8657 27.9258L420.884 290.585" stroke="#F9F9F9" stroke-miterlimit="10"/>
<path d="M94.248 17.2102L429.266 279.87" stroke="#F9F9F9" stroke-miterlimit="10"/>
<path d="M102.63 6.50317L437.648 269.162" stroke="#F9F9F9" stroke-miterlimit="10"/>
<path d="M111.012 -4.21313L446.03 258.446" stroke="#F9F9F9" stroke-miterlimit="10"/>
<path d="M119.386 -14.9204L454.404 247.739" stroke="#F9F9F9" stroke-miterlimit="10"/>
<path d="M127.768 -25.6365L462.785 237.023" stroke="#F9F9F9" stroke-miterlimit="10"/>
<path d="M136.15 -36.3433L471.168 226.316" stroke="#F9F9F9" stroke-miterlimit="10"/>
<path d="M144.532 -47.0593L479.55 215.608" stroke="#F9F9F9" stroke-miterlimit="10"/>
<path d="M152.914 -57.7664L487.932 204.893" stroke="#F9F9F9" stroke-miterlimit="10"/>
<path d="M161.288 -68.4817L496.306 194.186" stroke="#F9F9F9" stroke-miterlimit="10"/>
<path d="M169.67 -79.1897L504.688 183.47" stroke="#F9F9F9" stroke-miterlimit="10"/>
<path d="M178.052 -89.9053L513.07 172.762" stroke="#F9F9F9" stroke-miterlimit="10"/>
<path d="M186.434 -100.612L521.452 162.047" stroke="#F9F9F9" stroke-miterlimit="10"/>
<path d="M194.816 -111.328L529.834 151.339" stroke="#F9F9F9" stroke-miterlimit="10"/>
</g>
<mask id="path-38-outside-1_151_9623" maskUnits="userSpaceOnUse" x="97.9529" y="24.9617" width="178" height="285" fill="black">
<rect fill="white" x="97.9529" y="24.9617" width="178" height="285"/>
<path fill-rule="evenodd" clip-rule="evenodd" d="M233.207 143.038C246.375 126.449 251.916 104.107 246.29 81.9737C236.722 44.3504 198.499 21.589 160.912 31.1384C131.481 38.607 111.168 63.6764 108.33 92.2573L154.765 80.8421C158.686 75.8276 164.229 72.0254 170.876 70.3334C186.83 66.2839 203.064 75.9426 207.125 91.9203C210.574 105.486 193.663 121.113 181.837 127.441C181.552 127.444 181.266 127.449 180.981 127.455L174.013 179.25C190.969 181.292 218.313 194.674 220.469 212.406C222.999 233.254 208.174 252.202 187.348 254.743C178.675 255.802 170.334 253.835 163.367 249.677L102.953 257.501C119.492 290.148 155.16 310.572 193.558 305.897C242.602 299.931 277.529 255.285 271.569 206.189C268.335 179.551 253.727 157.075 233.207 143.038Z"/>
</mask>
<path d="M246.29 81.9737L249.198 81.2347L249.198 81.2343L246.29 81.9737ZM233.207 143.038L230.857 141.173L228.855 143.696L231.513 145.515L233.207 143.038ZM160.912 31.1384L161.65 34.0462L161.651 34.046L160.912 31.1384ZM108.33 92.2573L105.345 91.9609L104.926 96.1836L109.046 95.1706L108.33 92.2573ZM154.765 80.8421L155.481 83.7554L156.489 83.5076L157.128 82.6901L154.765 80.8421ZM170.876 70.3334L170.138 67.4255L170.136 67.4261L170.876 70.3334ZM207.125 91.9203L204.217 92.6593L204.217 92.6596L207.125 91.9203ZM181.837 127.441L181.871 130.441L182.605 130.432L183.252 130.086L181.837 127.441ZM180.981 127.455L180.917 124.456L178.35 124.51L178.007 127.055L180.981 127.455ZM174.013 179.25L171.04 178.85L170.635 181.865L173.655 182.229L174.013 179.25ZM220.469 212.406L223.447 212.044L223.447 212.043L220.469 212.406ZM187.348 254.743L187.712 257.721H187.712L187.348 254.743ZM163.367 249.677L164.905 247.101L164.012 246.569L162.982 246.702L163.367 249.677ZM102.953 257.501L102.568 254.526L98.3587 255.071L100.277 258.857L102.953 257.501ZM193.558 305.897L193.196 302.919L193.195 302.919L193.558 305.897ZM271.569 206.189L274.547 205.828L274.547 205.828L271.569 206.189ZM243.383 82.7127C248.768 103.901 243.468 125.286 230.857 141.173L235.557 144.904C249.283 127.611 255.064 104.312 249.198 81.2347L243.383 82.7127ZM161.651 34.046C197.629 24.9053 234.222 46.6921 243.383 82.7131L249.198 81.2343C239.222 42.0087 199.369 18.2726 160.173 28.2307L161.651 34.046ZM111.316 92.5537C114.033 65.1876 133.484 41.1939 161.65 34.0462L160.174 28.2305C129.479 36.0201 108.303 62.1653 105.345 91.9609L111.316 92.5537ZM154.048 77.9289L107.614 89.3441L109.046 95.1706L155.481 83.7554L154.048 77.9289ZM170.136 67.4261C162.822 69.2879 156.716 73.4761 152.401 78.9941L157.128 82.6901C160.655 78.1791 165.636 74.7629 171.616 73.2406L170.136 67.4261ZM210.033 91.1814C205.564 73.5999 187.7 62.9682 170.138 67.4255L171.614 73.2412C185.961 69.5997 200.564 78.2853 204.217 92.6593L210.033 91.1814ZM183.252 130.086C189.476 126.756 196.976 121.027 202.523 114.304C207.975 107.697 212.121 99.3951 210.032 91.181L204.217 92.6596C205.578 98.0111 202.994 104.306 197.895 110.485C192.892 116.549 186.024 121.798 180.421 124.796L183.252 130.086ZM181.802 124.441C181.507 124.445 181.212 124.449 180.917 124.456L181.044 130.454C181.32 130.448 181.596 130.444 181.871 130.441L181.802 124.441ZM178.007 127.055L171.04 178.85L176.987 179.65L183.954 127.855L178.007 127.055ZM173.655 182.229C181.656 183.192 192.311 186.882 201.191 192.482C210.192 198.158 216.58 205.28 217.491 212.768L223.447 212.043C222.201 201.799 213.84 193.365 204.391 187.406C194.822 181.372 183.327 177.35 174.372 176.272L173.655 182.229ZM217.491 212.767C219.822 231.973 206.165 249.425 186.985 251.765L187.712 257.721C210.184 254.979 226.177 234.534 223.447 212.044L217.491 212.767ZM186.985 251.765C178.997 252.74 171.322 250.931 164.905 247.101L161.83 252.253C169.347 256.739 178.353 258.863 187.712 257.721L186.985 251.765ZM162.982 246.702L102.568 254.526L103.338 260.477L163.753 252.652L162.982 246.702ZM100.277 258.857C117.368 292.593 154.228 313.707 193.92 308.875L193.195 302.919C156.092 307.436 121.617 287.704 105.629 256.146L100.277 258.857ZM193.92 308.875C244.612 302.708 280.706 256.565 274.547 205.828L268.591 206.551C274.351 254.005 240.592 297.153 193.196 302.919L193.92 308.875ZM274.547 205.828C271.204 178.298 256.103 155.066 234.901 140.562L231.513 145.515C251.351 159.084 265.465 180.805 268.591 206.551L274.547 205.828Z" fill="white" mask="url(#path-38-outside-1_151_9623)"/>
<path d="M245.488 236.557L250.83 235.912L250.172 230.578" stroke="#F9F9F9" stroke-miterlimit="10"/>
<path d="M249.072 221.696L245.247 190.592" stroke="#F9F9F9" stroke-miterlimit="10"/>
<path d="M244.696 186.145L244.038 180.811L238.709 181.456" stroke="#F9F9F9" stroke-miterlimit="10"/>
<path d="M228.08 182.732L63.3 202.51" stroke="#F9F9F9" stroke-miterlimit="10"/>
<path d="M57.985 203.141L52.6565 203.786L53.3142 209.12" stroke="#F9F9F9" stroke-miterlimit="10"/>
<path d="M54.5222 218.902L56.3207 233.56" stroke="#F9F9F9" stroke-miterlimit="10"/>
<path d="M56.9243 238.451L57.582 243.785L57.4746 243.799L58.1323 249.133" stroke="#F9F9F9" stroke-miterlimit="10"/>
<path d="M59.0994 256.952L60.5489 268.682" stroke="#F9F9F9" stroke-miterlimit="10"/>
<path d="M61.0315 272.592L61.6758 277.926L65.2728 273.935" stroke="#F9F9F9" stroke-miterlimit="10"/>
<path d="M72.7356 265.658L81.2048 256.267L239.972 237.215" stroke="#F9F9F9" stroke-miterlimit="10"/>
<path d="M250.006 228.782L36.6213 254.678L29.8433 199.577L221.225 176.615L250.006 228.782Z" fill="#008100"/>
<path d="M60.9546 200.315L37.5696 225.523L8.69616 198.569L60.9546 200.315Z" fill="#008100"/>
<path d="M58.4289 234.006C56.4962 233.254 54.9661 232.045 53.8655 230.392C52.7649 228.74 52.2146 226.764 52.2146 224.494C52.2146 222.223 52.7649 220.114 53.8655 218.179C54.9661 216.244 56.4828 214.659 58.4289 213.409C60.3751 212.16 62.5494 211.394 64.9654 211.085C67.18 210.803 69.1664 210.937 70.9112 211.501C72.6561 212.052 74.0922 212.993 75.2196 214.309L70.3475 219.213C68.9382 217.628 67.2605 216.956 65.3546 217.198C63.744 217.4 62.442 218.071 61.4623 219.213C60.4825 220.356 59.9859 221.793 59.9859 223.513C59.9859 225.233 60.469 226.536 61.4623 227.436C62.442 228.336 63.7306 228.686 65.3546 228.484C67.2739 228.242 68.9382 227.154 70.3475 225.206L75.2196 228.887C74.0922 230.486 72.6427 231.789 70.9112 232.784C69.1664 233.778 67.1934 234.41 64.9654 234.692C62.5494 235.001 60.3751 234.772 58.4289 234.02V234.006Z" fill="#FEFEFE"/>
<path d="M93.5002 218.972L100.265 229.734L91.5809 230.822L87.2054 223.217L85.0445 223.486V231.642L77.3403 232.609V210.037L85.0445 209.069V217.48L87.3933 217.185L92.2654 208.156L100.305 207.148L93.5137 218.972H93.5002Z" fill="#FEFEFE"/>
<path d="M101.862 206.96L109.445 206.006V217.749L117.324 205.025L124.572 204.112V226.684L116.988 227.638V215.935L109.15 228.632L101.862 229.546V206.973V206.96Z" fill="#FEFEFE"/>
<path d="M154.261 217.05V227.369L147.201 228.256V223.836L134.195 225.475V229.895L127.135 230.782V220.463L127.793 220.383C129.122 220.221 130.061 219.267 130.598 217.548C131.148 215.828 131.497 213.342 131.645 210.091L131.9 203.185L151.241 200.753V217.427L154.247 217.05H154.261ZM137.832 215.492C137.577 217.037 137.161 218.3 136.624 219.267L143.684 218.381V207.605L138.423 208.263L138.356 209.889C138.262 212.066 138.101 213.933 137.832 215.492Z" fill="#FEFEFE"/>
<path d="M172.81 209.002L179.574 219.765L170.89 220.853L166.515 213.248L164.354 213.517V221.672L156.65 222.64V200.067L164.354 199.1V207.511L166.703 207.215L171.575 198.186L179.615 197.179L172.823 209.002H172.81Z" fill="#FEFEFE"/>
<path d="M196.661 213.678L187.977 214.766L186.447 218.891L178.608 219.872L188.607 196.036L196.191 195.083L206.19 216.392L198.217 217.4L196.687 213.664L196.661 213.678ZM194.54 208.465L192.325 203.063L190.097 209.016L194.54 208.451V208.465Z" fill="#FEFEFE"/>
<path d="M330.233 277.998C330.275 267.873 322.114 259.627 311.999 259.593C305.462 259.568 299.719 262.971 296.455 268.118L287.803 268.533L294.121 273.638C293.799 274.993 293.613 276.398 293.613 277.854C293.571 287.98 301.732 296.226 311.847 296.259C321.962 296.302 330.191 288.132 330.233 278.007V277.998Z" fill="#15EC15"/>
<g filter="url(#filter0_f_151_9623)">
<path d="M59.9357 328.429C52.9103 336.538 40.6506 337.405 32.5504 330.372C24.4503 323.339 23.5845 311.067 30.61 302.958C37.6354 294.849 49.8951 293.983 57.9953 301.015C66.0954 308.048 66.9612 320.321 59.9357 328.429Z" fill="#4FB6B0"/>
<path d="M51.8159 311.954L53.9952 312.89L39.7652 321.955L37.5859 321.019L51.8159 311.954ZM39.3373 313.657C39.0189 312.761 39.0885 311.774 39.5463 310.708C40.004 309.643 40.6708 308.905 41.5365 308.517C42.4022 308.128 43.3078 308.138 44.2432 308.537C45.1786 308.935 45.8055 309.583 46.114 310.479C46.4225 311.376 46.3528 312.352 45.8951 313.428C45.4373 314.504 44.7805 315.231 43.9148 315.619C43.059 316.008 42.1535 315.998 41.2181 315.6C40.2827 315.201 39.6558 314.554 39.3373 313.657ZM43.059 314.006C43.4471 313.767 43.7755 313.308 44.0641 312.641C44.3527 311.974 44.4522 311.416 44.3527 310.967C44.2631 310.519 44.0044 310.21 43.5964 310.041C43.1983 309.872 42.8003 309.902 42.4022 310.141C42.0042 310.38 41.6758 310.838 41.3872 311.495C41.1086 312.153 41.0091 312.711 41.1086 313.159C41.1982 313.617 41.4569 313.926 41.8549 314.095C42.2729 314.275 42.6709 314.245 43.0491 314.006H43.059ZM45.8652 324.236C45.507 323.738 45.308 323.17 45.2681 322.513C45.2283 321.855 45.3577 321.178 45.6662 320.471C45.9647 319.763 46.3727 319.196 46.8703 318.777C47.3678 318.359 47.9151 318.1 48.5221 318.02C49.1292 317.941 49.7362 318.03 50.3432 318.289C51.2786 318.688 51.9155 319.345 52.2239 320.232C52.5424 321.128 52.4727 322.114 52.015 323.18C51.5572 324.256 50.8905 324.983 50.0248 325.372C49.159 325.76 48.2535 325.75 47.3181 325.352C46.7111 325.093 46.2235 324.714 45.8652 324.216V324.236ZM49.159 323.768C49.5471 323.519 49.8854 323.071 50.1641 322.413C50.4427 321.756 50.5422 321.198 50.4527 320.75C50.3631 320.301 50.1143 319.983 49.6964 319.803C49.2983 319.634 48.9003 319.664 48.5122 319.903C48.1241 320.142 47.7858 320.59 47.4972 321.268C47.2086 321.935 47.119 322.503 47.2086 322.941C47.3081 323.389 47.5569 323.698 47.9549 323.868C48.3729 324.047 48.7709 324.017 49.159 323.768Z" fill="#FEF7E5"/>
</g>
<g filter="url(#filter1_f_151_9623)">
<path d="M211.874 72.9478C207.245 78.2909 199.167 78.862 193.829 74.2278C188.492 69.5937 187.921 61.5069 192.55 56.1638C197.18 50.8208 205.258 50.2497 210.596 54.8839C215.933 59.518 216.503 67.6048 211.874 72.9478Z" fill="#4FB6B0"/>
<path d="M206.524 62.0907L207.96 62.7077L198.583 68.6809L197.147 68.0639L206.524 62.0907ZM198.301 63.2131C198.091 62.6224 198.137 61.9726 198.439 61.2702C198.741 60.5679 199.18 60.0821 199.75 59.8262C200.321 59.5702 200.918 59.5767 201.534 59.8393C202.15 60.1018 202.563 60.5285 202.767 61.1192C202.97 61.71 202.924 62.3533 202.622 63.0622C202.321 63.7711 201.888 64.2502 201.318 64.5062C200.754 64.7622 200.157 64.7557 199.541 64.4931C198.924 64.2305 198.511 63.8039 198.301 63.2131ZM200.754 63.4429C201.009 63.2853 201.226 62.9834 201.416 62.5436C201.606 62.1038 201.672 61.7363 201.606 61.4409C201.547 61.1455 201.377 60.942 201.108 60.8304C200.845 60.7188 200.583 60.7385 200.321 60.8961C200.059 61.0536 199.842 61.3555 199.652 61.7888C199.468 62.222 199.403 62.5896 199.468 62.8849C199.527 63.1869 199.698 63.3904 199.96 63.502C200.236 63.6201 200.498 63.6004 200.747 63.4429H200.754ZM202.603 70.1841C202.367 69.8559 202.236 69.4817 202.209 69.0485C202.183 68.6153 202.268 68.1689 202.472 67.7029C202.668 67.2368 202.937 66.8627 203.265 66.587C203.593 66.3113 203.953 66.1407 204.353 66.0882C204.753 66.0356 205.153 66.0947 205.553 66.2654C206.17 66.5279 206.589 66.9612 206.793 67.5453C207.002 68.1361 206.957 68.7859 206.655 69.4883C206.353 70.1972 205.914 70.6763 205.344 70.9323C204.773 71.1883 204.176 71.1818 203.56 70.9192C203.16 70.7486 202.839 70.4991 202.603 70.1709V70.1841ZM204.773 69.8756C205.029 69.7115 205.252 69.4161 205.435 68.9828C205.619 68.5496 205.685 68.1821 205.626 67.8867C205.566 67.5913 205.403 67.3812 205.127 67.2631C204.865 67.1515 204.603 67.1712 204.347 67.3287C204.091 67.4863 203.868 67.7816 203.678 68.228C203.488 68.6678 203.429 69.0419 203.488 69.3307C203.553 69.6261 203.717 69.8296 203.98 69.9412C204.255 70.0593 204.517 70.0397 204.773 69.8756Z" fill="#FEF7E5"/>
</g>
<path d="M329.717 67.224C319.8 78.671 302.493 79.8944 291.058 69.9662C279.623 60.038 278.4 42.7128 288.318 31.2658C298.236 19.8188 315.543 18.5953 326.978 28.5235C338.413 38.4518 339.635 55.777 329.717 67.224Z" fill="#4FB6B0"/>
<path d="M318.255 43.9648L321.332 45.2867L301.243 58.0837L298.167 56.7618L318.255 43.9648ZM300.639 46.3695C300.189 45.1038 300.288 43.7116 300.934 42.2069C301.58 40.7022 302.521 39.6616 303.744 39.1132C304.966 38.5647 306.244 38.5788 307.565 39.1413C308.885 39.7038 309.77 40.6178 310.206 41.8835C310.641 43.1491 310.543 44.5273 309.897 46.046C309.25 47.5648 308.323 48.5914 307.101 49.1398C305.893 49.6883 304.615 49.6742 303.294 49.1117C301.974 48.5492 301.088 47.6351 300.639 46.3695ZM305.893 46.8617C306.441 46.5242 306.904 45.8773 307.312 44.9351C307.719 43.9929 307.86 43.2054 307.719 42.5726C307.593 41.9397 307.227 41.5038 306.651 41.2647C306.09 41.0257 305.528 41.0678 304.966 41.4053C304.404 41.7429 303.94 42.3897 303.533 43.3179C303.139 44.246 302.999 45.0335 303.139 45.6663C303.266 46.3132 303.631 46.7492 304.193 46.9882C304.783 47.2414 305.345 47.1992 305.879 46.8617H305.893ZM309.854 61.304C309.349 60.6009 309.068 59.7993 309.011 58.8712C308.955 57.943 309.138 56.9868 309.573 55.9883C309.995 54.9899 310.571 54.1883 311.273 53.5977C311.976 53.007 312.748 52.6414 313.605 52.5289C314.462 52.4164 315.319 52.543 316.176 52.9086C317.496 53.4711 318.396 54.3992 318.831 55.6508C319.281 56.9165 319.182 58.3087 318.536 59.8134C317.89 61.3321 316.949 62.3587 315.726 62.9071C314.504 63.4556 313.226 63.4415 311.905 62.879C311.048 62.5134 310.36 61.979 309.854 61.2759V61.304ZM314.504 60.6431C315.052 60.2915 315.53 59.6587 315.923 58.7305C316.316 57.8024 316.457 57.0149 316.33 56.3821C316.204 55.7493 315.853 55.2992 315.263 55.0461C314.701 54.8071 314.139 54.8493 313.591 55.1868C313.043 55.5243 312.566 56.1571 312.158 57.1133C311.751 58.0555 311.624 58.8571 311.751 59.4758C311.891 60.1087 312.243 60.5446 312.804 60.7837C313.394 61.0368 313.956 60.9946 314.504 60.6431Z" fill="#FEF7E5"/>
<path d="M305.647 276.775C305.149 276.097 304.962 275.242 305.081 274.218C305.199 273.194 305.571 272.398 306.214 271.856C306.848 271.306 307.618 271.086 308.514 271.187C309.411 271.289 310.104 271.678 310.595 272.355C311.085 273.033 311.272 273.888 311.153 274.912C311.035 275.937 310.663 276.732 310.028 277.283C309.402 277.833 308.633 278.053 307.736 277.951C306.84 277.85 306.138 277.46 305.647 276.783V276.775ZM315.796 272.152L317.877 272.389L308.117 283.708L306.037 283.471L315.796 272.152ZM308.895 276.123C309.157 275.818 309.326 275.352 309.402 274.709C309.479 274.066 309.419 273.566 309.225 273.219C309.039 272.863 308.743 272.669 308.345 272.618C307.956 272.576 307.635 272.703 307.364 273.007C307.094 273.312 306.925 273.786 306.848 274.413C306.781 275.048 306.84 275.539 307.034 275.894C307.229 276.25 307.517 276.453 307.906 276.495C308.303 276.538 308.633 276.411 308.895 276.114V276.123ZM313.876 284.081C313.445 283.751 313.132 283.319 312.938 282.777C312.735 282.235 312.675 281.626 312.752 280.948C312.828 280.271 313.022 279.687 313.344 279.204C313.656 278.722 314.062 278.366 314.553 278.146C315.043 277.926 315.585 277.85 316.168 277.909C317.065 278.011 317.767 278.4 318.257 279.077C318.756 279.755 318.942 280.61 318.824 281.634C318.705 282.659 318.333 283.454 317.699 283.996C317.065 284.547 316.295 284.767 315.399 284.665C314.815 284.597 314.308 284.403 313.876 284.072V284.081ZM316.557 282.836C316.819 282.532 316.989 282.058 317.065 281.431C317.141 280.805 317.073 280.305 316.887 279.949C316.693 279.594 316.405 279.391 316.008 279.348C315.619 279.306 315.297 279.433 315.026 279.738C314.756 280.043 314.587 280.508 314.511 281.152C314.435 281.795 314.502 282.295 314.697 282.65C314.891 283.006 315.187 283.2 315.568 283.243C315.965 283.285 316.295 283.158 316.557 282.853V282.836Z" fill="white"/>
<path d="M235.778 72.9642C244.558 107.51 225.536 142.578 192.767 154.487L172.662 117.479C184.236 111.304 200.836 95.9892 197.456 82.6965C193.483 67.063 177.599 57.6124 161.988 61.5746C155.484 63.2302 150.061 66.9505 146.224 71.857L100.79 83.0263C103.566 55.0611 123.442 30.5316 152.239 23.2239C189.016 13.8802 226.415 36.1513 235.778 72.9642Z" fill="url(#paint0_linear_151_9623)"/>
<path d="M260.512 194.504C255.039 149.425 216.279 116.528 171.875 117.465L165.058 168.145C181.648 170.142 208.403 183.236 210.512 200.586C212.988 220.985 198.483 239.525 178.105 242.012C169.619 243.047 161.458 241.123 154.641 237.055L95.5281 244.71C111.711 276.654 146.611 296.637 184.181 292.063C232.169 286.226 266.343 242.542 260.512 194.504Z" fill="white"/>
<path d="M218.545 129.953C214.808 126.725 212.966 121.807 212.966 115.3C212.966 110.945 213.836 107.051 215.525 103.721C217.214 100.34 219.619 97.6755 222.639 95.6261C225.659 93.5767 229.088 92.347 232.875 91.8346C236.663 91.3223 240.092 91.7322 243.111 93.0131C246.131 94.294 248.536 96.3945 250.225 99.3148C251.914 102.235 252.784 105.924 252.784 110.279C252.784 116.786 250.942 122.166 247.206 126.316C243.47 130.517 238.71 132.976 232.824 133.744C226.938 134.513 222.178 133.232 218.442 130.004L218.545 129.953ZM276.993 87.2749L295.111 84.9692L243.828 166.637L225.71 168.943L276.993 87.2749ZM236.304 119.45C237.174 117.862 237.635 115.454 237.635 112.123C237.635 108.793 237.174 106.488 236.304 105.156C235.434 103.824 234.308 103.209 232.926 103.362C231.545 103.516 230.419 104.438 229.549 105.975C228.678 107.564 228.218 109.972 228.218 113.302C228.218 116.632 228.678 118.938 229.549 120.27C230.419 121.602 231.545 122.217 232.926 122.063C234.308 121.909 235.434 120.987 236.304 119.45ZM273.564 158.337C269.828 155.109 267.985 150.191 267.985 143.684C267.985 139.329 268.855 135.435 270.544 132.105C272.233 128.724 274.639 126.008 277.658 124.01C280.678 122.012 284.107 120.731 287.895 120.219C291.682 119.706 295.111 120.116 298.131 121.397C301.15 122.678 303.556 124.727 305.245 127.699C306.934 130.619 307.804 134.257 307.804 138.663C307.804 145.17 305.961 150.549 302.225 154.751C298.489 158.952 293.729 161.411 287.843 162.18C281.958 162.948 277.198 161.667 273.462 158.439L273.564 158.337ZM291.324 147.885C292.194 146.297 292.654 143.889 292.654 140.559C292.654 137.228 292.194 134.923 291.324 133.591C290.454 132.259 289.328 131.644 287.946 131.798C286.564 131.951 285.438 132.873 284.568 134.41C283.698 135.948 283.237 138.407 283.237 141.737C283.237 145.067 283.698 147.373 284.568 148.705C285.438 150.037 286.564 150.652 287.946 150.498C289.328 150.345 290.454 149.473 291.324 147.885Z" fill="#214856"/>
<path d="M-6.49322 89.0503C-6.43351 103.216 4.83108 114.651 18.6829 114.592C27.6289 114.552 35.4604 109.72 39.8588 102.488L54.6361 105.815L42.9834 94.7483C43.4113 92.8556 43.6402 90.8732 43.6302 88.8511C43.5705 74.6858 32.296 63.25 18.4541 63.3098C4.61214 63.3696 -6.56289 74.895 -6.50318 89.0603L-6.49322 89.0503Z" fill="#15EC15"/>
<path d="M5.57788 90.0462C4.45341 89.1497 3.77675 87.8148 3.53793 86.0317C3.38866 84.8662 3.47822 83.8203 3.81656 82.8938C4.15489 81.9674 4.69225 81.2203 5.42862 80.6426C6.165 80.0747 7.05065 79.7161 8.07561 79.5866C9.65782 79.3774 11.0012 79.7261 12.1257 80.6326C13.2501 81.5391 13.9268 82.8739 14.1557 84.6272C14.3945 86.4003 14.086 87.8746 13.2302 89.0301C12.3844 90.1857 11.1604 90.873 9.58815 91.0822C8.02584 91.2914 6.69241 90.9427 5.56794 90.0462H5.57788ZM10.4041 87.3865C10.6529 86.8685 10.7126 86.1114 10.5833 85.1053C10.4539 84.0992 10.1952 83.382 9.81704 82.9437C9.4389 82.5153 8.98114 82.336 8.45374 82.4057C7.93628 82.4755 7.55814 82.7743 7.28946 83.3023C7.03074 83.8302 6.96108 84.5873 7.09045 85.5735C7.21981 86.5597 7.47854 87.2769 7.86663 87.7152C8.25472 88.1535 8.70252 88.3428 9.21997 88.273C9.75733 88.2033 10.1454 87.9144 10.3942 87.3964L10.4041 87.3865ZM20.3651 78.2319L24.6242 77.6641L13.2203 100.277L8.96125 100.844L20.3651 78.2319ZM21.4697 97.8859C20.3552 96.9894 19.6885 95.6545 19.4496 93.8714C19.2208 92.1182 19.5293 90.6538 20.3751 89.4883C21.2209 88.3229 22.425 87.6355 23.9873 87.4263C25.5695 87.2171 26.9129 87.5658 28.0374 88.4723C29.1619 89.3788 29.8385 90.7136 30.0674 92.4668C30.3062 94.24 29.9978 95.7143 29.142 96.8698C28.2862 98.0253 27.0722 98.7127 25.4999 98.9219C23.9177 99.1311 22.5743 98.7824 21.4598 97.8859H21.4697ZM26.3159 95.2262C26.5647 94.7082 26.6244 93.9511 26.495 92.945C26.3656 91.9389 26.1069 91.2216 25.7288 90.7833C25.3506 90.355 24.8929 90.1657 24.3655 90.2454C23.8281 90.3152 23.44 90.604 23.1913 91.122C22.9425 91.64 22.8828 92.3971 23.0121 93.4032C23.1415 94.4093 23.4002 95.1266 23.7784 95.5649C24.1565 95.9932 24.6142 96.1825 25.1417 96.1028C25.679 96.033 26.0671 95.7342 26.3258 95.2262H26.3159Z" fill="white"/>
<defs>
<filter id="filter0_f_151_9623" x="21.8594" y="292.26" width="46.8269" height="46.8677" filterUnits="userSpaceOnUse" color-interpolation-filters="sRGB">
<feFlood flood-opacity="0" result="BackgroundImageFix"/>
<feBlend mode="normal" in="SourceGraphic" in2="BackgroundImageFix" result="shape"/>
<feGaussianBlur stdDeviation="2" result="effect1_foregroundBlur_151_9623"/>
</filter>
<filter id="filter1_f_151_9623" x="185.42" y="47.7502" width="33.5842" height="33.6111" filterUnits="userSpaceOnUse" color-interpolation-filters="sRGB">
<feFlood flood-opacity="0" result="BackgroundImageFix"/>
<feBlend mode="normal" in="SourceGraphic" in2="BackgroundImageFix" result="shape"/>
<feGaussianBlur stdDeviation="2" result="effect1_foregroundBlur_151_9623"/>
</filter>
<linearGradient id="paint0_linear_151_9623" x1="115.479" y1="119.61" x2="230.618" y2="59.05" gradientUnits="userSpaceOnUse">
<stop stop-color="#E8E8E8"/>
<stop offset="1" stop-color="white"/>
</linearGradient>
</defs>
</svg>
